<?xml version="1.0" encoding="UTF-8"?><svg id="uuid-8d4f3ad5-16cf-429c-b506-6b56c3bbe007" xmlns="http://www.w3.org/2000/svg" width="13.648" height="15" viewBox="0 0 13.648 15"><g id="uuid-62dc406e-2d3e-4b87-b2b7-4640a84061c7"><g><path d="M10.291,.002v-.002H3.04c-.434,0-.789,.355-.789,.789v3.517h1.053V1.053h5.935v3.354h3.354V13.947H3.304v-3.256h-1.053v3.519c0,.434,.355,.789,.789,.789H12.856c.434,0,.789-.355,.789-.789V3.354s.003-.002,.003-.002L10.291,.002Zm0,3.352V1.491l1.863,1.863h-1.863Z" fill="#b4272d"/><path d="M8.356,5.098H.263c-.145,0-.263,.118-.263,.263v4.277c0,.145,.118,.263,.263,.263H8.356c.145,0,.263-.118,.263-.263V5.361c0-.145-.118-.263-.263-.263Z" fill="#b4272d"/></g></g></svg>