<?xml version="1.0" encoding="UTF-8"?>
<svg id="_レイヤー_2" data-name="レイヤー 2" xmlns="http://www.w3.org/2000/svg" viewBox="0 0 291.18 23.52">
  <defs>
    <style>
      .cls-1 {
        stroke-width: 0px;
      }
    </style>
  </defs>
  <g id="_レイヤー_1-2" data-name="レイヤー 1">
    <g>
      <path class="cls-1" d="m2.61,9.12c0-4.68,0-5.52-.06-6.48-.06-1.02-.3-1.5-1.29-1.71-.24-.06-.75-.09-1.02-.09-.12,0-.24-.06-.24-.18,0-.18.15-.24.48-.24,1.35,0,3.15.09,3.39.09.66,0,2.4-.09,3.78-.09,3.75,0,5.1,1.26,5.58,1.71.66.63,1.5,1.98,1.5,3.57,0,4.26-3.12,7.14-7.38,7.14-.15,0-.48,0-.63-.03-.15,0-.33-.06-.33-.21,0-.24.18-.27.81-.27,2.91,0,5.19-2.13,5.19-4.89,0-.99-.09-3-1.68-4.62-1.59-1.62-3.42-1.5-4.11-1.5-.51,0-1.02.06-1.29.18-.18.06-.24.27-.24.57v12.33c0,2.88,0,5.25.15,6.51.09.87.27,1.53,1.17,1.65.42.06,1.08.12,1.35.12.18,0,.24.09.24.18,0,.15-.15.24-.48.24-1.65,0-3.54-.09-3.69-.09-.09,0-1.98.09-2.88.09-.33,0-.48-.06-.48-.24,0-.09.06-.18.24-.18.27,0,.63-.06.9-.12.6-.12.75-.78.87-1.65.15-1.26.15-3.63.15-6.51v-5.28Z"/>
      <path class="cls-1" d="m23.37,9.12c0-4.68,0-5.52-.06-6.48-.06-1.02-.3-1.5-1.29-1.71-.24-.06-.75-.09-1.02-.09-.12,0-.24-.06-.24-.18,0-.18.15-.24.48-.24,1.35,0,3.24.09,3.39.09.33,0,2.61-.09,3.54-.09,1.89,0,3.9.18,5.49,1.32.75.54,2.07,2.01,2.07,4.08,0,2.22-.93,4.44-3.63,6.93,2.46,3.15,4.5,5.82,6.24,7.68,1.62,1.71,2.91,2.04,3.66,2.16.57.09.99.09,1.17.09.15,0,.27.09.27.18,0,.18-.18.24-.72.24h-2.13c-1.68,0-2.43-.15-3.21-.57-1.29-.69-2.34-2.16-4.05-4.41-1.26-1.65-2.67-3.66-3.27-4.44-.12-.12-.21-.18-.39-.18l-3.69-.06c-.15,0-.21.09-.21.24v.72c0,2.88,0,5.25.15,6.51.09.87.27,1.53,1.17,1.65.42.06,1.08.12,1.35.12.18,0,.24.09.24.18,0,.15-.15.24-.48.24-1.65,0-3.54-.09-3.69-.09-.03,0-1.92.09-2.82.09-.33,0-.48-.06-.48-.24,0-.09.06-.18.24-.18.27,0,.63-.06.9-.12.6-.12.75-.78.87-1.65.15-1.26.15-3.63.15-6.51v-5.28Zm2.4,2.61c0,.15.06.27.21.36.45.27,1.83.48,3.15.48.72,0,1.56-.09,2.25-.57,1.05-.72,1.83-2.34,1.83-4.62,0-3.75-1.98-6-5.19-6-.9,0-1.71.09-2.01.18-.15.06-.24.18-.24.36v9.81Z"/>
      <path class="cls-1" d="m50.01,14.4c0,2.88,0,5.25.15,6.51.09.87.27,1.53,1.17,1.65.42.06,1.08.12,1.35.12.18,0,.24.09.24.18,0,.15-.15.24-.48.24-1.65,0-3.54-.09-3.69-.09s-2.04.09-2.94.09c-.33,0-.48-.06-.48-.24,0-.09.06-.18.24-.18.27,0,.63-.06.9-.12.6-.12.75-.78.87-1.65.15-1.26.15-3.63.15-6.51v-5.28c0-4.68,0-5.52-.06-6.48-.06-1.02-.36-1.53-1.02-1.68-.33-.09-.72-.12-.93-.12-.12,0-.24-.06-.24-.18,0-.18.15-.24.48-.24.99,0,2.88.09,3.03.09s2.04-.09,2.94-.09c.33,0,.48.06.48.24,0,.12-.12.18-.24.18-.21,0-.39.03-.75.09-.81.15-1.05.66-1.11,1.71-.06.96-.06,1.8-.06,6.48v5.28Z"/>
      <path class="cls-1" d="m68.7,19.44c1.74-4.02,5.76-14.49,6.42-16.65.15-.45.27-.87.27-1.14,0-.24-.09-.54-.39-.69-.36-.12-.81-.12-1.14-.12-.18,0-.33-.03-.33-.18,0-.18.18-.24.66-.24,1.2,0,2.58.09,2.94.09.18,0,1.47-.09,2.34-.09.33,0,.51.06.51.21s-.12.21-.36.21c-.21,0-.87,0-1.44.36-.39.27-.84.78-1.65,2.82-.33.84-1.83,4.44-3.36,8.13-1.83,4.38-3.18,7.62-3.87,9.09-.84,1.8-.96,2.28-1.26,2.28-.36,0-.51-.42-1.08-1.86l-7.35-18.39c-.66-1.68-1.11-2.01-2.16-2.31-.45-.12-.96-.12-1.14-.12s-.24-.09-.24-.21c0-.18.3-.21.78-.21,1.44,0,3.15.09,3.51.09.3,0,1.65-.09,2.79-.09.54,0,.81.06.81.21s-.09.21-.3.21c-.33,0-.87.03-1.14.15-.33.15-.39.39-.39.6,0,.39.36,1.32.81,2.49l5.76,15.36Z"/>
      <path class="cls-1" d="m90.27,1.17c.36-.99.48-1.17.66-1.17s.3.15.66,1.08c.45,1.14,5.16,13.53,6.99,18.09,1.08,2.67,1.95,3.15,2.58,3.33.45.15.9.18,1.2.18.18,0,.3.03.3.18,0,.18-.27.24-.6.24-.45,0-2.64,0-4.71-.06-.57-.03-.9-.03-.9-.21,0-.12.09-.18.21-.21.18-.06.36-.33.18-.81l-2.79-7.38c-.06-.12-.12-.18-.27-.18h-6.45c-.15,0-.24.09-.3.24l-1.8,5.31c-.27.75-.42,1.47-.42,2.01,0,.6.63.87,1.14.87h.3c.21,0,.3.06.3.18,0,.18-.18.24-.45.24-.72,0-2.01-.09-2.34-.09s-1.98.09-3.39.09c-.39,0-.57-.06-.57-.24,0-.12.12-.18.27-.18.21,0,.63-.03.87-.06,1.38-.18,1.98-1.32,2.52-2.82l6.81-18.63Zm3.12,12c.15,0,.15-.09.12-.21l-2.85-8.1c-.15-.45-.3-.45-.45,0l-2.64,8.1c-.06.15,0,.21.09.21h5.73Z"/>
      <path class="cls-1" d="m108.66,20.28c-2.91-2.61-3.63-6.03-3.63-8.88,0-2.01.69-5.52,3.36-8.19,1.8-1.8,4.53-3.21,9.15-3.21,1.2,0,2.88.09,4.35.36,1.14.21,2.1.39,3.06.45.33.03.39.15.39.33,0,.24-.09.6-.15,1.68-.06.99-.06,2.64-.09,3.09-.03.45-.09.63-.27.63-.21,0-.24-.21-.24-.63,0-1.17-.48-2.4-1.26-3.06-1.05-.9-3.36-1.71-6-1.71-3.99,0-5.85,1.17-6.9,2.19-2.19,2.1-2.7,4.77-2.7,7.83,0,5.73,4.41,10.98,10.83,10.98,2.25,0,4.02-.27,5.22-1.5.63-.66,1.02-1.98,1.11-2.52.06-.33.12-.45.3-.45.15,0,.21.21.21.45,0,.21-.36,2.82-.66,3.84-.18.57-.24.63-.78.87-1.2.48-3.48.69-5.4.69-4.5,0-7.53-1.11-9.9-3.24Z"/>
      <path class="cls-1" d="m137.43,15.33c0-1.62-.3-2.28-.69-3.15-.21-.48-4.23-7.08-5.28-8.64-.75-1.11-1.5-1.86-2.04-2.22-.45-.3-1.02-.48-1.29-.48-.15,0-.3-.06-.3-.21,0-.12.12-.21.39-.21.57,0,2.82.09,2.97.09.21,0,1.35-.09,2.52-.09.33,0,.39.09.39.21s-.18.15-.45.27c-.24.12-.39.3-.39.54,0,.36.15.72.39,1.17.48.87,4.98,8.61,5.52,9.48.57-1.26,4.38-7.83,4.98-8.82.39-.63.51-1.14.51-1.53,0-.42-.12-.75-.48-.84-.27-.09-.45-.15-.45-.3,0-.12.18-.18.48-.18.78,0,1.74.09,1.98.09.18,0,2.34-.09,2.91-.09.21,0,.39.06.39.18,0,.15-.15.24-.39.24-.33,0-.9.12-1.38.42-.6.36-.93.72-1.59,1.53-.99,1.2-5.19,8.25-5.73,9.54-.45,1.08-.45,2.01-.45,3v2.58c0,.48,0,1.74.09,3,.06.87.33,1.53,1.23,1.65.42.06,1.08.12,1.35.12.18,0,.24.09.24.18,0,.15-.15.24-.48.24-1.65,0-3.54-.09-3.69-.09s-2.04.09-2.94.09c-.33,0-.48-.06-.48-.24,0-.09.06-.18.24-.18.27,0,.63-.06.9-.12.6-.12.87-.78.93-1.65.09-1.26.09-2.52.09-3v-2.58Z"/>
      <path class="cls-1" d="m166.47,9.12c0-4.68,0-5.52-.06-6.48-.06-1.02-.3-1.5-1.29-1.71-.24-.06-.75-.09-1.02-.09-.12,0-.24-.06-.24-.18,0-.18.15-.24.48-.24,1.35,0,3.15.09,3.39.09.66,0,2.4-.09,3.78-.09,3.75,0,5.1,1.26,5.58,1.71.66.63,1.5,1.98,1.5,3.57,0,4.26-3.12,7.14-7.38,7.14-.15,0-.48,0-.63-.03-.15,0-.33-.06-.33-.21,0-.24.18-.27.81-.27,2.91,0,5.19-2.13,5.19-4.89,0-.99-.09-3-1.68-4.62-1.59-1.62-3.42-1.5-4.11-1.5-.51,0-1.02.06-1.29.18-.18.06-.24.27-.24.57v12.33c0,2.88,0,5.25.15,6.51.09.87.27,1.53,1.17,1.65.42.06,1.08.12,1.35.12.18,0,.24.09.24.18,0,.15-.15.24-.48.24-1.65,0-3.54-.09-3.69-.09-.09,0-1.98.09-2.88.09-.33,0-.48-.06-.48-.24,0-.09.06-.18.24-.18.27,0,.63-.06.9-.12.6-.12.75-.78.87-1.65.15-1.26.15-3.63.15-6.51v-5.28Z"/>
      <path class="cls-1" d="m195.63,0c6.75,0,11.79,4.26,11.79,11.25s-4.74,12.27-11.97,12.27c-8.22,0-11.64-6.39-11.64-11.79,0-4.86,3.54-11.73,11.82-11.73Zm.63,22.38c2.7,0,8.28-1.56,8.28-10.29,0-7.2-4.38-11.07-9.12-11.07-5.01,0-8.76,3.3-8.76,9.87,0,6.99,4.2,11.49,9.6,11.49Z"/>
      <path class="cls-1" d="m218.7,14.46c0,4.41.12,6.33.66,6.87.48.48,1.26.69,3.6.69,1.59,0,2.91-.03,3.63-.9.39-.48.69-1.23.78-1.8.03-.24.09-.39.27-.39.15,0,.18.12.18.45s-.21,2.13-.45,3c-.21.69-.3.81-1.89.81-2.16,0-3.72-.06-4.98-.09-1.26-.06-2.19-.09-3.06-.09-.12,0-.63.03-1.23.03-.6.03-1.26.06-1.71.06-.33,0-.48-.06-.48-.24,0-.09.06-.18.24-.18.27,0,.63-.06.9-.12.6-.12.75-.78.87-1.65.15-1.26.15-3.63.15-6.51v-5.28c0-4.68,0-5.52-.06-6.48-.06-1.02-.3-1.5-1.29-1.71-.24-.06-.75-.09-1.02-.09-.12,0-.24-.06-.24-.18,0-.18.15-.24.48-.24,1.35,0,3.24.09,3.39.09s2.34-.09,3.24-.09c.33,0,.48.06.48.24,0,.12-.12.18-.24.18-.21,0-.63.03-.99.09-.87.15-1.11.66-1.17,1.71-.06.96-.06,1.8-.06,6.48v5.34Z"/>
      <path class="cls-1" d="m237.96,14.4c0,2.88,0,5.25.15,6.51.09.87.27,1.53,1.17,1.65.42.06,1.08.12,1.35.12.18,0,.24.09.24.18,0,.15-.15.24-.48.24-1.65,0-3.54-.09-3.69-.09s-2.04.09-2.94.09c-.33,0-.48-.06-.48-.24,0-.09.06-.18.24-.18.27,0,.63-.06.9-.12.6-.12.75-.78.87-1.65.15-1.26.15-3.63.15-6.51v-5.28c0-4.68,0-5.52-.06-6.48-.06-1.02-.36-1.53-1.02-1.68-.33-.09-.72-.12-.93-.12-.12,0-.24-.06-.24-.18,0-.18.15-.24.48-.24.99,0,2.88.09,3.03.09s2.04-.09,2.94-.09c.33,0,.48.06.48.24,0,.12-.12.18-.24.18-.21,0-.39.03-.75.09-.81.15-1.05.66-1.11,1.71-.06.96-.06,1.8-.06,6.48v5.28Z"/>
      <path class="cls-1" d="m250.35,20.28c-2.91-2.61-3.63-6.03-3.63-8.88,0-2.01.69-5.52,3.36-8.19,1.8-1.8,4.53-3.21,9.15-3.21,1.2,0,2.88.09,4.35.36,1.14.21,2.1.39,3.06.45.33.03.39.15.39.33,0,.24-.09.6-.15,1.68-.06.99-.06,2.64-.09,3.09-.03.45-.09.63-.27.63-.21,0-.24-.21-.24-.63,0-1.17-.48-2.4-1.26-3.06-1.05-.9-3.36-1.71-6-1.71-3.99,0-5.85,1.17-6.9,2.19-2.19,2.1-2.7,4.77-2.7,7.83,0,5.73,4.41,10.98,10.83,10.98,2.25,0,4.02-.27,5.22-1.5.63-.66,1.02-1.98,1.11-2.52.06-.33.12-.45.3-.45.15,0,.21.21.21.45,0,.21-.36,2.82-.66,3.84-.18.57-.24.63-.78.87-1.2.48-3.48.69-5.4.69-4.5,0-7.53-1.11-9.9-3.24Z"/>
      <path class="cls-1" d="m279.12,15.33c0-1.62-.3-2.28-.69-3.15-.21-.48-4.23-7.08-5.28-8.64-.75-1.11-1.5-1.86-2.04-2.22-.45-.3-1.02-.48-1.29-.48-.15,0-.3-.06-.3-.21,0-.12.12-.21.39-.21.57,0,2.82.09,2.97.09.21,0,1.35-.09,2.52-.09.33,0,.39.09.39.21s-.18.15-.45.27c-.24.12-.39.3-.39.54,0,.36.15.72.39,1.17.48.87,4.98,8.61,5.52,9.48.57-1.26,4.38-7.83,4.98-8.82.39-.63.51-1.14.51-1.53,0-.42-.12-.75-.48-.84-.27-.09-.45-.15-.45-.3,0-.12.18-.18.48-.18.78,0,1.74.09,1.98.09.18,0,2.34-.09,2.91-.09.21,0,.39.06.39.18,0,.15-.15.24-.39.24-.33,0-.9.12-1.38.42-.6.36-.93.72-1.59,1.53-.99,1.2-5.19,8.25-5.73,9.54-.45,1.08-.45,2.01-.45,3v2.58c0,.48,0,1.74.09,3,.06.87.33,1.53,1.23,1.65.42.06,1.08.12,1.35.12.18,0,.24.09.24.18,0,.15-.15.24-.48.24-1.65,0-3.54-.09-3.69-.09s-2.04.09-2.94.09c-.33,0-.48-.06-.48-.24,0-.09.06-.18.24-.18.27,0,.63-.06.9-.12.6-.12.87-.78.93-1.65.09-1.26.09-2.52.09-3v-2.58Z"/>
    </g>
  </g>
</svg>