<?xml version="1.0" encoding="utf-8"?>
<!-- Generator: Adobe Illustrator 28.0.0, SVG Export Plug-In . SVG Version: 6.00 Build 0)  -->
<svg version="1.1" id="_レイヤー_2" xmlns="http://www.w3.org/2000/svg" xmlns:xlink="http://www.w3.org/1999/xlink" x="0px"
	 y="0px" viewBox="0 0 291.2 23.5" style="enable-background:new 0 0 291.2 23.5;" xml:space="preserve">
<g id="_レイヤー_1-2">
	<g>
		<path d="M2.6,9.1c0-4.7,0-5.5-0.1-6.5c-0.1-1-0.3-1.5-1.3-1.7C1,0.9,0.5,0.8,0.2,0.8C0.1,0.8,0,0.8,0,0.7c0-0.2,0.2-0.2,0.5-0.2
			c1.4,0,3.2,0.1,3.4,0.1c0.7,0,2.4-0.1,3.8-0.1c3.7,0,5.1,1.3,5.6,1.7c0.7,0.6,1.5,2,1.5,3.6c0,4.3-3.1,7.1-7.4,7.1
			c-0.2,0-0.5,0-0.6,0c-0.2,0-0.3-0.1-0.3-0.2c0-0.2,0.2-0.3,0.8-0.3c2.9,0,5.2-2.1,5.2-4.9c0-1-0.1-3-1.7-4.6S7.3,1.3,6.6,1.3
			c-0.5,0-1,0.1-1.3,0.2C5.1,1.6,5.1,1.8,5.1,2.1v12.3c0,2.9,0,5.2,0.2,6.5c0.1,0.9,0.3,1.5,1.2,1.6c0.4,0.1,1.1,0.1,1.3,0.1
			c0.2,0,0.2,0.1,0.2,0.2c0,0.1-0.2,0.2-0.5,0.2C5.8,23.1,4,23,3.8,23c-0.1,0-2,0.1-2.9,0.1c-0.3,0-0.5-0.1-0.5-0.2
			c0-0.1,0.1-0.2,0.2-0.2c0.3,0,0.6-0.1,0.9-0.1c0.6-0.1,0.7-0.8,0.9-1.6c0.2-1.3,0.2-3.6,0.2-6.5C2.6,14.4,2.6,9.1,2.6,9.1z"/>
		<path d="M23.4,9.1c0-4.7,0-5.5-0.1-6.5c-0.1-1-0.3-1.5-1.3-1.7c-0.2-0.1-0.8-0.1-1-0.1c-0.1,0-0.2-0.1-0.2-0.2
			c0-0.2,0.1-0.2,0.5-0.2c1.4,0,3.2,0.1,3.4,0.1c0.3,0,2.6-0.1,3.5-0.1c1.9,0,3.9,0.2,5.5,1.3c0.8,0.5,2.1,2,2.1,4.1
			c0,2.2-0.9,4.4-3.6,6.9c2.5,3.1,4.5,5.8,6.2,7.7c1.6,1.7,2.9,2,3.7,2.2c0.6,0.1,1,0.1,1.2,0.1c0.2,0,0.3,0.1,0.3,0.2
			c0,0.2-0.2,0.2-0.7,0.2h-2.1c-1.7,0-2.4-0.1-3.2-0.6c-1.3-0.7-2.3-2.2-4-4.4c-1.3-1.6-2.7-3.7-3.3-4.4c-0.1-0.1-0.2-0.2-0.4-0.2
			L26,13.4c-0.1,0-0.2,0.1-0.2,0.2v0.7c0,2.9,0,5.2,0.1,6.5c0.1,0.9,0.3,1.5,1.2,1.6c0.4,0.1,1.1,0.1,1.4,0.1c0.2,0,0.2,0.1,0.2,0.2
			c0,0.1-0.1,0.2-0.5,0.2c-1.6,0-3.5-0.1-3.7-0.1c0,0-1.9,0.1-2.8,0.1c-0.3,0-0.5-0.1-0.5-0.2c0-0.1,0.1-0.2,0.2-0.2
			c0.3,0,0.6-0.1,0.9-0.1c0.6-0.1,0.8-0.8,0.9-1.6c0.1-1.3,0.1-3.6,0.1-6.5C23.4,14.4,23.4,9.1,23.4,9.1z M25.8,11.7
			c0,0.1,0.1,0.3,0.2,0.4c0.5,0.3,1.8,0.5,3.1,0.5c0.7,0,1.6-0.1,2.2-0.6c1.1-0.7,1.8-2.3,1.8-4.6c0-3.8-2-6-5.2-6
			c-0.9,0-1.7,0.1-2,0.2c-0.1,0.1-0.2,0.2-0.2,0.4C25.8,1.9,25.8,11.7,25.8,11.7z"/>
		<path d="M50,14.4c0,2.9,0,5.2,0.2,6.5c0.1,0.9,0.3,1.5,1.2,1.6c0.4,0.1,1.1,0.1,1.3,0.1c0.2,0,0.2,0.1,0.2,0.2
			c0,0.1-0.2,0.2-0.5,0.2c-1.7,0-3.5-0.1-3.7-0.1s-2,0.1-2.9,0.1c-0.3,0-0.5-0.1-0.5-0.2c0-0.1,0.1-0.2,0.2-0.2
			c0.3,0,0.6-0.1,0.9-0.1c0.6-0.1,0.8-0.8,0.9-1.6c0.2-1.3,0.2-3.6,0.2-6.5V9.1c0-4.7,0-5.5-0.1-6.5c-0.1-1-0.4-1.5-1-1.7
			c-0.3-0.1-0.7-0.1-0.9-0.1c-0.1,0-0.2-0.1-0.2-0.2c0-0.2,0.2-0.2,0.5-0.2c1,0,2.9,0.1,3,0.1s2-0.1,2.9-0.1c0.3,0,0.5,0.1,0.5,0.2
			c0,0.1-0.1,0.2-0.2,0.2c-0.2,0-0.4,0-0.8,0.1c-0.8,0.1-1,0.7-1.1,1.7C50,3.6,50,4.4,50,9.1C50,9.1,50,14.4,50,14.4z"/>
		<path d="M68.7,19.4c1.7-4,5.8-14.5,6.4-16.6c0.2-0.5,0.3-0.9,0.3-1.1c0-0.2-0.1-0.5-0.4-0.7c-0.4-0.1-0.8-0.1-1.1-0.1
			c-0.2,0-0.3,0-0.3-0.2c0-0.2,0.2-0.2,0.7-0.2c1.2,0,2.6,0.1,2.9,0.1c0.2,0,1.5-0.1,2.3-0.1c0.3,0,0.5,0.1,0.5,0.2
			s-0.1,0.2-0.4,0.2c-0.2,0-0.9,0-1.4,0.4C77.8,1.5,77.3,2,76.5,4c-0.3,0.8-1.8,4.4-3.4,8.1c-1.8,4.4-3.2,7.6-3.9,9.1
			c-0.8,1.8-1,2.3-1.3,2.3c-0.4,0-0.5-0.4-1.1-1.9L59.6,3.3c-0.7-1.7-1.1-2-2.2-2.3c-0.5-0.1-1-0.1-1.1-0.1s-0.2-0.1-0.2-0.2
			c0-0.2,0.3-0.2,0.8-0.2c1.4,0,3.2,0.1,3.5,0.1c0.3,0,1.7-0.1,2.8-0.1c0.5,0,0.8,0.1,0.8,0.2s-0.1,0.2-0.3,0.2
			c-0.3,0-0.9,0-1.1,0.2c-0.3,0.1-0.4,0.4-0.4,0.6c0,0.4,0.4,1.3,0.8,2.5C62.9,4.1,68.7,19.4,68.7,19.4z"/>
		<path d="M90.3,1.2c0.4-1,0.5-1.2,0.7-1.2s0.3,0.2,0.7,1.1c0.4,1.1,5.2,13.5,7,18.1c1.1,2.7,1.9,3.1,2.6,3.3
			c0.4,0.1,0.9,0.2,1.2,0.2c0.2,0,0.3,0,0.3,0.2c0,0.2-0.3,0.2-0.6,0.2c-0.4,0-2.6,0-4.7-0.1c-0.6,0-0.9,0-0.9-0.2
			c0-0.1,0.1-0.2,0.2-0.2c0.2-0.1,0.4-0.3,0.2-0.8l-2.8-7.4c-0.1-0.1-0.1-0.2-0.3-0.2h-6.4c-0.2,0-0.2,0.1-0.3,0.2l-1.8,5.3
			c-0.3,0.8-0.4,1.5-0.4,2c0,0.6,0.6,0.9,1.1,0.9h0.3c0.2,0,0.3,0.1,0.3,0.2c0,0.2-0.2,0.2-0.4,0.2c-0.7,0-2-0.1-2.3-0.1
			s-2,0.1-3.4,0.1c-0.4,0-0.6-0.1-0.6-0.2c0-0.1,0.1-0.2,0.3-0.2c0.2,0,0.6,0,0.9-0.1c1.4-0.2,2-1.3,2.5-2.8L90.3,1.2L90.3,1.2z
			 M93.4,13.2c0.2,0,0.2-0.1,0.1-0.2l-2.8-8.1c-0.2-0.4-0.3-0.4-0.4,0L87.6,13c-0.1,0.1,0,0.2,0.1,0.2
			C87.7,13.2,93.4,13.2,93.4,13.2z"/>
		<path d="M108.7,20.3c-2.9-2.6-3.6-6-3.6-8.9c0-2,0.7-5.5,3.4-8.2c1.8-1.8,4.5-3.2,9.2-3.2c1.2,0,2.9,0.1,4.3,0.4
			c1.1,0.2,2.1,0.4,3.1,0.4c0.3,0,0.4,0.2,0.4,0.3c0,0.2-0.1,0.6-0.2,1.7c-0.1,1-0.1,2.6-0.1,3.1s-0.1,0.6-0.3,0.6
			c-0.2,0-0.2-0.2-0.2-0.6c0-1.2-0.5-2.4-1.3-3.1c-1.1-0.9-3.4-1.7-6-1.7c-4,0-5.8,1.2-6.9,2.2c-2.2,2.1-2.7,4.8-2.7,7.8
			c0,5.7,4.4,11,10.8,11c2.2,0,4-0.3,5.2-1.5c0.6-0.7,1-2,1.1-2.5c0.1-0.3,0.1-0.5,0.3-0.5c0.2,0,0.2,0.2,0.2,0.5
			c0,0.2-0.4,2.8-0.7,3.8c-0.2,0.6-0.2,0.6-0.8,0.9c-1.2,0.5-3.5,0.7-5.4,0.7C114.1,23.5,111,22.4,108.7,20.3z"/>
		<path d="M137.4,15.3c0-1.6-0.3-2.3-0.7-3.1c-0.2-0.5-4.2-7.1-5.3-8.6c-0.8-1.1-1.5-1.9-2-2.2c-0.4-0.3-1-0.5-1.3-0.5
			c-0.2,0-0.3-0.1-0.3-0.2c0-0.1,0.1-0.2,0.4-0.2c0.6,0,2.8,0.1,3,0.1c0.2,0,1.4-0.1,2.5-0.1c0.3,0,0.4,0.1,0.4,0.2
			s-0.2,0.1-0.4,0.3c-0.2,0.1-0.4,0.3-0.4,0.5c0,0.4,0.1,0.7,0.4,1.2c0.5,0.9,5,8.6,5.5,9.5c0.6-1.3,4.4-7.8,5-8.8
			c0.4-0.6,0.5-1.1,0.5-1.5c0-0.4-0.1-0.8-0.5-0.8c-0.3-0.1-0.4-0.2-0.4-0.3c0-0.1,0.2-0.2,0.5-0.2c0.8,0,1.7,0.1,2,0.1
			c0.2,0,2.3-0.1,2.9-0.1c0.2,0,0.4,0.1,0.4,0.2c0,0.1-0.1,0.2-0.4,0.2c-0.3,0-0.9,0.1-1.4,0.4c-0.6,0.4-0.9,0.7-1.6,1.5
			c-1,1.2-5.2,8.2-5.7,9.5c-0.4,1.1-0.4,2-0.4,3v2.6c0,0.5,0,1.7,0.1,3c0.1,0.9,0.3,1.5,1.2,1.6c0.4,0.1,1.1,0.1,1.4,0.1
			c0.2,0,0.2,0.1,0.2,0.2c0,0.1-0.1,0.2-0.5,0.2c-1.6,0-3.5-0.1-3.7-0.1s-2,0.1-2.9,0.1c-0.3,0-0.5-0.1-0.5-0.2
			c0-0.1,0.1-0.2,0.2-0.2c0.3,0,0.6-0.1,0.9-0.1c0.6-0.1,0.9-0.8,0.9-1.6c0.1-1.3,0.1-2.5,0.1-3L137.4,15.3L137.4,15.3z"/>
		<path d="M166.5,9.1c0-4.7,0-5.5-0.1-6.5c-0.1-1-0.3-1.5-1.3-1.7c-0.2-0.1-0.8-0.1-1-0.1c-0.1,0-0.2-0.1-0.2-0.2
			c0-0.2,0.1-0.2,0.5-0.2c1.4,0,3.1,0.1,3.4,0.1c0.7,0,2.4-0.1,3.8-0.1c3.8,0,5.1,1.3,5.6,1.7c0.7,0.6,1.5,2,1.5,3.6
			c0,4.3-3.1,7.1-7.4,7.1c-0.1,0-0.5,0-0.6,0c-0.1,0-0.3-0.1-0.3-0.2c0-0.2,0.2-0.3,0.8-0.3c2.9,0,5.2-2.1,5.2-4.9
			c0-1-0.1-3-1.7-4.6s-3.4-1.5-4.1-1.5c-0.5,0-1,0.1-1.3,0.2c-0.2,0.1-0.2,0.3-0.2,0.6v12.3c0,2.9,0,5.2,0.1,6.5
			c0.1,0.9,0.3,1.5,1.2,1.6c0.4,0.1,1.1,0.1,1.4,0.1c0.2,0,0.2,0.1,0.2,0.2c0,0.1-0.1,0.2-0.5,0.2c-1.6,0-3.5-0.1-3.7-0.1
			c-0.1,0-2,0.1-2.9,0.1c-0.3,0-0.5-0.1-0.5-0.2c0-0.1,0.1-0.2,0.2-0.2c0.3,0,0.6-0.1,0.9-0.1c0.6-0.1,0.8-0.8,0.9-1.6
			c0.1-1.3,0.1-3.6,0.1-6.5L166.5,9.1L166.5,9.1z"/>
		<path d="M195.6,0c6.8,0,11.8,4.3,11.8,11.2s-4.7,12.3-12,12.3c-8.2,0-11.6-6.4-11.6-11.8C183.8,6.9,187.3,0,195.6,0z M196.3,22.4
			c2.7,0,8.3-1.6,8.3-10.3c0-7.2-4.4-11.1-9.1-11.1c-5,0-8.8,3.3-8.8,9.9C186.7,17.9,190.9,22.4,196.3,22.4L196.3,22.4z"/>
		<path d="M218.7,14.5c0,4.4,0.1,6.3,0.7,6.9c0.5,0.5,1.3,0.7,3.6,0.7c1.6,0,2.9,0,3.6-0.9c0.4-0.5,0.7-1.2,0.8-1.8
			c0-0.2,0.1-0.4,0.3-0.4c0.1,0,0.2,0.1,0.2,0.5s-0.2,2.1-0.4,3c-0.2,0.7-0.3,0.8-1.9,0.8c-2.2,0-3.7-0.1-5-0.1
			c-1.3-0.1-2.2-0.1-3.1-0.1c-0.1,0-0.6,0-1.2,0c-0.6,0-1.3,0.1-1.7,0.1c-0.3,0-0.5-0.1-0.5-0.2c0-0.1,0.1-0.2,0.2-0.2
			c0.3,0,0.6-0.1,0.9-0.1c0.6-0.1,0.8-0.8,0.9-1.6c0.1-1.3,0.1-3.6,0.1-6.5V9.1c0-4.7,0-5.5-0.1-6.5c-0.1-1-0.3-1.5-1.3-1.7
			c-0.2-0.1-0.8-0.1-1-0.1c-0.1,0-0.2-0.1-0.2-0.2c0-0.2,0.1-0.2,0.5-0.2c1.4,0,3.2,0.1,3.4,0.1s2.3-0.1,3.2-0.1
			c0.3,0,0.5,0.1,0.5,0.2c0,0.1-0.1,0.2-0.2,0.2c-0.2,0-0.6,0-1,0.1c-0.9,0.1-1.1,0.7-1.2,1.7c-0.1,1-0.1,1.8-0.1,6.5
			C218.7,9.1,218.7,14.5,218.7,14.5z"/>
		<path d="M238,14.4c0,2.9,0,5.2,0.1,6.5c0.1,0.9,0.3,1.5,1.2,1.6c0.4,0.1,1.1,0.1,1.4,0.1c0.2,0,0.2,0.1,0.2,0.2
			c0,0.1-0.1,0.2-0.5,0.2c-1.6,0-3.5-0.1-3.7-0.1s-2,0.1-2.9,0.1c-0.3,0-0.5-0.1-0.5-0.2c0-0.1,0.1-0.2,0.2-0.2
			c0.3,0,0.6-0.1,0.9-0.1c0.6-0.1,0.8-0.8,0.9-1.6c0.1-1.3,0.1-3.6,0.1-6.5V9.1c0-4.7,0-5.5-0.1-6.5c-0.1-1-0.4-1.5-1-1.7
			c-0.3-0.1-0.7-0.1-0.9-0.1c-0.1,0-0.2-0.1-0.2-0.2c0-0.2,0.1-0.2,0.5-0.2c1,0,2.9,0.1,3,0.1s2-0.1,2.9-0.1c0.3,0,0.5,0.1,0.5,0.2
			c0,0.1-0.1,0.2-0.2,0.2c-0.2,0-0.4,0-0.8,0.1c-0.8,0.1-1.1,0.7-1.1,1.7c-0.1,1-0.1,1.8-0.1,6.5L238,14.4L238,14.4z"/>
		<path d="M250.4,20.3c-2.9-2.6-3.6-6-3.6-8.9c0-2,0.7-5.5,3.4-8.2c1.8-1.8,4.5-3.2,9.2-3.2c1.2,0,2.9,0.1,4.4,0.4
			c1.1,0.2,2.1,0.4,3.1,0.4c0.3,0,0.4,0.2,0.4,0.3c0,0.2-0.1,0.6-0.1,1.7c-0.1,1-0.1,2.6-0.1,3.1s-0.1,0.6-0.3,0.6
			c-0.2,0-0.2-0.2-0.2-0.6c0-1.2-0.5-2.4-1.3-3.1c-1-0.9-3.4-1.7-6-1.7c-4,0-5.9,1.2-6.9,2.2c-2.2,2.1-2.7,4.8-2.7,7.8
			c0,5.7,4.4,11,10.8,11c2.2,0,4-0.3,5.2-1.5c0.6-0.7,1-2,1.1-2.5c0.1-0.3,0.1-0.5,0.3-0.5c0.1,0,0.2,0.2,0.2,0.5
			c0,0.2-0.4,2.8-0.7,3.8c-0.2,0.6-0.2,0.6-0.8,0.9c-1.2,0.5-3.5,0.7-5.4,0.7C255.8,23.5,252.7,22.4,250.4,20.3L250.4,20.3z"/>
		<path d="M279.1,15.3c0-1.6-0.3-2.3-0.7-3.1c-0.2-0.5-4.2-7.1-5.3-8.6c-0.8-1.1-1.5-1.9-2-2.2c-0.5-0.3-1-0.5-1.3-0.5
			c-0.1,0-0.3-0.1-0.3-0.2c0-0.1,0.1-0.2,0.4-0.2c0.6,0,2.8,0.1,3,0.1c0.2,0,1.4-0.1,2.5-0.1c0.3,0,0.4,0.1,0.4,0.2
			s-0.2,0.1-0.5,0.3c-0.2,0.1-0.4,0.3-0.4,0.5c0,0.4,0.1,0.7,0.4,1.2c0.5,0.9,5,8.6,5.5,9.5c0.6-1.3,4.4-7.8,5-8.8
			c0.4-0.6,0.5-1.1,0.5-1.5c0-0.4-0.1-0.8-0.5-0.8c-0.3-0.1-0.5-0.2-0.5-0.3c0-0.1,0.2-0.2,0.5-0.2c0.8,0,1.7,0.1,2,0.1
			c0.2,0,2.3-0.1,2.9-0.1c0.2,0,0.4,0.1,0.4,0.2c0,0.1-0.1,0.2-0.4,0.2c-0.3,0-0.9,0.1-1.4,0.4c-0.6,0.4-0.9,0.7-1.6,1.5
			c-1,1.2-5.2,8.2-5.7,9.5c-0.5,1.1-0.5,2-0.5,3v2.6c0,0.5,0,1.7,0.1,3c0.1,0.9,0.3,1.5,1.2,1.6c0.4,0.1,1.1,0.1,1.4,0.1
			c0.2,0,0.2,0.1,0.2,0.2c0,0.1-0.1,0.2-0.5,0.2c-1.6,0-3.5-0.1-3.7-0.1s-2,0.1-2.9,0.1c-0.3,0-0.5-0.1-0.5-0.2
			c0-0.1,0.1-0.2,0.2-0.2c0.3,0,0.6-0.1,0.9-0.1c0.6-0.1,0.9-0.8,0.9-1.6c0.1-1.3,0.1-2.5,0.1-3L279.1,15.3L279.1,15.3z"/>
	</g>
</g>
</svg>
