<?xml version="1.0" encoding="UTF-8"?><svg id="_レイヤー_2" xmlns="http://www.w3.org/2000/svg" width="147.93" height="23.52" viewBox="0 0 147.93 23.52"><g id="_レイヤー_1-2"><g><path d="M2.61,9.12c0-4.68,0-5.52-.06-6.48-.06-1.02-.3-1.5-1.29-1.71-.24-.06-.75-.09-1.02-.09-.12,0-.24-.06-.24-.18,0-.18,.15-.24,.48-.24,1.35,0,3.24,.09,3.39,.09,.72,0,1.89-.09,3.27-.09,4.92,0,6,3,6,4.5,0,2.46-1.41,3.93-2.82,5.4,2.22,.69,5.19,2.82,5.19,6.33,0,3.21-2.52,6.54-7.65,6.54-.33,0-1.29-.06-2.16-.09-.87-.06-1.71-.09-1.83-.09-.06,0-.57,0-1.2,.03-.6,0-1.29,.06-1.74,.06-.33,0-.48-.06-.48-.24,0-.09,.06-.18,.24-.18,.27,0,.63-.06,.9-.12,.6-.12,.75-.78,.87-1.65,.15-1.26,.15-3.63,.15-6.51v-5.28Zm2.4,.66c0,.21,.06,.27,.21,.33,.18,.03,.72,.12,1.83,.12,1.68,0,2.1-.06,2.73-.78,.63-.72,1.08-1.8,1.08-3.03,0-2.49-1.11-5.16-4.05-5.16-.33,0-.96,.03-1.44,.15-.27,.06-.36,.15-.36,.33V9.78Zm0,3.18c0,2.31,0,6.03,.03,6.48,.09,1.47,.09,1.89,1.02,2.34,.81,.39,2.1,.45,2.64,.45,1.62,0,4.23-.87,4.23-4.26,0-1.8-.6-4.41-2.91-6-1.02-.69-1.77-.78-2.49-.87-.39-.06-1.89-.06-2.34-.06-.12,0-.18,.06-.18,.21v1.71Z"/><path d="M24.72,9.12c0-4.68,0-5.52-.06-6.48-.06-1.02-.3-1.5-1.29-1.71-.24-.06-.75-.09-1.02-.09-.12,0-.24-.06-.24-.18,0-.18,.15-.24,.48-.24,1.35,0,3.24,.09,3.39,.09,.33,0,2.61-.09,3.54-.09,1.89,0,3.9,.18,5.49,1.32,.75,.54,2.07,2.01,2.07,4.08,0,2.22-.93,4.44-3.63,6.93,2.46,3.15,4.5,5.82,6.24,7.68,1.62,1.71,2.91,2.04,3.66,2.16,.57,.09,.99,.09,1.17,.09,.15,0,.27,.09,.27,.18,0,.18-.18,.24-.72,.24h-2.13c-1.68,0-2.43-.15-3.21-.57-1.29-.69-2.34-2.16-4.05-4.41-1.26-1.65-2.67-3.66-3.27-4.44-.12-.12-.21-.18-.39-.18l-3.69-.06c-.15,0-.21,.09-.21,.24v.72c0,2.88,0,5.25,.15,6.51,.09,.87,.27,1.53,1.17,1.65,.42,.06,1.08,.12,1.35,.12,.18,0,.24,.09,.24,.18,0,.15-.15,.24-.48,.24-1.65,0-3.54-.09-3.69-.09-.03,0-1.92,.09-2.82,.09-.33,0-.48-.06-.48-.24,0-.09,.06-.18,.24-.18,.27,0,.63-.06,.9-.12,.6-.12,.75-.78,.87-1.65,.15-1.26,.15-3.63,.15-6.51v-5.28Zm2.4,2.61c0,.15,.06,.27,.21,.36,.45,.27,1.83,.48,3.15,.48,.72,0,1.56-.09,2.25-.57,1.05-.72,1.83-2.34,1.83-4.62,0-3.75-1.98-6-5.19-6-.9,0-1.71,.09-2.01,.18-.15,.06-.24,.18-.24,.36V11.73Z"/><path d="M53.16,1.17c.36-.99,.48-1.17,.66-1.17s.3,.15,.66,1.08c.45,1.14,5.16,13.53,6.99,18.09,1.08,2.67,1.95,3.15,2.58,3.33,.45,.15,.9,.18,1.2,.18,.18,0,.3,.03,.3,.18,0,.18-.27,.24-.6,.24-.45,0-2.64,0-4.71-.06-.57-.03-.9-.03-.9-.21,0-.12,.09-.18,.21-.21,.18-.06,.36-.33,.18-.81l-2.79-7.38c-.06-.12-.12-.18-.27-.18h-6.45c-.15,0-.24,.09-.3,.24l-1.8,5.31c-.27,.75-.42,1.47-.42,2.01,0,.6,.63,.87,1.14,.87h.3c.21,0,.3,.06,.3,.18,0,.18-.18,.24-.45,.24-.72,0-2.01-.09-2.34-.09s-1.98,.09-3.39,.09c-.39,0-.57-.06-.57-.24,0-.12,.12-.18,.27-.18,.21,0,.63-.03,.87-.06,1.38-.18,1.98-1.32,2.52-2.82L53.16,1.17Zm3.12,12c.15,0,.15-.09,.12-.21l-2.85-8.1c-.15-.45-.3-.45-.45,0l-2.64,8.1c-.06,.15,0,.21,.09,.21h5.73Z"/><path d="M72.15,19.02c.06,2.46,.36,3.24,1.17,3.48,.57,.15,1.23,.18,1.5,.18,.15,0,.24,.06,.24,.18,0,.18-.18,.24-.54,.24-1.71,0-2.91-.09-3.18-.09s-1.53,.09-2.88,.09c-.3,0-.48-.03-.48-.24,0-.12,.09-.18,.24-.18,.24,0,.78-.03,1.23-.18,.75-.21,.9-1.08,.9-3.81l.03-17.19c0-1.17,.09-1.5,.33-1.5s.75,.66,1.05,.96c.45,.51,4.92,5.34,9.54,10.29,2.97,3.18,6.24,6.84,7.2,7.83l-.33-15.24c-.03-1.95-.24-2.61-1.17-2.85-.54-.12-1.23-.15-1.47-.15-.21,0-.24-.09-.24-.21,0-.18,.24-.21,.6-.21,1.35,0,2.79,.09,3.12,.09s1.32-.09,2.55-.09c.33,0,.54,.03,.54,.21,0,.12-.12,.21-.33,.21-.15,0-.36,0-.72,.09-.99,.21-1.11,.87-1.11,2.67l-.06,17.58c0,1.98-.06,2.13-.27,2.13-.24,0-.6-.33-2.19-1.92-.33-.3-4.65-4.71-7.83-8.13-3.48-3.75-6.87-7.53-7.83-8.61l.39,14.37Z"/><path d="M101.46,20.28c-2.91-2.61-3.63-6.03-3.63-8.88,0-2.01,.69-5.52,3.36-8.19,1.8-1.8,4.53-3.21,9.15-3.21,1.2,0,2.88,.09,4.35,.36,1.14,.21,2.1,.39,3.06,.45,.33,.03,.39,.15,.39,.33,0,.24-.09,.6-.15,1.68-.06,.99-.06,2.64-.09,3.09-.03,.45-.09,.63-.27,.63-.21,0-.24-.21-.24-.63,0-1.17-.48-2.4-1.26-3.06-1.05-.9-3.36-1.71-6-1.71-3.99,0-5.85,1.17-6.9,2.19-2.19,2.1-2.7,4.77-2.7,7.83,0,5.73,4.41,10.98,10.83,10.98,2.25,0,4.02-.27,5.22-1.5,.63-.66,1.02-1.98,1.11-2.52,.06-.33,.12-.45,.3-.45,.15,0,.21,.21,.21,.45,0,.21-.36,2.82-.66,3.84-.18,.57-.24,.63-.78,.87-1.2,.48-3.48,.69-5.4,.69-4.5,0-7.53-1.11-9.9-3.24Z"/><path d="M145.02,14.4c0,2.88,0,5.25,.15,6.51,.09,.87,.27,1.53,1.17,1.65,.42,.06,1.08,.12,1.35,.12,.18,0,.24,.09,.24,.18,0,.15-.15,.24-.48,.24-1.65,0-3.54-.09-3.69-.09s-2.04,.09-2.94,.09c-.33,0-.48-.06-.48-.24,0-.09,.06-.18,.24-.18,.27,0,.63-.06,.9-.12,.6-.12,.75-.78,.87-1.65,.15-1.26,.15-3.63,.15-6.51v-3.15c0-.12-.09-.18-.18-.18h-12.72c-.09,0-.18,.03-.18,.18v3.15c0,2.88,0,5.25,.15,6.51,.09,.87,.27,1.53,1.17,1.65,.42,.06,1.08,.12,1.35,.12,.18,0,.24,.09,.24,.18,0,.15-.15,.24-.48,.24-1.65,0-3.54-.09-3.69-.09s-2.04,.09-2.94,.09c-.33,0-.48-.06-.48-.24,0-.09,.06-.18,.24-.18,.27,0,.63-.06,.9-.12,.6-.12,.75-.78,.87-1.65,.15-1.26,.15-3.63,.15-6.51v-5.28c0-4.68,0-5.52-.06-6.48-.06-1.02-.3-1.5-1.29-1.71-.24-.06-.75-.09-1.02-.09-.12,0-.24-.06-.24-.18,0-.18,.15-.24,.48-.24,1.35,0,3.24,.09,3.39,.09s2.04-.09,2.94-.09c.33,0,.48,.06,.48,.24,0,.12-.12,.18-.24,.18-.21,0-.39,.03-.75,.09-.81,.15-1.05,.66-1.11,1.71-.06,.96-.06,1.8-.06,6.48v.63c0,.15,.09,.18,.18,.18h12.72c.09,0,.18-.03,.18-.18v-.63c0-4.68,0-5.52-.06-6.48-.06-1.02-.3-1.5-1.29-1.71-.24-.06-.75-.09-1.02-.09-.12,0-.24-.06-.24-.18,0-.18,.15-.24,.48-.24,1.35,0,3.24,.09,3.39,.09s2.04-.09,2.94-.09c.33,0,.48,.06,.48,.24,0,.12-.12,.18-.24,.18-.21,0-.39,.03-.75,.09-.81,.15-1.05,.66-1.11,1.71-.06,.96-.06,1.8-.06,6.48v5.28Z"/></g></g></svg>