<?xml version="1.0" encoding="UTF-8"?><svg id="_レイヤー_2" xmlns="http://www.w3.org/2000/svg" width="262.89" height="27.36" viewBox="0 0 262.89 27.36"><g id="_レイヤー_1-2"><g><path d="M19.35,13.44c0,2.69,0,4.9,.14,6.08,.08,.81,.25,1.43,1.09,1.54,.39,.06,1.01,.11,1.26,.11,.17,0,.22,.08,.22,.17,0,.14-.14,.22-.45,.22-1.54,0-3.3-.08-3.44-.08s-1.9,.08-2.74,.08c-.31,0-.45-.06-.45-.22,0-.08,.06-.17,.22-.17,.25,0,.59-.06,.84-.11,.56-.11,.7-.73,.81-1.54,.14-1.18,.14-3.39,.14-6.08v-2.94c0-.11-.08-.17-.17-.17H4.96c-.08,0-.17,.03-.17,.17v2.94c0,2.69,0,4.9,.14,6.08,.08,.81,.25,1.43,1.09,1.54,.39,.06,1.01,.11,1.26,.11,.17,0,.22,.08,.22,.17,0,.14-.14,.22-.45,.22-1.54,0-3.3-.08-3.44-.08s-1.9,.08-2.74,.08c-.31,0-.45-.06-.45-.22,0-.08,.06-.17,.22-.17,.25,0,.59-.06,.84-.11,.56-.11,.7-.73,.81-1.54,.14-1.18,.14-3.39,.14-6.08v-4.93c0-4.37,0-5.15-.06-6.05-.06-.95-.28-1.4-1.2-1.6-.22-.06-.7-.08-.95-.08-.11,0-.22-.06-.22-.17,0-.17,.14-.22,.45-.22,1.26,0,3.02,.08,3.16,.08s1.9-.08,2.74-.08c.31,0,.45,.06,.45,.22,0,.11-.11,.17-.22,.17-.2,0-.36,.03-.7,.08-.76,.14-.98,.62-1.04,1.6-.06,.9-.06,1.68-.06,6.05v.59c0,.14,.08,.17,.17,.17h11.87c.08,0,.17-.03,.17-.17v-.59c0-4.37,0-5.15-.06-6.05-.06-.95-.28-1.4-1.2-1.6-.22-.06-.7-.08-.95-.08-.11,0-.22-.06-.22-.17,0-.17,.14-.22,.45-.22,1.26,0,3.02,.08,3.16,.08s1.9-.08,2.74-.08c.31,0,.45,.06,.45,.22,0,.11-.11,.17-.22,.17-.2,0-.36,.03-.7,.08-.76,.14-.98,.62-1.04,1.6-.06,.9-.06,1.68-.06,6.05v4.93Z"/><path d="M30.72,8.51c0-4.37,0-5.15-.06-6.05-.06-.95-.28-1.4-1.2-1.6-.22-.06-.7-.08-.95-.08-.11,0-.22-.06-.22-.17,0-.17,.14-.22,.45-.22,.64,0,1.4,0,2.02,.03l1.15,.06c.2,0,5.77,0,6.41-.03,.53-.03,.98-.08,1.2-.14,.14-.03,.25-.14,.39-.14,.08,0,.11,.11,.11,.25,0,.2-.14,.53-.22,1.32-.03,.28-.08,1.51-.14,1.85-.03,.14-.08,.31-.2,.31-.17,0-.22-.14-.22-.36,0-.2-.03-.67-.17-1.01-.2-.45-.48-.78-1.99-.95-.48-.06-3.53-.08-3.84-.08-.11,0-.17,.08-.17,.28v7.73c0,.2,.03,.28,.17,.28,.36,0,3.81,0,4.45-.06,.67-.06,1.06-.11,1.32-.39,.2-.22,.31-.36,.42-.36,.08,0,.14,.06,.14,.22s-.14,.64-.22,1.57c-.06,.56-.11,1.6-.11,1.79,0,.22,0,.53-.2,.53-.14,0-.2-.11-.2-.25,0-.28,0-.56-.11-.92-.11-.39-.36-.87-1.46-.98-.76-.08-3.53-.14-4-.14-.14,0-.2,.08-.2,.2v2.46c0,.95-.03,4.2,0,4.79,.08,1.93,.5,2.3,3.25,2.3,.73,0,1.96,0,2.69-.31,.73-.31,1.06-.87,1.26-2.02,.06-.31,.11-.42,.25-.42,.17,0,.17,.22,.17,.42,0,.22-.22,2.13-.36,2.72-.2,.73-.42,.73-1.51,.73-2.1,0-3.64-.06-4.73-.08-1.09-.06-1.76-.08-2.18-.08-.06,0-.53,0-1.12,.03-.56,0-1.2,.06-1.62,.06-.31,0-.45-.06-.45-.22,0-.08,.06-.17,.22-.17,.25,0,.59-.06,.84-.11,.56-.11,.7-.73,.81-1.54,.14-1.18,.14-3.39,.14-6.08v-4.93Z"/><path d="M53.23,1.09c.34-.92,.45-1.09,.62-1.09s.28,.14,.62,1.01c.42,1.06,4.82,12.63,6.52,16.88,1.01,2.49,1.82,2.94,2.41,3.11,.42,.14,.84,.17,1.12,.17,.17,0,.28,.03,.28,.17,0,.17-.25,.22-.56,.22-.42,0-2.46,0-4.4-.06-.53-.03-.84-.03-.84-.2,0-.11,.08-.17,.2-.2,.17-.06,.34-.31,.17-.76l-2.6-6.89c-.06-.11-.11-.17-.25-.17h-6.02c-.14,0-.22,.08-.28,.22l-1.68,4.96c-.25,.7-.39,1.37-.39,1.88,0,.56,.59,.81,1.06,.81h.28c.2,0,.28,.06,.28,.17,0,.17-.17,.22-.42,.22-.67,0-1.88-.08-2.18-.08s-1.85,.08-3.16,.08c-.36,0-.53-.06-.53-.22,0-.11,.11-.17,.25-.17,.2,0,.59-.03,.81-.06,1.29-.17,1.85-1.23,2.35-2.63L53.23,1.09Zm2.91,11.2c.14,0,.14-.08,.11-.2l-2.66-7.56c-.14-.42-.28-.42-.42,0l-2.46,7.56c-.06,.14,0,.2,.08,.2h5.35Z"/><path d="M70.2,8.51c0-4.37,0-5.15-.06-6.05-.06-.95-.28-1.4-1.2-1.6-.22-.06-.7-.08-.95-.08-.11,0-.22-.06-.22-.17,0-.17,.14-.22,.45-.22,1.26,0,3.02,.08,3.16,.08,.34,0,2.1-.08,3.78-.08,2.77,0,7.9-.25,11.23,3.19,1.4,1.46,2.72,3.78,2.72,7.11,0,3.53-1.46,6.24-3.02,7.9-1.2,1.26-3.72,3.22-8.48,3.22-1.2,0-2.69-.08-3.89-.17-1.23-.08-2.18-.17-2.32-.17-.06,0-.53,0-1.12,.03-.56,0-1.2,.06-1.62,.06-.31,0-.45-.06-.45-.22,0-.08,.06-.17,.22-.17,.25,0,.59-.06,.84-.11,.56-.11,.7-.73,.81-1.54,.14-1.18,.14-3.39,.14-6.08v-4.93Zm2.35,3.02c0,2.97,.03,5.54,.06,6.08,.03,.7,.08,1.82,.31,2.13,.36,.53,1.46,1.12,4.76,1.12,2.6,0,5.01-.95,6.66-2.6,1.46-1.43,2.24-4.12,2.24-6.69,0-3.56-1.54-5.85-2.69-7.06-2.63-2.77-5.82-3.16-9.16-3.16-.56,0-1.6,.08-1.82,.2-.25,.11-.34,.25-.34,.56-.03,.95-.03,3.81-.03,5.96v3.47Z"/><path d="M109.42,21c-1.01,.53-2.91,.95-4.4,.95-7.76,0-10.95-5.96-10.95-11,0-4.54,3.3-10.95,11.03-10.95,6.3,0,11,4,11,10.5,0,4.93-3.11,8.2-4.96,9.41l5.74,2.97c6.13,3.16,10.39,3.3,11.79,3.3s3.58-.31,5.52-1.09c.17-.06,.31-.11,.39-.11,.11,0,.17,.08,.17,.17,0,.11-.06,.2-.22,.28-1.6,.73-4.73,1.93-8.88,1.93-3.39,0-7-1.23-11.54-3.75l-4.7-2.6Zm-3.72-.11c2.52,0,7.73-1.46,7.73-9.6,0-6.72-4.09-10.33-8.51-10.33-4.68,0-8.18,3.08-8.18,9.21,0,6.52,3.92,10.72,8.96,10.72Z"/><path d="M122.81,8.51c0-4.37,0-5.15-.06-6.05-.06-.95-.28-1.4-1.2-1.6-.22-.06-.7-.08-.95-.08-.11,0-.22-.06-.22-.17,0-.17,.14-.22,.45-.22,1.26,0,2.97,.08,3.22,.08s1.93-.08,2.77-.08c.31,0,.45,.06,.45,.22,0,.11-.11,.17-.22,.17-.2,0-.36,.03-.7,.08-.76,.11-.98,.62-1.04,1.6-.06,.9-.06,1.68-.06,6.05v3.92c0,4.03,.9,5.77,2.1,6.92,1.37,1.29,2.63,1.54,4.23,1.54,1.71,0,3.39-.81,4.4-2.02,1.29-1.6,1.62-3.98,1.62-6.86v-3.5c0-4.37,0-5.15-.06-6.05-.06-.95-.28-1.4-1.2-1.6-.22-.06-.7-.08-.95-.08-.11,0-.22-.06-.22-.17,0-.17,.14-.22,.45-.22,1.26,0,2.8,.08,2.97,.08,.2,0,1.51-.08,2.35-.08,.31,0,.45,.06,.45,.22,0,.11-.11,.17-.22,.17-.2,0-.36,.03-.7,.08-.76,.17-.98,.62-1.04,1.6-.06,.9-.06,1.68-.06,6.05v3c0,3.02-.34,6.38-2.58,8.37-2.02,1.79-4.12,2.07-5.77,2.07-.95,0-3.78-.11-5.77-1.99-1.37-1.32-2.44-3.28-2.44-7.36v-4.09Z"/><path d="M153.1,1.09c.34-.92,.45-1.09,.62-1.09s.28,.14,.62,1.01c.42,1.06,4.82,12.63,6.52,16.88,1.01,2.49,1.82,2.94,2.41,3.11,.42,.14,.84,.17,1.12,.17,.17,0,.28,.03,.28,.17,0,.17-.25,.22-.56,.22-.42,0-2.46,0-4.4-.06-.53-.03-.84-.03-.84-.2,0-.11,.08-.17,.2-.2,.17-.06,.34-.31,.17-.76l-2.6-6.89c-.06-.11-.11-.17-.25-.17h-6.02c-.14,0-.22,.08-.28,.22l-1.68,4.96c-.25,.7-.39,1.37-.39,1.88,0,.56,.59,.81,1.06,.81h.28c.2,0,.28,.06,.28,.17,0,.17-.17,.22-.42,.22-.67,0-1.88-.08-2.18-.08s-1.85,.08-3.16,.08c-.36,0-.53-.06-.53-.22,0-.11,.11-.17,.25-.17,.2,0,.59-.03,.81-.06,1.29-.17,1.85-1.23,2.35-2.63l6.36-17.39Zm2.91,11.2c.14,0,.14-.08,.11-.2l-2.66-7.56c-.14-.42-.28-.42-.42,0l-2.46,7.56c-.06,.14,0,.2,.08,.2h5.35Z"/><path d="M170.07,8.51c0-4.37,0-5.15-.06-6.05-.06-.95-.28-1.4-1.2-1.6-.22-.06-.7-.08-.95-.08-.11,0-.22-.06-.22-.17,0-.17,.14-.22,.45-.22,1.26,0,3.02,.08,3.16,.08,.31,0,2.44-.08,3.3-.08,1.76,0,3.64,.17,5.12,1.23,.7,.5,1.93,1.88,1.93,3.81,0,2.07-.87,4.14-3.39,6.47,2.3,2.94,4.2,5.43,5.82,7.17,1.51,1.6,2.72,1.9,3.42,2.02,.53,.08,.92,.08,1.09,.08,.14,0,.25,.08,.25,.17,0,.17-.17,.22-.67,.22h-1.99c-1.57,0-2.27-.14-3-.53-1.2-.64-2.18-2.02-3.78-4.12-1.18-1.54-2.49-3.42-3.05-4.14-.11-.11-.2-.17-.36-.17l-3.44-.06c-.14,0-.2,.08-.2,.22v.67c0,2.69,0,4.9,.14,6.08,.08,.81,.25,1.43,1.09,1.54,.39,.06,1.01,.11,1.26,.11,.17,0,.22,.08,.22,.17,0,.14-.14,.22-.45,.22-1.54,0-3.3-.08-3.44-.08-.03,0-1.79,.08-2.63,.08-.31,0-.45-.06-.45-.22,0-.08,.06-.17,.22-.17,.25,0,.59-.06,.84-.11,.56-.11,.7-.73,.81-1.54,.14-1.18,.14-3.39,.14-6.08v-4.93Zm2.24,2.44c0,.14,.06,.25,.2,.34,.42,.25,1.71,.45,2.94,.45,.67,0,1.46-.08,2.1-.53,.98-.67,1.71-2.18,1.71-4.31,0-3.5-1.85-5.6-4.84-5.6-.84,0-1.6,.08-1.88,.17-.14,.06-.22,.17-.22,.34V10.95Z"/><path d="M198.55,13.44c0,2.69,0,4.9,.14,6.08,.08,.81,.25,1.43,1.09,1.54,.39,.06,1.01,.11,1.26,.11,.17,0,.22,.08,.22,.17,0,.14-.14,.22-.45,.22-1.54,0-3.3-.08-3.44-.08s-1.9,.08-2.74,.08c-.31,0-.45-.06-.45-.22,0-.08,.06-.17,.22-.17,.25,0,.59-.06,.84-.11,.56-.11,.7-.73,.81-1.54,.14-1.18,.14-3.39,.14-6.08V1.6l-4.14,.06c-1.74,.03-2.41,.22-2.86,.9-.31,.48-.39,.67-.48,.87-.08,.22-.17,.28-.28,.28-.08,0-.14-.08-.14-.25,0-.28,.56-2.69,.62-2.91,.06-.17,.17-.53,.28-.53,.2,0,.48,.28,1.23,.34,.81,.08,1.88,.14,2.21,.14h10.5c.9,0,1.54-.06,1.99-.14,.42-.06,.67-.14,.78-.14,.14,0,.14,.17,.14,.34,0,.84-.08,2.77-.08,3.08,0,.25-.08,.36-.2,.36-.14,0-.2-.08-.22-.48l-.03-.31c-.08-.84-.76-1.48-3.44-1.54l-3.53-.06V13.44Z"/><path d="M213.33,8.51c0-4.37,0-5.15-.06-6.05-.06-.95-.28-1.4-1.2-1.6-.22-.06-.7-.08-.95-.08-.11,0-.22-.06-.22-.17,0-.17,.14-.22,.45-.22,.64,0,1.4,0,2.02,.03l1.15,.06c.2,0,5.77,0,6.41-.03,.53-.03,.98-.08,1.2-.14,.14-.03,.25-.14,.39-.14,.08,0,.11,.11,.11,.25,0,.2-.14,.53-.22,1.32-.03,.28-.08,1.51-.14,1.85-.03,.14-.08,.31-.2,.31-.17,0-.22-.14-.22-.36,0-.2-.03-.67-.17-1.01-.2-.45-.48-.78-1.99-.95-.48-.06-3.53-.08-3.84-.08-.11,0-.17,.08-.17,.28v7.73c0,.2,.03,.28,.17,.28,.36,0,3.81,0,4.45-.06,.67-.06,1.06-.11,1.32-.39,.2-.22,.31-.36,.42-.36,.08,0,.14,.06,.14,.22s-.14,.64-.22,1.57c-.06,.56-.11,1.6-.11,1.79,0,.22,0,.53-.2,.53-.14,0-.2-.11-.2-.25,0-.28,0-.56-.11-.92-.11-.39-.36-.87-1.46-.98-.76-.08-3.53-.14-4-.14-.14,0-.2,.08-.2,.2v2.46c0,.95-.03,4.2,0,4.79,.08,1.93,.5,2.3,3.25,2.3,.73,0,1.96,0,2.69-.31,.73-.31,1.06-.87,1.26-2.02,.06-.31,.11-.42,.25-.42,.17,0,.17,.22,.17,.42,0,.22-.22,2.13-.36,2.72-.2,.73-.42,.73-1.51,.73-2.1,0-3.64-.06-4.73-.08-1.09-.06-1.76-.08-2.18-.08-.06,0-.53,0-1.12,.03-.56,0-1.2,.06-1.62,.06-.31,0-.45-.06-.45-.22,0-.08,.06-.17,.22-.17,.25,0,.59-.06,.84-.11,.56-.11,.7-.73,.81-1.54,.14-1.18,.14-3.39,.14-6.08v-4.93Z"/><path d="M231.81,8.51c0-4.37,0-5.15-.06-6.05-.06-.95-.28-1.4-1.2-1.6-.22-.06-.7-.08-.95-.08-.11,0-.22-.06-.22-.17,0-.17,.14-.22,.45-.22,1.26,0,3.02,.08,3.16,.08,.31,0,2.44-.08,3.3-.08,1.76,0,3.64,.17,5.12,1.23,.7,.5,1.93,1.88,1.93,3.81,0,2.07-.87,4.14-3.39,6.47,2.3,2.94,4.2,5.43,5.82,7.17,1.51,1.6,2.72,1.9,3.42,2.02,.53,.08,.92,.08,1.09,.08,.14,0,.25,.08,.25,.17,0,.17-.17,.22-.67,.22h-1.99c-1.57,0-2.27-.14-3-.53-1.2-.64-2.18-2.02-3.78-4.12-1.18-1.54-2.49-3.42-3.05-4.14-.11-.11-.2-.17-.36-.17l-3.44-.06c-.14,0-.2,.08-.2,.22v.67c0,2.69,0,4.9,.14,6.08,.08,.81,.25,1.43,1.09,1.54,.39,.06,1.01,.11,1.26,.11,.17,0,.22,.08,.22,.17,0,.14-.14,.22-.45,.22-1.54,0-3.3-.08-3.44-.08-.03,0-1.79,.08-2.63,.08-.31,0-.45-.06-.45-.22,0-.08,.06-.17,.22-.17,.25,0,.59-.06,.84-.11,.56-.11,.7-.73,.81-1.54,.14-1.18,.14-3.39,.14-6.08v-4.93Zm2.24,2.44c0,.14,.06,.25,.2,.34,.42,.25,1.71,.45,2.94,.45,.67,0,1.46-.08,2.1-.53,.98-.67,1.71-2.18,1.71-4.31,0-3.5-1.85-5.6-4.84-5.6-.84,0-1.6,.08-1.88,.17-.14,.06-.22,.17-.22,.34V10.95Z"/><path d="M252.53,21.2c-.39-.2-.42-.31-.42-1.06,0-1.4,.11-2.52,.14-2.97,.03-.31,.08-.45,.22-.45,.17,0,.2,.08,.2,.31,0,.25,0,.64,.08,1.04,.42,2.07,2.27,2.86,4.14,2.86,2.69,0,4-1.93,4-3.72,0-1.93-.81-3.05-3.22-5.04l-1.26-1.04c-2.97-2.44-3.64-4.17-3.64-6.08,0-3,2.24-5.04,5.8-5.04,1.09,0,1.9,.11,2.6,.28,.53,.11,.76,.14,.98,.14s.28,.06,.28,.2-.11,1.06-.11,2.97c0,.45-.06,.64-.2,.64-.17,0-.2-.14-.22-.36-.03-.34-.2-1.09-.36-1.4-.17-.31-.92-1.48-3.5-1.48-1.93,0-3.44,1.2-3.44,3.25,0,1.6,.73,2.6,3.42,4.7l.78,.62c3.3,2.6,4.09,4.34,4.09,6.58,0,1.15-.45,3.28-2.38,4.65-1.2,.84-2.72,1.18-4.23,1.18-1.32,0-2.6-.2-3.75-.76Z"/></g></g></svg>