<?xml version="1.0" encoding="UTF-8"?><svg id="_レイヤー_2" xmlns="http://www.w3.org/2000/svg" width="106.62" height="21.95" viewBox="0 0 106.62 21.95"><g id="_レイヤー_1-2"><g><path d="M11.03,0c6.3,0,11,3.98,11,10.5s-4.42,11.45-11.17,11.45C3.19,21.95,0,15.99,0,10.95,0,6.41,3.3,0,11.03,0Zm.59,20.89c2.52,0,7.73-1.46,7.73-9.6C19.35,4.56,15.26,.95,10.84,.95,6.16,.95,2.66,4.03,2.66,10.16c0,6.52,3.92,10.72,8.96,10.72Z"/><path d="M28.42,21.2c-.39-.2-.42-.31-.42-1.06,0-1.4,.11-2.52,.14-2.97,.03-.31,.08-.45,.22-.45,.17,0,.2,.08,.2,.31,0,.25,0,.64,.08,1.04,.42,2.07,2.27,2.86,4.14,2.86,2.69,0,4-1.93,4-3.72,0-1.93-.81-3.05-3.22-5.04l-1.26-1.04c-2.97-2.44-3.64-4.17-3.64-6.08,0-3,2.24-5.04,5.8-5.04,1.09,0,1.9,.11,2.6,.28,.53,.11,.76,.14,.98,.14s.28,.06,.28,.2-.11,1.06-.11,2.97c0,.45-.06,.64-.2,.64-.17,0-.2-.14-.22-.36-.03-.34-.2-1.09-.36-1.4-.17-.31-.92-1.48-3.5-1.48-1.93,0-3.44,1.2-3.44,3.25,0,1.6,.73,2.6,3.42,4.7l.78,.62c3.3,2.6,4.09,4.34,4.09,6.58,0,1.15-.45,3.28-2.38,4.65-1.2,.84-2.72,1.18-4.23,1.18-1.32,0-2.6-.2-3.75-.76Z"/><path d="M51.6,1.09c.34-.92,.45-1.09,.62-1.09s.28,.14,.62,1.01c.42,1.06,4.82,12.63,6.52,16.88,1.01,2.49,1.82,2.94,2.41,3.11,.42,.14,.84,.17,1.12,.17,.17,0,.28,.03,.28,.17,0,.17-.25,.22-.56,.22-.42,0-2.46,0-4.4-.06-.53-.03-.84-.03-.84-.2,0-.11,.08-.17,.2-.2,.17-.06,.34-.31,.17-.76l-2.6-6.89c-.06-.11-.11-.17-.25-.17h-6.02c-.14,0-.22,.08-.28,.22l-1.68,4.96c-.25,.7-.39,1.37-.39,1.88,0,.56,.59,.81,1.06,.81h.28c.2,0,.28,.06,.28,.17,0,.17-.17,.22-.42,.22-.67,0-1.88-.08-2.18-.08s-1.85,.08-3.16,.08c-.36,0-.53-.06-.53-.22,0-.11,.11-.17,.25-.17,.2,0,.59-.03,.81-.06,1.29-.17,1.85-1.23,2.35-2.63L51.6,1.09Zm2.91,11.2c.14,0,.14-.08,.11-.2l-2.66-7.56c-.14-.42-.28-.42-.42,0l-2.46,7.56c-.06,.14,0,.2,.08,.2h5.35Z"/><path d="M68.57,8.51c0-4.37,0-5.15-.06-6.05-.06-.95-.28-1.4-1.2-1.6-.22-.06-.7-.08-.95-.08-.11,0-.22-.06-.22-.17,0-.17,.14-.22,.45-.22,1.26,0,2.91,.08,3.08,.08,.25,0,1.88-.08,2.72-.08,.31,0,.45,.06,.45,.22,0,.11-.11,.17-.22,.17-.2,0-.36,.03-.7,.08-.76,.14-.98,.62-1.04,1.6-.06,.9-.06,1.68-.06,6.05v1.68h.11c.48-.53,5.54-5.68,6.55-6.78,.78-.81,1.51-1.54,1.51-2.02,0-.34-.14-.5-.36-.59-.14-.06-.25-.11-.25-.22,0-.14,.14-.2,.34-.2,.56,0,1.43,.08,2.1,.08,.14,0,1.99-.08,2.69-.08,.31,0,.42,.06,.42,.2s-.06,.2-.28,.2c-.42,0-1.01,.14-1.57,.39-1.15,.5-1.76,1.2-3.02,2.41-.7,.67-5.57,5.43-6.16,6.13,.73,.81,6.55,6.83,7.7,7.9,2.35,2.18,2.83,2.63,4.17,3.19,.73,.31,1.54,.36,1.74,.36s.36,.06,.36,.17c0,.14-.14,.22-.62,.22h-1.43c-.78,0-1.32,0-1.93-.06-1.48-.14-2.18-.76-3.39-1.71-1.26-1.04-7.2-7.45-8.54-9.1h-.14v2.74c0,2.69,0,4.9,.14,6.08,.08,.81,.25,1.43,1.09,1.54,.39,.06,.84,.11,1.09,.11,.17,0,.22,.08,.22,.17,0,.14-.14,.22-.45,.22-1.37,0-3-.08-3.22-.08s-1.85,.08-2.69,.08c-.31,0-.45-.06-.45-.22,0-.08,.06-.17,.22-.17,.25,0,.59-.06,.84-.11,.56-.11,.7-.73,.81-1.54,.14-1.18,.14-3.39,.14-6.08v-4.93Z"/><path d="M95.06,1.09c.34-.92,.45-1.09,.62-1.09s.28,.14,.62,1.01c.42,1.06,4.82,12.63,6.52,16.88,1.01,2.49,1.82,2.94,2.41,3.11,.42,.14,.84,.17,1.12,.17,.17,0,.28,.03,.28,.17,0,.17-.25,.22-.56,.22-.42,0-2.46,0-4.4-.06-.53-.03-.84-.03-.84-.2,0-.11,.08-.17,.2-.2,.17-.06,.34-.31,.17-.76l-2.6-6.89c-.06-.11-.11-.17-.25-.17h-6.02c-.14,0-.22,.08-.28,.22l-1.68,4.96c-.25,.7-.39,1.37-.39,1.88,0,.56,.59,.81,1.06,.81h.28c.2,0,.28,.06,.28,.17,0,.17-.17,.22-.42,.22-.67,0-1.88-.08-2.18-.08s-1.85,.08-3.16,.08c-.36,0-.53-.06-.53-.22,0-.11,.11-.17,.25-.17,.2,0,.59-.03,.81-.06,1.29-.17,1.85-1.23,2.35-2.63L95.06,1.09Zm2.91,11.2c.14,0,.14-.08,.11-.2l-2.66-7.56c-.14-.42-.28-.42-.42,0l-2.46,7.56c-.06,.14,0,.2,.08,.2h5.35Z"/></g></g></svg>