<?xml version="1.0" encoding="UTF-8"?>
<svg id="_レイヤー_2" data-name="レイヤー 2" xmlns="http://www.w3.org/2000/svg" xmlns:xlink="http://www.w3.org/1999/xlink" viewBox="0 0 330 130">
  <defs>
    <style>
      .cls-1 {
        fill: none;
      }

      .cls-1, .cls-2 {
        stroke-width: 0px;
      }

      .cls-3 {
        clip-path: url(#clippath);
      }

      .cls-2 {
        fill: #d9d9d9;
      }
    </style>
    <clipPath id="clippath">
      <rect class="cls-1" width="330" height="130"/>
    </clipPath>
  </defs>
  <g id="_レイヤー_1-2" data-name="レイヤー 1">
    <g class="cls-3">
      <g>
        <path class="cls-2" d="m227.37,53.43c-1.09,0-1.99-.89-1.99-1.99s.89-1.99,1.99-1.99,1.99.89,1.99,1.99-.89,1.99-1.99,1.99Z"/>
        <path class="cls-2" d="m221.95,58.85c-1.09,0-1.99-.89-1.99-1.99s.89-1.99,1.99-1.99,1.99.89,1.99,1.99-.89,1.99-1.99,1.99Z"/>
        <path class="cls-2" d="m221.95,48c-1.09,0-1.99-.89-1.99-1.99s.89-1.99,1.99-1.99,1.99.89,1.99,1.99-.89,1.99-1.99,1.99Z"/>
        <path class="cls-2" d="m227.37,75.12c-1.09,0-1.99-.89-1.99-1.99s.89-1.99,1.99-1.99,1.99.89,1.99,1.99-.89,1.99-1.99,1.99Z"/>
        <path class="cls-2" d="m221.95,80.55c-1.09,0-1.99-.89-1.99-1.99s.89-1.99,1.99-1.99,1.99.89,1.99,1.99-.89,1.99-1.99,1.99Z"/>
        <path class="cls-2" d="m232.8,80.55c-1.1,0-1.99-.89-1.99-1.99s.89-1.99,1.99-1.99,1.99.89,1.99,1.99-.89,1.99-1.99,1.99Z"/>
        <path class="cls-2" d="m221.95,69.7c-1.09,0-1.99-.89-1.99-1.99s.89-1.99,1.99-1.99,1.99.89,1.99,1.99-.89,1.99-1.99,1.99Z"/>
        <path class="cls-2" d="m227.37,64.27c-1.09,0-1.99-.89-1.99-1.99s.89-1.99,1.99-1.99,1.99.89,1.99,1.99-.89,1.99-1.99,1.99Z"/>
        <path class="cls-2" d="m227.37,96.82c-1.09,0-1.99-.89-1.99-1.99s.89-1.99,1.99-1.99,1.99.89,1.99,1.99-.89,1.99-1.99,1.99Z"/>
        <path class="cls-2" d="m221.95,102.24c-1.09,0-1.99-.89-1.99-1.99s.89-1.99,1.99-1.99,1.99.89,1.99,1.99-.89,1.99-1.99,1.99Z"/>
        <path class="cls-2" d="m221.95,91.4c-1.09,0-1.99-.89-1.99-1.99s.89-1.99,1.99-1.99,1.99.89,1.99,1.99-.89,1.99-1.99,1.99Z"/>
        <path class="cls-2" d="m232.8,91.4c-1.1,0-1.99-.89-1.99-1.99s.89-1.99,1.99-1.99,1.99.89,1.99,1.99-.89,1.99-1.99,1.99Z"/>
        <path class="cls-2" d="m227.37,85.97c-1.09,0-1.99-.89-1.99-1.99s.89-1.99,1.99-1.99,1.99.89,1.99,1.99-.89,1.99-1.99,1.99Z"/>
        <path class="cls-2" d="m200.25,15.46c-1.09,0-1.99-.89-1.99-1.99s.89-1.99,1.99-1.99,1.99.89,1.99,1.99-.89,1.99-1.99,1.99Z"/>
        <path class="cls-2" d="m216.53,42.58c-.53,0-1.03-.21-1.41-.58-.18-.18-.32-.39-.42-.63-.1-.24-.16-.5-.16-.77s.05-.53.16-.77c.1-.24.24-.45.43-.63.38-.37.87-.58,1.4-.58.27,0,.53.05.77.16.47.2.86.59,1.06,1.06.1.24.16.5.16.77s-.05.53-.16.77c-.2.47-.58.86-1.06,1.06-.25.1-.5.16-.77.16Z"/>
        <path class="cls-2" d="m205.68,42.58c-.8,0-1.52-.48-1.83-1.21-.1-.24-.15-.51-.15-.77s.05-.53.15-.77c.31-.74,1.03-1.21,1.83-1.21s1.52.48,1.83,1.21c.1.24.16.5.16.77s-.05.53-.16.77c-.31.74-1.03,1.21-1.83,1.21Z"/>
        <path class="cls-2" d="m216.53,31.73c-.53,0-1.03-.21-1.41-.58-.37-.37-.58-.87-.58-1.41s.21-1.03.58-1.41c.38-.38.87-.58,1.41-.58.27,0,.53.05.77.16.74.31,1.22,1.03,1.22,1.83s-.48,1.52-1.22,1.83c-.25.1-.5.16-.77.16Z"/>
        <path class="cls-2" d="m205.68,31.73c-1.09,0-1.99-.89-1.99-1.99s.89-1.99,1.99-1.99,1.99.89,1.99,1.99-.89,1.99-1.99,1.99Z"/>
        <path class="cls-2" d="m200.25,37.15c-1.09,0-1.99-.89-1.99-1.99s.89-1.99,1.99-1.99,1.99.89,1.99,1.99-.89,1.99-1.99,1.99Z"/>
        <path class="cls-2" d="m211.1,37.15c-1.09,0-1.99-.89-1.99-1.99s.89-1.99,1.99-1.99,1.99.89,1.99,1.99-.89,1.99-1.99,1.99Z"/>
        <path class="cls-2" d="m200.25,26.31c-1.09,0-1.99-.89-1.99-1.99s.89-1.99,1.99-1.99,1.99.89,1.99,1.99-.89,1.99-1.99,1.99Z"/>
        <path class="cls-2" d="m211.1,26.31c-1.09,0-1.99-.89-1.99-1.99s.89-1.99,1.99-1.99,1.99.89,1.99,1.99-.89,1.99-1.99,1.99Z"/>
        <path class="cls-2" d="m216.53,20.88c-.53,0-1.03-.21-1.41-.58-.37-.37-.58-.87-.58-1.41s.21-1.03.58-1.41c.38-.38.87-.58,1.41-.58.27,0,.53.05.77.16.74.31,1.22,1.03,1.22,1.83s-.48,1.52-1.22,1.83c-.25.1-.5.16-.77.16Z"/>
        <path class="cls-2" d="m205.68,20.88c-1.09,0-1.99-.89-1.99-1.99s.89-1.99,1.99-1.99,1.99.89,1.99,1.99-.89,1.99-1.99,1.99Z"/>
        <path class="cls-2" d="m216.53,53.43c-.53,0-1.03-.21-1.41-.58-.37-.37-.58-.87-.58-1.41s.21-1.03.58-1.41c.38-.38.87-.58,1.41-.58.27,0,.53.05.77.16.74.31,1.22,1.03,1.22,1.83s-.48,1.52-1.22,1.83c-.25.1-.5.16-.77.16Z"/>
        <path class="cls-2" d="m205.68,53.43c-1.09,0-1.99-.89-1.99-1.99s.89-1.99,1.99-1.99,1.99.89,1.99,1.99-.89,1.99-1.99,1.99Z"/>
        <path class="cls-2" d="m200.25,58.85c-1.09,0-1.99-.89-1.99-1.99s.89-1.99,1.99-1.99,1.99.89,1.99,1.99-.89,1.99-1.99,1.99Z"/>
        <path class="cls-2" d="m211.1,58.85c-1.09,0-1.99-.89-1.99-1.99s.89-1.99,1.99-1.99,1.99.89,1.99,1.99-.89,1.99-1.99,1.99Z"/>
        <path class="cls-2" d="m200.25,48c-1.09,0-1.99-.89-1.99-1.99s.89-1.99,1.99-1.99,1.99.89,1.99,1.99-.89,1.99-1.99,1.99Z"/>
        <path class="cls-2" d="m211.1,48c-1.09,0-1.99-.89-1.99-1.99s.89-1.99,1.99-1.99,1.99.89,1.99,1.99-.89,1.99-1.99,1.99Z"/>
        <path class="cls-2" d="m216.53,75.12c-.53,0-1.03-.21-1.41-.58-.37-.37-.58-.87-.58-1.41s.21-1.03.58-1.41c.38-.38.87-.58,1.41-.58.27,0,.53.05.77.16.74.31,1.22,1.03,1.22,1.83s-.48,1.52-1.22,1.83c-.25.1-.5.16-.77.16Z"/>
        <path class="cls-2" d="m205.68,75.12c-1.09,0-1.99-.89-1.99-1.99s.89-1.99,1.99-1.99,1.99.89,1.99,1.99-.89,1.99-1.99,1.99Z"/>
        <path class="cls-2" d="m200.25,80.55c-1.09,0-1.99-.89-1.99-1.99s.89-1.99,1.99-1.99,1.99.89,1.99,1.99-.89,1.99-1.99,1.99Z"/>
        <path class="cls-2" d="m211.1,80.55c-1.09,0-1.99-.89-1.99-1.99s.89-1.99,1.99-1.99,1.99.89,1.99,1.99-.89,1.99-1.99,1.99Z"/>
        <path class="cls-2" d="m200.25,69.7c-1.09,0-1.99-.89-1.99-1.99s.89-1.99,1.99-1.99,1.99.89,1.99,1.99-.89,1.99-1.99,1.99Z"/>
        <path class="cls-2" d="m211.1,69.7c-1.09,0-1.99-.89-1.99-1.99s.89-1.99,1.99-1.99,1.99.89,1.99,1.99-.89,1.99-1.99,1.99Z"/>
        <path class="cls-2" d="m216.53,64.27c-.53,0-1.03-.21-1.41-.58-.37-.37-.58-.87-.58-1.41s.21-1.03.58-1.41c.38-.38.87-.58,1.41-.58.27,0,.53.05.77.16.74.31,1.22,1.03,1.22,1.83s-.48,1.52-1.22,1.83c-.24.1-.5.16-.77.16Z"/>
        <path class="cls-2" d="m205.68,64.27c-1.09,0-1.99-.89-1.99-1.99s.89-1.99,1.99-1.99,1.99.89,1.99,1.99-.89,1.99-1.99,1.99Z"/>
        <path class="cls-2" d="m205.68,107.67c-1.09,0-1.99-.89-1.99-1.99,0-.27.05-.53.15-.77.31-.74,1.03-1.21,1.83-1.21s1.52.48,1.83,1.21c.1.24.16.5.16.77,0,1.1-.89,1.99-1.99,1.99Z"/>
        <path class="cls-2" d="m216.53,96.82c-.53,0-1.03-.21-1.41-.58-.37-.37-.58-.87-.58-1.41s.21-1.03.58-1.41c.38-.38.87-.58,1.41-.58.27,0,.53.05.77.16.74.31,1.22,1.03,1.22,1.83s-.48,1.52-1.22,1.83c-.25.1-.5.16-.77.16Z"/>
        <path class="cls-2" d="m205.68,96.82c-1.09,0-1.99-.89-1.99-1.99s.89-1.99,1.99-1.99,1.99.89,1.99,1.99-.89,1.99-1.99,1.99Z"/>
        <path class="cls-2" d="m200.25,102.24c-1.09,0-1.99-.89-1.99-1.99s.89-1.99,1.99-1.99,1.99.89,1.99,1.99-.89,1.99-1.99,1.99Z"/>
        <path class="cls-2" d="m211.1,102.24c-1.09,0-1.99-.89-1.99-1.99s.89-1.99,1.99-1.99,1.99.89,1.99,1.99-.89,1.99-1.99,1.99Z"/>
        <path class="cls-2" d="m200.25,91.4c-1.09,0-1.99-.89-1.99-1.99s.89-1.99,1.99-1.99,1.99.89,1.99,1.99-.89,1.99-1.99,1.99Z"/>
        <path class="cls-2" d="m211.1,91.4c-1.09,0-1.99-.89-1.99-1.99s.89-1.99,1.99-1.99,1.99.89,1.99,1.99-.89,1.99-1.99,1.99Z"/>
        <path class="cls-2" d="m216.53,85.97c-.53,0-1.03-.21-1.41-.58-.37-.37-.58-.87-.58-1.41s.21-1.03.58-1.41c.38-.38.87-.58,1.41-.58.27,0,.53.05.77.16.74.31,1.22,1.03,1.22,1.83s-.48,1.52-1.22,1.83c-.24.1-.5.16-.77.16Z"/>
        <path class="cls-2" d="m205.68,85.97c-1.09,0-1.99-.89-1.99-1.99s.89-1.99,1.99-1.99,1.99.89,1.99,1.99-.89,1.99-1.99,1.99Z"/>
        <path class="cls-2" d="m200.25,113.09c-1.09,0-1.99-.89-1.99-1.99s.89-1.99,1.99-1.99,1.99.89,1.99,1.99-.89,1.99-1.99,1.99Z"/>
        <path class="cls-2" d="m178.56,15.46c-1.09,0-1.99-.89-1.99-1.99s.89-1.99,1.99-1.99,1.99.89,1.99,1.99-.89,1.99-1.99,1.99Z"/>
        <path class="cls-2" d="m189.41,15.46c-1.1,0-1.99-.89-1.99-1.99s.89-1.99,1.99-1.99,1.99.89,1.99,1.99-.89,1.99-1.99,1.99Z"/>
        <path class="cls-2" d="m194.83,42.58c-.8,0-1.52-.48-1.83-1.21-.1-.24-.16-.5-.16-.77s.05-.53.16-.77c.31-.74,1.03-1.21,1.83-1.21s1.52.48,1.83,1.21c.1.24.16.5.16.77s-.05.53-.16.77c-.31.74-1.03,1.21-1.83,1.21Z"/>
        <path class="cls-2" d="m183.98,42.58c-.8,0-1.52-.48-1.83-1.21-.1-.24-.16-.5-.16-.77s.05-.53.16-.77c.31-.74,1.03-1.21,1.83-1.21s1.52.48,1.83,1.21c.1.24.16.5.16.77s-.05.53-.16.77c-.31.74-1.03,1.21-1.83,1.21Z"/>
        <path class="cls-2" d="m194.83,31.73c-1.09,0-1.99-.89-1.99-1.99s.89-1.99,1.99-1.99c.8,0,1.52.48,1.83,1.21.1.24.16.5.16.77s-.05.53-.16.77c-.31.74-1.03,1.21-1.83,1.21Z"/>
        <path class="cls-2" d="m183.98,31.73c-1.09,0-1.99-.89-1.99-1.99s.89-1.99,1.99-1.99,1.99.89,1.99,1.99-.89,1.99-1.99,1.99Z"/>
        <path class="cls-2" d="m178.56,37.15c-1.09,0-1.99-.89-1.99-1.99s.89-1.99,1.99-1.99,1.99.89,1.99,1.99-.89,1.99-1.99,1.99Z"/>
        <path class="cls-2" d="m189.41,37.15c-1.1,0-1.99-.89-1.99-1.99s.89-1.99,1.99-1.99,1.99.89,1.99,1.99-.89,1.99-1.99,1.99Z"/>
        <path class="cls-2" d="m178.56,26.31c-1.09,0-1.99-.89-1.99-1.99s.89-1.99,1.99-1.99,1.99.89,1.99,1.99-.89,1.99-1.99,1.99Z"/>
        <path class="cls-2" d="m189.41,26.31c-1.1,0-1.99-.89-1.99-1.99s.89-1.99,1.99-1.99,1.99.89,1.99,1.99-.89,1.99-1.99,1.99Z"/>
        <path class="cls-2" d="m194.83,20.88c-1.09,0-1.99-.89-1.99-1.99s.89-1.99,1.99-1.99c.8,0,1.52.48,1.83,1.21.1.24.16.5.16.77s-.05.53-.16.77c-.31.74-1.03,1.21-1.83,1.21Z"/>
        <path class="cls-2" d="m183.98,20.88c-1.09,0-1.99-.89-1.99-1.99s.89-1.99,1.99-1.99,1.99.89,1.99,1.99-.89,1.99-1.99,1.99Z"/>
        <path class="cls-2" d="m194.83,53.43c-1.09,0-1.99-.89-1.99-1.99s.89-1.99,1.99-1.99c.8,0,1.52.48,1.83,1.21.1.24.16.5.16.77s-.05.53-.16.77c-.31.74-1.03,1.21-1.83,1.21Z"/>
        <path class="cls-2" d="m183.98,53.43c-1.09,0-1.99-.89-1.99-1.99s.89-1.99,1.99-1.99,1.99.89,1.99,1.99-.89,1.99-1.99,1.99Z"/>
        <path class="cls-2" d="m178.56,58.85c-1.09,0-1.99-.89-1.99-1.99s.89-1.99,1.99-1.99,1.99.89,1.99,1.99-.89,1.99-1.99,1.99Z"/>
        <path class="cls-2" d="m189.41,58.85c-1.1,0-1.99-.89-1.99-1.99s.89-1.99,1.99-1.99,1.99.89,1.99,1.99-.89,1.99-1.99,1.99Z"/>
        <path class="cls-2" d="m178.56,48c-1.09,0-1.99-.89-1.99-1.99s.89-1.99,1.99-1.99,1.99.89,1.99,1.99-.89,1.99-1.99,1.99Z"/>
        <path class="cls-2" d="m189.41,48c-1.1,0-1.99-.89-1.99-1.99s.89-1.99,1.99-1.99,1.99.89,1.99,1.99-.89,1.99-1.99,1.99Z"/>
        <path class="cls-2" d="m194.83,75.12c-1.09,0-1.99-.89-1.99-1.99s.89-1.99,1.99-1.99c.8,0,1.52.48,1.83,1.21.1.24.16.5.16.77s-.05.53-.16.77c-.31.74-1.03,1.21-1.83,1.21Z"/>
        <path class="cls-2" d="m183.98,75.12c-1.09,0-1.99-.89-1.99-1.99s.89-1.99,1.99-1.99,1.99.89,1.99,1.99-.89,1.99-1.99,1.99Z"/>
        <path class="cls-2" d="m178.56,80.55c-1.09,0-1.99-.89-1.99-1.99s.89-1.99,1.99-1.99,1.99.89,1.99,1.99-.89,1.99-1.99,1.99Z"/>
        <path class="cls-2" d="m189.41,80.55c-1.1,0-1.99-.89-1.99-1.99s.89-1.99,1.99-1.99,1.99.89,1.99,1.99-.89,1.99-1.99,1.99Z"/>
        <path class="cls-2" d="m178.56,69.7c-1.09,0-1.99-.89-1.99-1.99s.89-1.99,1.99-1.99,1.99.89,1.99,1.99-.89,1.99-1.99,1.99Z"/>
        <path class="cls-2" d="m189.41,69.7c-1.1,0-1.99-.89-1.99-1.99s.89-1.99,1.99-1.99,1.99.89,1.99,1.99-.89,1.99-1.99,1.99Z"/>
        <path class="cls-2" d="m194.83,64.27c-1.09,0-1.99-.89-1.99-1.99s.89-1.99,1.99-1.99c.8,0,1.52.48,1.83,1.21.1.24.16.5.16.77s-.05.53-.16.77c-.31.74-1.03,1.21-1.83,1.21Z"/>
        <path class="cls-2" d="m183.98,64.27c-1.09,0-1.99-.89-1.99-1.99s.89-1.99,1.99-1.99,1.99.89,1.99,1.99-.89,1.99-1.99,1.99Z"/>
        <path class="cls-2" d="m194.83,107.67c-1.09,0-1.99-.89-1.99-1.99,0-.27.05-.53.16-.77.31-.74,1.03-1.21,1.83-1.21s1.52.48,1.83,1.21c.1.24.16.5.16.77s-.05.53-.16.77c-.31.74-1.03,1.21-1.83,1.21Z"/>
        <path class="cls-2" d="m183.98,107.67c-1.09,0-1.99-.89-1.99-1.99,0-.27.05-.53.16-.77.31-.74,1.03-1.21,1.83-1.21s1.52.48,1.83,1.21c.1.24.16.5.16.77,0,1.1-.89,1.99-1.99,1.99Z"/>
        <path class="cls-2" d="m194.83,96.82c-1.09,0-1.99-.89-1.99-1.99s.89-1.99,1.99-1.99c.8,0,1.52.48,1.83,1.21.1.24.16.5.16.77s-.05.53-.16.77c-.31.74-1.03,1.21-1.83,1.21Z"/>
        <path class="cls-2" d="m183.98,96.82c-1.09,0-1.99-.89-1.99-1.99s.89-1.99,1.99-1.99,1.99.89,1.99,1.99-.89,1.99-1.99,1.99Z"/>
        <path class="cls-2" d="m178.56,102.24c-1.09,0-1.99-.89-1.99-1.99s.89-1.99,1.99-1.99,1.99.89,1.99,1.99-.89,1.99-1.99,1.99Z"/>
        <path class="cls-2" d="m189.41,102.24c-1.1,0-1.99-.89-1.99-1.99s.89-1.99,1.99-1.99,1.99.89,1.99,1.99-.89,1.99-1.99,1.99Z"/>
        <path class="cls-2" d="m178.56,91.4c-1.09,0-1.99-.89-1.99-1.99s.89-1.99,1.99-1.99,1.99.89,1.99,1.99-.89,1.99-1.99,1.99Z"/>
        <path class="cls-2" d="m189.41,91.4c-1.1,0-1.99-.89-1.99-1.99s.89-1.99,1.99-1.99,1.99.89,1.99,1.99-.89,1.99-1.99,1.99Z"/>
        <path class="cls-2" d="m194.83,85.97c-1.09,0-1.99-.89-1.99-1.99s.89-1.99,1.99-1.99c.8,0,1.52.48,1.83,1.21.1.24.16.5.16.77s-.05.53-.16.77c-.31.74-1.03,1.21-1.83,1.21Z"/>
        <path class="cls-2" d="m183.98,85.97c-1.09,0-1.99-.89-1.99-1.99s.89-1.99,1.99-1.99,1.99.89,1.99,1.99-.89,1.99-1.99,1.99Z"/>
        <path class="cls-2" d="m178.56,113.09c-1.09,0-1.99-.89-1.99-1.99s.89-1.99,1.99-1.99,1.99.89,1.99,1.99-.89,1.99-1.99,1.99Z"/>
        <path class="cls-2" d="m173.13,42.58c-.8,0-1.52-.48-1.83-1.21-.1-.24-.16-.5-.16-.77s.05-.53.16-.77c.31-.74,1.03-1.21,1.83-1.21s1.52.48,1.83,1.21c.1.25.16.51.16.77s-.05.53-.16.77c-.31.74-1.03,1.21-1.83,1.21Z"/>
        <path class="cls-2" d="m162.29,42.58c-.8,0-1.52-.48-1.83-1.21-.1-.24-.16-.5-.16-.77s.05-.53.16-.77c.31-.74,1.03-1.21,1.83-1.21s1.52.48,1.83,1.21c.1.24.16.5.16.77s-.05.53-.16.77c-.31.74-1.03,1.21-1.83,1.21Z"/>
        <path class="cls-2" d="m173.13,31.73c-1.09,0-1.99-.89-1.99-1.99s.89-1.99,1.99-1.99,1.99.89,1.99,1.99-.89,1.99-1.99,1.99Z"/>
        <path class="cls-2" d="m162.29,31.73c-1.09,0-1.99-.89-1.99-1.99s.89-1.99,1.99-1.99,1.99.89,1.99,1.99-.89,1.99-1.99,1.99Z"/>
        <path class="cls-2" d="m156.87,37.15c-1.1,0-1.99-.89-1.99-1.99s.89-1.99,1.99-1.99,1.99.89,1.99,1.99-.89,1.99-1.99,1.99Z"/>
        <path class="cls-2" d="m167.71,37.15c-1.1,0-1.99-.89-1.99-1.99s.89-1.99,1.99-1.99,1.99.89,1.99,1.99-.89,1.99-1.99,1.99Z"/>
        <path class="cls-2" d="m167.71,26.31c-1.1,0-1.99-.89-1.99-1.99s.89-1.99,1.99-1.99,1.99.89,1.99,1.99-.89,1.99-1.99,1.99Z"/>
        <path class="cls-2" d="m173.13,20.88c-1.09,0-1.99-.89-1.99-1.99s.89-1.99,1.99-1.99,1.99.89,1.99,1.99-.89,1.99-1.99,1.99Z"/>
        <path class="cls-2" d="m173.13,53.43c-1.09,0-1.99-.89-1.99-1.99s.89-1.99,1.99-1.99,1.99.89,1.99,1.99-.89,1.99-1.99,1.99Z"/>
        <path class="cls-2" d="m162.29,53.43c-1.09,0-1.99-.89-1.99-1.99s.89-1.99,1.99-1.99,1.99.89,1.99,1.99-.89,1.99-1.99,1.99Z"/>
        <path class="cls-2" d="m156.87,58.85c-1.1,0-1.99-.89-1.99-1.99s.89-1.99,1.99-1.99,1.99.89,1.99,1.99-.89,1.99-1.99,1.99Z"/>
        <path class="cls-2" d="m167.71,58.85c-1.1,0-1.99-.89-1.99-1.99s.89-1.99,1.99-1.99,1.99.89,1.99,1.99-.89,1.99-1.99,1.99Z"/>
        <path class="cls-2" d="m156.87,48c-1.1,0-1.99-.89-1.99-1.99s.89-1.99,1.99-1.99,1.99.89,1.99,1.99-.89,1.99-1.99,1.99Z"/>
        <path class="cls-2" d="m167.71,48c-1.1,0-1.99-.89-1.99-1.99s.89-1.99,1.99-1.99,1.99.89,1.99,1.99-.89,1.99-1.99,1.99Z"/>
        <path class="cls-2" d="m173.13,75.12c-1.09,0-1.99-.89-1.99-1.99s.89-1.99,1.99-1.99,1.99.89,1.99,1.99-.89,1.99-1.99,1.99Z"/>
        <path class="cls-2" d="m162.29,75.12c-1.09,0-1.99-.89-1.99-1.99s.89-1.99,1.99-1.99,1.99.89,1.99,1.99-.89,1.99-1.99,1.99Z"/>
        <circle class="cls-2" cx="156.87" cy="78.56" r="1.99"/>
        <path class="cls-2" d="m167.71,80.55c-1.1,0-1.99-.89-1.99-1.99s.89-1.99,1.99-1.99,1.99.89,1.99,1.99-.89,1.99-1.99,1.99Z"/>
        <path class="cls-2" d="m156.87,69.7c-1.1,0-1.99-.89-1.99-1.99s.89-1.99,1.99-1.99,1.99.89,1.99,1.99-.89,1.99-1.99,1.99Z"/>
        <path class="cls-2" d="m167.71,69.7c-1.1,0-1.99-.89-1.99-1.99s.89-1.99,1.99-1.99,1.99.89,1.99,1.99-.89,1.99-1.99,1.99Z"/>
        <path class="cls-2" d="m173.13,64.27c-1.09,0-1.99-.89-1.99-1.99s.89-1.99,1.99-1.99,1.99.89,1.99,1.99-.89,1.99-1.99,1.99Z"/>
        <path class="cls-2" d="m162.29,64.27c-1.09,0-1.99-.89-1.99-1.99s.89-1.99,1.99-1.99,1.99.89,1.99,1.99-.89,1.99-1.99,1.99Z"/>
        <path class="cls-2" d="m173.13,107.67c-1.09,0-1.99-.89-1.99-1.99,0-.27.05-.53.16-.77.31-.74,1.03-1.21,1.83-1.21s1.52.48,1.83,1.21c.1.25.16.51.16.77,0,1.1-.89,1.99-1.99,1.99Z"/>
        <path class="cls-2" d="m162.29,107.67c-1.09,0-1.99-.89-1.99-1.99,0-.27.05-.53.16-.77.31-.74,1.03-1.21,1.83-1.21s1.52.48,1.83,1.21c.1.24.16.5.16.77,0,1.1-.89,1.99-1.99,1.99Z"/>
        <path class="cls-2" d="m173.13,96.82c-1.09,0-1.99-.89-1.99-1.99s.89-1.99,1.99-1.99,1.99.89,1.99,1.99-.89,1.99-1.99,1.99Z"/>
        <path class="cls-2" d="m162.29,96.82c-1.09,0-1.99-.89-1.99-1.99s.89-1.99,1.99-1.99,1.99.89,1.99,1.99-.89,1.99-1.99,1.99Z"/>
        <circle class="cls-2" cx="156.87" cy="100.26" r="1.99"/>
        <path class="cls-2" d="m167.71,102.24c-1.1,0-1.99-.89-1.99-1.99s.89-1.99,1.99-1.99,1.99.89,1.99,1.99-.89,1.99-1.99,1.99Z"/>
        <circle class="cls-2" cx="156.87" cy="89.41" r="1.99"/>
        <path class="cls-2" d="m167.71,91.4c-1.1,0-1.99-.89-1.99-1.99s.89-1.99,1.99-1.99,1.99.89,1.99,1.99-.89,1.99-1.99,1.99Z"/>
        <path class="cls-2" d="m173.13,85.97c-1.09,0-1.99-.89-1.99-1.99s.89-1.99,1.99-1.99,1.99.89,1.99,1.99-.89,1.99-1.99,1.99Z"/>
        <path class="cls-2" d="m162.29,85.97c-1.09,0-1.99-.89-1.99-1.99s.89-1.99,1.99-1.99,1.99.89,1.99,1.99-.89,1.99-1.99,1.99Z"/>
        <circle class="cls-2" cx="156.87" cy="111.1" r="1.99"/>
        <path class="cls-2" d="m167.71,113.09c-1.1,0-1.99-.89-1.99-1.99s.89-1.99,1.99-1.99,1.99.89,1.99,1.99-.89,1.99-1.99,1.99Z"/>
        <path class="cls-2" d="m151.44,53.43c-.53,0-1.03-.21-1.41-.58-.38-.38-.58-.87-.58-1.41s.21-1.03.58-1.41c.38-.38.87-.58,1.41-.58,1.1,0,1.99.89,1.99,1.99s-.89,1.99-1.99,1.99Z"/>
        <path class="cls-2" d="m140.59,53.43c-1.09,0-1.99-.89-1.99-1.99s.89-1.99,1.99-1.99,1.99.89,1.99,1.99-.89,1.99-1.99,1.99Z"/>
        <path class="cls-2" d="m135.17,58.85c-1.1,0-1.99-.89-1.99-1.99s.89-1.99,1.99-1.99,1.99.89,1.99,1.99-.89,1.99-1.99,1.99Z"/>
        <path class="cls-2" d="m146.02,58.85c-1.1,0-1.99-.89-1.99-1.99s.89-1.99,1.99-1.99,1.99.89,1.99,1.99-.89,1.99-1.99,1.99Z"/>
        <path class="cls-2" d="m135.17,48c-1.1,0-1.99-.89-1.99-1.99s.89-1.99,1.99-1.99,1.99.89,1.99,1.99-.89,1.99-1.99,1.99Z"/>
        <path class="cls-2" d="m146.02,48c-1.1,0-1.99-.89-1.99-1.99s.89-1.99,1.99-1.99,1.99.89,1.99,1.99-.89,1.99-1.99,1.99Z"/>
        <path class="cls-2" d="m151.44,75.12c-.53,0-1.03-.21-1.41-.58-.38-.38-.58-.88-.58-1.41s.21-1.03.58-1.41c.38-.38.87-.58,1.41-.58,1.1,0,1.99.89,1.99,1.99s-.89,1.99-1.99,1.99Z"/>
        <path class="cls-2" d="m140.59,75.12c-1.09,0-1.99-.89-1.99-1.99s.89-1.99,1.99-1.99,1.99.89,1.99,1.99-.89,1.99-1.99,1.99Z"/>
        <circle class="cls-2" cx="135.17" cy="78.56" r="1.99"/>
        <path class="cls-2" d="m146.02,80.55c-1.1,0-1.99-.89-1.99-1.99s.89-1.99,1.99-1.99,1.99.89,1.99,1.99-.89,1.99-1.99,1.99Z"/>
        <path class="cls-2" d="m135.17,69.7c-1.1,0-1.99-.89-1.99-1.99s.89-1.99,1.99-1.99,1.99.89,1.99,1.99-.89,1.99-1.99,1.99Z"/>
        <path class="cls-2" d="m146.02,69.7c-1.1,0-1.99-.89-1.99-1.99s.89-1.99,1.99-1.99,1.99.89,1.99,1.99-.89,1.99-1.99,1.99Z"/>
        <path class="cls-2" d="m151.44,64.27c-.53,0-1.03-.21-1.41-.58-.38-.38-.58-.88-.58-1.41s.21-1.03.58-1.41c.38-.38.87-.58,1.41-.58,1.1,0,1.99.89,1.99,1.99s-.89,1.99-1.99,1.99Z"/>
        <path class="cls-2" d="m140.59,64.27c-1.09,0-1.99-.89-1.99-1.99s.89-1.99,1.99-1.99,1.99.89,1.99,1.99-.89,1.99-1.99,1.99Z"/>
        <path class="cls-2" d="m151.44,107.67c-.53,0-1.03-.21-1.41-.58-.38-.38-.58-.88-.58-1.41,0-.27.05-.53.16-.77.1-.24.25-.45.43-.63.38-.38.87-.58,1.41-.58.8,0,1.52.48,1.83,1.21.1.25.16.51.16.77,0,1.1-.89,1.99-1.99,1.99Z"/>
        <path class="cls-2" d="m140.59,107.67c-1.09,0-1.99-.89-1.99-1.99,0-.27.05-.53.16-.77.31-.74,1.03-1.21,1.83-1.21s1.52.48,1.83,1.21c.1.24.16.5.16.77,0,1.1-.89,1.99-1.99,1.99Z"/>
        <path class="cls-2" d="m151.44,96.82c-.53,0-1.03-.21-1.41-.58-.38-.38-.58-.88-.58-1.41s.21-1.03.58-1.41c.38-.38.87-.58,1.41-.58,1.1,0,1.99.89,1.99,1.99s-.89,1.99-1.99,1.99Z"/>
        <path class="cls-2" d="m140.59,96.82c-1.09,0-1.99-.89-1.99-1.99s.89-1.99,1.99-1.99,1.99.89,1.99,1.99-.89,1.99-1.99,1.99Z"/>
        <circle class="cls-2" cx="135.17" cy="100.26" r="1.99"/>
        <path class="cls-2" d="m146.02,102.24c-1.1,0-1.99-.89-1.99-1.99s.89-1.99,1.99-1.99,1.99.89,1.99,1.99-.89,1.99-1.99,1.99Z"/>
        <circle class="cls-2" cx="135.17" cy="89.41" r="1.99"/>
        <path class="cls-2" d="m146.02,91.4c-1.1,0-1.99-.89-1.99-1.99s.89-1.99,1.99-1.99,1.99.89,1.99,1.99-.89,1.99-1.99,1.99Z"/>
        <path class="cls-2" d="m151.44,85.97c-.53,0-1.03-.21-1.41-.58-.38-.38-.58-.88-.58-1.41s.21-1.03.58-1.41c.38-.38.87-.58,1.41-.58,1.1,0,1.99.89,1.99,1.99s-.89,1.99-1.99,1.99Z"/>
        <path class="cls-2" d="m140.59,85.97c-1.09,0-1.99-.89-1.99-1.99s.89-1.99,1.99-1.99,1.99.89,1.99,1.99-.89,1.99-1.99,1.99Z"/>
        <path class="cls-2" d="m151.44,118.52c-.53,0-1.03-.21-1.41-.58-.38-.38-.58-.88-.58-1.41s.21-1.03.58-1.41c.38-.38.87-.58,1.41-.58,1.1,0,1.99.89,1.99,1.99s-.89,1.99-1.99,1.99Z"/>
        <circle class="cls-2" cx="135.17" cy="111.1" r="1.99"/>
        <path class="cls-2" d="m146.02,113.09c-1.1,0-1.99-.89-1.99-1.99s.89-1.99,1.99-1.99,1.99.89,1.99,1.99-.89,1.99-1.99,1.99Z"/>
        <path class="cls-2" d="m129.75,53.43c-1.1,0-1.99-.89-1.99-1.99s.89-1.99,1.99-1.99,1.99.89,1.99,1.99-.89,1.99-1.99,1.99Z"/>
        <path class="cls-2" d="m118.9,53.43c-1.1,0-1.99-.89-1.99-1.99s.89-1.99,1.99-1.99,1.99.89,1.99,1.99-.89,1.99-1.99,1.99Z"/>
        <path class="cls-2" d="m113.47,58.85c-1.1,0-1.99-.89-1.99-1.99s.89-1.99,1.99-1.99,1.99.89,1.99,1.99-.89,1.99-1.99,1.99Z"/>
        <path class="cls-2" d="m124.32,58.85c-1.1,0-1.99-.89-1.99-1.99s.89-1.99,1.99-1.99,1.99.89,1.99,1.99-.89,1.99-1.99,1.99Z"/>
        <path class="cls-2" d="m113.47,48c-1.1,0-1.99-.89-1.99-1.99s.89-1.99,1.99-1.99,1.99.89,1.99,1.99-.89,1.99-1.99,1.99Z"/>
        <path class="cls-2" d="m129.75,75.12c-1.1,0-1.99-.89-1.99-1.99s.89-1.99,1.99-1.99,1.99.89,1.99,1.99-.89,1.99-1.99,1.99Z"/>
        <path class="cls-2" d="m118.9,75.12c-1.1,0-1.99-.89-1.99-1.99s.89-1.99,1.99-1.99,1.99.89,1.99,1.99-.89,1.99-1.99,1.99Z"/>
        <circle class="cls-2" cx="113.47" cy="78.56" r="1.99"/>
        <circle class="cls-2" cx="124.32" cy="78.56" r="1.99"/>
        <path class="cls-2" d="m113.47,69.7c-1.1,0-1.99-.89-1.99-1.99s.89-1.99,1.99-1.99,1.99.89,1.99,1.99-.89,1.99-1.99,1.99Z"/>
        <path class="cls-2" d="m124.32,69.7c-1.1,0-1.99-.89-1.99-1.99s.89-1.99,1.99-1.99,1.99.89,1.99,1.99-.89,1.99-1.99,1.99Z"/>
        <path class="cls-2" d="m129.75,64.27c-1.1,0-1.99-.89-1.99-1.99s.89-1.99,1.99-1.99,1.99.89,1.99,1.99-.89,1.99-1.99,1.99Z"/>
        <path class="cls-2" d="m118.9,64.27c-1.1,0-1.99-.89-1.99-1.99s.89-1.99,1.99-1.99,1.99.89,1.99,1.99-.89,1.99-1.99,1.99Z"/>
        <path class="cls-2" d="m118.9,107.67c-1.1,0-1.99-.89-1.99-1.99,0-.27.05-.53.16-.77.31-.74,1.03-1.21,1.83-1.21s1.52.48,1.83,1.21c.1.24.16.5.16.77,0,1.1-.89,1.99-1.99,1.99Z"/>
        <path class="cls-2" d="m129.75,96.82c-1.1,0-1.99-.89-1.99-1.99s.89-1.99,1.99-1.99,1.99.89,1.99,1.99-.89,1.99-1.99,1.99Z"/>
        <path class="cls-2" d="m118.9,96.82c-1.1,0-1.99-.89-1.99-1.99s.89-1.99,1.99-1.99,1.99.89,1.99,1.99-.89,1.99-1.99,1.99Z"/>
        <circle class="cls-2" cx="113.47" cy="100.26" r="1.99"/>
        <circle class="cls-2" cx="124.32" cy="100.26" r="1.99"/>
        <circle class="cls-2" cx="113.47" cy="89.41" r="1.99"/>
        <circle class="cls-2" cx="124.32" cy="89.41" r="1.99"/>
        <circle class="cls-2" cx="129.75" cy="83.98" r="1.99"/>
        <path class="cls-2" d="m118.9,85.97c-1.1,0-1.99-.89-1.99-1.99s.89-1.99,1.99-1.99,1.99.89,1.99,1.99-.89,1.99-1.99,1.99Z"/>
        <circle class="cls-2" cx="113.47" cy="111.1" r="1.99"/>
        <path class="cls-2" d="m108.05,53.43c-.53,0-1.03-.21-1.41-.58-.37-.37-.58-.87-.58-1.41s.21-1.03.58-1.41c.38-.38.87-.58,1.41-.58,1.1,0,1.99.89,1.99,1.99s-.89,1.99-1.99,1.99Z"/>
        <path class="cls-2" d="m102.63,58.85c-1.1,0-1.99-.89-1.99-1.99s.89-1.99,1.99-1.99,1.99.89,1.99,1.99-.89,1.99-1.99,1.99Z"/>
        <path class="cls-2" d="m108.05,75.12c-.53,0-1.03-.21-1.41-.58-.37-.37-.58-.87-.58-1.41s.21-1.03.58-1.41c.38-.38.87-.58,1.41-.58,1.1,0,1.99.89,1.99,1.99s-.89,1.99-1.99,1.99Z"/>
        <path class="cls-2" d="m97.2,75.12c-1.1,0-1.99-.89-1.99-1.99s.89-1.99,1.99-1.99,1.99.89,1.99,1.99-.89,1.99-1.99,1.99Z"/>
        <circle class="cls-2" cx="102.63" cy="78.56" r="1.99"/>
        <path class="cls-2" d="m102.63,69.7c-1.1,0-1.99-.89-1.99-1.99s.89-1.99,1.99-1.99,1.99.89,1.99,1.99-.89,1.99-1.99,1.99Z"/>
        <path class="cls-2" d="m108.05,64.27c-.53,0-1.03-.21-1.41-.58-.37-.37-.58-.87-.58-1.41s.21-1.03.58-1.41c.38-.38.87-.58,1.41-.58,1.1,0,1.99.89,1.99,1.99s-.89,1.99-1.99,1.99Z"/>
        <path class="cls-2" d="m108.05,107.67c-.53,0-1.03-.21-1.41-.58-.37-.37-.58-.87-.58-1.41,0-.27.05-.53.16-.77.1-.24.24-.45.43-.63.38-.37.87-.58,1.4-.58.8,0,1.52.48,1.83,1.21.1.24.16.5.16.77,0,1.1-.89,1.99-1.99,1.99Z"/>
        <path class="cls-2" d="m108.05,96.82c-.53,0-1.03-.21-1.41-.58-.37-.37-.58-.87-.58-1.41s.21-1.03.58-1.41c.38-.38.87-.58,1.41-.58,1.1,0,1.99.89,1.99,1.99s-.89,1.99-1.99,1.99Z"/>
        <path class="cls-2" d="m97.2,96.82c-1.1,0-1.99-.89-1.99-1.99s.89-1.99,1.99-1.99,1.99.89,1.99,1.99-.89,1.99-1.99,1.99Z"/>
        <circle class="cls-2" cx="102.63" cy="100.26" r="1.99"/>
        <circle class="cls-2" cx="102.63" cy="89.41" r="1.99"/>
        <path class="cls-2" d="m108.05,85.97c-.53,0-1.03-.21-1.41-.58-.37-.37-.58-.87-.58-1.41s.21-1.03.58-1.41c.38-.38.87-.58,1.41-.58,1.1,0,1.99.89,1.99,1.99s-.89,1.99-1.99,1.99Z"/>
        <circle class="cls-2" cx="97.2" cy="83.98" r="1.99"/>
        <path class="cls-2" d="m108.05,118.52c-.53,0-1.03-.21-1.41-.58-.37-.37-.58-.87-.58-1.41s.21-1.03.58-1.41c.38-.38.87-.58,1.41-.58,1.1,0,1.99.89,1.99,1.99s-.89,1.99-1.99,1.99Z"/>
        <circle class="cls-2" cx="102.63" cy="111.1" r="1.99"/>
      </g>
    </g>
  </g>
</svg>