<?xml version="1.0" encoding="UTF-8"?>
<svg id="_レイヤー_2" data-name="レイヤー 2" xmlns="http://www.w3.org/2000/svg" xmlns:xlink="http://www.w3.org/1999/xlink" viewBox="0 0 330 130">
  <defs>
    <style>
      .cls-1 {
        fill: none;
      }

      .cls-1, .cls-2 {
        stroke-width: 0px;
      }

      .cls-3 {
        clip-path: url(#clippath);
      }

      .cls-2 {
        fill: #d9d9d9;
      }
    </style>
    <clipPath id="clippath">
      <rect class="cls-1" width="330" height="130"/>
    </clipPath>
  </defs>
  <g id="_レイヤー_1-2" data-name="レイヤー 1">
    <g class="cls-3">
      <path class="cls-2" d="m127.03,45.29c-.8,0-1.52-.48-1.83-1.21-.1-.25-.16-.51-.16-.77s.05-.53.16-.77c.31-.74,1.03-1.21,1.83-1.21s1.52.48,1.83,1.21c.1.24.16.5.16.77s-.05.53-.16.77c-.31.74-1.03,1.21-1.83,1.21Z"/>
      <path class="cls-2" d="m121.61,39.87c-1.1,0-1.99-.89-1.99-1.99s.89-1.99,1.99-1.99,1.99.89,1.99,1.99-.89,1.99-1.99,1.99Z"/>
      <path class="cls-2" d="m219.24,39.87c-1.1,0-1.99-.89-1.99-1.99s.89-1.99,1.99-1.99,1.99.89,1.99,1.99-.89,1.99-1.99,1.99Z"/>
      <path class="cls-2" d="m219.24,50.72c-1.1,0-1.99-.89-1.99-1.99s.89-1.99,1.99-1.99,1.99.89,1.99,1.99-.89,1.99-1.99,1.99Z"/>
      <path class="cls-2" d="m202.97,12.75c-1.09,0-1.99-.89-1.99-1.99s.89-1.99,1.99-1.99,1.99.89,1.99,1.99-.89,1.99-1.99,1.99Z"/>
      <path class="cls-2" d="m197.54,18.17c-1.1,0-1.99-.89-1.99-1.99s.89-1.99,1.99-1.99,1.99.89,1.99,1.99-.89,1.99-1.99,1.99Z"/>
      <path class="cls-2" d="m208.39,18.17c-1.1,0-1.99-.89-1.99-1.99s.89-1.99,1.99-1.99,1.99.89,1.99,1.99-.89,1.99-1.99,1.99Z"/>
      <path class="cls-2" d="m213.81,45.29c-.53,0-1.03-.21-1.4-.58-.18-.18-.33-.4-.43-.63-.1-.24-.16-.5-.16-.77s.05-.53.16-.77c.1-.24.24-.45.43-.63.37-.38.87-.58,1.4-.58.27,0,.53.05.77.16.47.2.86.58,1.06,1.06.1.24.16.5.16.77s-.05.53-.16.77c-.2.47-.59.86-1.06,1.06-.24.1-.5.16-.77.16Z"/>
      <path class="cls-2" d="m202.97,45.29c-.8,0-1.52-.48-1.83-1.21-.1-.24-.16-.5-.16-.77s.05-.53.16-.77c.31-.74,1.03-1.21,1.83-1.21s1.52.48,1.83,1.21c.1.24.16.5.16.77s-.05.53-.16.77c-.31.74-1.03,1.21-1.83,1.21Z"/>
      <path class="cls-2" d="m213.81,34.44c-.53,0-1.03-.21-1.4-.58-.38-.38-.58-.87-.58-1.41s.21-1.03.58-1.41c.38-.38.87-.58,1.4-.58.27,0,.53.05.77.16.74.31,1.21,1.03,1.21,1.83s-.48,1.52-1.21,1.83c-.25.1-.5.16-.77.16Z"/>
      <path class="cls-2" d="m202.97,34.44c-1.09,0-1.99-.89-1.99-1.99s.89-1.99,1.99-1.99,1.99.89,1.99,1.99-.89,1.99-1.99,1.99Z"/>
      <path class="cls-2" d="m197.54,39.87c-1.1,0-1.99-.89-1.99-1.99s.89-1.99,1.99-1.99,1.99.89,1.99,1.99-.89,1.99-1.99,1.99Z"/>
      <path class="cls-2" d="m208.39,39.87c-1.1,0-1.99-.89-1.99-1.99s.89-1.99,1.99-1.99,1.99.89,1.99,1.99-.89,1.99-1.99,1.99Z"/>
      <path class="cls-2" d="m197.54,29.02c-1.1,0-1.99-.89-1.99-1.99s.89-1.99,1.99-1.99,1.99.89,1.99,1.99-.89,1.99-1.99,1.99Z"/>
      <path class="cls-2" d="m202.97,23.59c-1.09,0-1.99-.89-1.99-1.99s.89-1.99,1.99-1.99,1.99.89,1.99,1.99-.89,1.99-1.99,1.99Z"/>
      <path class="cls-2" d="m213.81,56.14c-.53,0-1.03-.21-1.4-.58-.38-.38-.58-.87-.58-1.41s.21-1.03.58-1.41c.38-.38.87-.58,1.4-.58.27,0,.53.05.77.16.74.31,1.21,1.03,1.21,1.83s-.48,1.52-1.21,1.83c-.25.1-.5.16-.77.16Z"/>
      <path class="cls-2" d="m202.97,56.14c-1.09,0-1.99-.89-1.99-1.99s.89-1.99,1.99-1.99,1.99.89,1.99,1.99-.89,1.99-1.99,1.99Z"/>
      <path class="cls-2" d="m197.54,61.56c-1.1,0-1.99-.89-1.99-1.99s.89-1.99,1.99-1.99,1.99.89,1.99,1.99-.89,1.99-1.99,1.99Z"/>
      <path class="cls-2" d="m208.39,61.56c-1.1,0-1.99-.89-1.99-1.99s.89-1.99,1.99-1.99,1.99.89,1.99,1.99-.89,1.99-1.99,1.99Z"/>
      <path class="cls-2" d="m197.54,50.72c-1.1,0-1.99-.89-1.99-1.99s.89-1.99,1.99-1.99,1.99.89,1.99,1.99-.89,1.99-1.99,1.99Z"/>
      <path class="cls-2" d="m208.39,50.72c-1.1,0-1.99-.89-1.99-1.99s.89-1.99,1.99-1.99,1.99.89,1.99,1.99-.89,1.99-1.99,1.99Z"/>
      <path class="cls-2" d="m202.97,77.84c-1.09,0-1.99-.89-1.99-1.99s.89-1.99,1.99-1.99,1.99.89,1.99,1.99-.89,1.99-1.99,1.99Z"/>
      <path class="cls-2" d="m197.54,83.26c-1.1,0-1.99-.89-1.99-1.99s.89-1.99,1.99-1.99,1.99.89,1.99,1.99-.89,1.99-1.99,1.99Z"/>
      <path class="cls-2" d="m197.54,72.41c-1.1,0-1.99-.89-1.99-1.99s.89-1.99,1.99-1.99,1.99.89,1.99,1.99-.89,1.99-1.99,1.99Z"/>
      <path class="cls-2" d="m202.97,66.99c-1.09,0-1.99-.89-1.99-1.99s.89-1.99,1.99-1.99,1.99.89,1.99,1.99-.89,1.99-1.99,1.99Z"/>
      <path class="cls-2" d="m197.54,104.96c-1.1,0-1.99-.89-1.99-1.99s.89-1.99,1.99-1.99,1.99.89,1.99,1.99-.89,1.99-1.99,1.99Z"/>
      <path class="cls-2" d="m197.54,94.11c-1.1,0-1.99-.89-1.99-1.99s.89-1.99,1.99-1.99,1.99.89,1.99,1.99-.89,1.99-1.99,1.99Z"/>
      <path class="cls-2" d="m197.54,115.8c-1.1,0-1.99-.89-1.99-1.99s.89-1.99,1.99-1.99,1.99.89,1.99,1.99-.89,1.99-1.99,1.99Z"/>
      <path class="cls-2" d="m192.12,12.75c-1.09,0-1.99-.89-1.99-1.99s.89-1.99,1.99-1.99c.8,0,1.52.48,1.83,1.21.1.25.16.51.16.77s-.05.53-.16.77c-.31.74-1.03,1.21-1.83,1.21Z"/>
      <path class="cls-2" d="m181.27,12.75c-1.09,0-1.99-.89-1.99-1.99s.89-1.99,1.99-1.99,1.99.89,1.99,1.99-.89,1.99-1.99,1.99Z"/>
      <path class="cls-2" d="m175.85,18.17c-1.1,0-1.99-.89-1.99-1.99s.89-1.99,1.99-1.99,1.99.89,1.99,1.99-.89,1.99-1.99,1.99Z"/>
      <path class="cls-2" d="m186.69,18.17c-1.1,0-1.99-.89-1.99-1.99s.89-1.99,1.99-1.99,1.99.89,1.99,1.99-.89,1.99-1.99,1.99Z"/>
      <path class="cls-2" d="m175.85,7.32c-1.1,0-1.99-.89-1.99-1.99s.89-1.99,1.99-1.99,1.99.89,1.99,1.99-.89,1.99-1.99,1.99Z"/>
      <path class="cls-2" d="m192.12,45.29c-.8,0-1.52-.48-1.83-1.21-.1-.24-.16-.5-.16-.77s.05-.53.16-.77c.31-.74,1.03-1.21,1.83-1.21s1.52.48,1.83,1.21c.1.25.16.51.16.77s-.05.53-.16.77c-.31.74-1.03,1.21-1.83,1.21Z"/>
      <path class="cls-2" d="m181.27,45.29c-.8,0-1.52-.48-1.83-1.21-.1-.24-.16-.5-.16-.77s.05-.53.16-.77c.31-.74,1.03-1.21,1.83-1.21s1.52.48,1.83,1.21c.1.24.16.5.16.77s-.05.53-.16.77c-.31.74-1.03,1.21-1.83,1.21Z"/>
      <path class="cls-2" d="m192.12,34.44c-1.09,0-1.99-.89-1.99-1.99s.89-1.99,1.99-1.99c.8,0,1.52.48,1.83,1.21.1.25.16.51.16.77s-.05.53-.16.77c-.31.74-1.03,1.21-1.83,1.21Z"/>
      <path class="cls-2" d="m181.27,34.44c-1.09,0-1.99-.89-1.99-1.99s.89-1.99,1.99-1.99,1.99.89,1.99,1.99-.89,1.99-1.99,1.99Z"/>
      <path class="cls-2" d="m175.85,39.87c-1.1,0-1.99-.89-1.99-1.99s.89-1.99,1.99-1.99,1.99.89,1.99,1.99-.89,1.99-1.99,1.99Z"/>
      <path class="cls-2" d="m186.69,39.87c-1.1,0-1.99-.89-1.99-1.99s.89-1.99,1.99-1.99,1.99.89,1.99,1.99-.89,1.99-1.99,1.99Z"/>
      <path class="cls-2" d="m175.85,29.02c-1.1,0-1.99-.89-1.99-1.99s.89-1.99,1.99-1.99,1.99.89,1.99,1.99-.89,1.99-1.99,1.99Z"/>
      <path class="cls-2" d="m186.69,29.02c-1.1,0-1.99-.89-1.99-1.99s.89-1.99,1.99-1.99,1.99.89,1.99,1.99-.89,1.99-1.99,1.99Z"/>
      <path class="cls-2" d="m192.12,23.59c-1.09,0-1.99-.89-1.99-1.99s.89-1.99,1.99-1.99c.8,0,1.52.48,1.83,1.21.1.25.16.51.16.77s-.05.53-.16.77c-.31.74-1.03,1.21-1.83,1.21Z"/>
      <path class="cls-2" d="m181.27,23.59c-1.09,0-1.99-.89-1.99-1.99s.89-1.99,1.99-1.99,1.99.89,1.99,1.99-.89,1.99-1.99,1.99Z"/>
      <path class="cls-2" d="m192.12,56.14c-1.09,0-1.99-.89-1.99-1.99s.89-1.99,1.99-1.99c.8,0,1.52.48,1.83,1.21.1.25.16.51.16.77s-.05.53-.16.77c-.31.74-1.03,1.21-1.83,1.21Z"/>
      <path class="cls-2" d="m181.27,56.14c-1.09,0-1.99-.89-1.99-1.99s.89-1.99,1.99-1.99,1.99.89,1.99,1.99-.89,1.99-1.99,1.99Z"/>
      <path class="cls-2" d="m175.85,61.56c-1.1,0-1.99-.89-1.99-1.99s.89-1.99,1.99-1.99,1.99.89,1.99,1.99-.89,1.99-1.99,1.99Z"/>
      <path class="cls-2" d="m186.69,61.56c-1.1,0-1.99-.89-1.99-1.99s.89-1.99,1.99-1.99,1.99.89,1.99,1.99-.89,1.99-1.99,1.99Z"/>
      <path class="cls-2" d="m175.85,50.72c-1.1,0-1.99-.89-1.99-1.99s.89-1.99,1.99-1.99,1.99.89,1.99,1.99-.89,1.99-1.99,1.99Z"/>
      <path class="cls-2" d="m186.69,50.72c-1.1,0-1.99-.89-1.99-1.99s.89-1.99,1.99-1.99,1.99.89,1.99,1.99-.89,1.99-1.99,1.99Z"/>
      <path class="cls-2" d="m192.12,77.84c-1.09,0-1.99-.89-1.99-1.99s.89-1.99,1.99-1.99c.8,0,1.52.48,1.83,1.21.1.25.16.51.16.77s-.05.53-.16.77c-.31.74-1.03,1.21-1.83,1.21Z"/>
      <path class="cls-2" d="m181.27,77.84c-1.09,0-1.99-.89-1.99-1.99s.89-1.99,1.99-1.99,1.99.89,1.99,1.99-.89,1.99-1.99,1.99Z"/>
      <path class="cls-2" d="m175.85,83.26c-1.1,0-1.99-.89-1.99-1.99s.89-1.99,1.99-1.99,1.99.89,1.99,1.99-.89,1.99-1.99,1.99Z"/>
      <path class="cls-2" d="m186.69,83.26c-1.1,0-1.99-.89-1.99-1.99s.89-1.99,1.99-1.99,1.99.89,1.99,1.99-.89,1.99-1.99,1.99Z"/>
      <path class="cls-2" d="m175.85,72.41c-1.1,0-1.99-.89-1.99-1.99s.89-1.99,1.99-1.99,1.99.89,1.99,1.99-.89,1.99-1.99,1.99Z"/>
      <path class="cls-2" d="m186.69,72.41c-1.1,0-1.99-.89-1.99-1.99s.89-1.99,1.99-1.99,1.99.89,1.99,1.99-.89,1.99-1.99,1.99Z"/>
      <path class="cls-2" d="m192.12,66.99c-1.09,0-1.99-.89-1.99-1.99s.89-1.99,1.99-1.99c.8,0,1.52.48,1.83,1.21.1.25.16.51.16.77s-.05.53-.16.77c-.31.74-1.03,1.21-1.83,1.21Z"/>
      <path class="cls-2" d="m181.27,66.99c-1.09,0-1.99-.89-1.99-1.99s.89-1.99,1.99-1.99,1.99.89,1.99,1.99-.89,1.99-1.99,1.99Z"/>
      <path class="cls-2" d="m192.12,110.38c-1.09,0-1.99-.89-1.99-1.99,0-.27.05-.53.16-.77.31-.74,1.03-1.21,1.83-1.21s1.52.48,1.83,1.21c.1.25.16.51.16.77s-.05.53-.16.77c-.31.74-1.03,1.21-1.83,1.21Z"/>
      <path class="cls-2" d="m181.27,110.38c-1.09,0-1.99-.89-1.99-1.99,0-.27.05-.53.16-.77.31-.74,1.03-1.21,1.83-1.21s1.52.48,1.83,1.21c.1.24.16.5.16.77,0,1.1-.89,1.99-1.99,1.99Z"/>
      <path class="cls-2" d="m192.12,99.53c-1.09,0-1.99-.89-1.99-1.99s.89-1.99,1.99-1.99c.8,0,1.52.48,1.83,1.21.1.25.16.51.16.77s-.05.53-.16.77c-.31.74-1.03,1.21-1.83,1.21Z"/>
      <path class="cls-2" d="m181.27,99.53c-1.09,0-1.99-.89-1.99-1.99s.89-1.99,1.99-1.99,1.99.89,1.99,1.99-.89,1.99-1.99,1.99Z"/>
      <path class="cls-2" d="m175.85,104.96c-1.1,0-1.99-.89-1.99-1.99s.89-1.99,1.99-1.99,1.99.89,1.99,1.99-.89,1.99-1.99,1.99Z"/>
      <path class="cls-2" d="m186.69,104.96c-1.1,0-1.99-.89-1.99-1.99s.89-1.99,1.99-1.99,1.99.89,1.99,1.99-.89,1.99-1.99,1.99Z"/>
      <path class="cls-2" d="m175.85,94.11c-1.1,0-1.99-.89-1.99-1.99s.89-1.99,1.99-1.99,1.99.89,1.99,1.99-.89,1.99-1.99,1.99Z"/>
      <path class="cls-2" d="m186.69,94.11c-1.1,0-1.99-.89-1.99-1.99s.89-1.99,1.99-1.99,1.99.89,1.99,1.99-.89,1.99-1.99,1.99Z"/>
      <path class="cls-2" d="m192.12,88.68c-1.09,0-1.99-.89-1.99-1.99s.89-1.99,1.99-1.99c.8,0,1.52.48,1.83,1.21.1.25.16.51.16.77s-.05.53-.16.77c-.31.74-1.03,1.21-1.83,1.21Z"/>
      <path class="cls-2" d="m181.27,88.68c-1.09,0-1.99-.89-1.99-1.99s.89-1.99,1.99-1.99,1.99.89,1.99,1.99-.89,1.99-1.99,1.99Z"/>
      <path class="cls-2" d="m192.12,121.23c-1.09,0-1.99-.89-1.99-1.99s.89-1.99,1.99-1.99c.8,0,1.52.48,1.83,1.21.1.25.16.51.16.77s-.05.53-.16.77c-.31.74-1.03,1.21-1.83,1.21Z"/>
      <path class="cls-2" d="m181.27,121.23c-1.09,0-1.99-.89-1.99-1.99s.89-1.99,1.99-1.99,1.99.89,1.99,1.99-.89,1.99-1.99,1.99Z"/>
      <path class="cls-2" d="m175.85,126.65c-1.1,0-1.99-.89-1.99-1.99s.89-1.99,1.99-1.99,1.99.89,1.99,1.99-.89,1.99-1.99,1.99Z"/>
      <path class="cls-2" d="m175.85,115.8c-1.1,0-1.99-.89-1.99-1.99s.89-1.99,1.99-1.99,1.99.89,1.99,1.99-.89,1.99-1.99,1.99Z"/>
      <path class="cls-2" d="m186.69,115.8c-1.1,0-1.99-.89-1.99-1.99s.89-1.99,1.99-1.99,1.99.89,1.99,1.99-.89,1.99-1.99,1.99Z"/>
      <path class="cls-2" d="m181.27,132.08c-1.09,0-1.99-.89-1.99-1.99,0-.8.48-1.52,1.21-1.83.24-.1.5-.16.77-.16s.53.05.77.16c.74.31,1.21,1.03,1.21,1.83,0,1.1-.89,1.99-1.99,1.99Z"/>
      <path class="cls-2" d="m170.42,12.75c-1.1,0-1.99-.89-1.99-1.99s.89-1.99,1.99-1.99,1.99.89,1.99,1.99-.89,1.99-1.99,1.99Z"/>
      <path class="cls-2" d="m159.58,12.75c-1.1,0-1.99-.89-1.99-1.99s.89-1.99,1.99-1.99,1.99.89,1.99,1.99-.89,1.99-1.99,1.99Z"/>
      <path class="cls-2" d="m154.15,18.17c-1.1,0-1.99-.89-1.99-1.99s.89-1.99,1.99-1.99,1.99.89,1.99,1.99-.89,1.99-1.99,1.99Z"/>
      <path class="cls-2" d="m165,18.17c-1.1,0-1.99-.89-1.99-1.99s.89-1.99,1.99-1.99,1.99.89,1.99,1.99-.89,1.99-1.99,1.99Z"/>
      <path class="cls-2" d="m154.15,7.32c-1.1,0-1.99-.89-1.99-1.99s.89-1.99,1.99-1.99,1.99.89,1.99,1.99-.89,1.99-1.99,1.99Z"/>
      <path class="cls-2" d="m165,7.32c-1.1,0-1.99-.89-1.99-1.99s.89-1.99,1.99-1.99,1.99.89,1.99,1.99-.89,1.99-1.99,1.99Z"/>
      <path class="cls-2" d="m170.42,1.9c-1.1,0-1.99-.89-1.99-1.99s.89-1.99,1.99-1.99,1.99.89,1.99,1.99-.89,1.99-1.99,1.99Z"/>
      <path class="cls-2" d="m159.58,1.9c-1.1,0-1.99-.89-1.99-1.99s.89-1.99,1.99-1.99,1.99.89,1.99,1.99-.89,1.99-1.99,1.99Z"/>
      <path class="cls-2" d="m170.42,45.29c-.8,0-1.52-.48-1.83-1.21-.1-.25-.16-.51-.16-.77s.05-.53.16-.77c.31-.74,1.03-1.21,1.83-1.21s1.52.48,1.83,1.21c.1.24.16.5.16.77s-.05.53-.16.77c-.31.74-1.03,1.21-1.83,1.21Z"/>
      <path class="cls-2" d="m159.58,45.29c-.8,0-1.52-.48-1.83-1.21-.1-.24-.16-.5-.16-.77s.05-.53.16-.77c.31-.74,1.03-1.21,1.83-1.21s1.52.48,1.83,1.21c.1.24.16.5.16.77s-.05.53-.16.77c-.31.74-1.03,1.21-1.83,1.21Z"/>
      <path class="cls-2" d="m170.42,34.44c-1.1,0-1.99-.89-1.99-1.99s.89-1.99,1.99-1.99,1.99.89,1.99,1.99-.89,1.99-1.99,1.99Z"/>
      <path class="cls-2" d="m159.58,34.44c-1.1,0-1.99-.89-1.99-1.99s.89-1.99,1.99-1.99,1.99.89,1.99,1.99-.89,1.99-1.99,1.99Z"/>
      <path class="cls-2" d="m154.15,39.87c-1.1,0-1.99-.89-1.99-1.99s.89-1.99,1.99-1.99,1.99.89,1.99,1.99-.89,1.99-1.99,1.99Z"/>
      <path class="cls-2" d="m165,39.87c-1.1,0-1.99-.89-1.99-1.99s.89-1.99,1.99-1.99,1.99.89,1.99,1.99-.89,1.99-1.99,1.99Z"/>
      <path class="cls-2" d="m154.15,29.02c-1.1,0-1.99-.89-1.99-1.99s.89-1.99,1.99-1.99,1.99.89,1.99,1.99-.89,1.99-1.99,1.99Z"/>
      <path class="cls-2" d="m165,29.02c-1.1,0-1.99-.89-1.99-1.99s.89-1.99,1.99-1.99,1.99.89,1.99,1.99-.89,1.99-1.99,1.99Z"/>
      <path class="cls-2" d="m170.42,23.59c-1.1,0-1.99-.89-1.99-1.99s.89-1.99,1.99-1.99,1.99.89,1.99,1.99-.89,1.99-1.99,1.99Z"/>
      <path class="cls-2" d="m159.58,23.59c-1.1,0-1.99-.89-1.99-1.99s.89-1.99,1.99-1.99,1.99.89,1.99,1.99-.89,1.99-1.99,1.99Z"/>
      <path class="cls-2" d="m170.42,56.14c-1.1,0-1.99-.89-1.99-1.99s.89-1.99,1.99-1.99,1.99.89,1.99,1.99-.89,1.99-1.99,1.99Z"/>
      <path class="cls-2" d="m159.58,56.14c-1.1,0-1.99-.89-1.99-1.99s.89-1.99,1.99-1.99,1.99.89,1.99,1.99-.89,1.99-1.99,1.99Z"/>
      <path class="cls-2" d="m154.15,61.56c-1.1,0-1.99-.89-1.99-1.99s.89-1.99,1.99-1.99,1.99.89,1.99,1.99-.89,1.99-1.99,1.99Z"/>
      <path class="cls-2" d="m165,61.56c-1.1,0-1.99-.89-1.99-1.99s.89-1.99,1.99-1.99,1.99.89,1.99,1.99-.89,1.99-1.99,1.99Z"/>
      <path class="cls-2" d="m165,50.72c-1.1,0-1.99-.89-1.99-1.99s.89-1.99,1.99-1.99,1.99.89,1.99,1.99-.89,1.99-1.99,1.99Z"/>
      <path class="cls-2" d="m170.42,77.84c-1.1,0-1.99-.89-1.99-1.99s.89-1.99,1.99-1.99,1.99.89,1.99,1.99-.89,1.99-1.99,1.99Z"/>
      <path class="cls-2" d="m159.58,77.84c-1.1,0-1.99-.89-1.99-1.99s.89-1.99,1.99-1.99,1.99.89,1.99,1.99-.89,1.99-1.99,1.99Z"/>
      <circle class="cls-2" cx="154.15" cy="81.27" r="1.99"/>
      <path class="cls-2" d="m165,83.26c-1.1,0-1.99-.89-1.99-1.99s.89-1.99,1.99-1.99,1.99.89,1.99,1.99-.89,1.99-1.99,1.99Z"/>
      <path class="cls-2" d="m154.15,72.41c-1.1,0-1.99-.89-1.99-1.99s.89-1.99,1.99-1.99,1.99.89,1.99,1.99-.89,1.99-1.99,1.99Z"/>
      <path class="cls-2" d="m165,72.41c-1.1,0-1.99-.89-1.99-1.99s.89-1.99,1.99-1.99,1.99.89,1.99,1.99-.89,1.99-1.99,1.99Z"/>
      <path class="cls-2" d="m170.42,66.99c-1.1,0-1.99-.89-1.99-1.99s.89-1.99,1.99-1.99,1.99.89,1.99,1.99-.89,1.99-1.99,1.99Z"/>
      <path class="cls-2" d="m159.58,66.99c-1.1,0-1.99-.89-1.99-1.99s.89-1.99,1.99-1.99,1.99.89,1.99,1.99-.89,1.99-1.99,1.99Z"/>
      <path class="cls-2" d="m170.42,110.38c-1.1,0-1.99-.89-1.99-1.99,0-.27.05-.53.16-.77.31-.74,1.03-1.21,1.83-1.21s1.52.48,1.83,1.21c.1.24.16.5.16.77,0,1.1-.89,1.99-1.99,1.99Z"/>
      <path class="cls-2" d="m159.58,110.38c-1.1,0-1.99-.89-1.99-1.99,0-.27.05-.53.16-.77.31-.74,1.03-1.21,1.83-1.21s1.52.48,1.83,1.21c.1.24.16.5.16.77,0,1.1-.89,1.99-1.99,1.99Z"/>
      <path class="cls-2" d="m170.42,99.53c-1.1,0-1.99-.89-1.99-1.99s.89-1.99,1.99-1.99,1.99.89,1.99,1.99-.89,1.99-1.99,1.99Z"/>
      <path class="cls-2" d="m159.58,99.53c-1.1,0-1.99-.89-1.99-1.99s.89-1.99,1.99-1.99,1.99.89,1.99,1.99-.89,1.99-1.99,1.99Z"/>
      <circle class="cls-2" cx="154.15" cy="102.97" r="1.99"/>
      <path class="cls-2" d="m165,104.96c-1.1,0-1.99-.89-1.99-1.99s.89-1.99,1.99-1.99,1.99.89,1.99,1.99-.89,1.99-1.99,1.99Z"/>
      <circle class="cls-2" cx="154.15" cy="92.12" r="1.99"/>
      <path class="cls-2" d="m165,94.11c-1.1,0-1.99-.89-1.99-1.99s.89-1.99,1.99-1.99,1.99.89,1.99,1.99-.89,1.99-1.99,1.99Z"/>
      <path class="cls-2" d="m170.42,88.68c-1.1,0-1.99-.89-1.99-1.99s.89-1.99,1.99-1.99,1.99.89,1.99,1.99-.89,1.99-1.99,1.99Z"/>
      <circle class="cls-2" cx="159.58" cy="86.7" r="1.99"/>
      <path class="cls-2" d="m170.42,121.23c-1.1,0-1.99-.89-1.99-1.99s.89-1.99,1.99-1.99,1.99.89,1.99,1.99-.89,1.99-1.99,1.99Z"/>
      <path class="cls-2" d="m154.15,126.65c-1.1,0-1.99-.89-1.99-1.99s.89-1.99,1.99-1.99,1.99.89,1.99,1.99-.89,1.99-1.99,1.99Z"/>
      <circle class="cls-2" cx="154.15" cy="113.82" r="1.99"/>
      <path class="cls-2" d="m170.42,132.08c-1.1,0-1.99-.89-1.99-1.99,0-.8.48-1.52,1.21-1.83.24-.1.5-.16.77-.16s.53.05.77.16c.74.31,1.21,1.03,1.21,1.83,0,1.1-.89,1.99-1.99,1.99Z"/>
      <path class="cls-2" d="m159.58,132.08c-1.1,0-1.99-.89-1.99-1.99,0-.8.48-1.52,1.21-1.83.24-.1.5-.16.77-.16s.53.05.77.16c.74.31,1.21,1.03,1.21,1.83,0,1.1-.89,1.99-1.99,1.99Z"/>
      <path class="cls-2" d="m148.73,12.75c-.53,0-1.03-.21-1.4-.58-.38-.38-.58-.87-.58-1.41s.21-1.03.58-1.41c.38-.38.87-.58,1.4-.58,1.1,0,1.99.89,1.99,1.99s-.89,1.99-1.99,1.99Z"/>
      <path class="cls-2" d="m132.46,18.17c-1.1,0-1.99-.89-1.99-1.99s.89-1.99,1.99-1.99,1.99.89,1.99,1.99-.89,1.99-1.99,1.99Z"/>
      <path class="cls-2" d="m143.3,18.17c-1.1,0-1.99-.89-1.99-1.99s.89-1.99,1.99-1.99,1.99.89,1.99,1.99-.89,1.99-1.99,1.99Z"/>
      <path class="cls-2" d="m137.88,45.29c-.8,0-1.52-.48-1.83-1.21-.1-.25-.16-.51-.16-.77s.05-.53.16-.77c.31-.74,1.03-1.21,1.83-1.21s1.52.48,1.83,1.21c.1.25.16.51.16.77s-.05.53-.16.77c-.31.74-1.03,1.21-1.83,1.21Z"/>
      <path class="cls-2" d="m148.73,34.44c-.53,0-1.03-.21-1.4-.58-.38-.38-.58-.87-.58-1.41s.21-1.03.58-1.41c.38-.38.87-.58,1.4-.58,1.1,0,1.99.89,1.99,1.99s-.89,1.99-1.99,1.99Z"/>
      <path class="cls-2" d="m137.88,34.44c-1.1,0-1.99-.89-1.99-1.99s.89-1.99,1.99-1.99,1.99.89,1.99,1.99-.89,1.99-1.99,1.99Z"/>
      <path class="cls-2" d="m132.46,39.87c-1.1,0-1.99-.89-1.99-1.99s.89-1.99,1.99-1.99,1.99.89,1.99,1.99-.89,1.99-1.99,1.99Z"/>
      <path class="cls-2" d="m132.46,29.02c-1.1,0-1.99-.89-1.99-1.99s.89-1.99,1.99-1.99,1.99.89,1.99,1.99-.89,1.99-1.99,1.99Z"/>
      <path class="cls-2" d="m143.3,29.02c-1.1,0-1.99-.89-1.99-1.99s.89-1.99,1.99-1.99,1.99.89,1.99,1.99-.89,1.99-1.99,1.99Z"/>
      <path class="cls-2" d="m148.73,23.59c-.53,0-1.03-.21-1.4-.58-.38-.38-.58-.87-.58-1.41s.21-1.03.58-1.41c.37-.38.87-.58,1.4-.58,1.1,0,1.99.89,1.99,1.99s-.89,1.99-1.99,1.99Z"/>
      <path class="cls-2" d="m137.88,23.59c-1.1,0-1.99-.89-1.99-1.99s.89-1.99,1.99-1.99,1.99.89,1.99,1.99-.89,1.99-1.99,1.99Z"/>
      <path class="cls-2" d="m148.73,56.14c-.53,0-1.03-.21-1.4-.58-.38-.38-.58-.87-.58-1.41s.21-1.03.58-1.41c.38-.38.87-.58,1.4-.58,1.1,0,1.99.89,1.99,1.99s-.89,1.99-1.99,1.99Z"/>
      <path class="cls-2" d="m143.3,61.56c-1.1,0-1.99-.89-1.99-1.99s.89-1.99,1.99-1.99,1.99.89,1.99,1.99-.89,1.99-1.99,1.99Z"/>
      <path class="cls-2" d="m132.46,50.72c-1.1,0-1.99-.89-1.99-1.99s.89-1.99,1.99-1.99,1.99.89,1.99,1.99-.89,1.99-1.99,1.99Z"/>
      <path class="cls-2" d="m143.3,50.72c-1.1,0-1.99-.89-1.99-1.99s.89-1.99,1.99-1.99,1.99.89,1.99,1.99-.89,1.99-1.99,1.99Z"/>
      <path class="cls-2" d="m137.88,77.84c-1.1,0-1.99-.89-1.99-1.99s.89-1.99,1.99-1.99,1.99.89,1.99,1.99-.89,1.99-1.99,1.99Z"/>
      <path class="cls-2" d="m132.46,72.41c-1.1,0-1.99-.89-1.99-1.99s.89-1.99,1.99-1.99,1.99.89,1.99,1.99-.89,1.99-1.99,1.99Z"/>
      <path class="cls-2" d="m143.3,72.41c-1.1,0-1.99-.89-1.99-1.99s.89-1.99,1.99-1.99,1.99.89,1.99,1.99-.89,1.99-1.99,1.99Z"/>
      <path class="cls-2" d="m148.73,66.99c-.53,0-1.03-.21-1.4-.58-.38-.38-.58-.87-.58-1.41s.21-1.03.58-1.41c.37-.38.87-.58,1.4-.58,1.1,0,1.99.89,1.99,1.99s-.89,1.99-1.99,1.99Z"/>
      <path class="cls-2" d="m137.88,66.99c-1.1,0-1.99-.89-1.99-1.99s.89-1.99,1.99-1.99,1.99.89,1.99,1.99-.89,1.99-1.99,1.99Z"/>
      <path class="cls-2" d="m148.73,110.38c-.53,0-1.03-.21-1.4-.58-.38-.38-.58-.87-.58-1.41,0-.27.05-.53.16-.77.1-.24.24-.45.43-.63.37-.38.87-.58,1.4-.58.8,0,1.52.48,1.83,1.21.1.25.16.51.16.77,0,1.1-.89,1.99-1.99,1.99Z"/>
      <path class="cls-2" d="m148.73,99.53c-.53,0-1.03-.21-1.4-.58-.38-.38-.58-.87-.58-1.41s.21-1.03.58-1.41c.37-.38.87-.58,1.4-.58,1.1,0,1.99.89,1.99,1.99s-.89,1.99-1.99,1.99Z"/>
      <path class="cls-2" d="m143.3,104.96c-1.1,0-1.99-.89-1.99-1.99s.89-1.99,1.99-1.99,1.99.89,1.99,1.99-.89,1.99-1.99,1.99Z"/>
      <path class="cls-2" d="m143.3,94.11c-1.1,0-1.99-.89-1.99-1.99s.89-1.99,1.99-1.99,1.99.89,1.99,1.99-.89,1.99-1.99,1.99Z"/>
      <path class="cls-2" d="m148.73,88.68c-.53,0-1.03-.21-1.4-.58-.38-.38-.58-.87-.58-1.41s.21-1.03.58-1.41c.37-.38.87-.58,1.4-.58,1.1,0,1.99.89,1.99,1.99s-.89,1.99-1.99,1.99Z"/>
      <path class="cls-2" d="m148.73,121.23c-.53,0-1.03-.21-1.4-.58-.38-.38-.58-.87-.58-1.41s.21-1.03.58-1.41c.37-.38.87-.58,1.4-.58,1.1,0,1.99.89,1.99,1.99s-.89,1.99-1.99,1.99Z"/>
      <path class="cls-2" d="m143.3,126.65c-1.1,0-1.99-.89-1.99-1.99s.89-1.99,1.99-1.99,1.99.89,1.99,1.99-.89,1.99-1.99,1.99Z"/>
      <path class="cls-2" d="m148.73,132.08c-.53,0-1.03-.21-1.4-.58-.38-.38-.58-.87-.58-1.41s.21-1.03.58-1.41c.18-.18.39-.33.63-.43.24-.1.5-.16.77-.16s.53.05.77.16c.74.31,1.21,1.03,1.21,1.83,0,1.1-.89,1.99-1.99,1.99Z"/>
      <path class="cls-2" d="m116.19,45.29c-.8,0-1.52-.48-1.83-1.21-.1-.24-.16-.5-.16-.77s.05-.53.16-.77c.31-.74,1.03-1.21,1.83-1.21s1.52.48,1.83,1.21c.1.24.16.5.16.77s-.05.53-.16.77c-.31.74-1.03,1.21-1.83,1.21Z"/>
      <path class="cls-2" d="m127.03,34.44c-1.1,0-1.99-.89-1.99-1.99s.89-1.99,1.99-1.99,1.99.89,1.99,1.99-.89,1.99-1.99,1.99Z"/>
      <path class="cls-2" d="m110.76,29.02c-1.1,0-1.99-.89-1.99-1.99s.89-1.99,1.99-1.99,1.99.89,1.99,1.99-.89,1.99-1.99,1.99Z"/>
      <path class="cls-2" d="m121.61,29.02c-1.1,0-1.99-.89-1.99-1.99s.89-1.99,1.99-1.99,1.99.89,1.99,1.99-.89,1.99-1.99,1.99Z"/>
      <path class="cls-2" d="m127.03,23.59c-1.1,0-1.99-.89-1.99-1.99s.89-1.99,1.99-1.99,1.99.89,1.99,1.99-.89,1.99-1.99,1.99Z"/>
      <path class="cls-2" d="m116.19,23.59c-1.1,0-1.99-.89-1.99-1.99s.89-1.99,1.99-1.99,1.99.89,1.99,1.99-.89,1.99-1.99,1.99Z"/>
      <path class="cls-2" d="m127.03,56.14c-1.1,0-1.99-.89-1.99-1.99s.89-1.99,1.99-1.99,1.99.89,1.99,1.99-.89,1.99-1.99,1.99Z"/>
      <path class="cls-2" d="m121.61,50.72c-1.1,0-1.99-.89-1.99-1.99s.89-1.99,1.99-1.99,1.99.89,1.99,1.99-.89,1.99-1.99,1.99Z"/>
    </g>
  </g>
</svg>