<?xml version="1.0" encoding="UTF-8"?>
<svg id="_レイヤー_2" data-name="レイヤー 2" xmlns="http://www.w3.org/2000/svg" xmlns:xlink="http://www.w3.org/1999/xlink" viewBox="0 0 313.83 130">
  <defs>
    <style>
      .cls-1 {
        fill: none;
      }

      .cls-1, .cls-2 {
        stroke-width: 0px;
      }

      .cls-3 {
        clip-path: url(#clippath);
      }

      .cls-2 {
        fill: #d9d9d9;
      }
    </style>
    <clipPath id="clippath">
      <rect class="cls-1" width="313.83" height="130"/>
    </clipPath>
  </defs>
  <g id="_レイヤー_1-2" data-name="レイヤー 1">
    <g class="cls-3">
      <g>
        <path class="cls-2" d="m218.81,42.58c-1.04,0-1.89-.89-1.89-1.99s.85-1.99,1.89-1.99,1.89.89,1.89,1.99-.85,1.99-1.89,1.99Z"/>
        <path class="cls-2" d="m213.65,37.16c-.76,0-1.44-.48-1.74-1.21-.1-.24-.15-.5-.15-.77s.05-.53.15-.77c.3-.74.98-1.21,1.74-1.21s1.45.48,1.74,1.21c.1.24.15.5.15.77s-.05.53-.15.77c-.3.74-.98,1.21-1.74,1.21Z"/>
        <path class="cls-2" d="m203.34,37.16c-.76,0-1.44-.48-1.74-1.21-.1-.25-.15-.51-.15-.77s.05-.53.15-.77c.3-.74.98-1.21,1.74-1.21s1.45.48,1.74,1.21c.1.24.15.5.15.77s-.05.53-.15.77c-.3.74-.98,1.21-1.74,1.21Z"/>
        <path class="cls-2" d="m198.18,20.88c-1.04,0-1.89-.89-1.89-1.99s.85-1.99,1.89-1.99,1.89.89,1.89,1.99-.85,1.99-1.89,1.99Z"/>
        <path class="cls-2" d="m213.65,48c-1.04,0-1.89-.89-1.89-1.99s.85-1.99,1.89-1.99,1.89.89,1.89,1.99-.85,1.99-1.89,1.99Z"/>
        <path class="cls-2" d="m203.34,48c-1.04,0-1.89-.89-1.89-1.99s.85-1.99,1.89-1.99,1.89.89,1.89,1.99-.85,1.99-1.89,1.99Z"/>
        <path class="cls-2" d="m198.18,53.43c-1.04,0-1.89-.89-1.89-1.99s.85-1.99,1.89-1.99,1.89.89,1.89,1.99-.85,1.99-1.89,1.99Z"/>
        <path class="cls-2" d="m208.5,53.43c-1.04,0-1.89-.89-1.89-1.99s.85-1.99,1.89-1.99,1.89.89,1.89,1.99-.85,1.99-1.89,1.99Z"/>
        <path class="cls-2" d="m198.18,42.58c-1.04,0-1.89-.89-1.89-1.99s.85-1.99,1.89-1.99,1.89.89,1.89,1.99-.85,1.99-1.89,1.99Z"/>
        <path class="cls-2" d="m208.5,42.58c-1.04,0-1.89-.89-1.89-1.99s.85-1.99,1.89-1.99,1.89.89,1.89,1.99-.85,1.99-1.89,1.99Z"/>
        <path class="cls-2" d="m203.34,69.7c-1.04,0-1.89-.89-1.89-1.99s.85-1.99,1.89-1.99,1.89.89,1.89,1.99-.85,1.99-1.89,1.99Z"/>
        <ellipse class="cls-2" cx="198.18" cy="73.14" rx="1.89" ry="1.99"/>
        <path class="cls-2" d="m198.18,64.28c-1.04,0-1.89-.89-1.89-1.99s.85-1.99,1.89-1.99,1.89.89,1.89,1.99-.85,1.99-1.89,1.99Z"/>
        <path class="cls-2" d="m208.5,64.28c-1.04,0-1.89-.89-1.89-1.99s.85-1.99,1.89-1.99,1.89.89,1.89,1.99-.85,1.99-1.89,1.99Z"/>
        <path class="cls-2" d="m213.65,58.85c-1.04,0-1.89-.89-1.89-1.99s.85-1.99,1.89-1.99,1.89.89,1.89,1.99-.85,1.99-1.89,1.99Z"/>
        <path class="cls-2" d="m203.34,58.85c-1.04,0-1.89-.89-1.89-1.99s.85-1.99,1.89-1.99,1.89.89,1.89,1.99-.85,1.99-1.89,1.99Z"/>
        <ellipse class="cls-2" cx="203.34" cy="78.56" rx="1.89" ry="1.99"/>
        <path class="cls-2" d="m193.02,37.16c-.76,0-1.44-.48-1.74-1.21-.1-.24-.15-.5-.15-.77s.05-.53.15-.77c.3-.74.98-1.21,1.74-1.21s1.45.48,1.74,1.21c.1.24.15.5.15.77s-.05.53-.15.77c-.3.74-.98,1.21-1.74,1.21Z"/>
        <path class="cls-2" d="m182.71,37.16c-.76,0-1.44-.48-1.74-1.21-.1-.24-.15-.5-.15-.77s.05-.53.15-.77c.3-.74.98-1.21,1.74-1.21s1.45.48,1.74,1.21c.1.24.15.5.15.77s-.05.53-.15.77c-.3.74-.98,1.21-1.74,1.21Z"/>
        <path class="cls-2" d="m193.02,26.31c-1.04,0-1.89-.89-1.89-1.99s.85-1.99,1.89-1.99,1.89.89,1.89,1.99-.85,1.99-1.89,1.99Z"/>
        <path class="cls-2" d="m177.55,31.73c-1.04,0-1.89-.89-1.89-1.99s.85-1.99,1.89-1.99,1.89.89,1.89,1.99-.85,1.99-1.89,1.99Z"/>
        <path class="cls-2" d="m187.87,31.73c-1.04,0-1.89-.89-1.89-1.99s.85-1.99,1.89-1.99,1.89.89,1.89,1.99-.85,1.99-1.89,1.99Z"/>
        <path class="cls-2" d="m193.02,15.46c-1.04,0-1.89-.89-1.89-1.99s.85-1.99,1.89-1.99,1.89.89,1.89,1.99-.85,1.99-1.89,1.99Z"/>
        <path class="cls-2" d="m193.02,48c-1.04,0-1.89-.89-1.89-1.99s.85-1.99,1.89-1.99,1.89.89,1.89,1.99-.85,1.99-1.89,1.99Z"/>
        <path class="cls-2" d="m182.71,48c-1.04,0-1.89-.89-1.89-1.99s.85-1.99,1.89-1.99,1.89.89,1.89,1.99-.85,1.99-1.89,1.99Z"/>
        <path class="cls-2" d="m177.55,53.43c-1.04,0-1.89-.89-1.89-1.99s.85-1.99,1.89-1.99,1.89.89,1.89,1.99-.85,1.99-1.89,1.99Z"/>
        <path class="cls-2" d="m187.87,53.43c-1.04,0-1.89-.89-1.89-1.99s.85-1.99,1.89-1.99,1.89.89,1.89,1.99-.85,1.99-1.89,1.99Z"/>
        <path class="cls-2" d="m177.55,42.58c-1.04,0-1.89-.89-1.89-1.99s.85-1.99,1.89-1.99,1.89.89,1.89,1.99-.85,1.99-1.89,1.99Z"/>
        <path class="cls-2" d="m187.87,42.58c-1.04,0-1.89-.89-1.89-1.99s.85-1.99,1.89-1.99,1.89.89,1.89,1.99-.85,1.99-1.89,1.99Z"/>
        <path class="cls-2" d="m193.02,69.7c-1.04,0-1.89-.89-1.89-1.99s.85-1.99,1.89-1.99,1.89.89,1.89,1.99-.85,1.99-1.89,1.99Z"/>
        <path class="cls-2" d="m182.71,69.7c-1.04,0-1.89-.89-1.89-1.99s.85-1.99,1.89-1.99,1.89.89,1.89,1.99-.85,1.99-1.89,1.99Z"/>
        <path class="cls-2" d="m177.55,75.12c-1.04,0-1.89-.89-1.89-1.99s.85-1.99,1.89-1.99,1.89.89,1.89,1.99-.85,1.99-1.89,1.99Z"/>
        <path class="cls-2" d="m187.87,75.12c-1.04,0-1.89-.89-1.89-1.99s.85-1.99,1.89-1.99,1.89.89,1.89,1.99-.85,1.99-1.89,1.99Z"/>
        <path class="cls-2" d="m177.55,64.28c-1.04,0-1.89-.89-1.89-1.99s.85-1.99,1.89-1.99,1.89.89,1.89,1.99-.85,1.99-1.89,1.99Z"/>
        <path class="cls-2" d="m187.87,64.28c-1.04,0-1.89-.89-1.89-1.99s.85-1.99,1.89-1.99,1.89.89,1.89,1.99-.85,1.99-1.89,1.99Z"/>
        <path class="cls-2" d="m193.02,58.85c-1.04,0-1.89-.89-1.89-1.99s.85-1.99,1.89-1.99,1.89.89,1.89,1.99-.85,1.99-1.89,1.99Z"/>
        <path class="cls-2" d="m182.71,58.85c-1.04,0-1.89-.89-1.89-1.99s.85-1.99,1.89-1.99,1.89.89,1.89,1.99-.85,1.99-1.89,1.99Z"/>
        <path class="cls-2" d="m182.71,102.24c-1.04,0-1.89-.89-1.89-1.99,0-.27.05-.53.15-.77.3-.74.98-1.21,1.74-1.21s1.45.48,1.74,1.21c.1.24.15.5.15.77,0,1.1-.85,1.99-1.89,1.99Z"/>
        <path class="cls-2" d="m182.71,91.4c-1.04,0-1.89-.89-1.89-1.99s.85-1.99,1.89-1.99,1.89.89,1.89,1.99-.85,1.99-1.89,1.99Z"/>
        <path class="cls-2" d="m177.55,96.82c-1.04,0-1.89-.89-1.89-1.99s.85-1.99,1.89-1.99,1.89.89,1.89,1.99-.85,1.99-1.89,1.99Z"/>
        <path class="cls-2" d="m177.55,85.97c-1.04,0-1.89-.89-1.89-1.99s.85-1.99,1.89-1.99,1.89.89,1.89,1.99-.85,1.99-1.89,1.99Z"/>
        <path class="cls-2" d="m187.87,85.97c-1.04,0-1.89-.89-1.89-1.99s.85-1.99,1.89-1.99,1.89.89,1.89,1.99-.85,1.99-1.89,1.99Z"/>
        <path class="cls-2" d="m193.02,80.55c-1.04,0-1.89-.89-1.89-1.99s.85-1.99,1.89-1.99,1.89.89,1.89,1.99-.85,1.99-1.89,1.99Z"/>
        <path class="cls-2" d="m182.71,80.55c-1.04,0-1.89-.89-1.89-1.99s.85-1.99,1.89-1.99,1.89.89,1.89,1.99-.85,1.99-1.89,1.99Z"/>
        <path class="cls-2" d="m182.71,113.09c-1.04,0-1.89-.89-1.89-1.99s.85-1.99,1.89-1.99,1.89.89,1.89,1.99-.85,1.99-1.89,1.99Z"/>
        <path class="cls-2" d="m177.55,107.67c-1.04,0-1.89-.89-1.89-1.99s.85-1.99,1.89-1.99,1.89.89,1.89,1.99-.85,1.99-1.89,1.99Z"/>
        <path class="cls-2" d="m172.39,37.16c-.76,0-1.44-.48-1.74-1.21-.1-.24-.15-.5-.15-.77s.05-.53.15-.77c.3-.74.98-1.21,1.74-1.21s1.45.48,1.74,1.21c.1.24.15.5.15.77s-.05.53-.15.77c-.3.74-.98,1.21-1.74,1.21Z"/>
        <path class="cls-2" d="m162.07,37.16c-.76,0-1.44-.48-1.74-1.21-.1-.24-.15-.5-.15-.77s.05-.53.15-.77c.3-.74.98-1.21,1.74-1.21s1.45.48,1.74,1.21c.1.24.15.5.15.77s-.05.53-.15.77c-.3.74-.98,1.21-1.74,1.21Z"/>
        <path class="cls-2" d="m172.39,26.31c-1.04,0-1.89-.89-1.89-1.99s.85-1.99,1.89-1.99c.76,0,1.45.48,1.74,1.21.1.24.15.5.15.77s-.05.53-.15.77c-.3.74-.98,1.21-1.74,1.21Z"/>
        <path class="cls-2" d="m156.92,31.73c-1.04,0-1.89-.89-1.89-1.99s.85-1.99,1.89-1.99,1.89.89,1.89,1.99-.85,1.99-1.89,1.99Z"/>
        <path class="cls-2" d="m167.23,31.73c-1.04,0-1.89-.89-1.89-1.99s.85-1.99,1.89-1.99,1.89.89,1.89,1.99-.85,1.99-1.89,1.99Z"/>
        <path class="cls-2" d="m172.39,48c-1.04,0-1.89-.89-1.89-1.99s.85-1.99,1.89-1.99c.76,0,1.45.48,1.74,1.21.1.24.15.5.15.77s-.05.53-.15.77c-.3.74-.98,1.21-1.74,1.21Z"/>
        <path class="cls-2" d="m162.07,48c-1.04,0-1.89-.89-1.89-1.99s.85-1.99,1.89-1.99,1.89.89,1.89,1.99-.85,1.99-1.89,1.99Z"/>
        <path class="cls-2" d="m156.92,53.43c-1.04,0-1.89-.89-1.89-1.99s.85-1.99,1.89-1.99,1.89.89,1.89,1.99-.85,1.99-1.89,1.99Z"/>
        <path class="cls-2" d="m167.23,53.43c-1.04,0-1.89-.89-1.89-1.99s.85-1.99,1.89-1.99,1.89.89,1.89,1.99-.85,1.99-1.89,1.99Z"/>
        <path class="cls-2" d="m156.92,42.58c-1.04,0-1.89-.89-1.89-1.99s.85-1.99,1.89-1.99,1.89.89,1.89,1.99-.85,1.99-1.89,1.99Z"/>
        <path class="cls-2" d="m167.23,42.58c-1.04,0-1.89-.89-1.89-1.99s.85-1.99,1.89-1.99,1.89.89,1.89,1.99-.85,1.99-1.89,1.99Z"/>
        <path class="cls-2" d="m172.39,69.7c-1.04,0-1.89-.89-1.89-1.99s.85-1.99,1.89-1.99c.76,0,1.45.48,1.74,1.21.1.24.15.5.15.77s-.05.53-.15.77c-.3.74-.98,1.21-1.74,1.21Z"/>
        <path class="cls-2" d="m162.07,69.7c-1.04,0-1.89-.89-1.89-1.99s.85-1.99,1.89-1.99,1.89.89,1.89,1.99-.85,1.99-1.89,1.99Z"/>
        <ellipse class="cls-2" cx="156.92" cy="73.14" rx="1.89" ry="1.99"/>
        <path class="cls-2" d="m167.23,75.12c-1.04,0-1.89-.89-1.89-1.99s.85-1.99,1.89-1.99,1.89.89,1.89,1.99-.85,1.99-1.89,1.99Z"/>
        <path class="cls-2" d="m156.92,64.28c-1.04,0-1.89-.89-1.89-1.99s.85-1.99,1.89-1.99,1.89.89,1.89,1.99-.85,1.99-1.89,1.99Z"/>
        <path class="cls-2" d="m167.23,64.28c-1.04,0-1.89-.89-1.89-1.99s.85-1.99,1.89-1.99,1.89.89,1.89,1.99-.85,1.99-1.89,1.99Z"/>
        <path class="cls-2" d="m172.39,58.85c-1.04,0-1.89-.89-1.89-1.99s.85-1.99,1.89-1.99c.76,0,1.45.48,1.74,1.21.1.24.15.5.15.77s-.05.53-.15.77c-.3.74-.98,1.21-1.74,1.21Z"/>
        <path class="cls-2" d="m162.07,58.85c-1.04,0-1.89-.89-1.89-1.99s.85-1.99,1.89-1.99,1.89.89,1.89,1.99-.85,1.99-1.89,1.99Z"/>
        <path class="cls-2" d="m172.39,102.24c-1.04,0-1.89-.89-1.89-1.99,0-.27.05-.53.15-.77.3-.74.98-1.21,1.74-1.21s1.45.48,1.74,1.21c.1.24.15.5.15.77s-.05.53-.15.77c-.3.74-.98,1.21-1.74,1.21Z"/>
        <path class="cls-2" d="m162.07,102.24c-1.04,0-1.89-.89-1.89-1.99,0-.27.05-.53.15-.77.3-.74.98-1.21,1.74-1.21s1.45.48,1.74,1.21c.1.24.15.5.15.77,0,1.1-.85,1.99-1.89,1.99Z"/>
        <path class="cls-2" d="m172.39,91.4c-1.04,0-1.89-.89-1.89-1.99s.85-1.99,1.89-1.99c.76,0,1.45.48,1.74,1.21.1.24.15.5.15.77s-.05.53-.15.77c-.3.74-.98,1.21-1.74,1.21Z"/>
        <path class="cls-2" d="m162.07,91.4c-1.04,0-1.89-.89-1.89-1.99s.85-1.99,1.89-1.99,1.89.89,1.89,1.99-.85,1.99-1.89,1.99Z"/>
        <path class="cls-2" d="m167.23,96.82c-1.04,0-1.89-.89-1.89-1.99s.85-1.99,1.89-1.99,1.89.89,1.89,1.99-.85,1.99-1.89,1.99Z"/>
        <ellipse class="cls-2" cx="156.92" cy="83.98" rx="1.89" ry="1.99"/>
        <path class="cls-2" d="m167.23,85.97c-1.04,0-1.89-.89-1.89-1.99s.85-1.99,1.89-1.99,1.89.89,1.89,1.99-.85,1.99-1.89,1.99Z"/>
        <path class="cls-2" d="m172.39,80.55c-1.04,0-1.89-.89-1.89-1.99s.85-1.99,1.89-1.99c.76,0,1.45.48,1.74,1.21.1.24.15.5.15.77s-.05.53-.15.77c-.3.74-.98,1.21-1.74,1.21Z"/>
        <path class="cls-2" d="m162.07,80.55c-1.04,0-1.89-.89-1.89-1.99s.85-1.99,1.89-1.99,1.89.89,1.89,1.99-.85,1.99-1.89,1.99Z"/>
        <path class="cls-2" d="m172.39,113.09c-1.04,0-1.89-.89-1.89-1.99s.85-1.99,1.89-1.99c.76,0,1.45.48,1.74,1.21.1.24.15.5.15.77s-.05.53-.15.77c-.3.74-.98,1.21-1.74,1.21Z"/>
        <path class="cls-2" d="m162.07,113.09c-1.04,0-1.89-.89-1.89-1.99s.85-1.99,1.89-1.99,1.89.89,1.89,1.99-.85,1.99-1.89,1.99Z"/>
        <path class="cls-2" d="m156.92,118.52c-1.04,0-1.89-.89-1.89-1.99s.85-1.99,1.89-1.99,1.89.89,1.89,1.99-.85,1.99-1.89,1.99Z"/>
        <path class="cls-2" d="m167.23,118.52c-1.04,0-1.89-.89-1.89-1.99s.85-1.99,1.89-1.99,1.89.89,1.89,1.99-.85,1.99-1.89,1.99Z"/>
        <ellipse class="cls-2" cx="156.92" cy="105.68" rx="1.89" ry="1.99"/>
        <path class="cls-2" d="m167.23,107.67c-1.04,0-1.89-.89-1.89-1.99s.85-1.99,1.89-1.99,1.89.89,1.89,1.99-.85,1.99-1.89,1.99Z"/>
        <path class="cls-2" d="m151.76,37.16c-.76,0-1.44-.48-1.74-1.21-.1-.24-.15-.5-.15-.77s.05-.53.15-.77c.3-.74.98-1.21,1.74-1.21s1.45.48,1.74,1.21c.1.24.15.5.15.77s-.05.53-.15.77c-.3.74-.98,1.21-1.74,1.21Z"/>
        <path class="cls-2" d="m141.44,37.16c-.76,0-1.44-.48-1.74-1.21-.1-.24-.15-.5-.15-.77s.05-.53.15-.77c.3-.74.98-1.21,1.74-1.21s1.45.48,1.74,1.21c.1.24.15.5.15.77s-.05.53-.15.77c-.3.74-.98,1.21-1.74,1.21Z"/>
        <path class="cls-2" d="m151.76,26.31c-1.04,0-1.89-.89-1.89-1.99s.85-1.99,1.89-1.99,1.89.89,1.89,1.99-.85,1.99-1.89,1.99Z"/>
        <path class="cls-2" d="m141.44,26.31c-1.04,0-1.89-.89-1.89-1.99s.85-1.99,1.89-1.99,1.89.89,1.89,1.99-.85,1.99-1.89,1.99Z"/>
        <path class="cls-2" d="m136.28,31.73c-1.04,0-1.89-.89-1.89-1.99s.85-1.99,1.89-1.99,1.89.89,1.89,1.99-.85,1.99-1.89,1.99Z"/>
        <path class="cls-2" d="m146.6,31.73c-1.04,0-1.89-.89-1.89-1.99s.85-1.99,1.89-1.99,1.89.89,1.89,1.99-.85,1.99-1.89,1.99Z"/>
        <path class="cls-2" d="m136.28,20.88c-1.04,0-1.89-.89-1.89-1.99s.85-1.99,1.89-1.99,1.89.89,1.89,1.99-.85,1.99-1.89,1.99Z"/>
        <path class="cls-2" d="m151.76,48c-1.04,0-1.89-.89-1.89-1.99s.85-1.99,1.89-1.99,1.89.89,1.89,1.99-.85,1.99-1.89,1.99Z"/>
        <path class="cls-2" d="m141.44,48c-1.04,0-1.89-.89-1.89-1.99s.85-1.99,1.89-1.99,1.89.89,1.89,1.99-.85,1.99-1.89,1.99Z"/>
        <path class="cls-2" d="m136.28,53.43c-1.04,0-1.89-.89-1.89-1.99s.85-1.99,1.89-1.99,1.89.89,1.89,1.99-.85,1.99-1.89,1.99Z"/>
        <path class="cls-2" d="m146.6,53.43c-1.04,0-1.89-.89-1.89-1.99s.85-1.99,1.89-1.99,1.89.89,1.89,1.99-.85,1.99-1.89,1.99Z"/>
        <path class="cls-2" d="m136.28,42.58c-1.04,0-1.89-.89-1.89-1.99s.85-1.99,1.89-1.99,1.89.89,1.89,1.99-.85,1.99-1.89,1.99Z"/>
        <path class="cls-2" d="m146.6,42.58c-1.04,0-1.89-.89-1.89-1.99s.85-1.99,1.89-1.99,1.89.89,1.89,1.99-.85,1.99-1.89,1.99Z"/>
        <path class="cls-2" d="m151.76,69.7c-1.04,0-1.89-.89-1.89-1.99s.85-1.99,1.89-1.99,1.89.89,1.89,1.99-.85,1.99-1.89,1.99Z"/>
        <path class="cls-2" d="m141.44,69.7c-1.04,0-1.89-.89-1.89-1.99s.85-1.99,1.89-1.99,1.89.89,1.89,1.99-.85,1.99-1.89,1.99Z"/>
        <ellipse class="cls-2" cx="136.28" cy="73.14" rx="1.89" ry="1.99"/>
        <path class="cls-2" d="m146.6,75.12c-1.04,0-1.89-.89-1.89-1.99s.85-1.99,1.89-1.99,1.89.89,1.89,1.99-.85,1.99-1.89,1.99Z"/>
        <path class="cls-2" d="m136.28,64.28c-1.04,0-1.89-.89-1.89-1.99s.85-1.99,1.89-1.99,1.89.89,1.89,1.99-.85,1.99-1.89,1.99Z"/>
        <path class="cls-2" d="m146.6,64.28c-1.04,0-1.89-.89-1.89-1.99s.85-1.99,1.89-1.99,1.89.89,1.89,1.99-.85,1.99-1.89,1.99Z"/>
        <path class="cls-2" d="m151.76,58.85c-1.04,0-1.89-.89-1.89-1.99s.85-1.99,1.89-1.99,1.89.89,1.89,1.99-.85,1.99-1.89,1.99Z"/>
        <path class="cls-2" d="m141.44,58.85c-1.04,0-1.89-.89-1.89-1.99s.85-1.99,1.89-1.99,1.89.89,1.89,1.99-.85,1.99-1.89,1.99Z"/>
        <path class="cls-2" d="m151.76,91.4c-1.04,0-1.89-.89-1.89-1.99s.85-1.99,1.89-1.99,1.89.89,1.89,1.99-.85,1.99-1.89,1.99Z"/>
        <path class="cls-2" d="m141.44,91.4c-1.04,0-1.89-.89-1.89-1.99s.85-1.99,1.89-1.99,1.89.89,1.89,1.99-.85,1.99-1.89,1.99Z"/>
        <ellipse class="cls-2" cx="136.28" cy="83.98" rx="1.89" ry="1.99"/>
        <path class="cls-2" d="m146.6,85.97c-1.04,0-1.89-.89-1.89-1.99s.85-1.99,1.89-1.99,1.89.89,1.89,1.99-.85,1.99-1.89,1.99Z"/>
        <path class="cls-2" d="m151.76,80.55c-1.04,0-1.89-.89-1.89-1.99s.85-1.99,1.89-1.99,1.89.89,1.89,1.99-.85,1.99-1.89,1.99Z"/>
        <path class="cls-2" d="m141.44,80.55c-1.04,0-1.89-.89-1.89-1.99s.85-1.99,1.89-1.99,1.89.89,1.89,1.99-.85,1.99-1.89,1.99Z"/>
        <path class="cls-2" d="m151.76,113.09c-1.04,0-1.89-.89-1.89-1.99s.85-1.99,1.89-1.99,1.89.89,1.89,1.99-.85,1.99-1.89,1.99Z"/>
        <path class="cls-2" d="m136.28,118.52c-1.04,0-1.89-.89-1.89-1.99s.85-1.99,1.89-1.99,1.89.89,1.89,1.99-.85,1.99-1.89,1.99Z"/>
        <path class="cls-2" d="m146.6,118.52c-1.04,0-1.89-.89-1.89-1.99s.85-1.99,1.89-1.99,1.89.89,1.89,1.99-.85,1.99-1.89,1.99Z"/>
        <path class="cls-2" d="m151.76,123.94c-1.04,0-1.89-.89-1.89-1.99,0-.8.45-1.52,1.15-1.83.23-.1.48-.16.74-.16s.5.05.74.16c.7.31,1.16,1.03,1.16,1.83,0,1.1-.85,1.99-1.89,1.99Z"/>
        <path class="cls-2" d="m141.44,123.94c-1.04,0-1.89-.89-1.89-1.99,0-.8.45-1.52,1.15-1.83.23-.1.48-.16.74-.16s.5.05.74.16c.7.31,1.16,1.03,1.16,1.83,0,1.1-.85,1.99-1.89,1.99Z"/>
        <path class="cls-2" d="m125.97,10.03c-1.04,0-1.89-.89-1.89-1.99s.85-1.99,1.89-1.99,1.89.89,1.89,1.99-.85,1.99-1.89,1.99Z"/>
        <path class="cls-2" d="m131.12,37.16c-.51,0-.98-.21-1.33-.58-.17-.18-.31-.39-.41-.63-.1-.24-.15-.5-.15-.77s.05-.53.15-.77c.1-.24.23-.45.41-.63.36-.38.83-.58,1.34-.58.76,0,1.45.48,1.74,1.21.1.25.15.51.15.77s-.05.53-.15.77c-.3.74-.98,1.21-1.74,1.21Z"/>
        <path class="cls-2" d="m120.81,37.16c-.76,0-1.45-.48-1.74-1.21-.1-.24-.15-.5-.15-.77s.05-.53.15-.77c.3-.74.98-1.21,1.74-1.21s1.45.48,1.74,1.21c.1.24.15.5.15.77s-.05.53-.15.77c-.3.74-.98,1.21-1.74,1.21Z"/>
        <path class="cls-2" d="m131.12,26.31c-.51,0-.98-.21-1.33-.58-.36-.38-.56-.88-.56-1.41s.2-1.03.55-1.41c.36-.38.83-.58,1.34-.58,1.04,0,1.89.89,1.89,1.99s-.85,1.99-1.89,1.99Z"/>
        <path class="cls-2" d="m120.81,26.31c-1.04,0-1.89-.89-1.89-1.99s.85-1.99,1.89-1.99,1.89.89,1.89,1.99-.85,1.99-1.89,1.99Z"/>
        <path class="cls-2" d="m115.65,31.73c-1.04,0-1.89-.89-1.89-1.99s.85-1.99,1.89-1.99,1.89.89,1.89,1.99-.85,1.99-1.89,1.99Z"/>
        <path class="cls-2" d="m125.97,31.73c-1.04,0-1.89-.89-1.89-1.99s.85-1.99,1.89-1.99,1.89.89,1.89,1.99-.85,1.99-1.89,1.99Z"/>
        <path class="cls-2" d="m115.65,20.88c-1.04,0-1.89-.89-1.89-1.99s.85-1.99,1.89-1.99,1.89.89,1.89,1.99-.85,1.99-1.89,1.99Z"/>
        <path class="cls-2" d="m125.97,20.88c-1.04,0-1.89-.89-1.89-1.99s.85-1.99,1.89-1.99,1.89.89,1.89,1.99-.85,1.99-1.89,1.99Z"/>
        <path class="cls-2" d="m131.12,15.46c-.51,0-.98-.21-1.33-.58-.36-.38-.56-.88-.56-1.41s.2-1.03.55-1.41c.36-.38.83-.58,1.34-.58,1.04,0,1.89.89,1.89,1.99s-.85,1.99-1.89,1.99Z"/>
        <path class="cls-2" d="m120.81,15.46c-1.04,0-1.89-.89-1.89-1.99s.85-1.99,1.89-1.99,1.89.89,1.89,1.99-.85,1.99-1.89,1.99Z"/>
        <path class="cls-2" d="m131.12,48c-.51,0-.98-.21-1.33-.58-.36-.38-.56-.88-.56-1.41s.2-1.03.55-1.41c.36-.38.83-.58,1.34-.58,1.04,0,1.89.89,1.89,1.99s-.85,1.99-1.89,1.99Z"/>
        <path class="cls-2" d="m120.81,48c-1.04,0-1.89-.89-1.89-1.99s.85-1.99,1.89-1.99,1.89.89,1.89,1.99-.85,1.99-1.89,1.99Z"/>
        <path class="cls-2" d="m115.65,53.43c-1.04,0-1.89-.89-1.89-1.99s.85-1.99,1.89-1.99,1.89.89,1.89,1.99-.85,1.99-1.89,1.99Z"/>
        <path class="cls-2" d="m125.97,53.43c-1.04,0-1.89-.89-1.89-1.99s.85-1.99,1.89-1.99,1.89.89,1.89,1.99-.85,1.99-1.89,1.99Z"/>
        <path class="cls-2" d="m115.65,42.58c-1.04,0-1.89-.89-1.89-1.99s.85-1.99,1.89-1.99,1.89.89,1.89,1.99-.85,1.99-1.89,1.99Z"/>
        <path class="cls-2" d="m125.97,42.58c-1.04,0-1.89-.89-1.89-1.99s.85-1.99,1.89-1.99,1.89.89,1.89,1.99-.85,1.99-1.89,1.99Z"/>
        <path class="cls-2" d="m131.12,69.7c-.51,0-.98-.21-1.33-.58-.36-.38-.56-.88-.56-1.41s.2-1.03.55-1.41c.36-.38.83-.58,1.34-.58,1.04,0,1.89.89,1.89,1.99s-.85,1.99-1.89,1.99Z"/>
        <path class="cls-2" d="m120.81,69.7c-1.04,0-1.89-.89-1.89-1.99s.85-1.99,1.89-1.99,1.89.89,1.89,1.99-.85,1.99-1.89,1.99Z"/>
        <ellipse class="cls-2" cx="115.65" cy="73.14" rx="1.89" ry="1.99"/>
        <path class="cls-2" d="m125.97,75.12c-1.04,0-1.89-.89-1.89-1.99s.85-1.99,1.89-1.99,1.89.89,1.89,1.99-.85,1.99-1.89,1.99Z"/>
        <path class="cls-2" d="m115.65,64.28c-1.04,0-1.89-.89-1.89-1.99s.85-1.99,1.89-1.99,1.89.89,1.89,1.99-.85,1.99-1.89,1.99Z"/>
        <path class="cls-2" d="m125.97,64.28c-1.04,0-1.89-.89-1.89-1.99s.85-1.99,1.89-1.99,1.89.89,1.89,1.99-.85,1.99-1.89,1.99Z"/>
        <path class="cls-2" d="m131.12,58.85c-.51,0-.98-.21-1.33-.58-.36-.38-.56-.88-.56-1.41s.2-1.03.55-1.41c.36-.38.83-.58,1.34-.58,1.04,0,1.89.89,1.89,1.99s-.85,1.99-1.89,1.99Z"/>
        <path class="cls-2" d="m120.81,58.85c-1.04,0-1.89-.89-1.89-1.99s.85-1.99,1.89-1.99,1.89.89,1.89,1.99-.85,1.99-1.89,1.99Z"/>
        <path class="cls-2" d="m131.12,102.24c-.51,0-.98-.21-1.33-.58-.36-.38-.56-.88-.56-1.41,0-.27.05-.53.15-.77.1-.24.23-.45.41-.63.36-.38.83-.58,1.34-.58.76,0,1.45.48,1.74,1.21.1.25.15.51.15.77,0,1.1-.85,1.99-1.89,1.99Z"/>
        <path class="cls-2" d="m120.81,102.24c-1.04,0-1.89-.89-1.89-1.99,0-.27.05-.53.15-.77.3-.74.98-1.21,1.74-1.21s1.45.48,1.74,1.21c.1.24.15.5.15.77,0,1.1-.85,1.99-1.89,1.99Z"/>
        <path class="cls-2" d="m131.12,91.4c-.51,0-.98-.21-1.33-.58-.36-.38-.56-.88-.56-1.41s.2-1.03.55-1.41c.36-.38.83-.58,1.34-.58,1.04,0,1.89.89,1.89,1.99s-.85,1.99-1.89,1.99Z"/>
        <path class="cls-2" d="m120.81,91.4c-1.04,0-1.89-.89-1.89-1.99s.85-1.99,1.89-1.99,1.89.89,1.89,1.99-.85,1.99-1.89,1.99Z"/>
        <path class="cls-2" d="m125.97,96.82c-1.04,0-1.89-.89-1.89-1.99s.85-1.99,1.89-1.99,1.89.89,1.89,1.99-.85,1.99-1.89,1.99Z"/>
        <ellipse class="cls-2" cx="115.65" cy="83.98" rx="1.89" ry="1.99"/>
        <path class="cls-2" d="m125.97,85.97c-1.04,0-1.89-.89-1.89-1.99s.85-1.99,1.89-1.99,1.89.89,1.89,1.99-.85,1.99-1.89,1.99Z"/>
        <path class="cls-2" d="m131.12,80.55c-.51,0-.98-.21-1.33-.58-.36-.38-.56-.88-.56-1.41s.2-1.03.55-1.41c.36-.38.83-.58,1.34-.58,1.04,0,1.89.89,1.89,1.99s-.85,1.99-1.89,1.99Z"/>
        <path class="cls-2" d="m120.81,80.55c-1.04,0-1.89-.89-1.89-1.99s.85-1.99,1.89-1.99,1.89.89,1.89,1.99-.85,1.99-1.89,1.99Z"/>
        <path class="cls-2" d="m125.97,107.67c-1.04,0-1.89-.89-1.89-1.99s.85-1.99,1.89-1.99,1.89.89,1.89,1.99-.85,1.99-1.89,1.99Z"/>
        <path class="cls-2" d="m110.49,37.16c-.76,0-1.45-.48-1.74-1.21-.1-.24-.15-.5-.15-.77s.05-.53.15-.77c.3-.74.98-1.21,1.74-1.21s1.45.48,1.74,1.21c.1.25.15.51.15.77s-.05.53-.15.77c-.3.74-.98,1.21-1.74,1.21Z"/>
        <path class="cls-2" d="m100.18,37.16c-.76,0-1.44-.48-1.74-1.21-.1-.25-.15-.51-.15-.77s.05-.53.15-.77c.3-.74.98-1.21,1.74-1.21s1.45.48,1.74,1.21c.1.25.15.51.15.77s-.05.53-.15.77c-.3.74-.98,1.21-1.74,1.21Z"/>
        <path class="cls-2" d="m110.49,26.31c-1.04,0-1.89-.89-1.89-1.99s.85-1.99,1.89-1.99,1.89.89,1.89,1.99-.85,1.99-1.89,1.99Z"/>
        <path class="cls-2" d="m100.18,26.31c-1.04,0-1.89-.89-1.89-1.99s.85-1.99,1.89-1.99,1.89.89,1.89,1.99-.85,1.99-1.89,1.99Z"/>
        <path class="cls-2" d="m105.33,31.73c-1.04,0-1.89-.89-1.89-1.99s.85-1.99,1.89-1.99,1.89.89,1.89,1.99-.85,1.99-1.89,1.99Z"/>
        <path class="cls-2" d="m105.33,20.88c-1.04,0-1.89-.89-1.89-1.99s.85-1.99,1.89-1.99,1.89.89,1.89,1.99-.85,1.99-1.89,1.99Z"/>
        <path class="cls-2" d="m110.49,15.46c-1.04,0-1.89-.89-1.89-1.99s.85-1.99,1.89-1.99,1.89.89,1.89,1.99-.85,1.99-1.89,1.99Z"/>
        <path class="cls-2" d="m110.49,48c-1.04,0-1.89-.89-1.89-1.99s.85-1.99,1.89-1.99,1.89.89,1.89,1.99-.85,1.99-1.89,1.99Z"/>
        <path class="cls-2" d="m100.18,48c-1.04,0-1.89-.89-1.89-1.99s.85-1.99,1.89-1.99,1.89.89,1.89,1.99-.85,1.99-1.89,1.99Z"/>
        <path class="cls-2" d="m105.33,53.43c-1.04,0-1.89-.89-1.89-1.99s.85-1.99,1.89-1.99,1.89.89,1.89,1.99-.85,1.99-1.89,1.99Z"/>
        <path class="cls-2" d="m95.02,42.58c-1.04,0-1.89-.89-1.89-1.99s.85-1.99,1.89-1.99,1.89.89,1.89,1.99-.85,1.99-1.89,1.99Z"/>
        <path class="cls-2" d="m105.33,42.58c-1.04,0-1.89-.89-1.89-1.99s.85-1.99,1.89-1.99,1.89.89,1.89,1.99-.85,1.99-1.89,1.99Z"/>
        <path class="cls-2" d="m110.49,58.85c-1.04,0-1.89-.89-1.89-1.99s.85-1.99,1.89-1.99,1.89.89,1.89,1.99-.85,1.99-1.89,1.99Z"/>
      </g>
    </g>
  </g>
</svg>