<?xml version="1.0" encoding="UTF-8"?>
<svg id="_レイヤー_2" data-name="レイヤー 2" xmlns="http://www.w3.org/2000/svg" xmlns:xlink="http://www.w3.org/1999/xlink" viewBox="0 0 330 139.58">
  <defs>
    <style>
      .cls-1 {
        fill: none;
      }

      .cls-1, .cls-2 {
        stroke-width: 0px;
      }

      .cls-3 {
        clip-path: url(#clippath);
      }

      .cls-2 {
        fill: #d9d9d9;
      }
    </style>
    <clipPath id="clippath">
      <rect class="cls-1" y="4.79" width="330" height="130"/>
    </clipPath>
  </defs>
  <g id="_レイヤー_1-2" data-name="レイヤー 1">
    <g class="cls-3">
      <g>
        <path class="cls-2" d="m208.39,31.1c-.53,0-1.03-.21-1.4-.58-.18-.18-.33-.4-.43-.63-.1-.24-.16-.5-.16-.77s.05-.53.16-.77c.1-.24.24-.45.43-.63.37-.38.87-.58,1.4-.58.8,0,1.52.48,1.83,1.21.1.24.16.5.16.77s-.05.53-.16.77c-.31.74-1.03,1.21-1.83,1.21Z"/>
        <path class="cls-2" d="m197.54,31.1c-.8,0-1.52-.48-1.83-1.21-.1-.24-.16-.5-.16-.77s.05-.53.16-.77c.31-.74,1.03-1.21,1.83-1.21s1.52.48,1.83,1.21c.1.24.16.5.16.77s-.05.53-.16.77c-.31.74-1.03,1.21-1.83,1.21Z"/>
        <path class="cls-2" d="m197.54,20.25c-1.09,0-1.99-.89-1.99-1.99s.89-1.99,1.99-1.99,1.99.89,1.99,1.99-.89,1.99-1.99,1.99Z"/>
        <path class="cls-2" d="m192.12,25.67c-1.1,0-1.99-.89-1.99-1.99s.89-1.99,1.99-1.99,1.99.89,1.99,1.99-.89,1.99-1.99,1.99Z"/>
        <path class="cls-2" d="m202.97,25.67c-1.1,0-1.99-.89-1.99-1.99s.89-1.99,1.99-1.99,1.99.89,1.99,1.99-.89,1.99-1.99,1.99Z"/>
        <path class="cls-2" d="m192.12,14.82c-1.1,0-1.99-.89-1.99-1.99s.89-1.99,1.99-1.99,1.99.89,1.99,1.99-.89,1.99-1.99,1.99Z"/>
        <path class="cls-2" d="m208.39,41.94c-.53,0-1.03-.21-1.4-.58-.38-.38-.58-.87-.58-1.41s.21-1.03.58-1.41c.38-.38.87-.58,1.4-.58.8,0,1.52.48,1.83,1.21.1.24.16.5.16.77s-.05.53-.16.77c-.31.74-1.03,1.21-1.83,1.21Z"/>
        <path class="cls-2" d="m197.54,41.94c-1.09,0-1.99-.89-1.99-1.99s.89-1.99,1.99-1.99,1.99.89,1.99,1.99-.89,1.99-1.99,1.99Z"/>
        <path class="cls-2" d="m192.12,47.37c-1.1,0-1.99-.89-1.99-1.99s.89-1.99,1.99-1.99,1.99.89,1.99,1.99-.89,1.99-1.99,1.99Z"/>
        <path class="cls-2" d="m202.97,47.37c-1.1,0-1.99-.89-1.99-1.99s.89-1.99,1.99-1.99,1.99.89,1.99,1.99-.89,1.99-1.99,1.99Z"/>
        <path class="cls-2" d="m192.12,36.52c-1.1,0-1.99-.89-1.99-1.99s.89-1.99,1.99-1.99,1.99.89,1.99,1.99-.89,1.99-1.99,1.99Z"/>
        <path class="cls-2" d="m202.97,36.52c-1.1,0-1.99-.89-1.99-1.99s.89-1.99,1.99-1.99,1.99.89,1.99,1.99-.89,1.99-1.99,1.99Z"/>
        <path class="cls-2" d="m197.54,63.64c-1.09,0-1.99-.89-1.99-1.99s.89-1.99,1.99-1.99,1.99.89,1.99,1.99-.89,1.99-1.99,1.99Z"/>
        <path class="cls-2" d="m192.12,69.06c-1.1,0-1.99-.89-1.99-1.99s.89-1.99,1.99-1.99,1.99.89,1.99,1.99-.89,1.99-1.99,1.99Z"/>
        <path class="cls-2" d="m202.97,69.06c-1.1,0-1.99-.89-1.99-1.99s.89-1.99,1.99-1.99,1.99.89,1.99,1.99-.89,1.99-1.99,1.99Z"/>
        <path class="cls-2" d="m192.12,58.22c-1.1,0-1.99-.89-1.99-1.99s.89-1.99,1.99-1.99,1.99.89,1.99,1.99-.89,1.99-1.99,1.99Z"/>
        <path class="cls-2" d="m202.97,58.22c-1.1,0-1.99-.89-1.99-1.99s.89-1.99,1.99-1.99,1.99.89,1.99,1.99-.89,1.99-1.99,1.99Z"/>
        <path class="cls-2" d="m208.39,52.79c-.53,0-1.03-.21-1.4-.58-.38-.38-.58-.87-.58-1.41s.21-1.03.58-1.41c.37-.38.87-.58,1.4-.58.8,0,1.52.48,1.83,1.21.1.24.16.5.16.77s-.05.53-.16.77c-.31.74-1.03,1.21-1.83,1.21Z"/>
        <path class="cls-2" d="m197.54,52.79c-1.09,0-1.99-.89-1.99-1.99s.89-1.99,1.99-1.99,1.99.89,1.99,1.99-.89,1.99-1.99,1.99Z"/>
        <path class="cls-2" d="m208.39,96.18c-.53,0-1.03-.21-1.4-.58-.38-.38-.58-.87-.58-1.41,0-.27.05-.53.16-.77.1-.24.24-.45.43-.63.37-.38.87-.58,1.4-.58.8,0,1.52.48,1.83,1.21.1.24.16.5.16.77s-.05.53-.16.77c-.31.74-1.03,1.21-1.83,1.21Z"/>
        <path class="cls-2" d="m197.54,96.18c-1.09,0-1.99-.89-1.99-1.99,0-.27.05-.53.16-.77.31-.74,1.03-1.21,1.83-1.21s1.52.48,1.83,1.21c.1.24.16.5.16.77,0,1.1-.89,1.99-1.99,1.99Z"/>
        <path class="cls-2" d="m197.54,85.34c-1.09,0-1.99-.89-1.99-1.99s.89-1.99,1.99-1.99,1.99.89,1.99,1.99-.89,1.99-1.99,1.99Z"/>
        <path class="cls-2" d="m192.12,90.76c-1.1,0-1.99-.89-1.99-1.99s.89-1.99,1.99-1.99,1.99.89,1.99,1.99-.89,1.99-1.99,1.99Z"/>
        <path class="cls-2" d="m202.97,90.76c-1.1,0-1.99-.89-1.99-1.99s.89-1.99,1.99-1.99,1.99.89,1.99,1.99-.89,1.99-1.99,1.99Z"/>
        <path class="cls-2" d="m192.12,79.91c-1.1,0-1.99-.89-1.99-1.99s.89-1.99,1.99-1.99,1.99.89,1.99,1.99-.89,1.99-1.99,1.99Z"/>
        <path class="cls-2" d="m202.97,79.91c-1.1,0-1.99-.89-1.99-1.99s.89-1.99,1.99-1.99,1.99.89,1.99,1.99-.89,1.99-1.99,1.99Z"/>
        <path class="cls-2" d="m197.54,74.49c-1.09,0-1.99-.89-1.99-1.99s.89-1.99,1.99-1.99,1.99.89,1.99,1.99-.89,1.99-1.99,1.99Z"/>
        <path class="cls-2" d="m208.39,107.03c-.53,0-1.03-.21-1.4-.58-.38-.38-.58-.87-.58-1.41s.21-1.03.58-1.41c.37-.38.87-.58,1.4-.58.8,0,1.52.48,1.83,1.21.1.24.16.5.16.77s-.05.53-.16.77c-.31.74-1.03,1.21-1.83,1.21Z"/>
        <path class="cls-2" d="m197.54,107.03c-1.09,0-1.99-.89-1.99-1.99s.89-1.99,1.99-1.99,1.99.89,1.99,1.99-.89,1.99-1.99,1.99Z"/>
        <path class="cls-2" d="m192.12,112.46c-1.1,0-1.99-.89-1.99-1.99s.89-1.99,1.99-1.99,1.99.89,1.99,1.99-.89,1.99-1.99,1.99Z"/>
        <path class="cls-2" d="m202.97,112.46c-1.1,0-1.99-.89-1.99-1.99s.89-1.99,1.99-1.99,1.99.89,1.99,1.99-.89,1.99-1.99,1.99Z"/>
        <path class="cls-2" d="m192.12,101.61c-1.1,0-1.99-.89-1.99-1.99s.89-1.99,1.99-1.99,1.99.89,1.99,1.99-.89,1.99-1.99,1.99Z"/>
        <path class="cls-2" d="m202.97,101.61c-1.1,0-1.99-.89-1.99-1.99s.89-1.99,1.99-1.99,1.99.89,1.99,1.99-.89,1.99-1.99,1.99Z"/>
        <path class="cls-2" d="m192.12,123.3c-1.1,0-1.99-.89-1.99-1.99s.89-1.99,1.99-1.99,1.99.89,1.99,1.99-.89,1.99-1.99,1.99Z"/>
        <path class="cls-2" d="m197.54,117.88c-1.09,0-1.99-.89-1.99-1.99,0-.8.48-1.52,1.21-1.83.24-.1.5-.16.77-.16s.53.05.77.16c.74.31,1.21,1.03,1.21,1.83,0,1.1-.89,1.99-1.99,1.99Z"/>
        <path class="cls-2" d="m186.69,31.1c-.8,0-1.52-.48-1.83-1.21-.1-.24-.16-.5-.16-.77s.05-.53.16-.77c.31-.74,1.03-1.21,1.83-1.21s1.52.48,1.83,1.21c.1.25.16.51.16.77s-.05.53-.16.77c-.31.74-1.03,1.21-1.83,1.21Z"/>
        <path class="cls-2" d="m175.85,31.1c-.8,0-1.52-.48-1.83-1.21-.1-.24-.16-.5-.16-.77s.05-.53.16-.77c.31-.74,1.03-1.21,1.83-1.21s1.52.48,1.83,1.21c.1.24.16.5.16.77s-.05.53-.16.77c-.31.74-1.03,1.21-1.83,1.21Z"/>
        <path class="cls-2" d="m175.85,20.25c-1.09,0-1.99-.89-1.99-1.99s.89-1.99,1.99-1.99,1.99.89,1.99,1.99-.89,1.99-1.99,1.99Z"/>
        <path class="cls-2" d="m170.42,25.67c-1.1,0-1.99-.89-1.99-1.99s.89-1.99,1.99-1.99,1.99.89,1.99,1.99-.89,1.99-1.99,1.99Z"/>
        <path class="cls-2" d="m181.27,25.67c-1.1,0-1.99-.89-1.99-1.99s.89-1.99,1.99-1.99,1.99.89,1.99,1.99-.89,1.99-1.99,1.99Z"/>
        <path class="cls-2" d="m170.42,14.82c-1.1,0-1.99-.89-1.99-1.99s.89-1.99,1.99-1.99,1.99.89,1.99,1.99-.89,1.99-1.99,1.99Z"/>
        <path class="cls-2" d="m181.27,14.82c-1.1,0-1.99-.89-1.99-1.99s.89-1.99,1.99-1.99,1.99.89,1.99,1.99-.89,1.99-1.99,1.99Z"/>
        <path class="cls-2" d="m175.85,9.4c-1.09,0-1.99-.89-1.99-1.99s.89-1.99,1.99-1.99,1.99.89,1.99,1.99-.89,1.99-1.99,1.99Z"/>
        <path class="cls-2" d="m186.69,41.94c-1.1,0-1.99-.89-1.99-1.99s.89-1.99,1.99-1.99,1.99.89,1.99,1.99-.89,1.99-1.99,1.99Z"/>
        <path class="cls-2" d="m175.85,41.94c-1.09,0-1.99-.89-1.99-1.99s.89-1.99,1.99-1.99,1.99.89,1.99,1.99-.89,1.99-1.99,1.99Z"/>
        <path class="cls-2" d="m170.42,47.37c-1.1,0-1.99-.89-1.99-1.99s.89-1.99,1.99-1.99,1.99.89,1.99,1.99-.89,1.99-1.99,1.99Z"/>
        <path class="cls-2" d="m181.27,47.37c-1.1,0-1.99-.89-1.99-1.99s.89-1.99,1.99-1.99,1.99.89,1.99,1.99-.89,1.99-1.99,1.99Z"/>
        <path class="cls-2" d="m170.42,36.52c-1.1,0-1.99-.89-1.99-1.99s.89-1.99,1.99-1.99,1.99.89,1.99,1.99-.89,1.99-1.99,1.99Z"/>
        <path class="cls-2" d="m181.27,36.52c-1.1,0-1.99-.89-1.99-1.99s.89-1.99,1.99-1.99,1.99.89,1.99,1.99-.89,1.99-1.99,1.99Z"/>
        <path class="cls-2" d="m186.69,63.64c-1.1,0-1.99-.89-1.99-1.99s.89-1.99,1.99-1.99,1.99.89,1.99,1.99-.89,1.99-1.99,1.99Z"/>
        <path class="cls-2" d="m175.85,63.64c-1.09,0-1.99-.89-1.99-1.99s.89-1.99,1.99-1.99,1.99.89,1.99,1.99-.89,1.99-1.99,1.99Z"/>
        <path class="cls-2" d="m170.42,69.06c-1.1,0-1.99-.89-1.99-1.99s.89-1.99,1.99-1.99,1.99.89,1.99,1.99-.89,1.99-1.99,1.99Z"/>
        <path class="cls-2" d="m181.27,69.06c-1.1,0-1.99-.89-1.99-1.99s.89-1.99,1.99-1.99,1.99.89,1.99,1.99-.89,1.99-1.99,1.99Z"/>
        <path class="cls-2" d="m170.42,58.22c-1.1,0-1.99-.89-1.99-1.99s.89-1.99,1.99-1.99,1.99.89,1.99,1.99-.89,1.99-1.99,1.99Z"/>
        <path class="cls-2" d="m181.27,58.22c-1.1,0-1.99-.89-1.99-1.99s.89-1.99,1.99-1.99,1.99.89,1.99,1.99-.89,1.99-1.99,1.99Z"/>
        <path class="cls-2" d="m186.69,52.79c-1.1,0-1.99-.89-1.99-1.99s.89-1.99,1.99-1.99,1.99.89,1.99,1.99-.89,1.99-1.99,1.99Z"/>
        <path class="cls-2" d="m175.85,52.79c-1.09,0-1.99-.89-1.99-1.99s.89-1.99,1.99-1.99,1.99.89,1.99,1.99-.89,1.99-1.99,1.99Z"/>
        <path class="cls-2" d="m186.69,96.18c-1.1,0-1.99-.89-1.99-1.99,0-.27.05-.53.16-.77.31-.74,1.03-1.21,1.83-1.21s1.52.48,1.83,1.21c.1.25.16.51.16.77,0,1.1-.89,1.99-1.99,1.99Z"/>
        <path class="cls-2" d="m175.85,96.18c-1.09,0-1.99-.89-1.99-1.99,0-.27.05-.53.16-.77.31-.74,1.03-1.21,1.83-1.21s1.52.48,1.83,1.21c.1.24.16.5.16.77,0,1.1-.89,1.99-1.99,1.99Z"/>
        <path class="cls-2" d="m186.69,85.34c-1.1,0-1.99-.89-1.99-1.99s.89-1.99,1.99-1.99,1.99.89,1.99,1.99-.89,1.99-1.99,1.99Z"/>
        <path class="cls-2" d="m175.85,85.34c-1.09,0-1.99-.89-1.99-1.99s.89-1.99,1.99-1.99,1.99.89,1.99,1.99-.89,1.99-1.99,1.99Z"/>
        <path class="cls-2" d="m170.42,90.76c-1.1,0-1.99-.89-1.99-1.99s.89-1.99,1.99-1.99,1.99.89,1.99,1.99-.89,1.99-1.99,1.99Z"/>
        <path class="cls-2" d="m181.27,90.76c-1.1,0-1.99-.89-1.99-1.99s.89-1.99,1.99-1.99,1.99.89,1.99,1.99-.89,1.99-1.99,1.99Z"/>
        <path class="cls-2" d="m170.42,79.91c-1.1,0-1.99-.89-1.99-1.99s.89-1.99,1.99-1.99,1.99.89,1.99,1.99-.89,1.99-1.99,1.99Z"/>
        <path class="cls-2" d="m181.27,79.91c-1.1,0-1.99-.89-1.99-1.99s.89-1.99,1.99-1.99,1.99.89,1.99,1.99-.89,1.99-1.99,1.99Z"/>
        <path class="cls-2" d="m186.69,74.49c-1.1,0-1.99-.89-1.99-1.99s.89-1.99,1.99-1.99,1.99.89,1.99,1.99-.89,1.99-1.99,1.99Z"/>
        <path class="cls-2" d="m175.85,74.49c-1.09,0-1.99-.89-1.99-1.99s.89-1.99,1.99-1.99,1.99.89,1.99,1.99-.89,1.99-1.99,1.99Z"/>
        <path class="cls-2" d="m186.69,107.03c-1.1,0-1.99-.89-1.99-1.99s.89-1.99,1.99-1.99,1.99.89,1.99,1.99-.89,1.99-1.99,1.99Z"/>
        <path class="cls-2" d="m175.85,107.03c-1.09,0-1.99-.89-1.99-1.99s.89-1.99,1.99-1.99,1.99.89,1.99,1.99-.89,1.99-1.99,1.99Z"/>
        <path class="cls-2" d="m170.42,112.46c-1.1,0-1.99-.89-1.99-1.99s.89-1.99,1.99-1.99,1.99.89,1.99,1.99-.89,1.99-1.99,1.99Z"/>
        <path class="cls-2" d="m181.27,112.46c-1.1,0-1.99-.89-1.99-1.99s.89-1.99,1.99-1.99,1.99.89,1.99,1.99-.89,1.99-1.99,1.99Z"/>
        <path class="cls-2" d="m170.42,101.61c-1.1,0-1.99-.89-1.99-1.99s.89-1.99,1.99-1.99,1.99.89,1.99,1.99-.89,1.99-1.99,1.99Z"/>
        <path class="cls-2" d="m181.27,101.61c-1.1,0-1.99-.89-1.99-1.99s.89-1.99,1.99-1.99,1.99.89,1.99,1.99-.89,1.99-1.99,1.99Z"/>
        <path class="cls-2" d="m170.42,123.3c-1.1,0-1.99-.89-1.99-1.99s.89-1.99,1.99-1.99,1.99.89,1.99,1.99-.89,1.99-1.99,1.99Z"/>
        <path class="cls-2" d="m181.27,123.3c-1.1,0-1.99-.89-1.99-1.99s.89-1.99,1.99-1.99,1.99.89,1.99,1.99-.89,1.99-1.99,1.99Z"/>
        <path class="cls-2" d="m186.69,117.88c-1.1,0-1.99-.89-1.99-1.99,0-.8.48-1.52,1.21-1.83.24-.1.5-.16.77-.16s.53.05.77.16c.74.31,1.21,1.03,1.21,1.83,0,1.1-.89,1.99-1.99,1.99Z"/>
        <path class="cls-2" d="m175.85,117.88c-1.09,0-1.99-.89-1.99-1.99,0-.8.48-1.52,1.21-1.83.24-.1.5-.16.77-.16s.53.05.77.16c.74.31,1.21,1.03,1.21,1.83,0,1.1-.89,1.99-1.99,1.99Z"/>
        <path class="cls-2" d="m159.58,3.98c-1.1,0-1.99-.89-1.99-1.99s.89-1.99,1.99-1.99,1.99.89,1.99,1.99-.89,1.99-1.99,1.99Z"/>
        <path class="cls-2" d="m165,20.25c-.53,0-1.03-.21-1.4-.58-.38-.38-.58-.87-.58-1.41s.21-1.03.58-1.41c.38-.38.87-.58,1.4-.58,1.1,0,1.99.89,1.99,1.99s-.89,1.99-1.99,1.99Z"/>
        <path class="cls-2" d="m159.58,14.82c-1.1,0-1.99-.89-1.99-1.99s.89-1.99,1.99-1.99,1.99.89,1.99,1.99-.89,1.99-1.99,1.99Z"/>
        <path class="cls-2" d="m165,9.4c-.53,0-1.03-.21-1.4-.58-.38-.38-.58-.88-.58-1.41s.21-1.03.58-1.41c.37-.38.87-.58,1.4-.58,1.1,0,1.99.89,1.99,1.99s-.89,1.99-1.99,1.99Z"/>
        <path class="cls-2" d="m154.15,9.4c-1.1,0-1.99-.89-1.99-1.99s.89-1.99,1.99-1.99,1.99.89,1.99,1.99-.89,1.99-1.99,1.99Z"/>
        <path class="cls-2" d="m165,63.64c-.53,0-1.03-.21-1.4-.58-.38-.38-.58-.88-.58-1.41s.21-1.03.58-1.41c.37-.38.87-.58,1.4-.58,1.1,0,1.99.89,1.99,1.99s-.89,1.99-1.99,1.99Z"/>
        <path class="cls-2" d="m159.58,69.06c-1.1,0-1.99-.89-1.99-1.99s.89-1.99,1.99-1.99,1.99.89,1.99,1.99-.89,1.99-1.99,1.99Z"/>
        <path class="cls-2" d="m165,96.18c-.53,0-1.03-.21-1.4-.58-.38-.38-.58-.88-.58-1.41,0-.27.05-.53.16-.77.1-.24.24-.45.43-.63.38-.38.87-.58,1.4-.58.8,0,1.52.48,1.83,1.21.1.24.16.5.16.77,0,1.1-.89,1.99-1.99,1.99Z"/>
        <path class="cls-2" d="m165,85.34c-.53,0-1.03-.21-1.4-.58-.38-.38-.58-.88-.58-1.41s.21-1.03.58-1.41c.37-.38.87-.58,1.4-.58,1.1,0,1.99.89,1.99,1.99s-.89,1.99-1.99,1.99Z"/>
        <path class="cls-2" d="m165,74.49c-.53,0-1.03-.21-1.4-.58-.38-.38-.58-.88-.58-1.41s.21-1.03.58-1.41c.37-.38.87-.58,1.4-.58,1.1,0,1.99.89,1.99,1.99s-.89,1.99-1.99,1.99Z"/>
        <path class="cls-2" d="m165,107.03c-.53,0-1.03-.21-1.4-.58-.38-.38-.58-.88-.58-1.41s.21-1.03.58-1.41c.37-.38.87-.58,1.4-.58,1.1,0,1.99.89,1.99,1.99s-.89,1.99-1.99,1.99Z"/>
        <path class="cls-2" d="m154.15,107.03c-1.1,0-1.99-.89-1.99-1.99s.89-1.99,1.99-1.99,1.99.89,1.99,1.99-.89,1.99-1.99,1.99Z"/>
        <path class="cls-2" d="m148.73,112.46c-1.1,0-1.99-.89-1.99-1.99s.89-1.99,1.99-1.99,1.99.89,1.99,1.99-.89,1.99-1.99,1.99Z"/>
        <path class="cls-2" d="m159.58,112.46c-1.1,0-1.99-.89-1.99-1.99s.89-1.99,1.99-1.99,1.99.89,1.99,1.99-.89,1.99-1.99,1.99Z"/>
        <path class="cls-2" d="m159.58,101.61c-1.1,0-1.99-.89-1.99-1.99s.89-1.99,1.99-1.99,1.99.89,1.99,1.99-.89,1.99-1.99,1.99Z"/>
        <path class="cls-2" d="m154.15,128.73c-1.1,0-1.99-.89-1.99-1.99s.89-1.99,1.99-1.99,1.99.89,1.99,1.99-.89,1.99-1.99,1.99Z"/>
        <path class="cls-2" d="m148.73,123.3c-1.1,0-1.99-.89-1.99-1.99s.89-1.99,1.99-1.99,1.99.89,1.99,1.99-.89,1.99-1.99,1.99Z"/>
        <path class="cls-2" d="m159.58,123.3c-1.1,0-1.99-.89-1.99-1.99s.89-1.99,1.99-1.99,1.99.89,1.99,1.99-.89,1.99-1.99,1.99Z"/>
        <path class="cls-2" d="m165,117.88c-.53,0-1.03-.21-1.4-.58-.38-.38-.58-.87-.58-1.41s.21-1.03.58-1.41c.18-.18.39-.33.63-.43.24-.1.5-.16.77-.16s.53.05.77.16c.74.31,1.21,1.03,1.21,1.83,0,1.1-.89,1.99-1.99,1.99Z"/>
        <path class="cls-2" d="m154.15,117.88c-1.1,0-1.99-.89-1.99-1.99,0-.8.48-1.52,1.21-1.83.24-.1.5-.16.77-.16s.53.05.77.16c.74.31,1.21,1.03,1.21,1.83,0,1.1-.89,1.99-1.99,1.99Z"/>
        <path class="cls-2" d="m143.31,128.73c-1.1,0-1.99-.89-1.99-1.99s.89-1.99,1.99-1.99,1.99.89,1.99,1.99-.89,1.99-1.99,1.99Z"/>
        <path class="cls-2" d="m132.46,128.73c-1.1,0-1.99-.89-1.99-1.99s.89-1.99,1.99-1.99,1.99.89,1.99,1.99-.89,1.99-1.99,1.99Z"/>
        <path class="cls-2" d="m127.03,134.15c-1.1,0-1.99-.89-1.99-1.99s.89-1.99,1.99-1.99,1.99.89,1.99,1.99-.89,1.99-1.99,1.99Z"/>
        <path class="cls-2" d="m137.88,134.15c-1.1,0-1.99-.89-1.99-1.99s.89-1.99,1.99-1.99,1.99.89,1.99,1.99-.89,1.99-1.99,1.99Z"/>
        <path class="cls-2" d="m137.88,123.3c-1.1,0-1.99-.89-1.99-1.99s.89-1.99,1.99-1.99,1.99.89,1.99,1.99-.89,1.99-1.99,1.99Z"/>
        <path class="cls-2" d="m143.31,117.88c-1.1,0-1.99-.89-1.99-1.99,0-.8.48-1.52,1.21-1.83.24-.1.5-.16.77-.16s.53.05.77.16c.74.31,1.21,1.03,1.21,1.83,0,1.1-.89,1.99-1.99,1.99Z"/>
        <path class="cls-2" d="m132.46,139.58c-1.1,0-1.99-.89-1.99-1.99s.89-1.99,1.99-1.99,1.99.89,1.99,1.99-.89,1.99-1.99,1.99Z"/>
        <path class="cls-2" d="m121.61,139.58c-.53,0-1.03-.21-1.4-.58-.38-.38-.58-.87-.58-1.41s.21-1.03.58-1.41c.38-.38.87-.58,1.4-.58.27,0,.53.05.77.16.74.31,1.21,1.03,1.21,1.83s-.48,1.52-1.21,1.83c-.24.1-.5.16-.77.16Z"/>
      </g>
    </g>
  </g>
</svg>