<?xml version="1.0" encoding="UTF-8"?>
<svg id="_レイヤー_2" data-name="レイヤー 2" xmlns="http://www.w3.org/2000/svg" xmlns:xlink="http://www.w3.org/1999/xlink" viewBox="0 0 330 155.85">
  <defs>
    <style>
      .cls-1 {
        fill: none;
      }

      .cls-1, .cls-2 {
        stroke-width: 0px;
      }

      .cls-3 {
        clip-path: url(#clippath);
      }

      .cls-2 {
        fill: #d9d9d9;
      }
    </style>
    <clipPath id="clippath">
      <rect class="cls-1" y="12.92" width="330" height="130"/>
    </clipPath>
  </defs>
  <g id="_レイヤー_1-2" data-name="レイヤー 1">
    <g class="cls-3">
      <g>
        <path class="cls-2" d="m235.51,85.34c-1.09,0-1.99-.89-1.99-1.99,0-.27.05-.53.16-.77.31-.74,1.03-1.21,1.83-1.21s1.52.48,1.83,1.21c.1.24.16.5.16.77,0,1.1-.89,1.99-1.99,1.99Z"/>
        <path class="cls-2" d="m235.51,74.49c-1.09,0-1.99-.89-1.99-1.99s.89-1.99,1.99-1.99,1.99.89,1.99,1.99-.89,1.99-1.99,1.99Z"/>
        <path class="cls-2" d="m230.09,79.91c-1.1,0-1.99-.89-1.99-1.99s.89-1.99,1.99-1.99,1.99.89,1.99,1.99-.89,1.99-1.99,1.99Z"/>
        <path class="cls-2" d="m240.93,79.91c-1.1,0-1.99-.89-1.99-1.99s.89-1.99,1.99-1.99,1.99.89,1.99,1.99-.89,1.99-1.99,1.99Z"/>
        <path class="cls-2" d="m230.09,69.06c-1.1,0-1.99-.89-1.99-1.99s.89-1.99,1.99-1.99,1.99.89,1.99,1.99-.89,1.99-1.99,1.99Z"/>
        <path class="cls-2" d="m230.09,90.76c-1.1,0-1.99-.89-1.99-1.99s.89-1.99,1.99-1.99,1.99.89,1.99,1.99-.89,1.99-1.99,1.99Z"/>
        <path class="cls-2" d="m213.82,52.79c-1.1,0-1.99-.89-1.99-1.99s.89-1.99,1.99-1.99,1.99.89,1.99,1.99-.89,1.99-1.99,1.99Z"/>
        <path class="cls-2" d="m219.24,58.22c-1.1,0-1.99-.89-1.99-1.99s.89-1.99,1.99-1.99,1.99.89,1.99,1.99-.89,1.99-1.99,1.99Z"/>
        <path class="cls-2" d="m224.66,85.34c-.53,0-1.03-.21-1.4-.58-.38-.38-.58-.88-.58-1.41,0-.27.05-.53.16-.77.1-.24.24-.45.43-.63.38-.38.87-.58,1.4-.58.8,0,1.52.48,1.83,1.21.1.24.16.5.16.77,0,1.1-.89,1.99-1.99,1.99Z"/>
        <path class="cls-2" d="m213.82,85.34c-1.1,0-1.99-.89-1.99-1.99,0-.27.05-.53.16-.77.31-.74,1.03-1.21,1.83-1.21s1.52.48,1.83,1.21c.1.24.16.5.16.77,0,1.1-.89,1.99-1.99,1.99Z"/>
        <path class="cls-2" d="m224.66,74.49c-.53,0-1.03-.21-1.4-.58-.38-.38-.58-.88-.58-1.41s.21-1.03.58-1.41c.38-.38.87-.58,1.4-.58,1.1,0,1.99.89,1.99,1.99s-.89,1.99-1.99,1.99Z"/>
        <path class="cls-2" d="m213.82,74.49c-1.1,0-1.99-.89-1.99-1.99s.89-1.99,1.99-1.99,1.99.89,1.99,1.99-.89,1.99-1.99,1.99Z"/>
        <path class="cls-2" d="m219.24,79.91c-1.1,0-1.99-.89-1.99-1.99s.89-1.99,1.99-1.99,1.99.89,1.99,1.99-.89,1.99-1.99,1.99Z"/>
        <path class="cls-2" d="m219.24,69.06c-1.1,0-1.99-.89-1.99-1.99s.89-1.99,1.99-1.99,1.99.89,1.99,1.99-.89,1.99-1.99,1.99Z"/>
        <path class="cls-2" d="m224.66,63.64c-.53,0-1.03-.21-1.4-.58-.38-.38-.58-.88-.58-1.41s.21-1.03.58-1.41c.38-.38.87-.58,1.4-.58,1.1,0,1.99.89,1.99,1.99s-.89,1.99-1.99,1.99Z"/>
        <circle class="cls-2" cx="213.82" cy="61.65" r="1.99"/>
        <path class="cls-2" d="m224.66,96.19c-.53,0-1.03-.21-1.4-.58-.38-.38-.58-.88-.58-1.41s.21-1.03.58-1.41c.38-.38.87-.58,1.4-.58,1.1,0,1.99.89,1.99,1.99s-.89,1.99-1.99,1.99Z"/>
        <path class="cls-2" d="m219.24,101.61c-1.1,0-1.99-.89-1.99-1.99s.89-1.99,1.99-1.99,1.99.89,1.99,1.99-.89,1.99-1.99,1.99Z"/>
        <path class="cls-2" d="m219.24,90.76c-1.1,0-1.99-.89-1.99-1.99s.89-1.99,1.99-1.99,1.99.89,1.99,1.99-.89,1.99-1.99,1.99Z"/>
        <path class="cls-2" d="m192.12,31.1c-1.1,0-1.99-.89-1.99-1.99s.89-1.99,1.99-1.99,1.99.89,1.99,1.99-.89,1.99-1.99,1.99Z"/>
        <path class="cls-2" d="m186.7,36.52c-1.1,0-1.99-.89-1.99-1.99s.89-1.99,1.99-1.99,1.99.89,1.99,1.99-.89,1.99-1.99,1.99Z"/>
        <path class="cls-2" d="m197.54,36.52c-1.1,0-1.99-.89-1.99-1.99s.89-1.99,1.99-1.99,1.99.89,1.99,1.99-.89,1.99-1.99,1.99Z"/>
        <path class="cls-2" d="m186.7,25.67c-1.1,0-1.99-.89-1.99-1.99s.89-1.99,1.99-1.99,1.99.89,1.99,1.99-.89,1.99-1.99,1.99Z"/>
        <path class="cls-2" d="m192.12,52.79c-1.1,0-1.99-.89-1.99-1.99s.89-1.99,1.99-1.99,1.99.89,1.99,1.99-.89,1.99-1.99,1.99Z"/>
        <circle class="cls-2" cx="186.7" cy="56.23" r="1.99"/>
        <path class="cls-2" d="m197.54,58.22c-1.1,0-1.99-.89-1.99-1.99s.89-1.99,1.99-1.99,1.99.89,1.99,1.99-.89,1.99-1.99,1.99Z"/>
        <path class="cls-2" d="m192.12,41.94c-1.1,0-1.99-.89-1.99-1.99s.89-1.99,1.99-1.99,1.99.89,1.99,1.99-.89,1.99-1.99,1.99Z"/>
        <path class="cls-2" d="m192.12,85.34c-1.1,0-1.99-.89-1.99-1.99,0-.27.05-.53.16-.77.31-.74,1.03-1.21,1.83-1.21s1.52.48,1.83,1.21c.1.25.16.51.16.77,0,1.1-.89,1.99-1.99,1.99Z"/>
        <path class="cls-2" d="m192.12,74.49c-1.1,0-1.99-.89-1.99-1.99s.89-1.99,1.99-1.99,1.99.89,1.99,1.99-.89,1.99-1.99,1.99Z"/>
        <circle class="cls-2" cx="186.7" cy="77.92" r="1.99"/>
        <path class="cls-2" d="m197.54,79.91c-1.1,0-1.99-.89-1.99-1.99s.89-1.99,1.99-1.99,1.99.89,1.99,1.99-.89,1.99-1.99,1.99Z"/>
        <circle class="cls-2" cx="186.7" cy="67.08" r="1.99"/>
        <path class="cls-2" d="m197.54,69.06c-1.1,0-1.99-.89-1.99-1.99s.89-1.99,1.99-1.99,1.99.89,1.99,1.99-.89,1.99-1.99,1.99Z"/>
        <path class="cls-2" d="m192.12,63.64c-1.1,0-1.99-.89-1.99-1.99s.89-1.99,1.99-1.99,1.99.89,1.99,1.99-.89,1.99-1.99,1.99Z"/>
        <path class="cls-2" d="m202.97,96.19c-1.09,0-1.99-.89-1.99-1.99s.89-1.99,1.99-1.99,1.99.89,1.99,1.99-.89,1.99-1.99,1.99Z"/>
        <path class="cls-2" d="m192.12,96.19c-1.1,0-1.99-.89-1.99-1.99s.89-1.99,1.99-1.99,1.99.89,1.99,1.99-.89,1.99-1.99,1.99Z"/>
        <path class="cls-2" d="m186.7,101.61c-1.1,0-1.99-.89-1.99-1.99s.89-1.99,1.99-1.99,1.99.89,1.99,1.99-.89,1.99-1.99,1.99Z"/>
        <path class="cls-2" d="m197.54,101.61c-1.1,0-1.99-.89-1.99-1.99s.89-1.99,1.99-1.99,1.99.89,1.99,1.99-.89,1.99-1.99,1.99Z"/>
        <circle class="cls-2" cx="186.7" cy="88.77" r="1.99"/>
        <path class="cls-2" d="m197.54,90.76c-1.1,0-1.99-.89-1.99-1.99s.89-1.99,1.99-1.99,1.99.89,1.99,1.99-.89,1.99-1.99,1.99Z"/>
        <path class="cls-2" d="m202.97,117.88c-1.09,0-1.99-.89-1.99-1.99s.89-1.99,1.99-1.99,1.99.89,1.99,1.99-.89,1.99-1.99,1.99Z"/>
        <path class="cls-2" d="m192.12,117.88c-1.1,0-1.99-.89-1.99-1.99s.89-1.99,1.99-1.99,1.99.89,1.99,1.99-.89,1.99-1.99,1.99Z"/>
        <path class="cls-2" d="m186.7,123.3c-1.1,0-1.99-.89-1.99-1.99s.89-1.99,1.99-1.99,1.99.89,1.99,1.99-.89,1.99-1.99,1.99Z"/>
        <path class="cls-2" d="m197.54,123.3c-1.1,0-1.99-.89-1.99-1.99s.89-1.99,1.99-1.99,1.99.89,1.99,1.99-.89,1.99-1.99,1.99Z"/>
        <path class="cls-2" d="m186.7,112.46c-1.1,0-1.99-.89-1.99-1.99s.89-1.99,1.99-1.99,1.99.89,1.99,1.99-.89,1.99-1.99,1.99Z"/>
        <path class="cls-2" d="m197.54,112.46c-1.1,0-1.99-.89-1.99-1.99s.89-1.99,1.99-1.99,1.99.89,1.99,1.99-.89,1.99-1.99,1.99Z"/>
        <path class="cls-2" d="m202.97,107.03c-1.09,0-1.99-.89-1.99-1.99,0-.8.48-1.52,1.21-1.83.24-.1.5-.16.77-.16s.53.05.77.16c.74.31,1.21,1.03,1.21,1.83,0,1.1-.89,1.99-1.99,1.99Z"/>
        <path class="cls-2" d="m192.12,107.03c-1.1,0-1.99-.89-1.99-1.99,0-.8.48-1.52,1.21-1.83.24-.1.5-.16.77-.16s.53.05.77.16c.74.31,1.21,1.03,1.21,1.83,0,1.1-.89,1.99-1.99,1.99Z"/>
        <path class="cls-2" d="m186.7,134.15c-1.1,0-1.99-.89-1.99-1.99s.89-1.99,1.99-1.99,1.99.89,1.99,1.99-.89,1.99-1.99,1.99Z"/>
        <path class="cls-2" d="m192.12,128.73c-1.1,0-1.99-.89-1.99-1.99s.89-1.99,1.99-1.99,1.99.89,1.99,1.99-.89,1.99-1.99,1.99Z"/>
        <path class="cls-2" d="m181.27,20.25c-.53,0-1.03-.21-1.4-.58-.18-.18-.33-.4-.43-.63-.1-.25-.16-.51-.16-.77s.05-.53.16-.77c.1-.24.24-.45.43-.63.38-.38.87-.58,1.4-.58.27,0,.53.05.77.16.47.2.86.58,1.06,1.06.1.24.16.5.16.77s-.05.53-.16.77c-.2.47-.59.86-1.06,1.06-.24.1-.5.16-.77.16Z"/>
        <path class="cls-2" d="m170.43,20.25c-.8,0-1.52-.48-1.83-1.21-.1-.24-.16-.5-.16-.77s.05-.53.16-.77c.31-.74,1.03-1.21,1.83-1.21s1.52.48,1.83,1.21c.1.24.16.5.16.77s-.05.53-.16.77c-.31.74-1.03,1.21-1.83,1.21Z"/>
        <path class="cls-2" d="m170.43,9.4c-1.1,0-1.99-.89-1.99-1.99s.89-1.99,1.99-1.99,1.99.89,1.99,1.99-.89,1.99-1.99,1.99Z"/>
        <path class="cls-2" d="m165,14.82c-1.1,0-1.99-.89-1.99-1.99s.89-1.99,1.99-1.99,1.99.89,1.99,1.99-.89,1.99-1.99,1.99Z"/>
        <path class="cls-2" d="m175.85,14.82c-1.1,0-1.99-.89-1.99-1.99s.89-1.99,1.99-1.99,1.99.89,1.99,1.99-.89,1.99-1.99,1.99Z"/>
        <path class="cls-2" d="m165,3.98c-1.1,0-1.99-.89-1.99-1.99s.89-1.99,1.99-1.99,1.99.89,1.99,1.99-.89,1.99-1.99,1.99Z"/>
        <path class="cls-2" d="m181.27,31.1c-.53,0-1.03-.21-1.4-.58-.38-.38-.58-.87-.58-1.41s.21-1.03.58-1.41c.38-.38.87-.58,1.4-.58.27,0,.53.05.77.16.74.31,1.21,1.03,1.21,1.83s-.48,1.52-1.21,1.83c-.25.1-.5.16-.77.16Z"/>
        <path class="cls-2" d="m170.43,31.1c-1.1,0-1.99-.89-1.99-1.99s.89-1.99,1.99-1.99,1.99.89,1.99,1.99-.89,1.99-1.99,1.99Z"/>
        <path class="cls-2" d="m165,36.52c-1.1,0-1.99-.89-1.99-1.99s.89-1.99,1.99-1.99,1.99.89,1.99,1.99-.89,1.99-1.99,1.99Z"/>
        <path class="cls-2" d="m175.85,36.52c-1.1,0-1.99-.89-1.99-1.99s.89-1.99,1.99-1.99,1.99.89,1.99,1.99-.89,1.99-1.99,1.99Z"/>
        <path class="cls-2" d="m165,25.67c-1.1,0-1.99-.89-1.99-1.99s.89-1.99,1.99-1.99,1.99.89,1.99,1.99-.89,1.99-1.99,1.99Z"/>
        <path class="cls-2" d="m175.85,25.67c-1.1,0-1.99-.89-1.99-1.99s.89-1.99,1.99-1.99,1.99.89,1.99,1.99-.89,1.99-1.99,1.99Z"/>
        <path class="cls-2" d="m181.27,52.79c-.53,0-1.03-.21-1.4-.58-.38-.38-.58-.87-.58-1.41s.21-1.03.58-1.41c.38-.38.87-.58,1.4-.58.27,0,.53.05.77.16.74.31,1.21,1.03,1.21,1.83s-.48,1.52-1.21,1.83c-.25.1-.5.16-.77.16Z"/>
        <path class="cls-2" d="m175.85,58.22c-1.1,0-1.99-.89-1.99-1.99s.89-1.99,1.99-1.99,1.99.89,1.99,1.99-.89,1.99-1.99,1.99Z"/>
        <path class="cls-2" d="m165,47.37c-1.1,0-1.99-.89-1.99-1.99s.89-1.99,1.99-1.99,1.99.89,1.99,1.99-.89,1.99-1.99,1.99Z"/>
        <path class="cls-2" d="m170.43,41.94c-1.1,0-1.99-.89-1.99-1.99s.89-1.99,1.99-1.99,1.99.89,1.99,1.99-.89,1.99-1.99,1.99Z"/>
        <path class="cls-2" d="m181.27,85.34c-.53,0-1.03-.21-1.4-.58-.38-.38-.58-.87-.58-1.41,0-.27.05-.53.16-.77.1-.24.24-.45.43-.63.38-.38.87-.58,1.4-.58.27,0,.53.05.77.16.47.2.86.59,1.06,1.06.1.24.16.5.16.77,0,.8-.48,1.52-1.21,1.83-.24.1-.5.16-.77.16Z"/>
        <path class="cls-2" d="m181.27,74.49c-.53,0-1.03-.21-1.4-.58-.38-.38-.58-.87-.58-1.41s.21-1.03.58-1.41c.38-.38.87-.58,1.4-.58.27,0,.53.05.77.16.74.31,1.21,1.03,1.21,1.83s-.48,1.52-1.21,1.83c-.25.1-.5.16-.77.16Z"/>
        <path class="cls-2" d="m170.43,74.49c-1.1,0-1.99-.89-1.99-1.99s.89-1.99,1.99-1.99,1.99.89,1.99,1.99-.89,1.99-1.99,1.99Z"/>
        <path class="cls-2" d="m175.85,79.91c-1.1,0-1.99-.89-1.99-1.99s.89-1.99,1.99-1.99,1.99.89,1.99,1.99-.89,1.99-1.99,1.99Z"/>
        <path class="cls-2" d="m175.85,69.06c-1.1,0-1.99-.89-1.99-1.99s.89-1.99,1.99-1.99,1.99.89,1.99,1.99-.89,1.99-1.99,1.99Z"/>
        <path class="cls-2" d="m181.27,63.64c-.53,0-1.03-.21-1.4-.58-.38-.38-.58-.87-.58-1.41s.21-1.03.58-1.41c.38-.38.87-.58,1.4-.58.27,0,.53.05.77.16.74.31,1.21,1.03,1.21,1.83s-.48,1.52-1.21,1.83c-.24.1-.5.16-.77.16Z"/>
        <circle class="cls-2" cx="170.43" cy="61.65" r="1.99"/>
        <path class="cls-2" d="m181.27,96.19c-.53,0-1.03-.21-1.4-.58-.38-.38-.58-.87-.58-1.41s.21-1.03.58-1.41c.38-.38.87-.58,1.4-.58.27,0,.53.05.77.16.74.31,1.21,1.03,1.21,1.83s-.48,1.52-1.21,1.83c-.25.1-.5.16-.77.16Z"/>
        <path class="cls-2" d="m165,101.61c-1.1,0-1.99-.89-1.99-1.99s.89-1.99,1.99-1.99,1.99.89,1.99,1.99-.89,1.99-1.99,1.99Z"/>
        <path class="cls-2" d="m170.43,117.88c-1.1,0-1.99-.89-1.99-1.99s.89-1.99,1.99-1.99,1.99.89,1.99,1.99-.89,1.99-1.99,1.99Z"/>
        <path class="cls-2" d="m165,112.46c-1.1,0-1.99-.89-1.99-1.99s.89-1.99,1.99-1.99,1.99.89,1.99,1.99-.89,1.99-1.99,1.99Z"/>
        <path class="cls-2" d="m170.43,107.03c-1.1,0-1.99-.89-1.99-1.99,0-.8.48-1.52,1.21-1.83.24-.1.5-.16.77-.16s.53.05.77.16c.74.31,1.21,1.03,1.21,1.83,0,1.1-.89,1.99-1.99,1.99Z"/>
        <path class="cls-2" d="m170.43,150.43c-1.1,0-1.99-.89-1.99-1.99,0-.27.05-.53.16-.77.31-.74,1.03-1.21,1.83-1.21s1.52.48,1.83,1.21c.1.24.16.5.16.77,0,1.1-.89,1.99-1.99,1.99Z"/>
        <path class="cls-2" d="m181.27,139.58c-.53,0-1.03-.21-1.4-.58-.38-.38-.58-.87-.58-1.41s.21-1.03.58-1.41c.38-.38.87-.58,1.4-.58.27,0,.53.05.77.16.74.31,1.21,1.03,1.21,1.83s-.48,1.52-1.21,1.83c-.25.1-.5.16-.77.16Z"/>
        <path class="cls-2" d="m170.43,139.58c-1.1,0-1.99-.89-1.99-1.99s.89-1.99,1.99-1.99,1.99.89,1.99,1.99-.89,1.99-1.99,1.99Z"/>
        <path class="cls-2" d="m165,145c-1.1,0-1.99-.89-1.99-1.99s.89-1.99,1.99-1.99,1.99.89,1.99,1.99-.89,1.99-1.99,1.99Z"/>
        <path class="cls-2" d="m175.85,145c-1.1,0-1.99-.89-1.99-1.99s.89-1.99,1.99-1.99,1.99.89,1.99,1.99-.89,1.99-1.99,1.99Z"/>
        <path class="cls-2" d="m175.85,134.15c-1.1,0-1.99-.89-1.99-1.99s.89-1.99,1.99-1.99,1.99.89,1.99,1.99-.89,1.99-1.99,1.99Z"/>
        <path class="cls-2" d="m181.27,128.73c-.53,0-1.03-.21-1.4-.58-.38-.38-.58-.87-.58-1.41s.21-1.03.58-1.41c.38-.38.87-.58,1.4-.58.27,0,.53.05.77.16.74.31,1.21,1.03,1.21,1.83s-.48,1.52-1.21,1.83c-.24.1-.5.16-.77.16Z"/>
        <path class="cls-2" d="m165,155.85c-1.1,0-1.99-.89-1.99-1.99s.89-1.99,1.99-1.99,1.99.89,1.99,1.99-.89,1.99-1.99,1.99Z"/>
        <path class="cls-2" d="m159.58,20.25c-.8,0-1.52-.48-1.83-1.21-.1-.24-.16-.5-.16-.77s.05-.53.16-.77c.31-.74,1.03-1.21,1.83-1.21s1.52.48,1.83,1.21c.1.24.16.5.16.77s-.05.53-.16.77c-.31.74-1.03,1.21-1.83,1.21Z"/>
        <path class="cls-2" d="m148.73,20.25c-.8,0-1.52-.48-1.83-1.21-.1-.25-.16-.51-.16-.77s.05-.53.16-.77c.31-.74,1.03-1.21,1.83-1.21s1.52.48,1.83,1.21c.1.25.16.51.16.77s-.05.53-.16.77c-.31.74-1.03,1.21-1.83,1.21Z"/>
        <path class="cls-2" d="m159.58,9.4c-1.09,0-1.99-.89-1.99-1.99s.89-1.99,1.99-1.99,1.99.89,1.99,1.99-.89,1.99-1.99,1.99Z"/>
        <path class="cls-2" d="m154.15,14.82c-1.1,0-1.99-.89-1.99-1.99s.89-1.99,1.99-1.99,1.99.89,1.99,1.99-.89,1.99-1.99,1.99Z"/>
        <path class="cls-2" d="m159.58,31.1c-1.09,0-1.99-.89-1.99-1.99s.89-1.99,1.99-1.99,1.99.89,1.99,1.99-.89,1.99-1.99,1.99Z"/>
        <path class="cls-2" d="m148.73,31.1c-1.1,0-1.99-.89-1.99-1.99s.89-1.99,1.99-1.99,1.99.89,1.99,1.99-.89,1.99-1.99,1.99Z"/>
        <path class="cls-2" d="m143.31,36.52c-1.1,0-1.99-.89-1.99-1.99s.89-1.99,1.99-1.99,1.99.89,1.99,1.99-.89,1.99-1.99,1.99Z"/>
        <path class="cls-2" d="m154.15,36.52c-1.1,0-1.99-.89-1.99-1.99s.89-1.99,1.99-1.99,1.99.89,1.99,1.99-.89,1.99-1.99,1.99Z"/>
        <path class="cls-2" d="m143.31,25.67c-1.1,0-1.99-.89-1.99-1.99s.89-1.99,1.99-1.99,1.99.89,1.99,1.99-.89,1.99-1.99,1.99Z"/>
        <path class="cls-2" d="m154.15,25.67c-1.1,0-1.99-.89-1.99-1.99s.89-1.99,1.99-1.99,1.99.89,1.99,1.99-.89,1.99-1.99,1.99Z"/>
        <path class="cls-2" d="m159.58,52.79c-1.09,0-1.99-.89-1.99-1.99s.89-1.99,1.99-1.99,1.99.89,1.99,1.99-.89,1.99-1.99,1.99Z"/>
        <path class="cls-2" d="m148.73,52.79c-1.1,0-1.99-.89-1.99-1.99s.89-1.99,1.99-1.99,1.99.89,1.99,1.99-.89,1.99-1.99,1.99Z"/>
        <path class="cls-2" d="m143.31,58.22c-1.1,0-1.99-.89-1.99-1.99s.89-1.99,1.99-1.99,1.99.89,1.99,1.99-.89,1.99-1.99,1.99Z"/>
        <path class="cls-2" d="m154.15,58.22c-1.1,0-1.99-.89-1.99-1.99s.89-1.99,1.99-1.99,1.99.89,1.99,1.99-.89,1.99-1.99,1.99Z"/>
        <path class="cls-2" d="m143.31,47.37c-1.1,0-1.99-.89-1.99-1.99s.89-1.99,1.99-1.99,1.99.89,1.99,1.99-.89,1.99-1.99,1.99Z"/>
        <path class="cls-2" d="m154.15,47.37c-1.1,0-1.99-.89-1.99-1.99s.89-1.99,1.99-1.99,1.99.89,1.99,1.99-.89,1.99-1.99,1.99Z"/>
        <path class="cls-2" d="m159.58,41.94c-1.09,0-1.99-.89-1.99-1.99s.89-1.99,1.99-1.99,1.99.89,1.99,1.99-.89,1.99-1.99,1.99Z"/>
        <path class="cls-2" d="m148.73,41.94c-1.1,0-1.99-.89-1.99-1.99s.89-1.99,1.99-1.99,1.99.89,1.99,1.99-.89,1.99-1.99,1.99Z"/>
        <path class="cls-2" d="m159.58,85.34c-1.09,0-1.99-.89-1.99-1.99,0-.27.05-.53.16-.77.31-.74,1.03-1.21,1.83-1.21s1.52.48,1.83,1.21c.1.24.16.5.16.77,0,1.1-.89,1.99-1.99,1.99Z"/>
        <path class="cls-2" d="m148.73,74.49c-1.1,0-1.99-.89-1.99-1.99s.89-1.99,1.99-1.99,1.99.89,1.99,1.99-.89,1.99-1.99,1.99Z"/>
        <path class="cls-2" d="m154.15,79.91c-1.1,0-1.99-.89-1.99-1.99s.89-1.99,1.99-1.99,1.99.89,1.99,1.99-.89,1.99-1.99,1.99Z"/>
        <path class="cls-2" d="m143.31,69.06c-1.1,0-1.99-.89-1.99-1.99s.89-1.99,1.99-1.99,1.99.89,1.99,1.99-.89,1.99-1.99,1.99Z"/>
        <path class="cls-2" d="m154.15,69.06c-1.1,0-1.99-.89-1.99-1.99s.89-1.99,1.99-1.99,1.99.89,1.99,1.99-.89,1.99-1.99,1.99Z"/>
        <path class="cls-2" d="m148.73,63.64c-1.1,0-1.99-.89-1.99-1.99s.89-1.99,1.99-1.99,1.99.89,1.99,1.99-.89,1.99-1.99,1.99Z"/>
        <path class="cls-2" d="m159.58,96.19c-1.09,0-1.99-.89-1.99-1.99s.89-1.99,1.99-1.99,1.99.89,1.99,1.99-.89,1.99-1.99,1.99Z"/>
        <path class="cls-2" d="m143.31,101.61c-1.1,0-1.99-.89-1.99-1.99s.89-1.99,1.99-1.99,1.99.89,1.99,1.99-.89,1.99-1.99,1.99Z"/>
        <path class="cls-2" d="m154.15,90.76c-1.1,0-1.99-.89-1.99-1.99s.89-1.99,1.99-1.99,1.99.89,1.99,1.99-.89,1.99-1.99,1.99Z"/>
        <path class="cls-2" d="m148.73,117.88c-1.1,0-1.99-.89-1.99-1.99s.89-1.99,1.99-1.99,1.99.89,1.99,1.99-.89,1.99-1.99,1.99Z"/>
        <path class="cls-2" d="m143.31,123.3c-1.1,0-1.99-.89-1.99-1.99s.89-1.99,1.99-1.99,1.99.89,1.99,1.99-.89,1.99-1.99,1.99Z"/>
        <path class="cls-2" d="m154.15,123.3c-1.1,0-1.99-.89-1.99-1.99s.89-1.99,1.99-1.99,1.99.89,1.99,1.99-.89,1.99-1.99,1.99Z"/>
        <path class="cls-2" d="m143.31,112.46c-1.1,0-1.99-.89-1.99-1.99s.89-1.99,1.99-1.99,1.99.89,1.99,1.99-.89,1.99-1.99,1.99Z"/>
        <path class="cls-2" d="m148.73,107.03c-1.1,0-1.99-.89-1.99-1.99,0-.8.48-1.52,1.21-1.83.24-.1.5-.16.77-.16s.53.05.77.16c.74.31,1.21,1.03,1.21,1.83,0,1.1-.89,1.99-1.99,1.99Z"/>
        <path class="cls-2" d="m159.58,150.43c-1.09,0-1.99-.89-1.99-1.99,0-.27.05-.53.16-.77.31-.74,1.03-1.21,1.83-1.21s1.52.48,1.83,1.21c.1.24.16.5.16.77,0,1.1-.89,1.99-1.99,1.99Z"/>
        <path class="cls-2" d="m159.58,139.58c-1.09,0-1.99-.89-1.99-1.99s.89-1.99,1.99-1.99,1.99.89,1.99,1.99-.89,1.99-1.99,1.99Z"/>
        <path class="cls-2" d="m148.73,139.58c-1.1,0-1.99-.89-1.99-1.99s.89-1.99,1.99-1.99,1.99.89,1.99,1.99-.89,1.99-1.99,1.99Z"/>
        <path class="cls-2" d="m154.15,145c-1.1,0-1.99-.89-1.99-1.99s.89-1.99,1.99-1.99,1.99.89,1.99,1.99-.89,1.99-1.99,1.99Z"/>
        <path class="cls-2" d="m143.31,134.15c-1.1,0-1.99-.89-1.99-1.99s.89-1.99,1.99-1.99,1.99.89,1.99,1.99-.89,1.99-1.99,1.99Z"/>
        <path class="cls-2" d="m159.58,128.73c-1.09,0-1.99-.89-1.99-1.99s.89-1.99,1.99-1.99,1.99.89,1.99,1.99-.89,1.99-1.99,1.99Z"/>
        <path class="cls-2" d="m148.73,128.73c-1.1,0-1.99-.89-1.99-1.99s.89-1.99,1.99-1.99,1.99.89,1.99,1.99-.89,1.99-1.99,1.99Z"/>
        <path class="cls-2" d="m137.88,31.1c-.53,0-1.03-.21-1.4-.58-.38-.38-.58-.87-.58-1.41s.21-1.03.58-1.41c.38-.38.87-.58,1.4-.58.27,0,.53.05.77.16.74.31,1.21,1.03,1.21,1.83s-.48,1.52-1.21,1.83c-.25.1-.5.16-.77.16Z"/>
        <path class="cls-2" d="m132.46,36.52c-1.1,0-1.99-.89-1.99-1.99s.89-1.99,1.99-1.99,1.99.89,1.99,1.99-.89,1.99-1.99,1.99Z"/>
        <path class="cls-2" d="m137.88,52.79c-.53,0-1.03-.21-1.4-.58-.38-.38-.58-.87-.58-1.41s.21-1.03.58-1.41.87-.58,1.4-.58c.27,0,.53.05.77.16.74.31,1.21,1.03,1.21,1.83s-.48,1.52-1.21,1.83c-.25.1-.5.16-.77.16Z"/>
        <path class="cls-2" d="m132.46,47.37c-1.1,0-1.99-.89-1.99-1.99s.89-1.99,1.99-1.99,1.99.89,1.99,1.99-.89,1.99-1.99,1.99Z"/>
        <path class="cls-2" d="m137.88,41.94c-.53,0-1.03-.21-1.4-.58-.38-.38-.58-.87-.58-1.41s.21-1.03.58-1.41c.38-.38.87-.58,1.4-.58.27,0,.53.05.77.16.74.31,1.21,1.03,1.21,1.83s-.48,1.52-1.21,1.83c-.24.1-.5.16-.77.16Z"/>
        <path class="cls-2" d="m137.88,85.34c-.53,0-1.03-.21-1.4-.58-.38-.38-.58-.87-.58-1.41,0-.27.05-.53.16-.77.1-.24.24-.45.42-.63.38-.37.87-.58,1.4-.58.27,0,.53.05.77.16.47.2.86.59,1.06,1.06.1.24.16.5.16.77,0,.8-.48,1.52-1.21,1.83-.24.1-.5.16-.77.16Z"/>
        <path class="cls-2" d="m127.03,85.34c-1.09,0-1.99-.89-1.99-1.99,0-.27.05-.53.16-.77.31-.74,1.03-1.21,1.83-1.21s1.52.48,1.83,1.21c.1.24.16.5.16.77,0,1.1-.89,1.99-1.99,1.99Z"/>
        <path class="cls-2" d="m127.03,74.49c-1.09,0-1.99-.89-1.99-1.99s.89-1.99,1.99-1.99,1.99.89,1.99,1.99-.89,1.99-1.99,1.99Z"/>
        <path class="cls-2" d="m132.46,79.91c-1.1,0-1.99-.89-1.99-1.99s.89-1.99,1.99-1.99,1.99.89,1.99,1.99-.89,1.99-1.99,1.99Z"/>
        <path class="cls-2" d="m127.03,63.64c-1.09,0-1.99-.89-1.99-1.99s.89-1.99,1.99-1.99,1.99.89,1.99,1.99-.89,1.99-1.99,1.99Z"/>
        <path class="cls-2" d="m137.88,96.19c-.53,0-1.03-.21-1.4-.58-.38-.38-.58-.87-.58-1.41s.21-1.03.58-1.41.87-.58,1.4-.58c.27,0,.53.05.77.16.74.31,1.21,1.03,1.21,1.83s-.48,1.52-1.21,1.83c-.25.1-.5.16-.77.16Z"/>
        <path class="cls-2" d="m127.03,96.19c-1.09,0-1.99-.89-1.99-1.99s.89-1.99,1.99-1.99,1.99.89,1.99,1.99-.89,1.99-1.99,1.99Z"/>
        <path class="cls-2" d="m132.46,101.61c-1.1,0-1.99-.89-1.99-1.99s.89-1.99,1.99-1.99,1.99.89,1.99,1.99-.89,1.99-1.99,1.99Z"/>
        <path class="cls-2" d="m132.46,90.76c-1.1,0-1.99-.89-1.99-1.99s.89-1.99,1.99-1.99,1.99.89,1.99,1.99-.89,1.99-1.99,1.99Z"/>
        <path class="cls-2" d="m137.88,117.88c-.53,0-1.03-.21-1.4-.58-.38-.38-.58-.88-.58-1.41s.21-1.03.58-1.41c.38-.38.87-.58,1.4-.58.27,0,.53.05.77.16.74.31,1.21,1.03,1.21,1.83s-.48,1.52-1.21,1.83c-.25.1-.5.16-.77.16Z"/>
        <path class="cls-2" d="m127.03,117.88c-1.09,0-1.99-.89-1.99-1.99s.89-1.99,1.99-1.99,1.99.89,1.99,1.99-.89,1.99-1.99,1.99Z"/>
        <path class="cls-2" d="m132.46,123.3c-1.1,0-1.99-.89-1.99-1.99s.89-1.99,1.99-1.99,1.99.89,1.99,1.99-.89,1.99-1.99,1.99Z"/>
        <path class="cls-2" d="m132.46,112.46c-1.1,0-1.99-.89-1.99-1.99s.89-1.99,1.99-1.99,1.99.89,1.99,1.99-.89,1.99-1.99,1.99Z"/>
        <path class="cls-2" d="m137.88,107.03c-.53,0-1.03-.21-1.4-.58-.38-.38-.58-.87-.58-1.41s.21-1.03.58-1.41c.18-.18.4-.33.63-.43.24-.1.5-.16.77-.16s.53.05.77.16c.74.31,1.21,1.03,1.21,1.83s-.48,1.52-1.21,1.83c-.24.1-.5.16-.77.16Z"/>
        <path class="cls-2" d="m127.03,107.03c-1.09,0-1.99-.89-1.99-1.99,0-.8.48-1.52,1.21-1.83.24-.1.5-.16.77-.16s.53.05.77.16c.74.31,1.21,1.03,1.21,1.83,0,1.1-.89,1.99-1.99,1.99Z"/>
        <path class="cls-2" d="m137.88,128.73c-.53,0-1.03-.21-1.4-.58-.38-.38-.58-.87-.58-1.41s.21-1.03.58-1.41c.38-.38.87-.58,1.4-.58.27,0,.53.05.77.16.74.31,1.21,1.03,1.21,1.83s-.48,1.52-1.21,1.83c-.24.1-.5.16-.77.16Z"/>
        <path class="cls-2" d="m116.19,52.79c-1.09,0-1.99-.89-1.99-1.99s.89-1.99,1.99-1.99c.8,0,1.52.48,1.83,1.21.1.25.16.51.16.77s-.05.53-.16.77c-.31.74-1.03,1.21-1.83,1.21Z"/>
        <path class="cls-2" d="m110.76,58.22c-1.1,0-1.99-.89-1.99-1.99s.89-1.99,1.99-1.99,1.99.89,1.99,1.99-.89,1.99-1.99,1.99Z"/>
        <path class="cls-2" d="m116.19,85.34c-1.09,0-1.99-.89-1.99-1.99,0-.27.05-.53.16-.77.31-.74,1.03-1.21,1.83-1.21s1.52.48,1.83,1.21c.1.25.16.51.16.77s-.05.53-.16.77c-.31.74-1.03,1.21-1.83,1.21Z"/>
        <path class="cls-2" d="m105.34,85.34c-1.09,0-1.99-.89-1.99-1.99,0-.27.05-.53.16-.77.31-.74,1.03-1.21,1.83-1.21s1.52.48,1.83,1.21c.1.24.16.5.16.77,0,1.1-.89,1.99-1.99,1.99Z"/>
        <path class="cls-2" d="m116.19,74.49c-1.09,0-1.99-.89-1.99-1.99s.89-1.99,1.99-1.99c.8,0,1.52.48,1.83,1.21.1.25.16.51.16.77s-.05.53-.16.77c-.31.74-1.03,1.21-1.83,1.21Z"/>
        <path class="cls-2" d="m105.34,74.49c-1.09,0-1.99-.89-1.99-1.99s.89-1.99,1.99-1.99,1.99.89,1.99,1.99-.89,1.99-1.99,1.99Z"/>
        <path class="cls-2" d="m99.92,79.91c-1.1,0-1.99-.89-1.99-1.99s.89-1.99,1.99-1.99,1.99.89,1.99,1.99-.89,1.99-1.99,1.99Z"/>
        <path class="cls-2" d="m110.76,79.91c-1.1,0-1.99-.89-1.99-1.99s.89-1.99,1.99-1.99,1.99.89,1.99,1.99-.89,1.99-1.99,1.99Z"/>
        <path class="cls-2" d="m99.92,69.06c-1.1,0-1.99-.89-1.99-1.99s.89-1.99,1.99-1.99,1.99.89,1.99,1.99-.89,1.99-1.99,1.99Z"/>
        <path class="cls-2" d="m110.76,69.06c-1.1,0-1.99-.89-1.99-1.99s.89-1.99,1.99-1.99,1.99.89,1.99,1.99-.89,1.99-1.99,1.99Z"/>
        <path class="cls-2" d="m116.19,63.64c-1.09,0-1.99-.89-1.99-1.99s.89-1.99,1.99-1.99c.8,0,1.52.48,1.83,1.21.1.25.16.51.16.77s-.05.53-.16.77c-.31.74-1.03,1.21-1.83,1.21Z"/>
        <path class="cls-2" d="m105.34,63.64c-1.09,0-1.99-.89-1.99-1.99s.89-1.99,1.99-1.99,1.99.89,1.99,1.99-.89,1.99-1.99,1.99Z"/>
        <path class="cls-2" d="m105.34,96.19c-1.09,0-1.99-.89-1.99-1.99s.89-1.99,1.99-1.99,1.99.89,1.99,1.99-.89,1.99-1.99,1.99Z"/>
        <path class="cls-2" d="m110.76,101.61c-1.1,0-1.99-.89-1.99-1.99s.89-1.99,1.99-1.99,1.99.89,1.99,1.99-.89,1.99-1.99,1.99Z"/>
        <path class="cls-2" d="m99.92,90.76c-1.1,0-1.99-.89-1.99-1.99s.89-1.99,1.99-1.99,1.99.89,1.99,1.99-.89,1.99-1.99,1.99Z"/>
        <path class="cls-2" d="m110.76,90.76c-1.1,0-1.99-.89-1.99-1.99s.89-1.99,1.99-1.99,1.99.89,1.99,1.99-.89,1.99-1.99,1.99Z"/>
        <path class="cls-2" d="m94.49,85.34c-1.1,0-1.99-.89-1.99-1.99,0-.27.05-.53.16-.77.31-.74,1.03-1.21,1.83-1.21s1.52.48,1.83,1.21c.1.25.16.51.16.77,0,1.1-.89,1.99-1.99,1.99Z"/>
        <path class="cls-2" d="m94.49,74.49c-1.1,0-1.99-.89-1.99-1.99s.89-1.99,1.99-1.99,1.99.89,1.99,1.99-.89,1.99-1.99,1.99Z"/>
        <path class="cls-2" d="m89.07,79.91c-1.1,0-1.99-.89-1.99-1.99s.89-1.99,1.99-1.99,1.99.89,1.99,1.99-.89,1.99-1.99,1.99Z"/>
      </g>
    </g>
  </g>
</svg>