<?xml version="1.0" encoding="UTF-8"?>
<svg id="_レイヤー_2" data-name="レイヤー 2" xmlns="http://www.w3.org/2000/svg" viewBox="0 0 139.57 107.03">
  <defs>
    <style>
      .cls-1 {
        fill: #d9d9d9;
        stroke-width: 0px;
      }
    </style>
  </defs>
  <g id="_レイヤー_1-2" data-name="レイヤー 1">
    <path class="cls-1" d="m132.16,41.94c-1.09,0-1.99-.89-1.99-1.99s.89-1.99,1.99-1.99,1.99.89,1.99,1.99-.89,1.99-1.99,1.99Z"/>
    <path class="cls-1" d="m126.74,47.37c-1.09,0-1.99-.89-1.99-1.99s.89-1.99,1.99-1.99,1.99.89,1.99,1.99-.89,1.99-1.99,1.99Z"/>
    <path class="cls-1" d="m126.74,36.52c-1.09,0-1.99-.89-1.99-1.99s.89-1.99,1.99-1.99,1.99.89,1.99,1.99-.89,1.99-1.99,1.99Z"/>
    <path class="cls-1" d="m132.16,63.64c-1.09,0-1.99-.89-1.99-1.99s.89-1.99,1.99-1.99,1.99.89,1.99,1.99-.89,1.99-1.99,1.99Z"/>
    <path class="cls-1" d="m126.74,69.06c-1.09,0-1.99-.89-1.99-1.99s.89-1.99,1.99-1.99,1.99.89,1.99,1.99-.89,1.99-1.99,1.99Z"/>
    <path class="cls-1" d="m137.58,69.06c-1.1,0-1.99-.89-1.99-1.99s.89-1.99,1.99-1.99,1.99.89,1.99,1.99-.89,1.99-1.99,1.99Z"/>
    <path class="cls-1" d="m126.74,58.22c-1.09,0-1.99-.89-1.99-1.99s.89-1.99,1.99-1.99,1.99.89,1.99,1.99-.89,1.99-1.99,1.99Z"/>
    <path class="cls-1" d="m132.16,52.79c-1.09,0-1.99-.89-1.99-1.99s.89-1.99,1.99-1.99,1.99.89,1.99,1.99-.89,1.99-1.99,1.99Z"/>
    <path class="cls-1" d="m132.16,85.34c-1.09,0-1.99-.89-1.99-1.99s.89-1.99,1.99-1.99,1.99.89,1.99,1.99-.89,1.99-1.99,1.99Z"/>
    <path class="cls-1" d="m126.74,90.76c-1.09,0-1.99-.89-1.99-1.99s.89-1.99,1.99-1.99,1.99.89,1.99,1.99-.89,1.99-1.99,1.99Z"/>
    <path class="cls-1" d="m126.74,79.91c-1.09,0-1.99-.89-1.99-1.99s.89-1.99,1.99-1.99,1.99.89,1.99,1.99-.89,1.99-1.99,1.99Z"/>
    <path class="cls-1" d="m137.58,79.91c-1.1,0-1.99-.89-1.99-1.99s.89-1.99,1.99-1.99,1.99.89,1.99,1.99-.89,1.99-1.99,1.99Z"/>
    <path class="cls-1" d="m132.16,74.49c-1.09,0-1.99-.89-1.99-1.99s.89-1.99,1.99-1.99,1.99.89,1.99,1.99-.89,1.99-1.99,1.99Z"/>
    <path class="cls-1" d="m105.04,3.98c-1.09,0-1.99-.89-1.99-1.99s.89-1.99,1.99-1.99,1.99.89,1.99,1.99-.89,1.99-1.99,1.99Z"/>
    <path class="cls-1" d="m121.31,31.1c-.53,0-1.03-.21-1.41-.58-.18-.18-.32-.39-.42-.63-.1-.24-.16-.5-.16-.77s.05-.53.16-.77c.1-.24.24-.45.43-.63.38-.37.87-.58,1.4-.58.27,0,.53.05.77.16.47.2.86.59,1.06,1.06.1.24.16.5.16.77s-.05.53-.16.77c-.2.47-.58.86-1.06,1.06-.25.1-.5.16-.77.16Z"/>
    <path class="cls-1" d="m110.46,31.1c-.8,0-1.52-.48-1.83-1.21-.1-.24-.15-.51-.15-.77s.05-.53.15-.77c.31-.74,1.03-1.21,1.83-1.21s1.52.48,1.83,1.21c.1.24.16.5.16.77s-.05.53-.16.77c-.31.74-1.03,1.21-1.83,1.21Z"/>
    <path class="cls-1" d="m121.31,20.25c-.53,0-1.03-.21-1.41-.58-.37-.37-.58-.87-.58-1.41s.21-1.03.58-1.41c.38-.38.87-.58,1.41-.58.27,0,.53.05.77.16.74.31,1.22,1.03,1.22,1.83s-.48,1.52-1.22,1.83c-.25.1-.5.16-.77.16Z"/>
    <path class="cls-1" d="m110.46,20.25c-1.09,0-1.99-.89-1.99-1.99s.89-1.99,1.99-1.99,1.99.89,1.99,1.99-.89,1.99-1.99,1.99Z"/>
    <path class="cls-1" d="m105.04,25.67c-1.09,0-1.99-.89-1.99-1.99s.89-1.99,1.99-1.99,1.99.89,1.99,1.99-.89,1.99-1.99,1.99Z"/>
    <path class="cls-1" d="m115.89,25.67c-1.09,0-1.99-.89-1.99-1.99s.89-1.99,1.99-1.99,1.99.89,1.99,1.99-.89,1.99-1.99,1.99Z"/>
    <path class="cls-1" d="m105.04,14.82c-1.09,0-1.99-.89-1.99-1.99s.89-1.99,1.99-1.99,1.99.89,1.99,1.99-.89,1.99-1.99,1.99Z"/>
    <path class="cls-1" d="m115.89,14.82c-1.09,0-1.99-.89-1.99-1.99s.89-1.99,1.99-1.99,1.99.89,1.99,1.99-.89,1.99-1.99,1.99Z"/>
    <path class="cls-1" d="m121.31,9.4c-.53,0-1.03-.21-1.41-.58-.37-.37-.58-.87-.58-1.41s.21-1.03.58-1.41c.38-.38.87-.58,1.41-.58.27,0,.53.05.77.16.74.31,1.22,1.03,1.22,1.83s-.48,1.52-1.22,1.83c-.25.1-.5.16-.77.16Z"/>
    <path class="cls-1" d="m110.46,9.4c-1.09,0-1.99-.89-1.99-1.99s.89-1.99,1.99-1.99,1.99.89,1.99,1.99-.89,1.99-1.99,1.99Z"/>
    <path class="cls-1" d="m121.31,41.94c-.53,0-1.03-.21-1.41-.58-.37-.37-.58-.87-.58-1.41s.21-1.03.58-1.41c.38-.38.87-.58,1.41-.58.27,0,.53.05.77.16.74.31,1.22,1.03,1.22,1.83s-.48,1.52-1.22,1.83c-.25.1-.5.16-.77.16Z"/>
    <path class="cls-1" d="m110.46,41.94c-1.09,0-1.99-.89-1.99-1.99s.89-1.99,1.99-1.99,1.99.89,1.99,1.99-.89,1.99-1.99,1.99Z"/>
    <path class="cls-1" d="m105.04,47.37c-1.09,0-1.99-.89-1.99-1.99s.89-1.99,1.99-1.99,1.99.89,1.99,1.99-.89,1.99-1.99,1.99Z"/>
    <path class="cls-1" d="m115.89,47.37c-1.09,0-1.99-.89-1.99-1.99s.89-1.99,1.99-1.99,1.99.89,1.99,1.99-.89,1.99-1.99,1.99Z"/>
    <path class="cls-1" d="m105.04,36.52c-1.09,0-1.99-.89-1.99-1.99s.89-1.99,1.99-1.99,1.99.89,1.99,1.99-.89,1.99-1.99,1.99Z"/>
    <path class="cls-1" d="m115.89,36.52c-1.09,0-1.99-.89-1.99-1.99s.89-1.99,1.99-1.99,1.99.89,1.99,1.99-.89,1.99-1.99,1.99Z"/>
    <path class="cls-1" d="m121.31,63.64c-.53,0-1.03-.21-1.41-.58-.37-.37-.58-.87-.58-1.41s.21-1.03.58-1.41c.38-.38.87-.58,1.41-.58.27,0,.53.05.77.16.74.31,1.22,1.03,1.22,1.83s-.48,1.52-1.22,1.83c-.25.1-.5.16-.77.16Z"/>
    <path class="cls-1" d="m110.46,63.64c-1.09,0-1.99-.89-1.99-1.99s.89-1.99,1.99-1.99,1.99.89,1.99,1.99-.89,1.99-1.99,1.99Z"/>
    <path class="cls-1" d="m105.04,69.06c-1.09,0-1.99-.89-1.99-1.99s.89-1.99,1.99-1.99,1.99.89,1.99,1.99-.89,1.99-1.99,1.99Z"/>
    <path class="cls-1" d="m115.89,69.06c-1.09,0-1.99-.89-1.99-1.99s.89-1.99,1.99-1.99,1.99.89,1.99,1.99-.89,1.99-1.99,1.99Z"/>
    <path class="cls-1" d="m105.04,58.22c-1.09,0-1.99-.89-1.99-1.99s.89-1.99,1.99-1.99,1.99.89,1.99,1.99-.89,1.99-1.99,1.99Z"/>
    <path class="cls-1" d="m115.89,58.22c-1.09,0-1.99-.89-1.99-1.99s.89-1.99,1.99-1.99,1.99.89,1.99,1.99-.89,1.99-1.99,1.99Z"/>
    <path class="cls-1" d="m121.31,52.79c-.53,0-1.03-.21-1.41-.58-.37-.37-.58-.87-.58-1.41s.21-1.03.58-1.41c.38-.38.87-.58,1.41-.58.27,0,.53.05.77.16.74.31,1.22,1.03,1.22,1.83s-.48,1.52-1.22,1.83c-.24.1-.5.16-.77.16Z"/>
    <path class="cls-1" d="m110.46,52.79c-1.09,0-1.99-.89-1.99-1.99s.89-1.99,1.99-1.99,1.99.89,1.99,1.99-.89,1.99-1.99,1.99Z"/>
    <path class="cls-1" d="m110.46,96.18c-1.09,0-1.99-.89-1.99-1.99,0-.27.05-.53.15-.77.31-.74,1.03-1.21,1.83-1.21s1.52.48,1.83,1.21c.1.24.16.5.16.77,0,1.1-.89,1.99-1.99,1.99Z"/>
    <path class="cls-1" d="m121.31,85.34c-.53,0-1.03-.21-1.41-.58-.37-.37-.58-.87-.58-1.41s.21-1.03.58-1.41c.38-.38.87-.58,1.41-.58.27,0,.53.05.77.16.74.31,1.22,1.03,1.22,1.83s-.48,1.52-1.22,1.83c-.25.1-.5.16-.77.16Z"/>
    <path class="cls-1" d="m110.46,85.34c-1.09,0-1.99-.89-1.99-1.99s.89-1.99,1.99-1.99,1.99.89,1.99,1.99-.89,1.99-1.99,1.99Z"/>
    <path class="cls-1" d="m105.04,90.76c-1.09,0-1.99-.89-1.99-1.99s.89-1.99,1.99-1.99,1.99.89,1.99,1.99-.89,1.99-1.99,1.99Z"/>
    <path class="cls-1" d="m115.89,90.76c-1.09,0-1.99-.89-1.99-1.99s.89-1.99,1.99-1.99,1.99.89,1.99,1.99-.89,1.99-1.99,1.99Z"/>
    <path class="cls-1" d="m105.04,79.91c-1.09,0-1.99-.89-1.99-1.99s.89-1.99,1.99-1.99,1.99.89,1.99,1.99-.89,1.99-1.99,1.99Z"/>
    <path class="cls-1" d="m115.89,79.91c-1.09,0-1.99-.89-1.99-1.99s.89-1.99,1.99-1.99,1.99.89,1.99,1.99-.89,1.99-1.99,1.99Z"/>
    <path class="cls-1" d="m121.31,74.49c-.53,0-1.03-.21-1.41-.58-.37-.37-.58-.87-.58-1.41s.21-1.03.58-1.41c.38-.38.87-.58,1.41-.58.27,0,.53.05.77.16.74.31,1.22,1.03,1.22,1.83s-.48,1.52-1.22,1.83c-.24.1-.5.16-.77.16Z"/>
    <path class="cls-1" d="m110.46,74.49c-1.09,0-1.99-.89-1.99-1.99s.89-1.99,1.99-1.99,1.99.89,1.99,1.99-.89,1.99-1.99,1.99Z"/>
    <path class="cls-1" d="m105.04,101.61c-1.09,0-1.99-.89-1.99-1.99s.89-1.99,1.99-1.99,1.99.89,1.99,1.99-.89,1.99-1.99,1.99Z"/>
    <path class="cls-1" d="m83.34,3.98c-1.09,0-1.99-.89-1.99-1.99s.89-1.99,1.99-1.99,1.99.89,1.99,1.99-.89,1.99-1.99,1.99Z"/>
    <path class="cls-1" d="m94.19,3.98c-1.1,0-1.99-.89-1.99-1.99s.89-1.99,1.99-1.99,1.99.89,1.99,1.99-.89,1.99-1.99,1.99Z"/>
    <path class="cls-1" d="m99.62,31.1c-.8,0-1.52-.48-1.83-1.21-.1-.24-.16-.5-.16-.77s.05-.53.16-.77c.31-.74,1.03-1.21,1.83-1.21s1.52.48,1.83,1.21c.1.24.16.5.16.77s-.05.53-.16.77c-.31.74-1.03,1.21-1.83,1.21Z"/>
    <path class="cls-1" d="m88.77,31.1c-.8,0-1.52-.48-1.83-1.21-.1-.24-.16-.5-.16-.77s.05-.53.16-.77c.31-.74,1.03-1.21,1.83-1.21s1.52.48,1.83,1.21c.1.24.16.5.16.77s-.05.53-.16.77c-.31.74-1.03,1.21-1.83,1.21Z"/>
    <path class="cls-1" d="m99.62,20.25c-1.09,0-1.99-.89-1.99-1.99s.89-1.99,1.99-1.99c.8,0,1.52.48,1.83,1.21.1.24.16.5.16.77s-.05.53-.16.77c-.31.74-1.03,1.21-1.83,1.21Z"/>
    <path class="cls-1" d="m88.77,20.25c-1.09,0-1.99-.89-1.99-1.99s.89-1.99,1.99-1.99,1.99.89,1.99,1.99-.89,1.99-1.99,1.99Z"/>
    <path class="cls-1" d="m83.34,25.67c-1.09,0-1.99-.89-1.99-1.99s.89-1.99,1.99-1.99,1.99.89,1.99,1.99-.89,1.99-1.99,1.99Z"/>
    <path class="cls-1" d="m94.19,25.67c-1.1,0-1.99-.89-1.99-1.99s.89-1.99,1.99-1.99,1.99.89,1.99,1.99-.89,1.99-1.99,1.99Z"/>
    <path class="cls-1" d="m83.34,14.82c-1.09,0-1.99-.89-1.99-1.99s.89-1.99,1.99-1.99,1.99.89,1.99,1.99-.89,1.99-1.99,1.99Z"/>
    <path class="cls-1" d="m94.19,14.82c-1.1,0-1.99-.89-1.99-1.99s.89-1.99,1.99-1.99,1.99.89,1.99,1.99-.89,1.99-1.99,1.99Z"/>
    <path class="cls-1" d="m99.62,9.4c-1.09,0-1.99-.89-1.99-1.99s.89-1.99,1.99-1.99c.8,0,1.52.48,1.83,1.21.1.24.16.5.16.77s-.05.53-.16.77c-.31.74-1.03,1.21-1.83,1.21Z"/>
    <path class="cls-1" d="m88.77,9.4c-1.09,0-1.99-.89-1.99-1.99s.89-1.99,1.99-1.99,1.99.89,1.99,1.99-.89,1.99-1.99,1.99Z"/>
    <path class="cls-1" d="m99.62,41.94c-1.09,0-1.99-.89-1.99-1.99s.89-1.99,1.99-1.99c.8,0,1.52.48,1.83,1.21.1.24.16.5.16.77s-.05.53-.16.77c-.31.74-1.03,1.21-1.83,1.21Z"/>
    <path class="cls-1" d="m88.77,41.94c-1.09,0-1.99-.89-1.99-1.99s.89-1.99,1.99-1.99,1.99.89,1.99,1.99-.89,1.99-1.99,1.99Z"/>
    <path class="cls-1" d="m83.34,47.37c-1.09,0-1.99-.89-1.99-1.99s.89-1.99,1.99-1.99,1.99.89,1.99,1.99-.89,1.99-1.99,1.99Z"/>
    <path class="cls-1" d="m94.19,47.37c-1.1,0-1.99-.89-1.99-1.99s.89-1.99,1.99-1.99,1.99.89,1.99,1.99-.89,1.99-1.99,1.99Z"/>
    <path class="cls-1" d="m83.34,36.52c-1.09,0-1.99-.89-1.99-1.99s.89-1.99,1.99-1.99,1.99.89,1.99,1.99-.89,1.99-1.99,1.99Z"/>
    <path class="cls-1" d="m94.19,36.52c-1.1,0-1.99-.89-1.99-1.99s.89-1.99,1.99-1.99,1.99.89,1.99,1.99-.89,1.99-1.99,1.99Z"/>
    <path class="cls-1" d="m99.62,63.64c-1.09,0-1.99-.89-1.99-1.99s.89-1.99,1.99-1.99c.8,0,1.52.48,1.83,1.21.1.24.16.5.16.77s-.05.53-.16.77c-.31.74-1.03,1.21-1.83,1.21Z"/>
    <path class="cls-1" d="m88.77,63.64c-1.09,0-1.99-.89-1.99-1.99s.89-1.99,1.99-1.99,1.99.89,1.99,1.99-.89,1.99-1.99,1.99Z"/>
    <path class="cls-1" d="m83.34,69.06c-1.09,0-1.99-.89-1.99-1.99s.89-1.99,1.99-1.99,1.99.89,1.99,1.99-.89,1.99-1.99,1.99Z"/>
    <path class="cls-1" d="m94.19,69.06c-1.1,0-1.99-.89-1.99-1.99s.89-1.99,1.99-1.99,1.99.89,1.99,1.99-.89,1.99-1.99,1.99Z"/>
    <path class="cls-1" d="m83.34,58.22c-1.09,0-1.99-.89-1.99-1.99s.89-1.99,1.99-1.99,1.99.89,1.99,1.99-.89,1.99-1.99,1.99Z"/>
    <path class="cls-1" d="m94.19,58.22c-1.1,0-1.99-.89-1.99-1.99s.89-1.99,1.99-1.99,1.99.89,1.99,1.99-.89,1.99-1.99,1.99Z"/>
    <path class="cls-1" d="m99.62,52.79c-1.09,0-1.99-.89-1.99-1.99s.89-1.99,1.99-1.99c.8,0,1.52.48,1.83,1.21.1.24.16.5.16.77s-.05.53-.16.77c-.31.74-1.03,1.21-1.83,1.21Z"/>
    <path class="cls-1" d="m88.77,52.79c-1.09,0-1.99-.89-1.99-1.99s.89-1.99,1.99-1.99,1.99.89,1.99,1.99-.89,1.99-1.99,1.99Z"/>
    <path class="cls-1" d="m99.62,96.18c-1.09,0-1.99-.89-1.99-1.99,0-.27.05-.53.16-.77.31-.74,1.03-1.21,1.83-1.21s1.52.48,1.83,1.21c.1.24.16.5.16.77s-.05.53-.16.77c-.31.74-1.03,1.21-1.83,1.21Z"/>
    <path class="cls-1" d="m88.77,96.18c-1.09,0-1.99-.89-1.99-1.99,0-.27.05-.53.16-.77.31-.74,1.03-1.21,1.83-1.21s1.52.48,1.83,1.21c.1.24.16.5.16.77,0,1.1-.89,1.99-1.99,1.99Z"/>
    <path class="cls-1" d="m99.62,85.34c-1.09,0-1.99-.89-1.99-1.99s.89-1.99,1.99-1.99c.8,0,1.52.48,1.83,1.21.1.24.16.5.16.77s-.05.53-.16.77c-.31.74-1.03,1.21-1.83,1.21Z"/>
    <path class="cls-1" d="m88.77,85.34c-1.09,0-1.99-.89-1.99-1.99s.89-1.99,1.99-1.99,1.99.89,1.99,1.99-.89,1.99-1.99,1.99Z"/>
    <path class="cls-1" d="m83.34,90.76c-1.09,0-1.99-.89-1.99-1.99s.89-1.99,1.99-1.99,1.99.89,1.99,1.99-.89,1.99-1.99,1.99Z"/>
    <path class="cls-1" d="m94.19,90.76c-1.1,0-1.99-.89-1.99-1.99s.89-1.99,1.99-1.99,1.99.89,1.99,1.99-.89,1.99-1.99,1.99Z"/>
    <path class="cls-1" d="m83.34,79.91c-1.09,0-1.99-.89-1.99-1.99s.89-1.99,1.99-1.99,1.99.89,1.99,1.99-.89,1.99-1.99,1.99Z"/>
    <path class="cls-1" d="m94.19,79.91c-1.1,0-1.99-.89-1.99-1.99s.89-1.99,1.99-1.99,1.99.89,1.99,1.99-.89,1.99-1.99,1.99Z"/>
    <path class="cls-1" d="m99.62,74.49c-1.09,0-1.99-.89-1.99-1.99s.89-1.99,1.99-1.99c.8,0,1.52.48,1.83,1.21.1.24.16.5.16.77s-.05.53-.16.77c-.31.74-1.03,1.21-1.83,1.21Z"/>
    <path class="cls-1" d="m88.77,74.49c-1.09,0-1.99-.89-1.99-1.99s.89-1.99,1.99-1.99,1.99.89,1.99,1.99-.89,1.99-1.99,1.99Z"/>
    <path class="cls-1" d="m83.34,101.61c-1.09,0-1.99-.89-1.99-1.99s.89-1.99,1.99-1.99,1.99.89,1.99,1.99-.89,1.99-1.99,1.99Z"/>
    <path class="cls-1" d="m77.92,31.1c-.8,0-1.52-.48-1.83-1.21-.1-.24-.16-.5-.16-.77s.05-.53.16-.77c.31-.74,1.03-1.21,1.83-1.21s1.52.48,1.83,1.21c.1.25.16.51.16.77s-.05.53-.16.77c-.31.74-1.03,1.21-1.83,1.21Z"/>
    <path class="cls-1" d="m67.07,31.1c-.8,0-1.52-.48-1.83-1.21-.1-.24-.16-.5-.16-.77s.05-.53.16-.77c.31-.74,1.03-1.21,1.83-1.21s1.52.48,1.83,1.21c.1.24.16.5.16.77s-.05.53-.16.77c-.31.74-1.03,1.21-1.83,1.21Z"/>
    <path class="cls-1" d="m77.92,20.25c-1.09,0-1.99-.89-1.99-1.99s.89-1.99,1.99-1.99,1.99.89,1.99,1.99-.89,1.99-1.99,1.99Z"/>
    <path class="cls-1" d="m67.07,20.25c-1.09,0-1.99-.89-1.99-1.99s.89-1.99,1.99-1.99,1.99.89,1.99,1.99-.89,1.99-1.99,1.99Z"/>
    <path class="cls-1" d="m61.65,25.67c-1.1,0-1.99-.89-1.99-1.99s.89-1.99,1.99-1.99,1.99.89,1.99,1.99-.89,1.99-1.99,1.99Z"/>
    <path class="cls-1" d="m72.5,25.67c-1.1,0-1.99-.89-1.99-1.99s.89-1.99,1.99-1.99,1.99.89,1.99,1.99-.89,1.99-1.99,1.99Z"/>
    <path class="cls-1" d="m72.5,14.82c-1.1,0-1.99-.89-1.99-1.99s.89-1.99,1.99-1.99,1.99.89,1.99,1.99-.89,1.99-1.99,1.99Z"/>
    <path class="cls-1" d="m77.92,9.4c-1.09,0-1.99-.89-1.99-1.99s.89-1.99,1.99-1.99,1.99.89,1.99,1.99-.89,1.99-1.99,1.99Z"/>
    <path class="cls-1" d="m77.92,41.94c-1.09,0-1.99-.89-1.99-1.99s.89-1.99,1.99-1.99,1.99.89,1.99,1.99-.89,1.99-1.99,1.99Z"/>
    <path class="cls-1" d="m67.07,41.94c-1.09,0-1.99-.89-1.99-1.99s.89-1.99,1.99-1.99,1.99.89,1.99,1.99-.89,1.99-1.99,1.99Z"/>
    <path class="cls-1" d="m61.65,47.37c-1.1,0-1.99-.89-1.99-1.99s.89-1.99,1.99-1.99,1.99.89,1.99,1.99-.89,1.99-1.99,1.99Z"/>
    <path class="cls-1" d="m72.5,47.37c-1.1,0-1.99-.89-1.99-1.99s.89-1.99,1.99-1.99,1.99.89,1.99,1.99-.89,1.99-1.99,1.99Z"/>
    <path class="cls-1" d="m61.65,36.52c-1.1,0-1.99-.89-1.99-1.99s.89-1.99,1.99-1.99,1.99.89,1.99,1.99-.89,1.99-1.99,1.99Z"/>
    <path class="cls-1" d="m72.5,36.52c-1.1,0-1.99-.89-1.99-1.99s.89-1.99,1.99-1.99,1.99.89,1.99,1.99-.89,1.99-1.99,1.99Z"/>
    <path class="cls-1" d="m77.92,63.64c-1.09,0-1.99-.89-1.99-1.99s.89-1.99,1.99-1.99,1.99.89,1.99,1.99-.89,1.99-1.99,1.99Z"/>
    <path class="cls-1" d="m67.07,63.64c-1.09,0-1.99-.89-1.99-1.99s.89-1.99,1.99-1.99,1.99.89,1.99,1.99-.89,1.99-1.99,1.99Z"/>
    <circle class="cls-1" cx="61.65" cy="67.08" r="1.99"/>
    <path class="cls-1" d="m72.5,69.06c-1.1,0-1.99-.89-1.99-1.99s.89-1.99,1.99-1.99,1.99.89,1.99,1.99-.89,1.99-1.99,1.99Z"/>
    <path class="cls-1" d="m61.65,58.22c-1.1,0-1.99-.89-1.99-1.99s.89-1.99,1.99-1.99,1.99.89,1.99,1.99-.89,1.99-1.99,1.99Z"/>
    <path class="cls-1" d="m72.5,58.22c-1.1,0-1.99-.89-1.99-1.99s.89-1.99,1.99-1.99,1.99.89,1.99,1.99-.89,1.99-1.99,1.99Z"/>
    <path class="cls-1" d="m77.92,52.79c-1.09,0-1.99-.89-1.99-1.99s.89-1.99,1.99-1.99,1.99.89,1.99,1.99-.89,1.99-1.99,1.99Z"/>
    <path class="cls-1" d="m67.07,52.79c-1.09,0-1.99-.89-1.99-1.99s.89-1.99,1.99-1.99,1.99.89,1.99,1.99-.89,1.99-1.99,1.99Z"/>
    <path class="cls-1" d="m77.92,96.18c-1.09,0-1.99-.89-1.99-1.99,0-.27.05-.53.16-.77.31-.74,1.03-1.21,1.83-1.21s1.52.48,1.83,1.21c.1.25.16.51.16.77,0,1.1-.89,1.99-1.99,1.99Z"/>
    <path class="cls-1" d="m67.07,96.18c-1.09,0-1.99-.89-1.99-1.99,0-.27.05-.53.16-.77.31-.74,1.03-1.21,1.83-1.21s1.52.48,1.83,1.21c.1.24.16.5.16.77,0,1.1-.89,1.99-1.99,1.99Z"/>
    <path class="cls-1" d="m77.92,85.34c-1.09,0-1.99-.89-1.99-1.99s.89-1.99,1.99-1.99,1.99.89,1.99,1.99-.89,1.99-1.99,1.99Z"/>
    <path class="cls-1" d="m67.07,85.34c-1.09,0-1.99-.89-1.99-1.99s.89-1.99,1.99-1.99,1.99.89,1.99,1.99-.89,1.99-1.99,1.99Z"/>
    <circle class="cls-1" cx="61.65" cy="88.77" r="1.99"/>
    <path class="cls-1" d="m72.5,90.76c-1.1,0-1.99-.89-1.99-1.99s.89-1.99,1.99-1.99,1.99.89,1.99,1.99-.89,1.99-1.99,1.99Z"/>
    <circle class="cls-1" cx="61.65" cy="77.92" r="1.99"/>
    <path class="cls-1" d="m72.5,79.91c-1.1,0-1.99-.89-1.99-1.99s.89-1.99,1.99-1.99,1.99.89,1.99,1.99-.89,1.99-1.99,1.99Z"/>
    <path class="cls-1" d="m77.92,74.49c-1.09,0-1.99-.89-1.99-1.99s.89-1.99,1.99-1.99,1.99.89,1.99,1.99-.89,1.99-1.99,1.99Z"/>
    <path class="cls-1" d="m67.07,74.49c-1.09,0-1.99-.89-1.99-1.99s.89-1.99,1.99-1.99,1.99.89,1.99,1.99-.89,1.99-1.99,1.99Z"/>
    <circle class="cls-1" cx="61.65" cy="99.62" r="1.99"/>
    <path class="cls-1" d="m72.5,101.61c-1.1,0-1.99-.89-1.99-1.99s.89-1.99,1.99-1.99,1.99.89,1.99,1.99-.89,1.99-1.99,1.99Z"/>
    <path class="cls-1" d="m56.23,41.94c-.53,0-1.03-.21-1.41-.58-.38-.38-.58-.87-.58-1.41s.21-1.03.58-1.41c.38-.38.87-.58,1.41-.58,1.1,0,1.99.89,1.99,1.99s-.89,1.99-1.99,1.99Z"/>
    <path class="cls-1" d="m45.38,41.94c-1.09,0-1.99-.89-1.99-1.99s.89-1.99,1.99-1.99,1.99.89,1.99,1.99-.89,1.99-1.99,1.99Z"/>
    <path class="cls-1" d="m39.96,47.37c-1.1,0-1.99-.89-1.99-1.99s.89-1.99,1.99-1.99,1.99.89,1.99,1.99-.89,1.99-1.99,1.99Z"/>
    <path class="cls-1" d="m50.8,47.37c-1.1,0-1.99-.89-1.99-1.99s.89-1.99,1.99-1.99,1.99.89,1.99,1.99-.89,1.99-1.99,1.99Z"/>
    <path class="cls-1" d="m39.96,36.52c-1.1,0-1.99-.89-1.99-1.99s.89-1.99,1.99-1.99,1.99.89,1.99,1.99-.89,1.99-1.99,1.99Z"/>
    <path class="cls-1" d="m50.8,36.52c-1.1,0-1.99-.89-1.99-1.99s.89-1.99,1.99-1.99,1.99.89,1.99,1.99-.89,1.99-1.99,1.99Z"/>
    <path class="cls-1" d="m56.23,63.64c-.53,0-1.03-.21-1.41-.58-.38-.38-.58-.88-.58-1.41s.21-1.03.58-1.41c.38-.38.87-.58,1.41-.58,1.1,0,1.99.89,1.99,1.99s-.89,1.99-1.99,1.99Z"/>
    <path class="cls-1" d="m45.38,63.64c-1.09,0-1.99-.89-1.99-1.99s.89-1.99,1.99-1.99,1.99.89,1.99,1.99-.89,1.99-1.99,1.99Z"/>
    <circle class="cls-1" cx="39.96" cy="67.08" r="1.99"/>
    <path class="cls-1" d="m50.8,69.06c-1.1,0-1.99-.89-1.99-1.99s.89-1.99,1.99-1.99,1.99.89,1.99,1.99-.89,1.99-1.99,1.99Z"/>
    <path class="cls-1" d="m39.96,58.22c-1.1,0-1.99-.89-1.99-1.99s.89-1.99,1.99-1.99,1.99.89,1.99,1.99-.89,1.99-1.99,1.99Z"/>
    <path class="cls-1" d="m50.8,58.22c-1.1,0-1.99-.89-1.99-1.99s.89-1.99,1.99-1.99,1.99.89,1.99,1.99-.89,1.99-1.99,1.99Z"/>
    <path class="cls-1" d="m56.23,52.79c-.53,0-1.03-.21-1.41-.58-.38-.38-.58-.88-.58-1.41s.21-1.03.58-1.41c.38-.38.87-.58,1.41-.58,1.1,0,1.99.89,1.99,1.99s-.89,1.99-1.99,1.99Z"/>
    <path class="cls-1" d="m45.38,52.79c-1.09,0-1.99-.89-1.99-1.99s.89-1.99,1.99-1.99,1.99.89,1.99,1.99-.89,1.99-1.99,1.99Z"/>
    <path class="cls-1" d="m56.23,96.18c-.53,0-1.03-.21-1.41-.58-.38-.38-.58-.88-.58-1.41,0-.27.05-.53.16-.77.1-.24.25-.45.43-.63.38-.38.87-.58,1.41-.58.8,0,1.52.48,1.83,1.21.1.25.16.51.16.77,0,1.1-.89,1.99-1.99,1.99Z"/>
    <path class="cls-1" d="m45.38,96.18c-1.09,0-1.99-.89-1.99-1.99,0-.27.05-.53.16-.77.31-.74,1.03-1.21,1.83-1.21s1.52.48,1.83,1.21c.1.24.16.5.16.77,0,1.1-.89,1.99-1.99,1.99Z"/>
    <path class="cls-1" d="m56.23,85.34c-.53,0-1.03-.21-1.41-.58-.38-.38-.58-.88-.58-1.41s.21-1.03.58-1.41c.38-.38.87-.58,1.41-.58,1.1,0,1.99.89,1.99,1.99s-.89,1.99-1.99,1.99Z"/>
    <path class="cls-1" d="m45.38,85.34c-1.09,0-1.99-.89-1.99-1.99s.89-1.99,1.99-1.99,1.99.89,1.99,1.99-.89,1.99-1.99,1.99Z"/>
    <circle class="cls-1" cx="39.96" cy="88.77" r="1.99"/>
    <path class="cls-1" d="m50.8,90.76c-1.1,0-1.99-.89-1.99-1.99s.89-1.99,1.99-1.99,1.99.89,1.99,1.99-.89,1.99-1.99,1.99Z"/>
    <circle class="cls-1" cx="39.96" cy="77.92" r="1.99"/>
    <path class="cls-1" d="m50.8,79.91c-1.1,0-1.99-.89-1.99-1.99s.89-1.99,1.99-1.99,1.99.89,1.99,1.99-.89,1.99-1.99,1.99Z"/>
    <path class="cls-1" d="m56.23,74.49c-.53,0-1.03-.21-1.41-.58-.38-.38-.58-.88-.58-1.41s.21-1.03.58-1.41c.38-.38.87-.58,1.41-.58,1.1,0,1.99.89,1.99,1.99s-.89,1.99-1.99,1.99Z"/>
    <path class="cls-1" d="m45.38,74.49c-1.09,0-1.99-.89-1.99-1.99s.89-1.99,1.99-1.99,1.99.89,1.99,1.99-.89,1.99-1.99,1.99Z"/>
    <path class="cls-1" d="m56.23,107.03c-.53,0-1.03-.21-1.41-.58-.38-.38-.58-.88-.58-1.41s.21-1.03.58-1.41c.38-.38.87-.58,1.41-.58,1.1,0,1.99.89,1.99,1.99s-.89,1.99-1.99,1.99Z"/>
    <circle class="cls-1" cx="39.96" cy="99.62" r="1.99"/>
    <path class="cls-1" d="m50.8,101.61c-1.1,0-1.99-.89-1.99-1.99s.89-1.99,1.99-1.99,1.99.89,1.99,1.99-.89,1.99-1.99,1.99Z"/>
    <path class="cls-1" d="m34.53,41.94c-1.1,0-1.99-.89-1.99-1.99s.89-1.99,1.99-1.99,1.99.89,1.99,1.99-.89,1.99-1.99,1.99Z"/>
    <path class="cls-1" d="m23.68,41.94c-1.1,0-1.99-.89-1.99-1.99s.89-1.99,1.99-1.99,1.99.89,1.99,1.99-.89,1.99-1.99,1.99Z"/>
    <path class="cls-1" d="m18.26,47.37c-1.1,0-1.99-.89-1.99-1.99s.89-1.99,1.99-1.99,1.99.89,1.99,1.99-.89,1.99-1.99,1.99Z"/>
    <path class="cls-1" d="m29.11,47.37c-1.1,0-1.99-.89-1.99-1.99s.89-1.99,1.99-1.99,1.99.89,1.99,1.99-.89,1.99-1.99,1.99Z"/>
    <path class="cls-1" d="m18.26,36.52c-1.1,0-1.99-.89-1.99-1.99s.89-1.99,1.99-1.99,1.99.89,1.99,1.99-.89,1.99-1.99,1.99Z"/>
    <path class="cls-1" d="m34.53,63.64c-1.1,0-1.99-.89-1.99-1.99s.89-1.99,1.99-1.99,1.99.89,1.99,1.99-.89,1.99-1.99,1.99Z"/>
    <path class="cls-1" d="m23.68,63.64c-1.1,0-1.99-.89-1.99-1.99s.89-1.99,1.99-1.99,1.99.89,1.99,1.99-.89,1.99-1.99,1.99Z"/>
    <circle class="cls-1" cx="18.26" cy="67.08" r="1.99"/>
    <circle class="cls-1" cx="29.11" cy="67.08" r="1.99"/>
    <path class="cls-1" d="m18.26,58.22c-1.1,0-1.99-.89-1.99-1.99s.89-1.99,1.99-1.99,1.99.89,1.99,1.99-.89,1.99-1.99,1.99Z"/>
    <path class="cls-1" d="m29.11,58.22c-1.1,0-1.99-.89-1.99-1.99s.89-1.99,1.99-1.99,1.99.89,1.99,1.99-.89,1.99-1.99,1.99Z"/>
    <path class="cls-1" d="m34.53,52.79c-1.1,0-1.99-.89-1.99-1.99s.89-1.99,1.99-1.99,1.99.89,1.99,1.99-.89,1.99-1.99,1.99Z"/>
    <path class="cls-1" d="m23.68,52.79c-1.1,0-1.99-.89-1.99-1.99s.89-1.99,1.99-1.99,1.99.89,1.99,1.99-.89,1.99-1.99,1.99Z"/>
    <path class="cls-1" d="m23.68,96.18c-1.1,0-1.99-.89-1.99-1.99,0-.27.05-.53.16-.77.31-.74,1.03-1.21,1.83-1.21s1.52.48,1.83,1.21c.1.24.16.5.16.77,0,1.1-.89,1.99-1.99,1.99Z"/>
    <path class="cls-1" d="m34.53,85.34c-1.1,0-1.99-.89-1.99-1.99s.89-1.99,1.99-1.99,1.99.89,1.99,1.99-.89,1.99-1.99,1.99Z"/>
    <path class="cls-1" d="m23.68,85.34c-1.1,0-1.99-.89-1.99-1.99s.89-1.99,1.99-1.99,1.99.89,1.99,1.99-.89,1.99-1.99,1.99Z"/>
    <circle class="cls-1" cx="18.26" cy="88.77" r="1.99"/>
    <circle class="cls-1" cx="29.11" cy="88.77" r="1.99"/>
    <circle class="cls-1" cx="18.26" cy="77.92" r="1.99"/>
    <circle class="cls-1" cx="29.11" cy="77.92" r="1.99"/>
    <circle class="cls-1" cx="34.53" cy="72.5" r="1.99"/>
    <path class="cls-1" d="m23.68,74.49c-1.1,0-1.99-.89-1.99-1.99s.89-1.99,1.99-1.99,1.99.89,1.99,1.99-.89,1.99-1.99,1.99Z"/>
    <circle class="cls-1" cx="18.26" cy="99.62" r="1.99"/>
    <path class="cls-1" d="m12.84,41.94c-.53,0-1.03-.21-1.41-.58-.37-.37-.58-.87-.58-1.41s.21-1.03.58-1.41c.38-.38.87-.58,1.41-.58,1.1,0,1.99.89,1.99,1.99s-.89,1.99-1.99,1.99Z"/>
    <path class="cls-1" d="m7.41,47.37c-1.1,0-1.99-.89-1.99-1.99s.89-1.99,1.99-1.99,1.99.89,1.99,1.99-.89,1.99-1.99,1.99Z"/>
    <path class="cls-1" d="m12.84,63.64c-.53,0-1.03-.21-1.41-.58-.37-.37-.58-.87-.58-1.41s.21-1.03.58-1.41c.38-.38.87-.58,1.41-.58,1.1,0,1.99.89,1.99,1.99s-.89,1.99-1.99,1.99Z"/>
    <path class="cls-1" d="m1.99,63.64c-1.1,0-1.99-.89-1.99-1.99s.89-1.99,1.99-1.99,1.99.89,1.99,1.99-.89,1.99-1.99,1.99Z"/>
    <circle class="cls-1" cx="7.41" cy="67.08" r="1.99"/>
    <path class="cls-1" d="m7.41,58.22c-1.1,0-1.99-.89-1.99-1.99s.89-1.99,1.99-1.99,1.99.89,1.99,1.99-.89,1.99-1.99,1.99Z"/>
    <path class="cls-1" d="m12.84,52.79c-.53,0-1.03-.21-1.41-.58-.37-.37-.58-.87-.58-1.41s.21-1.03.58-1.41c.38-.38.87-.58,1.41-.58,1.1,0,1.99.89,1.99,1.99s-.89,1.99-1.99,1.99Z"/>
    <path class="cls-1" d="m12.84,96.18c-.53,0-1.03-.21-1.41-.58-.37-.37-.58-.87-.58-1.41,0-.27.05-.53.16-.77.1-.24.24-.45.43-.63.38-.37.87-.58,1.4-.58.8,0,1.52.48,1.83,1.21.1.24.16.5.16.77,0,1.1-.89,1.99-1.99,1.99Z"/>
    <path class="cls-1" d="m12.84,85.34c-.53,0-1.03-.21-1.41-.58-.37-.37-.58-.87-.58-1.41s.21-1.03.58-1.41c.38-.38.87-.58,1.41-.58,1.1,0,1.99.89,1.99,1.99s-.89,1.99-1.99,1.99Z"/>
    <path class="cls-1" d="m1.99,85.34c-1.1,0-1.99-.89-1.99-1.99s.89-1.99,1.99-1.99,1.99.89,1.99,1.99-.89,1.99-1.99,1.99Z"/>
    <circle class="cls-1" cx="7.41" cy="88.77" r="1.99"/>
    <circle class="cls-1" cx="7.41" cy="77.92" r="1.99"/>
    <path class="cls-1" d="m12.84,74.49c-.53,0-1.03-.21-1.41-.58-.37-.37-.58-.87-.58-1.41s.21-1.03.58-1.41c.38-.38.87-.58,1.41-.58,1.1,0,1.99.89,1.99,1.99s-.89,1.99-1.99,1.99Z"/>
    <circle class="cls-1" cx="1.99" cy="72.5" r="1.99"/>
    <path class="cls-1" d="m12.84,107.03c-.53,0-1.03-.21-1.41-.58-.37-.37-.58-.87-.58-1.41s.21-1.03.58-1.41c.38-.38.87-.58,1.41-.58,1.1,0,1.99.89,1.99,1.99s-.89,1.99-1.99,1.99Z"/>
    <circle class="cls-1" cx="7.41" cy="99.62" r="1.99"/>
  </g>
</svg>