
<svg id="_レイヤー_2" data-name="レイヤー 2" xmlns="http://www.w3.org/2000/svg" viewBox="0 0 151.39 21.95">

  <g id="_レイヤー_1-2" data-name="レイヤー 1">
    <g>
      <path class="red" d="m24.42,17.98c.11,1.01.31,2.58,1.51,2.97.81.25,1.54.25,1.82.25.14,0,.22.03.22.14,0,.17-.25.25-.59.25-.62,0-3.64-.03-4.68-.11-.64-.06-.78-.14-.78-.28,0-.11.06-.17.2-.2.14-.03.17-.5.11-1.01l-1.34-14.53h-.08l-6.86,14.56c-.59,1.23-.67,1.48-.92,1.48-.2,0-.34-.28-.87-1.29-.73-1.37-3.14-6.22-3.28-6.5-.25-.5-3.39-7.22-3.7-7.98h-.11l-1.12,12.99c-.03.45-.03.95-.03,1.43,0,.42.31.78.73.87.48.11.9.14,1.06.14.11,0,.22.06.22.14,0,.2-.17.25-.5.25-1.04,0-2.38-.08-2.6-.08-.25,0-1.6.08-2.35.08-.28,0-.48-.06-.48-.25,0-.08.14-.14.28-.14.22,0,.42,0,.84-.08.92-.17,1.01-1.26,1.12-2.32L4.26.5c.03-.31.14-.5.31-.5s.28.11.42.42l8.57,17.61L21.78.45c.11-.25.22-.45.42-.45s.28.22.34.76l1.88,17.22Z"/>
      <path class="red" d="m34.38,8.51c0-4.37,0-5.15-.06-6.05-.06-.95-.28-1.4-1.2-1.6-.22-.06-.7-.08-.95-.08-.11,0-.22-.06-.22-.17,0-.17.14-.22.45-.22.64,0,1.4,0,2.02.03l1.15.06c.2,0,5.77,0,6.41-.03.53-.03.98-.08,1.2-.14.14-.03.25-.14.39-.14.08,0,.11.11.11.25,0,.2-.14.53-.22,1.32-.03.28-.08,1.51-.14,1.85-.03.14-.08.31-.2.31-.17,0-.22-.14-.22-.36,0-.2-.03-.67-.17-1.01-.2-.45-.48-.78-1.99-.95-.48-.06-3.53-.08-3.84-.08-.11,0-.17.08-.17.28v7.73c0,.2.03.28.17.28.36,0,3.81,0,4.45-.06.67-.06,1.06-.11,1.32-.39.2-.22.31-.36.42-.36.08,0,.14.06.14.22s-.14.64-.22,1.57c-.06.56-.11,1.6-.11,1.79,0,.22,0,.53-.2.53-.14,0-.2-.11-.2-.25,0-.28,0-.56-.11-.92-.11-.39-.36-.87-1.46-.98-.76-.08-3.53-.14-4-.14-.14,0-.2.08-.2.2v2.46c0,.95-.03,4.2,0,4.79.08,1.93.5,2.3,3.25,2.3.73,0,1.96,0,2.69-.31.73-.31,1.06-.87,1.26-2.02.06-.31.11-.42.25-.42.17,0,.17.22.17.42,0,.22-.22,2.13-.36,2.72-.2.73-.42.73-1.51.73-2.1,0-3.64-.06-4.73-.08-1.09-.06-1.76-.08-2.18-.08-.06,0-.53,0-1.12.03-.56,0-1.2.06-1.62.06-.31,0-.45-.06-.45-.22,0-.08.06-.17.22-.17.25,0,.59-.06.84-.11.56-.11.7-.73.81-1.54.14-1.18.14-3.39.14-6.08v-4.93Z"/>
      <path class="red" d="m52.86,8.51c0-4.37,0-5.15-.06-6.05-.06-.95-.28-1.4-1.2-1.6-.22-.06-.7-.08-.95-.08-.11,0-.22-.06-.22-.17,0-.17.14-.22.45-.22.64,0,1.4,0,2.02.03l1.15.06c.2,0,5.77,0,6.41-.03.53-.03.98-.08,1.2-.14.14-.03.25-.14.39-.14.08,0,.11.11.11.25,0,.2-.14.53-.22,1.32-.03.28-.08,1.51-.14,1.85-.03.14-.08.31-.2.31-.17,0-.22-.14-.22-.36,0-.2-.03-.67-.17-1.01-.2-.45-.48-.78-1.99-.95-.48-.06-3.53-.08-3.84-.08-.11,0-.17.08-.17.28v7.73c0,.2.03.28.17.28.36,0,3.81,0,4.45-.06.67-.06,1.06-.11,1.32-.39.2-.22.31-.36.42-.36.08,0,.14.06.14.22s-.14.64-.22,1.57c-.06.56-.11,1.6-.11,1.79,0,.22,0,.53-.2.53-.14,0-.2-.11-.2-.25,0-.28,0-.56-.11-.92-.11-.39-.36-.87-1.46-.98-.76-.08-3.53-.14-4-.14-.14,0-.2.08-.2.2v2.46c0,.95-.03,4.2,0,4.79.08,1.93.5,2.3,3.25,2.3.73,0,1.96,0,2.69-.31.73-.31,1.06-.87,1.26-2.02.06-.31.11-.42.25-.42.17,0,.17.22.17.42,0,.22-.22,2.13-.36,2.72-.2.73-.42.73-1.51.73-2.1,0-3.64-.06-4.73-.08-1.09-.06-1.76-.08-2.18-.08-.06,0-.53,0-1.12.03-.56,0-1.2.06-1.62.06-.31,0-.45-.06-.45-.22,0-.08.06-.17.22-.17.25,0,.59-.06.84-.11.56-.11.7-.73.81-1.54.14-1.18.14-3.39.14-6.08v-4.93Z"/>
      <path class="red" d="m77.31,13.44c0,2.69,0,4.9.14,6.08.08.81.25,1.43,1.09,1.54.39.06,1.01.11,1.26.11.17,0,.22.08.22.17,0,.14-.14.22-.45.22-1.54,0-3.3-.08-3.44-.08s-1.9.08-2.74.08c-.31,0-.45-.06-.45-.22,0-.08.06-.17.22-.17.25,0,.59-.06.84-.11.56-.11.7-.73.81-1.54.14-1.18.14-3.39.14-6.08V1.6l-4.14.06c-1.74.03-2.41.22-2.86.9-.31.48-.39.67-.48.87-.08.22-.17.28-.28.28-.08,0-.14-.08-.14-.25,0-.28.56-2.69.62-2.91.06-.17.17-.53.28-.53.2,0,.48.28,1.23.34.81.08,1.88.14,2.21.14h10.5c.9,0,1.54-.06,1.99-.14.42-.06.67-.14.78-.14.14,0,.14.17.14.34,0,.84-.08,2.77-.08,3.08,0,.25-.08.36-.2.36-.14,0-.2-.08-.22-.48l-.03-.31c-.08-.84-.76-1.48-3.44-1.54l-3.53-.06v11.84Z"/>
      <path class="red" d="m94.44,13.44c0,2.69,0,4.9.14,6.08.08.81.25,1.43,1.09,1.54.39.06,1.01.11,1.26.11.17,0,.22.08.22.17,0,.14-.14.22-.45.22-1.54,0-3.3-.08-3.44-.08s-1.9.08-2.74.08c-.31,0-.45-.06-.45-.22,0-.08.06-.17.22-.17.25,0,.59-.06.84-.11.56-.11.7-.73.81-1.54.14-1.18.14-3.39.14-6.08v-4.93c0-4.37,0-5.15-.06-6.05-.06-.95-.34-1.43-.95-1.57-.31-.08-.67-.11-.87-.11-.11,0-.22-.06-.22-.17,0-.17.14-.22.45-.22.92,0,2.69.08,2.83.08s1.9-.08,2.74-.08c.31,0,.45.06.45.22,0,.11-.11.17-.22.17-.2,0-.36.03-.7.08-.76.14-.98.62-1.04,1.6-.06.9-.06,1.68-.06,6.05v4.93Z"/>
      <path class="red" d="m106.57,17.75c.06,2.3.34,3.02,1.09,3.25.53.14,1.15.17,1.4.17.14,0,.22.06.22.17,0,.17-.17.22-.5.22-1.6,0-2.72-.08-2.97-.08s-1.43.08-2.69.08c-.28,0-.45-.03-.45-.22,0-.11.08-.17.22-.17.22,0,.73-.03,1.15-.17.7-.2.84-1.01.84-3.56l.03-16.04c0-1.09.08-1.4.31-1.4s.7.62.98.9c.42.48,4.59,4.98,8.9,9.6,2.77,2.97,5.82,6.38,6.72,7.31l-.31-14.22c-.03-1.82-.22-2.44-1.09-2.66-.5-.11-1.15-.14-1.37-.14-.2,0-.22-.08-.22-.2,0-.17.22-.2.56-.2,1.26,0,2.6.08,2.91.08s1.23-.08,2.38-.08c.31,0,.5.03.5.2,0,.11-.11.2-.31.2-.14,0-.34,0-.67.08-.92.2-1.04.81-1.04,2.49l-.06,16.41c0,1.85-.06,1.99-.25,1.99-.22,0-.56-.31-2.04-1.79-.31-.28-4.34-4.4-7.31-7.59-3.25-3.5-6.41-7.03-7.31-8.04l.36,13.41Z"/>
      <path class="red" d="m147.03,14.42c0-2.27-.14-2.58-1.26-2.88-.22-.06-.7-.08-.95-.08-.11,0-.22-.06-.22-.17,0-.17.14-.22.45-.22,1.26,0,3.02.08,3.16.08s1.9-.08,2.74-.08c.31,0,.45.06.45.22,0,.11-.11.17-.22.17-.2,0-.36.03-.7.08-.76.14-.98.62-1.04,1.6-.06.9-.06,1.74-.06,2.91v3.14c0,1.26-.03,1.32-.36,1.51-1.79.95-4.31,1.26-5.94,1.26-2.13,0-6.1-.28-9.21-3-1.71-1.48-3.33-4.48-3.33-7.98,0-4.48,2.18-7.64,4.68-9.21,2.52-1.57,5.29-1.76,7.45-1.76,1.76,0,3.75.36,4.28.48.59.14,1.57.25,2.27.28.28.03.34.14.34.25,0,.39-.2,1.18-.2,3.98,0,.45-.06.59-.25.59-.14,0-.17-.17-.2-.42-.03-.39-.17-1.18-.59-1.85-.7-1.06-2.97-2.27-6.58-2.27-1.76,0-3.86.17-5.99,1.85-1.62,1.29-2.77,3.84-2.77,7.11,0,3.95,1.99,6.8,2.97,7.76,2.21,2.16,4.76,3,7.34,3,1.01,0,2.46-.17,3.19-.59.36-.2.56-.5.56-.98v-4.76Z"/>
    </g>
  </g>
</svg>