<?xml version="1.0" encoding="UTF-8"?>
<svg id="_レイヤー_2" data-name="レイヤー 2" xmlns="http://www.w3.org/2000/svg" viewBox="0 0 134.15 117.88">
  <defs>
    <style>
      .cls-1 {
        fill: #d9d9d9;
        stroke-width: 0px;
      }
    </style>
  </defs>
  <g id="_レイヤー_1-2" data-name="レイヤー 1">
    <g>
      <path class="cls-1" d="m132.16,36.52c-1.1,0-1.99-.89-1.99-1.99s.89-1.99,1.99-1.99,1.99.89,1.99,1.99-.89,1.99-1.99,1.99Z"/>
      <path class="cls-1" d="m126.73,31.1c-.8,0-1.52-.48-1.83-1.21-.1-.24-.16-.5-.16-.77s.05-.53.16-.77c.31-.74,1.03-1.21,1.83-1.21s1.52.48,1.83,1.21c.1.24.16.5.16.77s-.05.53-.16.77c-.31.74-1.03,1.21-1.83,1.21Z"/>
      <path class="cls-1" d="m115.89,31.1c-.8,0-1.52-.48-1.83-1.21-.1-.25-.16-.51-.16-.77s.05-.53.16-.77c.31-.74,1.03-1.21,1.83-1.21s1.52.48,1.83,1.21c.1.24.16.5.16.77s-.05.53-.16.77c-.31.74-1.03,1.21-1.83,1.21Z"/>
      <path class="cls-1" d="m110.46,14.82c-1.1,0-1.99-.89-1.99-1.99s.89-1.99,1.99-1.99,1.99.89,1.99,1.99-.89,1.99-1.99,1.99Z"/>
      <path class="cls-1" d="m126.73,41.94c-1.09,0-1.99-.89-1.99-1.99s.89-1.99,1.99-1.99,1.99.89,1.99,1.99-.89,1.99-1.99,1.99Z"/>
      <path class="cls-1" d="m115.89,41.94c-1.1,0-1.99-.89-1.99-1.99s.89-1.99,1.99-1.99,1.99.89,1.99,1.99-.89,1.99-1.99,1.99Z"/>
      <path class="cls-1" d="m110.46,47.37c-1.1,0-1.99-.89-1.99-1.99s.89-1.99,1.99-1.99,1.99.89,1.99,1.99-.89,1.99-1.99,1.99Z"/>
      <path class="cls-1" d="m121.31,47.37c-1.1,0-1.99-.89-1.99-1.99s.89-1.99,1.99-1.99,1.99.89,1.99,1.99-.89,1.99-1.99,1.99Z"/>
      <path class="cls-1" d="m110.46,36.52c-1.1,0-1.99-.89-1.99-1.99s.89-1.99,1.99-1.99,1.99.89,1.99,1.99-.89,1.99-1.99,1.99Z"/>
      <path class="cls-1" d="m121.31,36.52c-1.1,0-1.99-.89-1.99-1.99s.89-1.99,1.99-1.99,1.99.89,1.99,1.99-.89,1.99-1.99,1.99Z"/>
      <path class="cls-1" d="m115.89,63.64c-1.1,0-1.99-.89-1.99-1.99s.89-1.99,1.99-1.99,1.99.89,1.99,1.99-.89,1.99-1.99,1.99Z"/>
      <circle class="cls-1" cx="110.46" cy="67.08" r="1.99"/>
      <path class="cls-1" d="m110.46,58.22c-1.1,0-1.99-.89-1.99-1.99s.89-1.99,1.99-1.99,1.99.89,1.99,1.99-.89,1.99-1.99,1.99Z"/>
      <path class="cls-1" d="m121.31,58.22c-1.1,0-1.99-.89-1.99-1.99s.89-1.99,1.99-1.99,1.99.89,1.99,1.99-.89,1.99-1.99,1.99Z"/>
      <path class="cls-1" d="m126.73,52.79c-1.09,0-1.99-.89-1.99-1.99s.89-1.99,1.99-1.99,1.99.89,1.99,1.99-.89,1.99-1.99,1.99Z"/>
      <path class="cls-1" d="m115.89,52.79c-1.1,0-1.99-.89-1.99-1.99s.89-1.99,1.99-1.99,1.99.89,1.99,1.99-.89,1.99-1.99,1.99Z"/>
      <circle class="cls-1" cx="115.89" cy="72.5" r="1.99"/>
      <path class="cls-1" d="m105.04,31.1c-.8,0-1.52-.48-1.83-1.21-.1-.24-.16-.5-.16-.77s.05-.53.16-.77c.31-.74,1.03-1.21,1.83-1.21s1.52.48,1.83,1.21c.1.24.16.5.16.77s-.05.53-.16.77c-.31.74-1.03,1.21-1.83,1.21Z"/>
      <path class="cls-1" d="m94.19,31.1c-.8,0-1.52-.48-1.83-1.21-.1-.24-.16-.5-.16-.77s.05-.53.16-.77c.31-.74,1.03-1.21,1.83-1.21s1.52.48,1.83,1.21c.1.24.16.5.16.77s-.05.53-.16.77c-.31.74-1.03,1.21-1.83,1.21Z"/>
      <path class="cls-1" d="m105.04,20.25c-1.09,0-1.99-.89-1.99-1.99s.89-1.99,1.99-1.99,1.99.89,1.99,1.99-.89,1.99-1.99,1.99Z"/>
      <path class="cls-1" d="m88.77,25.67c-1.09,0-1.99-.89-1.99-1.99s.89-1.99,1.99-1.99,1.99.89,1.99,1.99-.89,1.99-1.99,1.99Z"/>
      <path class="cls-1" d="m99.62,25.67c-1.1,0-1.99-.89-1.99-1.99s.89-1.99,1.99-1.99,1.99.89,1.99,1.99-.89,1.99-1.99,1.99Z"/>
      <path class="cls-1" d="m105.04,9.4c-1.09,0-1.99-.89-1.99-1.99s.89-1.99,1.99-1.99,1.99.89,1.99,1.99-.89,1.99-1.99,1.99Z"/>
      <path class="cls-1" d="m105.04,41.94c-1.09,0-1.99-.89-1.99-1.99s.89-1.99,1.99-1.99,1.99.89,1.99,1.99-.89,1.99-1.99,1.99Z"/>
      <path class="cls-1" d="m94.19,41.94c-1.09,0-1.99-.89-1.99-1.99s.89-1.99,1.99-1.99,1.99.89,1.99,1.99-.89,1.99-1.99,1.99Z"/>
      <path class="cls-1" d="m88.77,47.37c-1.09,0-1.99-.89-1.99-1.99s.89-1.99,1.99-1.99,1.99.89,1.99,1.99-.89,1.99-1.99,1.99Z"/>
      <path class="cls-1" d="m99.62,47.37c-1.1,0-1.99-.89-1.99-1.99s.89-1.99,1.99-1.99,1.99.89,1.99,1.99-.89,1.99-1.99,1.99Z"/>
      <path class="cls-1" d="m88.77,36.52c-1.09,0-1.99-.89-1.99-1.99s.89-1.99,1.99-1.99,1.99.89,1.99,1.99-.89,1.99-1.99,1.99Z"/>
      <path class="cls-1" d="m99.62,36.52c-1.1,0-1.99-.89-1.99-1.99s.89-1.99,1.99-1.99,1.99.89,1.99,1.99-.89,1.99-1.99,1.99Z"/>
      <path class="cls-1" d="m105.04,63.64c-1.09,0-1.99-.89-1.99-1.99s.89-1.99,1.99-1.99,1.99.89,1.99,1.99-.89,1.99-1.99,1.99Z"/>
      <path class="cls-1" d="m94.19,63.64c-1.09,0-1.99-.89-1.99-1.99s.89-1.99,1.99-1.99,1.99.89,1.99,1.99-.89,1.99-1.99,1.99Z"/>
      <path class="cls-1" d="m88.77,69.06c-1.09,0-1.99-.89-1.99-1.99s.89-1.99,1.99-1.99,1.99.89,1.99,1.99-.89,1.99-1.99,1.99Z"/>
      <path class="cls-1" d="m99.62,69.06c-1.1,0-1.99-.89-1.99-1.99s.89-1.99,1.99-1.99,1.99.89,1.99,1.99-.89,1.99-1.99,1.99Z"/>
      <path class="cls-1" d="m88.77,58.22c-1.09,0-1.99-.89-1.99-1.99s.89-1.99,1.99-1.99,1.99.89,1.99,1.99-.89,1.99-1.99,1.99Z"/>
      <path class="cls-1" d="m99.62,58.22c-1.1,0-1.99-.89-1.99-1.99s.89-1.99,1.99-1.99,1.99.89,1.99,1.99-.89,1.99-1.99,1.99Z"/>
      <path class="cls-1" d="m105.04,52.79c-1.09,0-1.99-.89-1.99-1.99s.89-1.99,1.99-1.99,1.99.89,1.99,1.99-.89,1.99-1.99,1.99Z"/>
      <path class="cls-1" d="m94.19,52.79c-1.09,0-1.99-.89-1.99-1.99s.89-1.99,1.99-1.99,1.99.89,1.99,1.99-.89,1.99-1.99,1.99Z"/>
      <path class="cls-1" d="m94.19,96.18c-1.09,0-1.99-.89-1.99-1.99,0-.27.05-.53.16-.77.31-.74,1.03-1.21,1.83-1.21s1.52.48,1.83,1.21c.1.24.16.5.16.77,0,1.1-.89,1.99-1.99,1.99Z"/>
      <path class="cls-1" d="m94.19,85.34c-1.09,0-1.99-.89-1.99-1.99s.89-1.99,1.99-1.99,1.99.89,1.99,1.99-.89,1.99-1.99,1.99Z"/>
      <path class="cls-1" d="m88.77,90.76c-1.09,0-1.99-.89-1.99-1.99s.89-1.99,1.99-1.99,1.99.89,1.99,1.99-.89,1.99-1.99,1.99Z"/>
      <path class="cls-1" d="m88.77,79.91c-1.09,0-1.99-.89-1.99-1.99s.89-1.99,1.99-1.99,1.99.89,1.99,1.99-.89,1.99-1.99,1.99Z"/>
      <path class="cls-1" d="m99.62,79.91c-1.1,0-1.99-.89-1.99-1.99s.89-1.99,1.99-1.99,1.99.89,1.99,1.99-.89,1.99-1.99,1.99Z"/>
      <path class="cls-1" d="m105.04,74.49c-1.09,0-1.99-.89-1.99-1.99s.89-1.99,1.99-1.99,1.99.89,1.99,1.99-.89,1.99-1.99,1.99Z"/>
      <path class="cls-1" d="m94.19,74.49c-1.09,0-1.99-.89-1.99-1.99s.89-1.99,1.99-1.99,1.99.89,1.99,1.99-.89,1.99-1.99,1.99Z"/>
      <path class="cls-1" d="m94.19,107.03c-1.09,0-1.99-.89-1.99-1.99s.89-1.99,1.99-1.99,1.99.89,1.99,1.99-.89,1.99-1.99,1.99Z"/>
      <path class="cls-1" d="m88.77,101.61c-1.09,0-1.99-.89-1.99-1.99s.89-1.99,1.99-1.99,1.99.89,1.99,1.99-.89,1.99-1.99,1.99Z"/>
      <path class="cls-1" d="m83.34,31.1c-.8,0-1.52-.48-1.83-1.21-.1-.24-.16-.5-.16-.77s.05-.53.16-.77c.31-.74,1.03-1.21,1.83-1.21s1.52.48,1.83,1.21c.1.24.16.5.16.77s-.05.53-.16.77c-.31.74-1.03,1.21-1.83,1.21Z"/>
      <path class="cls-1" d="m72.5,31.1c-.8,0-1.52-.48-1.83-1.21-.1-.24-.16-.5-.16-.77s.05-.53.16-.77c.31-.74,1.03-1.21,1.83-1.21s1.52.48,1.83,1.21c.1.24.16.5.16.77s-.05.53-.16.77c-.31.74-1.03,1.21-1.83,1.21Z"/>
      <path class="cls-1" d="m83.34,20.25c-1.09,0-1.99-.89-1.99-1.99s.89-1.99,1.99-1.99c.8,0,1.52.48,1.83,1.21.1.24.16.5.16.77s-.05.53-.16.77c-.31.74-1.03,1.21-1.83,1.21Z"/>
      <path class="cls-1" d="m67.07,25.67c-1.1,0-1.99-.89-1.99-1.99s.89-1.99,1.99-1.99,1.99.89,1.99,1.99-.89,1.99-1.99,1.99Z"/>
      <path class="cls-1" d="m77.92,25.67c-1.1,0-1.99-.89-1.99-1.99s.89-1.99,1.99-1.99,1.99.89,1.99,1.99-.89,1.99-1.99,1.99Z"/>
      <path class="cls-1" d="m83.34,41.94c-1.09,0-1.99-.89-1.99-1.99s.89-1.99,1.99-1.99c.8,0,1.52.48,1.83,1.21.1.24.16.5.16.77s-.05.53-.16.77c-.31.74-1.03,1.21-1.83,1.21Z"/>
      <path class="cls-1" d="m72.5,41.94c-1.09,0-1.99-.89-1.99-1.99s.89-1.99,1.99-1.99,1.99.89,1.99,1.99-.89,1.99-1.99,1.99Z"/>
      <path class="cls-1" d="m67.07,47.37c-1.1,0-1.99-.89-1.99-1.99s.89-1.99,1.99-1.99,1.99.89,1.99,1.99-.89,1.99-1.99,1.99Z"/>
      <path class="cls-1" d="m77.92,47.37c-1.1,0-1.99-.89-1.99-1.99s.89-1.99,1.99-1.99,1.99.89,1.99,1.99-.89,1.99-1.99,1.99Z"/>
      <path class="cls-1" d="m67.07,36.52c-1.1,0-1.99-.89-1.99-1.99s.89-1.99,1.99-1.99,1.99.89,1.99,1.99-.89,1.99-1.99,1.99Z"/>
      <path class="cls-1" d="m77.92,36.52c-1.1,0-1.99-.89-1.99-1.99s.89-1.99,1.99-1.99,1.99.89,1.99,1.99-.89,1.99-1.99,1.99Z"/>
      <path class="cls-1" d="m83.34,63.64c-1.09,0-1.99-.89-1.99-1.99s.89-1.99,1.99-1.99c.8,0,1.52.48,1.83,1.21.1.24.16.5.16.77s-.05.53-.16.77c-.31.74-1.03,1.21-1.83,1.21Z"/>
      <path class="cls-1" d="m72.5,63.64c-1.09,0-1.99-.89-1.99-1.99s.89-1.99,1.99-1.99,1.99.89,1.99,1.99-.89,1.99-1.99,1.99Z"/>
      <circle class="cls-1" cx="67.07" cy="67.08" r="1.99"/>
      <path class="cls-1" d="m77.92,69.06c-1.1,0-1.99-.89-1.99-1.99s.89-1.99,1.99-1.99,1.99.89,1.99,1.99-.89,1.99-1.99,1.99Z"/>
      <path class="cls-1" d="m67.07,58.22c-1.1,0-1.99-.89-1.99-1.99s.89-1.99,1.99-1.99,1.99.89,1.99,1.99-.89,1.99-1.99,1.99Z"/>
      <path class="cls-1" d="m77.92,58.22c-1.1,0-1.99-.89-1.99-1.99s.89-1.99,1.99-1.99,1.99.89,1.99,1.99-.89,1.99-1.99,1.99Z"/>
      <path class="cls-1" d="m83.34,52.79c-1.09,0-1.99-.89-1.99-1.99s.89-1.99,1.99-1.99c.8,0,1.52.48,1.83,1.21.1.24.16.5.16.77s-.05.53-.16.77c-.31.74-1.03,1.21-1.83,1.21Z"/>
      <path class="cls-1" d="m72.5,52.79c-1.09,0-1.99-.89-1.99-1.99s.89-1.99,1.99-1.99,1.99.89,1.99,1.99-.89,1.99-1.99,1.99Z"/>
      <path class="cls-1" d="m83.34,96.18c-1.09,0-1.99-.89-1.99-1.99,0-.27.05-.53.16-.77.31-.74,1.03-1.21,1.83-1.21s1.52.48,1.83,1.21c.1.24.16.5.16.77s-.05.53-.16.77c-.31.74-1.03,1.21-1.83,1.21Z"/>
      <path class="cls-1" d="m72.5,96.18c-1.09,0-1.99-.89-1.99-1.99,0-.27.05-.53.16-.77.31-.74,1.03-1.21,1.83-1.21s1.52.48,1.83,1.21c.1.24.16.5.16.77,0,1.1-.89,1.99-1.99,1.99Z"/>
      <path class="cls-1" d="m83.34,85.34c-1.09,0-1.99-.89-1.99-1.99s.89-1.99,1.99-1.99c.8,0,1.52.48,1.83,1.21.1.24.16.5.16.77s-.05.53-.16.77c-.31.74-1.03,1.21-1.83,1.21Z"/>
      <path class="cls-1" d="m72.5,85.34c-1.09,0-1.99-.89-1.99-1.99s.89-1.99,1.99-1.99,1.99.89,1.99,1.99-.89,1.99-1.99,1.99Z"/>
      <path class="cls-1" d="m77.92,90.76c-1.1,0-1.99-.89-1.99-1.99s.89-1.99,1.99-1.99,1.99.89,1.99,1.99-.89,1.99-1.99,1.99Z"/>
      <circle class="cls-1" cx="67.07" cy="77.92" r="1.99"/>
      <path class="cls-1" d="m77.92,79.91c-1.1,0-1.99-.89-1.99-1.99s.89-1.99,1.99-1.99,1.99.89,1.99,1.99-.89,1.99-1.99,1.99Z"/>
      <path class="cls-1" d="m83.34,74.49c-1.09,0-1.99-.89-1.99-1.99s.89-1.99,1.99-1.99c.8,0,1.52.48,1.83,1.21.1.24.16.5.16.77s-.05.53-.16.77c-.31.74-1.03,1.21-1.83,1.21Z"/>
      <path class="cls-1" d="m72.5,74.49c-1.09,0-1.99-.89-1.99-1.99s.89-1.99,1.99-1.99,1.99.89,1.99,1.99-.89,1.99-1.99,1.99Z"/>
      <path class="cls-1" d="m83.34,107.03c-1.09,0-1.99-.89-1.99-1.99s.89-1.99,1.99-1.99c.8,0,1.52.48,1.83,1.21.1.24.16.5.16.77s-.05.53-.16.77c-.31.74-1.03,1.21-1.83,1.21Z"/>
      <path class="cls-1" d="m72.5,107.03c-1.09,0-1.99-.89-1.99-1.99s.89-1.99,1.99-1.99,1.99.89,1.99,1.99-.89,1.99-1.99,1.99Z"/>
      <path class="cls-1" d="m67.07,112.46c-1.1,0-1.99-.89-1.99-1.99s.89-1.99,1.99-1.99,1.99.89,1.99,1.99-.89,1.99-1.99,1.99Z"/>
      <path class="cls-1" d="m77.92,112.46c-1.1,0-1.99-.89-1.99-1.99s.89-1.99,1.99-1.99,1.99.89,1.99,1.99-.89,1.99-1.99,1.99Z"/>
      <circle class="cls-1" cx="67.07" cy="99.62" r="1.99"/>
      <path class="cls-1" d="m77.92,101.61c-1.1,0-1.99-.89-1.99-1.99s.89-1.99,1.99-1.99,1.99.89,1.99,1.99-.89,1.99-1.99,1.99Z"/>
      <path class="cls-1" d="m61.65,31.1c-.8,0-1.52-.48-1.83-1.21-.1-.24-.16-.5-.16-.77s.05-.53.16-.77c.31-.74,1.03-1.21,1.83-1.21s1.52.48,1.83,1.21c.1.24.16.5.16.77s-.05.53-.16.77c-.31.74-1.03,1.21-1.83,1.21Z"/>
      <path class="cls-1" d="m50.8,31.1c-.8,0-1.52-.48-1.83-1.21-.1-.24-.16-.5-.16-.77s.05-.53.16-.77c.31-.74,1.03-1.21,1.83-1.21s1.52.48,1.83,1.21c.1.24.16.5.16.77s-.05.53-.16.77c-.31.74-1.03,1.21-1.83,1.21Z"/>
      <path class="cls-1" d="m61.65,20.25c-1.09,0-1.99-.89-1.99-1.99s.89-1.99,1.99-1.99,1.99.89,1.99,1.99-.89,1.99-1.99,1.99Z"/>
      <path class="cls-1" d="m50.8,20.25c-1.09,0-1.99-.89-1.99-1.99s.89-1.99,1.99-1.99,1.99.89,1.99,1.99-.89,1.99-1.99,1.99Z"/>
      <path class="cls-1" d="m45.38,25.67c-1.1,0-1.99-.89-1.99-1.99s.89-1.99,1.99-1.99,1.99.89,1.99,1.99-.89,1.99-1.99,1.99Z"/>
      <path class="cls-1" d="m56.23,25.67c-1.1,0-1.99-.89-1.99-1.99s.89-1.99,1.99-1.99,1.99.89,1.99,1.99-.89,1.99-1.99,1.99Z"/>
      <path class="cls-1" d="m45.38,14.82c-1.1,0-1.99-.89-1.99-1.99s.89-1.99,1.99-1.99,1.99.89,1.99,1.99-.89,1.99-1.99,1.99Z"/>
      <path class="cls-1" d="m61.65,41.94c-1.09,0-1.99-.89-1.99-1.99s.89-1.99,1.99-1.99,1.99.89,1.99,1.99-.89,1.99-1.99,1.99Z"/>
      <path class="cls-1" d="m50.8,41.94c-1.09,0-1.99-.89-1.99-1.99s.89-1.99,1.99-1.99,1.99.89,1.99,1.99-.89,1.99-1.99,1.99Z"/>
      <path class="cls-1" d="m45.38,47.37c-1.1,0-1.99-.89-1.99-1.99s.89-1.99,1.99-1.99,1.99.89,1.99,1.99-.89,1.99-1.99,1.99Z"/>
      <path class="cls-1" d="m56.23,47.37c-1.1,0-1.99-.89-1.99-1.99s.89-1.99,1.99-1.99,1.99.89,1.99,1.99-.89,1.99-1.99,1.99Z"/>
      <path class="cls-1" d="m45.38,36.52c-1.1,0-1.99-.89-1.99-1.99s.89-1.99,1.99-1.99,1.99.89,1.99,1.99-.89,1.99-1.99,1.99Z"/>
      <path class="cls-1" d="m56.23,36.52c-1.1,0-1.99-.89-1.99-1.99s.89-1.99,1.99-1.99,1.99.89,1.99,1.99-.89,1.99-1.99,1.99Z"/>
      <path class="cls-1" d="m61.65,63.64c-1.09,0-1.99-.89-1.99-1.99s.89-1.99,1.99-1.99,1.99.89,1.99,1.99-.89,1.99-1.99,1.99Z"/>
      <path class="cls-1" d="m50.8,63.64c-1.09,0-1.99-.89-1.99-1.99s.89-1.99,1.99-1.99,1.99.89,1.99,1.99-.89,1.99-1.99,1.99Z"/>
      <circle class="cls-1" cx="45.38" cy="67.08" r="1.99"/>
      <path class="cls-1" d="m56.23,69.06c-1.1,0-1.99-.89-1.99-1.99s.89-1.99,1.99-1.99,1.99.89,1.99,1.99-.89,1.99-1.99,1.99Z"/>
      <path class="cls-1" d="m45.38,58.22c-1.1,0-1.99-.89-1.99-1.99s.89-1.99,1.99-1.99,1.99.89,1.99,1.99-.89,1.99-1.99,1.99Z"/>
      <path class="cls-1" d="m56.23,58.22c-1.1,0-1.99-.89-1.99-1.99s.89-1.99,1.99-1.99,1.99.89,1.99,1.99-.89,1.99-1.99,1.99Z"/>
      <path class="cls-1" d="m61.65,52.79c-1.09,0-1.99-.89-1.99-1.99s.89-1.99,1.99-1.99,1.99.89,1.99,1.99-.89,1.99-1.99,1.99Z"/>
      <path class="cls-1" d="m50.8,52.79c-1.09,0-1.99-.89-1.99-1.99s.89-1.99,1.99-1.99,1.99.89,1.99,1.99-.89,1.99-1.99,1.99Z"/>
      <path class="cls-1" d="m61.65,85.34c-1.09,0-1.99-.89-1.99-1.99s.89-1.99,1.99-1.99,1.99.89,1.99,1.99-.89,1.99-1.99,1.99Z"/>
      <path class="cls-1" d="m50.8,85.34c-1.09,0-1.99-.89-1.99-1.99s.89-1.99,1.99-1.99,1.99.89,1.99,1.99-.89,1.99-1.99,1.99Z"/>
      <circle class="cls-1" cx="45.38" cy="77.92" r="1.99"/>
      <path class="cls-1" d="m56.23,79.91c-1.1,0-1.99-.89-1.99-1.99s.89-1.99,1.99-1.99,1.99.89,1.99,1.99-.89,1.99-1.99,1.99Z"/>
      <path class="cls-1" d="m61.65,74.49c-1.09,0-1.99-.89-1.99-1.99s.89-1.99,1.99-1.99,1.99.89,1.99,1.99-.89,1.99-1.99,1.99Z"/>
      <path class="cls-1" d="m50.8,74.49c-1.09,0-1.99-.89-1.99-1.99s.89-1.99,1.99-1.99,1.99.89,1.99,1.99-.89,1.99-1.99,1.99Z"/>
      <path class="cls-1" d="m61.65,107.03c-1.09,0-1.99-.89-1.99-1.99s.89-1.99,1.99-1.99,1.99.89,1.99,1.99-.89,1.99-1.99,1.99Z"/>
      <path class="cls-1" d="m45.38,112.46c-1.1,0-1.99-.89-1.99-1.99s.89-1.99,1.99-1.99,1.99.89,1.99,1.99-.89,1.99-1.99,1.99Z"/>
      <path class="cls-1" d="m56.23,112.46c-1.1,0-1.99-.89-1.99-1.99s.89-1.99,1.99-1.99,1.99.89,1.99,1.99-.89,1.99-1.99,1.99Z"/>
      <path class="cls-1" d="m61.65,117.88c-1.09,0-1.99-.89-1.99-1.99,0-.8.48-1.52,1.21-1.83.25-.1.5-.16.77-.16s.53.05.77.16c.74.31,1.22,1.03,1.22,1.83,0,1.1-.89,1.99-1.99,1.99Z"/>
      <path class="cls-1" d="m50.8,117.88c-1.09,0-1.99-.89-1.99-1.99,0-.8.48-1.52,1.21-1.83.25-.1.5-.16.77-.16s.53.05.77.16c.74.31,1.22,1.03,1.22,1.83,0,1.1-.89,1.99-1.99,1.99Z"/>
      <path class="cls-1" d="m34.53,3.98c-1.1,0-1.99-.89-1.99-1.99s.89-1.99,1.99-1.99,1.99.89,1.99,1.99-.89,1.99-1.99,1.99Z"/>
      <path class="cls-1" d="m39.95,31.1c-.53,0-1.03-.21-1.4-.58-.18-.18-.33-.39-.43-.63-.1-.24-.16-.5-.16-.77s.05-.53.16-.77c.1-.24.25-.45.43-.63.38-.38.87-.58,1.4-.58.8,0,1.52.48,1.83,1.21.1.25.16.51.16.77s-.05.53-.16.77c-.31.74-1.03,1.21-1.83,1.21Z"/>
      <path class="cls-1" d="m29.11,31.1c-.8,0-1.52-.48-1.83-1.21-.1-.24-.16-.5-.16-.77s.05-.53.16-.77c.31-.74,1.03-1.21,1.83-1.21s1.52.48,1.83,1.21c.1.24.16.5.16.77s-.05.53-.16.77c-.31.74-1.03,1.21-1.83,1.21Z"/>
      <path class="cls-1" d="m39.95,20.25c-.53,0-1.03-.21-1.4-.58-.38-.38-.58-.88-.58-1.41s.21-1.03.58-1.41c.38-.38.87-.58,1.4-.58,1.1,0,1.99.89,1.99,1.99s-.89,1.99-1.99,1.99Z"/>
      <path class="cls-1" d="m29.11,20.25c-1.1,0-1.99-.89-1.99-1.99s.89-1.99,1.99-1.99,1.99.89,1.99,1.99-.89,1.99-1.99,1.99Z"/>
      <path class="cls-1" d="m23.68,25.67c-1.1,0-1.99-.89-1.99-1.99s.89-1.99,1.99-1.99,1.99.89,1.99,1.99-.89,1.99-1.99,1.99Z"/>
      <path class="cls-1" d="m34.53,25.67c-1.1,0-1.99-.89-1.99-1.99s.89-1.99,1.99-1.99,1.99.89,1.99,1.99-.89,1.99-1.99,1.99Z"/>
      <path class="cls-1" d="m23.68,14.82c-1.1,0-1.99-.89-1.99-1.99s.89-1.99,1.99-1.99,1.99.89,1.99,1.99-.89,1.99-1.99,1.99Z"/>
      <path class="cls-1" d="m34.53,14.82c-1.1,0-1.99-.89-1.99-1.99s.89-1.99,1.99-1.99,1.99.89,1.99,1.99-.89,1.99-1.99,1.99Z"/>
      <path class="cls-1" d="m39.95,9.4c-.53,0-1.03-.21-1.4-.58-.38-.38-.58-.88-.58-1.41s.21-1.03.58-1.41c.38-.38.87-.58,1.4-.58,1.1,0,1.99.89,1.99,1.99s-.89,1.99-1.99,1.99Z"/>
      <path class="cls-1" d="m29.11,9.4c-1.1,0-1.99-.89-1.99-1.99s.89-1.99,1.99-1.99,1.99.89,1.99,1.99-.89,1.99-1.99,1.99Z"/>
      <path class="cls-1" d="m39.95,41.94c-.53,0-1.03-.21-1.4-.58-.38-.38-.58-.88-.58-1.41s.21-1.03.58-1.41c.38-.38.87-.58,1.4-.58,1.1,0,1.99.89,1.99,1.99s-.89,1.99-1.99,1.99Z"/>
      <path class="cls-1" d="m29.11,41.94c-1.1,0-1.99-.89-1.99-1.99s.89-1.99,1.99-1.99,1.99.89,1.99,1.99-.89,1.99-1.99,1.99Z"/>
      <path class="cls-1" d="m23.68,47.37c-1.1,0-1.99-.89-1.99-1.99s.89-1.99,1.99-1.99,1.99.89,1.99,1.99-.89,1.99-1.99,1.99Z"/>
      <path class="cls-1" d="m34.53,47.37c-1.1,0-1.99-.89-1.99-1.99s.89-1.99,1.99-1.99,1.99.89,1.99,1.99-.89,1.99-1.99,1.99Z"/>
      <path class="cls-1" d="m23.68,36.52c-1.1,0-1.99-.89-1.99-1.99s.89-1.99,1.99-1.99,1.99.89,1.99,1.99-.89,1.99-1.99,1.99Z"/>
      <path class="cls-1" d="m34.53,36.52c-1.1,0-1.99-.89-1.99-1.99s.89-1.99,1.99-1.99,1.99.89,1.99,1.99-.89,1.99-1.99,1.99Z"/>
      <path class="cls-1" d="m39.95,63.64c-.53,0-1.03-.21-1.4-.58-.38-.38-.58-.88-.58-1.41s.21-1.03.58-1.41c.38-.38.87-.58,1.4-.58,1.1,0,1.99.89,1.99,1.99s-.89,1.99-1.99,1.99Z"/>
      <path class="cls-1" d="m29.11,63.64c-1.1,0-1.99-.89-1.99-1.99s.89-1.99,1.99-1.99,1.99.89,1.99,1.99-.89,1.99-1.99,1.99Z"/>
      <circle class="cls-1" cx="23.68" cy="67.08" r="1.99"/>
      <path class="cls-1" d="m34.53,69.06c-1.1,0-1.99-.89-1.99-1.99s.89-1.99,1.99-1.99,1.99.89,1.99,1.99-.89,1.99-1.99,1.99Z"/>
      <path class="cls-1" d="m23.68,58.22c-1.1,0-1.99-.89-1.99-1.99s.89-1.99,1.99-1.99,1.99.89,1.99,1.99-.89,1.99-1.99,1.99Z"/>
      <path class="cls-1" d="m34.53,58.22c-1.1,0-1.99-.89-1.99-1.99s.89-1.99,1.99-1.99,1.99.89,1.99,1.99-.89,1.99-1.99,1.99Z"/>
      <path class="cls-1" d="m39.95,52.79c-.53,0-1.03-.21-1.4-.58-.38-.38-.58-.88-.58-1.41s.21-1.03.58-1.41c.38-.38.87-.58,1.4-.58,1.1,0,1.99.89,1.99,1.99s-.89,1.99-1.99,1.99Z"/>
      <path class="cls-1" d="m29.11,52.79c-1.1,0-1.99-.89-1.99-1.99s.89-1.99,1.99-1.99,1.99.89,1.99,1.99-.89,1.99-1.99,1.99Z"/>
      <path class="cls-1" d="m39.95,96.18c-.53,0-1.03-.21-1.4-.58-.38-.38-.58-.88-.58-1.41,0-.27.05-.53.16-.77.1-.24.25-.45.43-.63.38-.38.87-.58,1.4-.58.8,0,1.52.48,1.83,1.21.1.25.16.51.16.77,0,1.1-.89,1.99-1.99,1.99Z"/>
      <path class="cls-1" d="m29.11,96.18c-1.1,0-1.99-.89-1.99-1.99,0-.27.05-.53.16-.77.31-.74,1.03-1.21,1.83-1.21s1.52.48,1.83,1.21c.1.24.16.5.16.77,0,1.1-.89,1.99-1.99,1.99Z"/>
      <path class="cls-1" d="m39.95,85.34c-.53,0-1.03-.21-1.4-.58-.38-.38-.58-.88-.58-1.41s.21-1.03.58-1.41c.38-.38.87-.58,1.4-.58,1.1,0,1.99.89,1.99,1.99s-.89,1.99-1.99,1.99Z"/>
      <path class="cls-1" d="m29.11,85.34c-1.1,0-1.99-.89-1.99-1.99s.89-1.99,1.99-1.99,1.99.89,1.99,1.99-.89,1.99-1.99,1.99Z"/>
      <path class="cls-1" d="m34.53,90.76c-1.1,0-1.99-.89-1.99-1.99s.89-1.99,1.99-1.99,1.99.89,1.99,1.99-.89,1.99-1.99,1.99Z"/>
      <circle class="cls-1" cx="23.68" cy="77.92" r="1.99"/>
      <path class="cls-1" d="m34.53,79.91c-1.1,0-1.99-.89-1.99-1.99s.89-1.99,1.99-1.99,1.99.89,1.99,1.99-.89,1.99-1.99,1.99Z"/>
      <path class="cls-1" d="m39.95,74.49c-.53,0-1.03-.21-1.4-.58-.38-.38-.58-.88-.58-1.41s.21-1.03.58-1.41c.38-.38.87-.58,1.4-.58,1.1,0,1.99.89,1.99,1.99s-.89,1.99-1.99,1.99Z"/>
      <path class="cls-1" d="m29.11,74.49c-1.1,0-1.99-.89-1.99-1.99s.89-1.99,1.99-1.99,1.99.89,1.99,1.99-.89,1.99-1.99,1.99Z"/>
      <path class="cls-1" d="m34.53,101.61c-1.1,0-1.99-.89-1.99-1.99s.89-1.99,1.99-1.99,1.99.89,1.99,1.99-.89,1.99-1.99,1.99Z"/>
      <path class="cls-1" d="m18.26,31.1c-.8,0-1.52-.48-1.83-1.21-.1-.24-.16-.5-.16-.77s.05-.53.16-.77c.31-.74,1.03-1.21,1.83-1.21s1.52.48,1.83,1.21c.1.25.16.51.16.77s-.05.53-.16.77c-.31.74-1.03,1.21-1.83,1.21Z"/>
      <path class="cls-1" d="m7.41,31.1c-.8,0-1.52-.48-1.83-1.21-.1-.25-.16-.51-.16-.77s.05-.53.16-.77c.31-.74,1.03-1.21,1.83-1.21s1.52.48,1.83,1.21c.1.25.16.51.16.77s-.05.53-.16.77c-.31.74-1.03,1.21-1.83,1.21Z"/>
      <path class="cls-1" d="m18.26,20.25c-1.1,0-1.99-.89-1.99-1.99s.89-1.99,1.99-1.99,1.99.89,1.99,1.99-.89,1.99-1.99,1.99Z"/>
      <path class="cls-1" d="m7.41,20.25c-1.1,0-1.99-.89-1.99-1.99s.89-1.99,1.99-1.99,1.99.89,1.99,1.99-.89,1.99-1.99,1.99Z"/>
      <path class="cls-1" d="m12.83,25.67c-1.1,0-1.99-.89-1.99-1.99s.89-1.99,1.99-1.99,1.99.89,1.99,1.99-.89,1.99-1.99,1.99Z"/>
      <path class="cls-1" d="m12.83,14.82c-1.1,0-1.99-.89-1.99-1.99s.89-1.99,1.99-1.99,1.99.89,1.99,1.99-.89,1.99-1.99,1.99Z"/>
      <path class="cls-1" d="m18.26,9.4c-1.1,0-1.99-.89-1.99-1.99s.89-1.99,1.99-1.99,1.99.89,1.99,1.99-.89,1.99-1.99,1.99Z"/>
      <path class="cls-1" d="m18.26,41.94c-1.1,0-1.99-.89-1.99-1.99s.89-1.99,1.99-1.99,1.99.89,1.99,1.99-.89,1.99-1.99,1.99Z"/>
      <path class="cls-1" d="m7.41,41.94c-1.1,0-1.99-.89-1.99-1.99s.89-1.99,1.99-1.99,1.99.89,1.99,1.99-.89,1.99-1.99,1.99Z"/>
      <path class="cls-1" d="m12.83,47.37c-1.1,0-1.99-.89-1.99-1.99s.89-1.99,1.99-1.99,1.99.89,1.99,1.99-.89,1.99-1.99,1.99Z"/>
      <path class="cls-1" d="m1.99,36.52c-1.1,0-1.99-.89-1.99-1.99s.89-1.99,1.99-1.99,1.99.89,1.99,1.99-.89,1.99-1.99,1.99Z"/>
      <path class="cls-1" d="m12.83,36.52c-1.1,0-1.99-.89-1.99-1.99s.89-1.99,1.99-1.99,1.99.89,1.99,1.99-.89,1.99-1.99,1.99Z"/>
      <path class="cls-1" d="m18.26,52.79c-1.1,0-1.99-.89-1.99-1.99s.89-1.99,1.99-1.99,1.99.89,1.99,1.99-.89,1.99-1.99,1.99Z"/>
    </g>
  </g>
</svg>