
<svg
    id="_レイヤー_2"
    xmlns="http://www.w3.org/2000/svg"
    width="102.7"
    height="21.95"
    viewBox="0 0 102.7 21.95">
    <g id="_レイヤー_1-2">
        <g><path class="red"
            d="M.42,21.2c-.39-.2-.42-.31-.42-1.06,0-1.4,.11-2.52,.14-2.97,.03-.31,.08-.45,.22-.45,.17,0,.2,.08,.2,.31,0,.25,0,.64,.08,1.04,.42,2.07,2.27,2.86,4.14,2.86,2.69,0,4-1.93,4-3.72,0-1.93-.81-3.05-3.22-5.04l-1.26-1.04C1.34,8.68,.67,6.94,.67,5.04,.67,2.04,2.91,0,6.47,0c1.09,0,1.9,.11,2.6,.28,.53,.11,.76,.14,.98,.14s.28,.06,.28,.2-.11,1.06-.11,2.97c0,.45-.06,.64-.2,.64-.17,0-.2-.14-.22-.36-.03-.34-.2-1.09-.36-1.4-.17-.31-.92-1.48-3.5-1.48-1.93,0-3.44,1.2-3.44,3.25,0,1.6,.73,2.6,3.42,4.7l.78,.62c3.3,2.6,4.09,4.34,4.09,6.58,0,1.15-.45,3.28-2.38,4.65-1.2,.84-2.72,1.18-4.23,1.18-1.32,0-2.6-.2-3.75-.76Z"/><path class="red"
            d="M36.48,13.44c0,2.69,0,4.9,.14,6.08,.08,.81,.25,1.43,1.09,1.54,.39,.06,1.01,.11,1.26,.11,.17,0,.22,.08,.22,.17,0,.14-.14,.22-.45,.22-1.54,0-3.3-.08-3.44-.08s-1.9,.08-2.74,.08c-.31,0-.45-.06-.45-.22,0-.08,.06-.17,.22-.17,.25,0,.59-.06,.84-.11,.56-.11,.7-.73,.81-1.54,.14-1.18,.14-3.39,.14-6.08v-2.94c0-.11-.08-.17-.17-.17h-11.87c-.08,0-.17,.03-.17,.17v2.94c0,2.69,0,4.9,.14,6.08,.08,.81,.25,1.43,1.09,1.54,.39,.06,1.01,.11,1.26,.11,.17,0,.22,.08,.22,.17,0,.14-.14,.22-.45,.22-1.54,0-3.3-.08-3.44-.08s-1.9,.08-2.74,.08c-.31,0-.45-.06-.45-.22,0-.08,.06-.17,.22-.17,.25,0,.59-.06,.84-.11,.56-.11,.7-.73,.81-1.54,.14-1.18,.14-3.39,.14-6.08v-4.93c0-4.37,0-5.15-.06-6.05-.06-.95-.28-1.4-1.2-1.6-.22-.06-.7-.08-.95-.08-.11,0-.22-.06-.22-.17,0-.17,.14-.22,.45-.22,1.26,0,3.02,.08,3.16,.08s1.9-.08,2.74-.08c.31,0,.45,.06,.45,.22,0,.11-.11,.17-.22,.17-.2,0-.36,.03-.7,.08-.76,.14-.98,.62-1.04,1.6-.06,.9-.06,1.68-.06,6.05v.59c0,.14,.08,.17,.17,.17h11.87c.08,0,.17-.03,.17-.17v-.59c0-4.37,0-5.15-.06-6.05-.06-.95-.28-1.4-1.2-1.6-.22-.06-.7-.08-.95-.08-.11,0-.22-.06-.22-.17,0-.17,.14-.22,.45-.22,1.26,0,3.02,.08,3.16,.08s1.9-.08,2.74-.08c.31,0,.45,.06,.45,.22,0,.11-.11,.17-.22,.17-.2,0-.36,.03-.7,.08-.76,.14-.98,.62-1.04,1.6-.06,.9-.06,1.68-.06,6.05v4.93Z"/><path class="red"
            d="M50.2,13.44c0,2.69,0,4.9,.14,6.08,.08,.81,.25,1.43,1.09,1.54,.39,.06,1.01,.11,1.26,.11,.17,0,.22,.08,.22,.17,0,.14-.14,.22-.45,.22-1.54,0-3.3-.08-3.44-.08s-1.9,.08-2.74,.08c-.31,0-.45-.06-.45-.22,0-.08,.06-.17,.22-.17,.25,0,.59-.06,.84-.11,.56-.11,.7-.73,.81-1.54,.14-1.18,.14-3.39,.14-6.08v-4.93c0-4.37,0-5.15-.06-6.05-.06-.95-.34-1.43-.95-1.57-.31-.08-.67-.11-.87-.11-.11,0-.22-.06-.22-.17,0-.17,.14-.22,.45-.22,.92,0,2.69,.08,2.83,.08s1.9-.08,2.74-.08c.31,0,.45,.06,.45,.22,0,.11-.11,.17-.22,.17-.2,0-.36,.03-.7,.08-.76,.14-.98,.62-1.04,1.6-.06,.9-.06,1.68-.06,6.05v4.93Z"/><path class="red"
            d="M74.87,14.42c0-2.27-.14-2.58-1.26-2.88-.22-.06-.7-.08-.95-.08-.11,0-.22-.06-.22-.17,0-.17,.14-.22,.45-.22,1.26,0,3.02,.08,3.16,.08s1.9-.08,2.74-.08c.31,0,.45,.06,.45,.22,0,.11-.11,.17-.22,.17-.2,0-.36,.03-.7,.08-.76,.14-.98,.62-1.04,1.6-.06,.9-.06,1.74-.06,2.91v3.14c0,1.26-.03,1.32-.36,1.51-1.79,.95-4.31,1.26-5.94,1.26-2.13,0-6.1-.28-9.21-3-1.71-1.48-3.33-4.48-3.33-7.98,0-4.48,2.18-7.64,4.68-9.21,2.52-1.57,5.29-1.76,7.45-1.76,1.76,0,3.75,.36,4.28,.48,.59,.14,1.57,.25,2.27,.28,.28,.03,.34,.14,.34,.25,0,.39-.2,1.18-.2,3.98,0,.45-.06,.59-.25,.59-.14,0-.17-.17-.2-.42-.03-.39-.17-1.18-.59-1.85-.7-1.06-2.97-2.27-6.58-2.27-1.76,0-3.86,.17-5.99,1.85-1.62,1.29-2.77,3.84-2.77,7.11,0,3.95,1.99,6.8,2.97,7.76,2.21,2.16,4.76,3,7.34,3,1.01,0,2.46-.17,3.19-.59,.36-.2,.56-.5,.56-.98v-4.76Z"/><path class="red"
            d="M91.14,1.09c.34-.92,.45-1.09,.62-1.09s.28,.14,.62,1.01c.42,1.06,4.82,12.63,6.52,16.88,1.01,2.49,1.82,2.94,2.41,3.11,.42,.14,.84,.17,1.12,.17,.17,0,.28,.03,.28,.17,0,.17-.25,.22-.56,.22-.42,0-2.46,0-4.4-.06-.53-.03-.84-.03-.84-.2,0-.11,.08-.17,.2-.2,.17-.06,.34-.31,.17-.76l-2.6-6.89c-.06-.11-.11-.17-.25-.17h-6.02c-.14,0-.22,.08-.28,.22l-1.68,4.96c-.25,.7-.39,1.37-.39,1.88,0,.56,.59,.81,1.06,.81h.28c.2,0,.28,.06,.28,.17,0,.17-.17,.22-.42,.22-.67,0-1.88-.08-2.18-.08s-1.85,.08-3.16,.08c-.36,0-.53-.06-.53-.22,0-.11,.11-.17,.25-.17,.2,0,.59-.03,.81-.06,1.29-.17,1.85-1.23,2.35-2.63L91.14,1.09Zm2.91,11.2c.14,0,.14-.08,.11-.2l-2.66-7.56c-.14-.42-.28-.42-.42,0l-2.46,7.56c-.06,.14,0,.2,.08,.2h5.35Z"/></g>
    </g>
</svg>