<svg id="_レイヤー_2" xmlns="http://www.w3.org/2000/svg" width="150.44" height="21.95" viewBox="0 0 150.44 21.95">
    <g id="_レイヤー_1-2">
        <g><path class="red"
            d="M.42,21.2c-.39-.2-.42-.31-.42-1.06,0-1.4,.11-2.52,.14-2.97,.03-.31,.08-.45,.22-.45,.17,0,.2,.08,.2,.31,0,.25,0,.64,.08,1.04,.42,2.07,2.27,2.86,4.14,2.86,2.69,0,4-1.93,4-3.72,0-1.93-.81-3.05-3.22-5.04l-1.26-1.04C1.34,8.68,.67,6.94,.67,5.04,.67,2.04,2.91,0,6.47,0c1.09,0,1.9,.11,2.6,.28,.53,.11,.76,.14,.98,.14s.28,.06,.28,.2-.11,1.06-.11,2.97c0,.45-.06,.64-.2,.64-.17,0-.2-.14-.22-.36-.03-.34-.2-1.09-.36-1.4-.17-.31-.92-1.48-3.5-1.48-1.93,0-3.44,1.2-3.44,3.25,0,1.6,.73,2.6,3.42,4.7l.78,.62c3.3,2.6,4.09,4.34,4.09,6.58,0,1.15-.45,3.28-2.38,4.65-1.2,.84-2.72,1.18-4.23,1.18-1.32,0-2.6-.2-3.75-.76Z"/>
            <path class="red"
            d="M36.48,13.44c0,2.69,0,4.9,.14,6.08,.08,.81,.25,1.43,1.09,1.54,.39,.06,1.01,.11,1.26,.11,.17,0,.22,.08,.22,.17,0,.14-.14,.22-.45,.22-1.54,0-3.3-.08-3.44-.08s-1.9,.08-2.74,.08c-.31,0-.45-.06-.45-.22,0-.08,.06-.17,.22-.17,.25,0,.59-.06,.84-.11,.56-.11,.7-.73,.81-1.54,.14-1.18,.14-3.39,.14-6.08v-2.94c0-.11-.08-.17-.17-.17h-11.87c-.08,0-.17,.03-.17,.17v2.94c0,2.69,0,4.9,.14,6.08,.08,.81,.25,1.43,1.09,1.54,.39,.06,1.01,.11,1.26,.11,.17,0,.22,.08,.22,.17,0,.14-.14,.22-.45,.22-1.54,0-3.3-.08-3.44-.08s-1.9,.08-2.74,.08c-.31,0-.45-.06-.45-.22,0-.08,.06-.17,.22-.17,.25,0,.59-.06,.84-.11,.56-.11,.7-.73,.81-1.54,.14-1.18,.14-3.39,.14-6.08v-4.93c0-4.37,0-5.15-.06-6.05-.06-.95-.28-1.4-1.2-1.6-.22-.06-.7-.08-.95-.08-.11,0-.22-.06-.22-.17,0-.17,.14-.22,.45-.22,1.26,0,3.02,.08,3.16,.08s1.9-.08,2.74-.08c.31,0,.45,.06,.45,.22,0,.11-.11,.17-.22,.17-.2,0-.36,.03-.7,.08-.76,.14-.98,.62-1.04,1.6-.06,.9-.06,1.68-.06,6.05v.59c0,.14,.08,.17,.17,.17h11.87c.08,0,.17-.03,.17-.17v-.59c0-4.37,0-5.15-.06-6.05-.06-.95-.28-1.4-1.2-1.6-.22-.06-.7-.08-.95-.08-.11,0-.22-.06-.22-.17,0-.17,.14-.22,.45-.22,1.26,0,3.02,.08,3.16,.08s1.9-.08,2.74-.08c.31,0,.45,.06,.45,.22,0,.11-.11,.17-.22,.17-.2,0-.36,.03-.7,.08-.76,.14-.98,.62-1.04,1.6-.06,.9-.06,1.68-.06,6.05v4.93Z"/>
            <path class="red"
            d="M50.2,13.44c0,2.69,0,4.9,.14,6.08,.08,.81,.25,1.43,1.09,1.54,.39,.06,1.01,.11,1.26,.11,.17,0,.22,.08,.22,.17,0,.14-.14,.22-.45,.22-1.54,0-3.3-.08-3.44-.08s-1.9,.08-2.74,.08c-.31,0-.45-.06-.45-.22,0-.08,.06-.17,.22-.17,.25,0,.59-.06,.84-.11,.56-.11,.7-.73,.81-1.54,.14-1.18,.14-3.39,.14-6.08v-4.93c0-4.37,0-5.15-.06-6.05-.06-.95-.34-1.43-.95-1.57-.31-.08-.67-.11-.87-.11-.11,0-.22-.06-.22-.17,0-.17,.14-.22,.45-.22,.92,0,2.69,.08,2.83,.08s1.9-.08,2.74-.08c.31,0,.45,.06,.45,.22,0,.11-.11,.17-.22,.17-.2,0-.36,.03-.7,.08-.76,.14-.98,.62-1.04,1.6-.06,.9-.06,1.68-.06,6.05v4.93Z"/>
            <path class="red"
            d="M61.57,8.51c0-4.37,0-5.15-.06-6.05-.06-.95-.28-1.4-1.2-1.6-.22-.06-.7-.08-.95-.08-.11,0-.22-.06-.22-.17,0-.17,.14-.22,.45-.22,1.26,0,2.91,.08,3.08,.08,.25,0,1.88-.08,2.72-.08,.31,0,.45,.06,.45,.22,0,.11-.11,.17-.22,.17-.2,0-.36,.03-.7,.08-.76,.14-.98,.62-1.04,1.6-.06,.9-.06,1.68-.06,6.05v1.68h.11c.48-.53,5.54-5.68,6.55-6.78,.78-.81,1.51-1.54,1.51-2.02,0-.34-.14-.5-.36-.59-.14-.06-.25-.11-.25-.22,0-.14,.14-.2,.34-.2,.56,0,1.43,.08,2.1,.08,.14,0,1.99-.08,2.69-.08,.31,0,.42,.06,.42,.2s-.06,.2-.28,.2c-.42,0-1.01,.14-1.57,.39-1.15,.5-1.76,1.2-3.02,2.41-.7,.67-5.57,5.43-6.16,6.13,.73,.81,6.55,6.83,7.7,7.9,2.35,2.18,2.83,2.63,4.17,3.19,.73,.31,1.54,.36,1.74,.36s.36,.06,.36,.17c0,.14-.14,.22-.62,.22h-1.43c-.78,0-1.32,0-1.93-.06-1.48-.14-2.18-.76-3.39-1.71-1.26-1.04-7.2-7.45-8.54-9.1h-.14v2.74c0,2.69,0,4.9,.14,6.08,.08,.81,.25,1.43,1.09,1.54,.39,.06,.84,.11,1.09,.11,.17,0,.22,.08,.22,.17,0,.14-.14,.22-.45,.22-1.37,0-3-.08-3.22-.08s-1.85,.08-2.69,.08c-.31,0-.45-.06-.45-.22,0-.08,.06-.17,.22-.17,.25,0,.59-.06,.84-.11,.56-.11,.7-.73,.81-1.54,.14-1.18,.14-3.39,.14-6.08v-4.93Z"/>
            <path class="red"
            d="M91.87,0c6.3,0,11,3.98,11,10.5s-4.42,11.45-11.17,11.45c-7.67,0-10.86-5.96-10.86-11,0-4.54,3.3-10.95,11.03-10.95Zm.59,20.89c2.52,0,7.73-1.46,7.73-9.6,0-6.72-4.09-10.33-8.51-10.33-4.68,0-8.18,3.08-8.18,9.21,0,6.52,3.92,10.72,8.96,10.72Z"/>
            <path class="red"
            d="M111.05,8.51c0-4.37,0-5.15-.06-6.05-.06-.95-.28-1.4-1.2-1.6-.22-.06-.7-.08-.95-.08-.11,0-.22-.06-.22-.17,0-.17,.14-.22,.45-.22,1.26,0,2.91,.08,3.08,.08,.25,0,1.88-.08,2.72-.08,.31,0,.45,.06,.45,.22,0,.11-.11,.17-.22,.17-.2,0-.36,.03-.7,.08-.76,.14-.98,.62-1.04,1.6-.06,.9-.06,1.68-.06,6.05v1.68h.11c.48-.53,5.54-5.68,6.55-6.78,.78-.81,1.51-1.54,1.51-2.02,0-.34-.14-.5-.36-.59-.14-.06-.25-.11-.25-.22,0-.14,.14-.2,.34-.2,.56,0,1.43,.08,2.1,.08,.14,0,1.99-.08,2.69-.08,.31,0,.42,.06,.42,.2s-.06,.2-.28,.2c-.42,0-1.01,.14-1.57,.39-1.15,.5-1.76,1.2-3.02,2.41-.7,.67-5.57,5.43-6.16,6.13,.73,.81,6.55,6.83,7.7,7.9,2.35,2.18,2.83,2.63,4.17,3.19,.73,.31,1.54,.36,1.74,.36s.36,.06,.36,.17c0,.14-.14,.22-.62,.22h-1.43c-.78,0-1.32,0-1.93-.06-1.48-.14-2.18-.76-3.39-1.71-1.26-1.04-7.2-7.45-8.54-9.1h-.14v2.74c0,2.69,0,4.9,.14,6.08,.08,.81,.25,1.43,1.09,1.54,.39,.06,.84,.11,1.09,.11,.17,0,.22,.08,.22,.17,0,.14-.14,.22-.45,.22-1.37,0-3-.08-3.22-.08s-1.85,.08-2.69,.08c-.31,0-.45-.06-.45-.22,0-.08,.06-.17,.22-.17,.25,0,.59-.06,.84-.11,.56-.11,.7-.73,.81-1.54,.14-1.18,.14-3.39,.14-6.08v-4.93Z"/>
            <path class="red"
            d="M131.88,8.51c0-4.37,0-5.15-.06-6.05-.06-.95-.28-1.4-1.2-1.6-.22-.06-.7-.08-.95-.08-.11,0-.22-.06-.22-.17,0-.17,.14-.22,.45-.22,1.26,0,2.97,.08,3.22,.08s1.93-.08,2.77-.08c.31,0,.45,.06,.45,.22,0,.11-.11,.17-.22,.17-.2,0-.36,.03-.7,.08-.76,.11-.98,.62-1.04,1.6-.06,.9-.06,1.68-.06,6.05v3.92c0,4.03,.9,5.77,2.1,6.92,1.37,1.29,2.63,1.54,4.23,1.54,1.71,0,3.39-.81,4.4-2.02,1.29-1.6,1.62-3.98,1.62-6.86v-3.5c0-4.37,0-5.15-.06-6.05-.06-.95-.28-1.4-1.2-1.6-.22-.06-.7-.08-.95-.08-.11,0-.22-.06-.22-.17,0-.17,.14-.22,.45-.22,1.26,0,2.8,.08,2.97,.08,.2,0,1.51-.08,2.35-.08,.31,0,.45,.06,.45,.22,0,.11-.11,.17-.22,.17-.2,0-.36,.03-.7,.08-.76,.17-.98,.62-1.04,1.6-.06,.9-.06,1.68-.06,6.05v3c0,3.02-.34,6.38-2.58,8.37-2.02,1.79-4.12,2.07-5.77,2.07-.95,0-3.78-.11-5.77-1.99-1.37-1.32-2.44-3.28-2.44-7.36v-4.09Z"/></g>
    </g>
</svg>