<?xml version="1.0" encoding="utf-8"?>
<!-- Generator: Adobe Illustrator 28.0.0, SVG Export Plug-In . SVG Version: 6.00 Build 0)  -->
<svg version="1.1" id="_レイヤー_2" xmlns="http://www.w3.org/2000/svg" xmlns:xlink="http://www.w3.org/1999/xlink" x="0px"
	 y="0px" viewBox="0 0 172.1 22" style="enable-background:new 0 0 172.1 22;" xml:space="preserve">
<g id="_レイヤー_1-2">
	<g>
		<path d="M0.4,21.2C0,21,0,20.9,0,20.1c0-1.4,0.1-2.5,0.1-3c0-0.3,0.1-0.5,0.2-0.5c0.2,0,0.2,0.1,0.2,0.3c0,0.2,0,0.6,0.1,1
			c0.4,2.1,2.3,2.9,4.1,2.9c2.7,0,4-1.9,4-3.7c0-1.9-0.8-3-3.2-5l-1.3-1C1.3,8.7,0.7,6.9,0.7,5c0-3,2.2-5,5.8-5
			c1.1,0,1.9,0.1,2.6,0.3c0.5,0.1,0.8,0.1,1,0.1s0.3,0.1,0.3,0.2s-0.1,1.1-0.1,3c0,0.4-0.1,0.6-0.2,0.6c-0.2,0-0.2-0.1-0.2-0.4
			c0-0.3-0.2-1.1-0.4-1.4C9.3,2.2,8.5,1,5.9,1C4,1,2.5,2.2,2.5,4.2c0,1.6,0.7,2.6,3.4,4.7l0.8,0.6c3.3,2.6,4.1,4.3,4.1,6.6
			c0,1.1-0.4,3.3-2.4,4.6C7.2,21.6,5.7,22,4.2,22C2.9,22,1.6,21.8,0.4,21.2L0.4,21.2z"/>
		<path d="M36.5,13.4c0,2.7,0,4.9,0.1,6.1c0.1,0.8,0.2,1.4,1.1,1.5c0.4,0.1,1,0.1,1.3,0.1c0.2,0,0.2,0.1,0.2,0.2
			c0,0.1-0.1,0.2-0.5,0.2c-1.5,0-3.3-0.1-3.4-0.1s-1.9,0.1-2.7,0.1c-0.3,0-0.5-0.1-0.5-0.2c0-0.1,0.1-0.2,0.2-0.2
			c0.2,0,0.6-0.1,0.8-0.1c0.6-0.1,0.7-0.7,0.8-1.5c0.1-1.2,0.1-3.4,0.1-6.1v-2.9c0-0.1-0.1-0.2-0.2-0.2H22.1c-0.1,0-0.2,0-0.2,0.2
			v2.9c0,2.7,0,4.9,0.1,6.1c0.1,0.8,0.2,1.4,1.1,1.5c0.4,0.1,1,0.1,1.3,0.1c0.2,0,0.2,0.1,0.2,0.2c0,0.1-0.1,0.2-0.5,0.2
			c-1.5,0-3.3-0.1-3.4-0.1s-1.9,0.1-2.7,0.1c-0.3,0-0.5-0.1-0.5-0.2c0-0.1,0.1-0.2,0.2-0.2c0.2,0,0.6-0.1,0.8-0.1
			c0.6-0.1,0.7-0.7,0.8-1.5c0.1-1.2,0.1-3.4,0.1-6.1V8.5c0-4.4,0-5.2-0.1-6.1c-0.1-1-0.3-1.4-1.2-1.6c-0.2-0.1-0.7-0.1-1-0.1
			c-0.1,0-0.2-0.1-0.2-0.2c0-0.2,0.1-0.2,0.5-0.2c1.3,0,3,0.1,3.2,0.1s1.9-0.1,2.7-0.1c0.3,0,0.5,0.1,0.5,0.2c0,0.1-0.1,0.2-0.2,0.2
			c-0.2,0-0.4,0-0.7,0.1c-0.8,0.1-1,0.6-1,1.6c-0.1,0.9-0.1,1.7-0.1,6.1v0.6c0,0.1,0.1,0.2,0.2,0.2h11.9c0.1,0,0.2,0,0.2-0.2V8.5
			c0-4.4,0-5.2-0.1-6.1c-0.1-1-0.3-1.4-1.2-1.6c-0.2-0.1-0.7-0.1-1-0.1c-0.1,0-0.2-0.1-0.2-0.2c0-0.2,0.1-0.2,0.4-0.2
			c1.3,0,3,0.1,3.2,0.1s1.9-0.1,2.7-0.1c0.3,0,0.5,0.1,0.5,0.2c0,0.1-0.1,0.2-0.2,0.2c-0.2,0-0.4,0-0.7,0.1c-0.8,0.1-1,0.6-1,1.6
			c-0.1,0.9-0.1,1.7-0.1,6.1L36.5,13.4L36.5,13.4z"/>
		<path d="M50.2,13.4c0,2.7,0,4.9,0.1,6.1c0.1,0.8,0.2,1.4,1.1,1.5c0.4,0.1,1,0.1,1.3,0.1c0.2,0,0.2,0.1,0.2,0.2
			c0,0.1-0.1,0.2-0.5,0.2c-1.5,0-3.3-0.1-3.4-0.1s-1.9,0.1-2.7,0.1c-0.3,0-0.5-0.1-0.5-0.2c0-0.1,0.1-0.2,0.2-0.2
			c0.2,0,0.6-0.1,0.8-0.1c0.6-0.1,0.7-0.7,0.8-1.5c0.1-1.2,0.1-3.4,0.1-6.1V8.5c0-4.4,0-5.2-0.1-6.1c-0.1-1-0.3-1.4-1-1.6
			c-0.3-0.1-0.7-0.1-0.9-0.1c-0.1,0-0.2-0.1-0.2-0.2c0-0.2,0.1-0.2,0.5-0.2c0.9,0,2.7,0.1,2.8,0.1s1.9-0.1,2.7-0.1
			c0.3,0,0.5,0.1,0.5,0.2c0,0.1-0.1,0.2-0.2,0.2c-0.2,0-0.4,0-0.7,0.1c-0.8,0.1-1,0.6-1,1.6c-0.1,0.9-0.1,1.7-0.1,6.1L50.2,13.4
			L50.2,13.4z"/>
		<path d="M69.3,20.4c2.9,0,3.8-0.5,4.4-1.4c0.2-0.4,0.5-1.1,0.6-1.5c0.1-0.3,0.1-0.5,0.2-0.5c0.2,0,0.2,0.1,0.2,0.6
			c0,0.9-0.4,2.5-0.6,3.2c-0.2,0.7-0.2,0.7-0.8,0.7c-4.7,0-9.4-0.1-14.3-0.1c-0.3,0-0.5,0-0.5-0.2c0-0.1,0.1-0.3,0.4-0.8
			c4.2-6.3,8.4-12.6,12.3-18.9h-6.1c-1.4,0-3.1,0.1-4,0.6c-1,0.5-1.5,1.6-1.6,2.2c-0.1,0.4-0.2,0.5-0.3,0.5s-0.2-0.1-0.2-0.4
			c0-0.3,0.4-2.9,0.6-3.7c0.1-0.4,0.1-0.5,0.3-0.5c0.2,0,0.4,0.2,1.2,0.2c2.7,0.1,4,0.1,4.9,0.1h7.8c0.4,0,0.6,0.1,0.6,0.2
			c0,0.1,0,0.2-0.1,0.3C70.2,7.5,66,13.9,61.7,20.4L69.3,20.4L69.3,20.4z"/>
		<path d="M80.7,8.5c0-4.4,0-5.2-0.1-6.1c-0.1-1-0.3-1.4-1.2-1.6c-0.2-0.1-0.7-0.1-0.9-0.1c-0.1,0-0.2-0.1-0.2-0.2
			c0-0.2,0.1-0.2,0.4-0.2c1.3,0,3,0.1,3.2,0.1s1.9-0.1,2.8-0.1c0.3,0,0.4,0.1,0.4,0.2c0,0.1-0.1,0.2-0.2,0.2c-0.2,0-0.4,0-0.7,0.1
			c-0.8,0.1-1,0.6-1,1.6c-0.1,0.9-0.1,1.7-0.1,6.1v3.9c0,4,0.9,5.8,2.1,6.9c1.4,1.3,2.6,1.5,4.2,1.5c1.7,0,3.4-0.8,4.4-2
			c1.3-1.6,1.6-4,1.6-6.9V8.5c0-4.4,0-5.2-0.1-6.1c-0.1-1-0.3-1.4-1.2-1.6c-0.2-0.1-0.7-0.1-0.9-0.1c-0.1,0-0.2-0.1-0.2-0.2
			c0-0.2,0.1-0.2,0.4-0.2c1.3,0,2.8,0.1,3,0.1c0.2,0,1.5-0.1,2.3-0.1c0.3,0,0.4,0.1,0.4,0.2c0,0.1-0.1,0.2-0.2,0.2
			c-0.2,0-0.4,0-0.7,0.1c-0.8,0.2-1,0.6-1,1.6c-0.1,0.9-0.1,1.7-0.1,6.1v3c0,3-0.3,6.4-2.6,8.4c-2,1.8-4.1,2.1-5.8,2.1
			c-0.9,0-3.8-0.1-5.8-2c-1.4-1.3-2.4-3.3-2.4-7.4L80.7,8.5L80.7,8.5z"/>
		<path d="M114.8,0c6.3,0,11,4,11,10.5s-4.4,11.4-11.2,11.4c-7.7,0-10.9-6-10.9-11C103.8,6.4,107.1,0,114.8,0z M115.4,20.9
			c2.5,0,7.7-1.5,7.7-9.6c0-6.7-4.1-10.3-8.5-10.3c-4.7,0-8.2,3.1-8.2,9.2C106.5,16.7,110.4,20.9,115.4,20.9z"/>
		<path d="M134,8.5c0-4.4,0-5.2-0.1-6.1c-0.1-1-0.3-1.4-1.2-1.6c-0.2-0.1-0.7-0.1-0.9-0.1c-0.1,0-0.2-0.1-0.2-0.2
			c0-0.2,0.1-0.2,0.4-0.2c1.3,0,2.9,0.1,3.1,0.1c0.2,0,1.9-0.1,2.7-0.1c0.3,0,0.4,0.1,0.4,0.2c0,0.1-0.1,0.2-0.2,0.2
			c-0.2,0-0.4,0-0.7,0.1c-0.8,0.1-1,0.6-1,1.6c-0.1,0.9-0.1,1.7-0.1,6.1v1.7h0.1c0.5-0.5,5.5-5.7,6.6-6.8c0.8-0.8,1.5-1.5,1.5-2
			c0-0.3-0.1-0.5-0.4-0.6c-0.1-0.1-0.2-0.1-0.2-0.2c0-0.1,0.1-0.2,0.3-0.2c0.6,0,1.4,0.1,2.1,0.1c0.1,0,2-0.1,2.7-0.1
			c0.3,0,0.4,0.1,0.4,0.2s-0.1,0.2-0.3,0.2c-0.4,0-1,0.1-1.6,0.4c-1.1,0.5-1.8,1.2-3,2.4c-0.7,0.7-5.6,5.4-6.2,6.1
			c0.7,0.8,6.6,6.8,7.7,7.9c2.4,2.2,2.8,2.6,4.2,3.2c0.7,0.3,1.5,0.4,1.7,0.4s0.4,0.1,0.4,0.2c0,0.1-0.1,0.2-0.6,0.2h-1.4
			c-0.8,0-1.3,0-1.9-0.1c-1.5-0.1-2.2-0.8-3.4-1.7c-1.3-1-7.2-7.4-8.5-9.1h-0.1v2.7c0,2.7,0,4.9,0.1,6.1c0.1,0.8,0.2,1.4,1.1,1.5
			c0.4,0.1,0.8,0.1,1.1,0.1c0.2,0,0.2,0.1,0.2,0.2c0,0.1-0.1,0.2-0.4,0.2c-1.4,0-3-0.1-3.2-0.1s-1.9,0.1-2.7,0.1
			c-0.3,0-0.4-0.1-0.4-0.2c0-0.1,0.1-0.2,0.2-0.2c0.2,0,0.6-0.1,0.8-0.1c0.6-0.1,0.7-0.7,0.8-1.5c0.1-1.2,0.1-3.4,0.1-6.1L134,8.5
			L134,8.5z"/>
		<path d="M160.5,1.1c0.3-0.9,0.4-1.1,0.6-1.1s0.3,0.1,0.6,1c0.4,1.1,4.8,12.6,6.5,16.9c1,2.5,1.8,2.9,2.4,3.1
			c0.4,0.1,0.8,0.2,1.1,0.2c0.2,0,0.3,0,0.3,0.2c0,0.2-0.2,0.2-0.6,0.2c-0.4,0-2.5,0-4.4-0.1c-0.5,0-0.8,0-0.8-0.2
			c0-0.1,0.1-0.2,0.2-0.2c0.2-0.1,0.3-0.3,0.2-0.8l-2.6-6.9c-0.1-0.1-0.1-0.2-0.2-0.2h-6c-0.1,0-0.2,0.1-0.3,0.2l-1.7,5
			c-0.2,0.7-0.4,1.4-0.4,1.9c0,0.6,0.6,0.8,1.1,0.8h0.3c0.2,0,0.3,0.1,0.3,0.2c0,0.2-0.2,0.2-0.4,0.2c-0.7,0-1.9-0.1-2.2-0.1
			s-1.9,0.1-3.2,0.1c-0.4,0-0.5-0.1-0.5-0.2c0-0.1,0.1-0.2,0.2-0.2c0.2,0,0.6,0,0.8-0.1c1.3-0.2,1.9-1.2,2.4-2.6L160.5,1.1
			L160.5,1.1z M163.4,12.3c0.1,0,0.1-0.1,0.1-0.2l-2.7-7.6c-0.1-0.4-0.3-0.4-0.4,0l-2.5,7.6c-0.1,0.1,0,0.2,0.1,0.2H163.4z"/>
	</g>
</g>
</svg>
