<?xml version="1.0" encoding="UTF-8"?>
<svg id="_レイヤー_2" data-name="レイヤー 2" xmlns="http://www.w3.org/2000/svg" viewBox="0 0 291.61 18.03">
  <defs>
    <style>
      .text-svg {
        fill: #040000;
        stroke-width: 0px;
      }
    </style>
  </defs>
  <g id="_レイヤー_1-2" data-name="レイヤー 1">
    <g>
      <path class="red" d="m.35,17.41c-.32-.16-.35-.25-.35-.87,0-1.15.09-2.07.12-2.44.02-.25.07-.37.18-.37.14,0,.16.07.16.25,0,.21,0,.53.07.85.34,1.7,1.86,2.35,3.4,2.35,2.21,0,3.29-1.59,3.29-3.06,0-1.59-.67-2.51-2.64-4.14l-1.03-.85C1.1,7.13.55,5.7.55,4.14.55,1.68,2.39,0,5.31,0c.9,0,1.56.09,2.14.23.44.09.62.11.8.11s.23.05.23.16-.09.87-.09,2.44c0,.37-.05.53-.16.53-.14,0-.16-.11-.18-.3-.02-.28-.16-.9-.3-1.15-.14-.25-.76-1.22-2.88-1.22-1.59,0-2.83.99-2.83,2.67,0,1.31.6,2.14,2.81,3.86l.64.51c2.71,2.14,3.36,3.56,3.36,5.4,0,.94-.37,2.69-1.96,3.82-.99.69-2.23.97-3.47.97-1.08,0-2.14-.16-3.08-.62Z"/>
      <path class="text-svg" d="m14.74,6.99c0-3.59,0-4.23-.05-4.97-.05-.78-.23-1.15-.99-1.31-.18-.05-.57-.07-.78-.07-.09,0-.18-.05-.18-.14,0-.14.12-.18.37-.18,1.04,0,2.44.07,2.64.07s1.59-.07,2.28-.07c.25,0,.37.05.37.18,0,.09-.09.14-.18.14-.16,0-.3.02-.57.07-.62.09-.81.51-.85,1.31-.05.74-.05,1.38-.05,4.97v3.22c0,3.31.74,4.74,1.72,5.68,1.13,1.06,2.16,1.26,3.47,1.26,1.4,0,2.78-.67,3.61-1.66,1.06-1.31,1.33-3.27,1.33-5.63v-2.87c0-3.59,0-4.23-.05-4.97-.05-.78-.23-1.15-.99-1.31-.18-.05-.58-.07-.78-.07-.09,0-.18-.05-.18-.14,0-.14.12-.18.37-.18,1.03,0,2.3.07,2.44.07.16,0,1.24-.07,1.93-.07.25,0,.37.05.37.18,0,.09-.09.14-.18.14-.16,0-.3.02-.58.07-.62.14-.8.51-.85,1.31-.05.74-.05,1.38-.05,4.97v2.46c0,2.48-.28,5.24-2.12,6.88-1.66,1.47-3.38,1.7-4.74,1.7-.78,0-3.1-.09-4.74-1.63-1.13-1.08-2-2.69-2-6.05v-3.36Z"/>
      <path class="text-svg" d="m36.32,6.99c0-3.59,0-4.23-.05-4.97-.05-.78-.23-1.15-.99-1.31-.18-.05-.58-.07-.78-.07-.09,0-.18-.05-.18-.14,0-.14.12-.18.37-.18,1.03,0,2.41.07,2.6.07.51,0,1.84-.07,2.9-.07,2.88,0,3.91.97,4.28,1.31.51.48,1.15,1.52,1.15,2.74,0,3.27-2.39,5.47-5.66,5.47-.12,0-.37,0-.48-.02-.11,0-.25-.05-.25-.16,0-.18.14-.21.62-.21,2.23,0,3.98-1.63,3.98-3.75,0-.76-.07-2.3-1.29-3.54-1.22-1.24-2.62-1.15-3.15-1.15-.39,0-.78.05-.99.14-.14.05-.18.21-.18.44v9.45c0,2.21,0,4.02.12,4.99.07.67.21,1.17.9,1.26.32.05.83.09,1.04.09.14,0,.18.07.18.14,0,.11-.11.18-.37.18-1.26,0-2.71-.07-2.83-.07-.07,0-1.52.07-2.21.07-.25,0-.37-.05-.37-.18,0-.07.05-.14.18-.14.21,0,.48-.05.69-.09.46-.09.57-.6.67-1.26.11-.97.11-2.78.11-4.99v-4.05Z"/>
      <path class="text-svg" d="m52.23,6.99c0-3.59,0-4.23-.05-4.97-.05-.78-.23-1.15-.99-1.31-.18-.05-.58-.07-.78-.07-.09,0-.18-.05-.18-.14,0-.14.12-.18.37-.18,1.03,0,2.41.07,2.6.07.51,0,1.84-.07,2.9-.07,2.88,0,3.91.97,4.28,1.31.51.48,1.15,1.52,1.15,2.74,0,3.27-2.39,5.47-5.66,5.47-.12,0-.37,0-.48-.02-.11,0-.25-.05-.25-.16,0-.18.14-.21.62-.21,2.23,0,3.98-1.63,3.98-3.75,0-.76-.07-2.3-1.29-3.54-1.22-1.24-2.62-1.15-3.15-1.15-.39,0-.78.05-.99.14-.14.05-.18.21-.18.44v9.45c0,2.21,0,4.02.12,4.99.07.67.21,1.17.9,1.26.32.05.83.09,1.04.09.14,0,.18.07.18.14,0,.11-.11.18-.37.18-1.26,0-2.71-.07-2.83-.07-.07,0-1.52.07-2.21.07-.25,0-.37-.05-.37-.18,0-.07.05-.14.18-.14.21,0,.48-.05.69-.09.46-.09.57-.6.67-1.26.11-.97.11-2.78.11-4.99v-4.05Z"/>
      <path class="text-svg" d="m74.58,0c5.17,0,9.04,3.27,9.04,8.62s-3.63,9.4-9.17,9.4c-6.3,0-8.92-4.9-8.92-9.04,0-3.73,2.71-8.99,9.06-8.99Zm.48,17.15c2.07,0,6.35-1.2,6.35-7.89,0-5.52-3.36-8.49-6.99-8.49-3.84,0-6.71,2.53-6.71,7.57,0,5.36,3.22,8.81,7.36,8.81Z"/>
      <path class="text-svg" d="m90.34,6.99c0-3.59,0-4.23-.05-4.97-.05-.78-.23-1.15-.99-1.31-.18-.05-.58-.07-.78-.07-.09,0-.18-.05-.18-.14,0-.14.11-.18.37-.18,1.03,0,2.48.07,2.6.07.25,0,2-.07,2.71-.07,1.45,0,2.99.14,4.21,1.01.58.41,1.59,1.54,1.59,3.13,0,1.7-.71,3.4-2.78,5.31,1.89,2.41,3.45,4.46,4.78,5.89,1.24,1.31,2.23,1.56,2.81,1.66.44.07.76.07.9.07.12,0,.21.07.21.14,0,.14-.14.18-.55.18h-1.63c-1.29,0-1.86-.11-2.46-.44-.99-.53-1.79-1.66-3.1-3.38-.97-1.26-2.05-2.81-2.51-3.4-.09-.09-.16-.14-.3-.14l-2.83-.05c-.12,0-.16.07-.16.18v.55c0,2.21,0,4.02.12,4.99.07.67.21,1.17.9,1.26.32.05.83.09,1.04.09.14,0,.18.07.18.14,0,.11-.12.18-.37.18-1.26,0-2.71-.07-2.83-.07-.02,0-1.47.07-2.16.07-.25,0-.37-.05-.37-.18,0-.07.05-.14.18-.14.21,0,.48-.05.69-.09.46-.09.57-.6.67-1.26.11-.97.11-2.78.11-4.99v-4.05Zm1.84,2c0,.11.05.21.16.28.34.21,1.4.37,2.41.37.55,0,1.2-.07,1.72-.44.8-.55,1.4-1.79,1.4-3.54,0-2.87-1.52-4.6-3.98-4.6-.69,0-1.31.07-1.54.14-.11.05-.18.14-.18.28v7.52Z"/>
      <path class="text-svg" d="m113.73,11.04c0,2.21,0,4.02.12,4.99.07.67.21,1.17.9,1.26.32.05.83.09,1.03.09.14,0,.18.07.18.14,0,.11-.12.18-.37.18-1.26,0-2.71-.07-2.83-.07s-1.56.07-2.25.07c-.25,0-.37-.05-.37-.18,0-.07.05-.14.18-.14.21,0,.48-.05.69-.09.46-.09.58-.6.67-1.26.12-.97.12-2.78.12-4.99V1.31l-3.4.05c-1.43.02-1.98.18-2.35.74-.25.39-.32.55-.39.71-.07.18-.14.23-.23.23-.07,0-.11-.07-.11-.21,0-.23.46-2.21.51-2.39.05-.14.14-.44.23-.44.16,0,.39.23,1.01.28.67.07,1.54.11,1.82.11h8.62c.74,0,1.26-.05,1.63-.11.35-.05.55-.11.64-.11.11,0,.11.14.11.28,0,.69-.07,2.28-.07,2.53,0,.21-.07.3-.16.3-.12,0-.16-.07-.18-.39l-.02-.25c-.07-.69-.62-1.22-2.83-1.26l-2.9-.05v9.73Z"/>
      <path class="text-svg" d="m125.88,6.99c0-3.59,0-4.23-.05-4.97-.05-.78-.23-1.15-.99-1.31-.18-.05-.58-.07-.78-.07-.09,0-.18-.05-.18-.14,0-.14.12-.18.37-.18.53,0,1.15,0,1.66.02l.94.05c.16,0,4.74,0,5.27-.02.44-.02.8-.07.99-.11.12-.02.21-.11.32-.11.07,0,.09.09.09.21,0,.16-.12.44-.18,1.08-.02.23-.07,1.24-.12,1.52-.02.11-.07.25-.16.25-.14,0-.18-.11-.18-.3,0-.16-.02-.55-.14-.83-.16-.37-.39-.64-1.63-.78-.39-.05-2.9-.07-3.15-.07-.09,0-.14.07-.14.23v6.35c0,.16.02.23.14.23.3,0,3.13,0,3.66-.05.55-.05.87-.09,1.08-.32.16-.18.25-.3.34-.3.07,0,.12.05.12.18s-.12.53-.18,1.29c-.05.46-.09,1.31-.09,1.47,0,.18,0,.44-.16.44-.12,0-.16-.09-.16-.21,0-.23,0-.46-.09-.76-.09-.32-.3-.71-1.2-.8-.62-.07-2.9-.11-3.29-.11-.12,0-.16.07-.16.16v2.02c0,.78-.02,3.45,0,3.93.07,1.59.41,1.89,2.67,1.89.6,0,1.61,0,2.21-.25s.87-.71,1.04-1.66c.05-.25.09-.34.21-.34.14,0,.14.18.14.34,0,.18-.18,1.75-.3,2.23-.16.6-.34.6-1.24.6-1.72,0-2.99-.05-3.89-.07-.9-.05-1.45-.07-1.79-.07-.05,0-.44,0-.92.02-.46,0-.99.05-1.33.05-.25,0-.37-.05-.37-.18,0-.07.05-.14.18-.14.21,0,.48-.05.69-.09.46-.09.57-.6.67-1.26.11-.97.11-2.78.11-4.99v-4.05Z"/>
      <path class="text-svg" d="m141.06,6.99c0-3.59,0-4.23-.05-4.97-.05-.78-.23-1.15-.99-1.31-.18-.05-.58-.07-.78-.07-.09,0-.18-.05-.18-.14,0-.14.12-.18.37-.18,1.03,0,2.48.07,2.6.07.25,0,2-.07,2.71-.07,1.45,0,2.99.14,4.21,1.01.58.41,1.59,1.54,1.59,3.13,0,1.7-.71,3.4-2.78,5.31,1.89,2.41,3.45,4.46,4.78,5.89,1.24,1.31,2.23,1.56,2.81,1.66.44.07.76.07.9.07.12,0,.21.07.21.14,0,.14-.14.18-.55.18h-1.63c-1.29,0-1.86-.11-2.46-.44-.99-.53-1.79-1.66-3.1-3.38-.97-1.26-2.05-2.81-2.51-3.4-.09-.09-.16-.14-.3-.14l-2.83-.05c-.12,0-.16.07-.16.18v.55c0,2.21,0,4.02.12,4.99.07.67.21,1.17.9,1.26.32.05.83.09,1.04.09.14,0,.18.07.18.14,0,.11-.12.18-.37.18-1.26,0-2.71-.07-2.83-.07-.02,0-1.47.07-2.16.07-.25,0-.37-.05-.37-.18,0-.07.05-.14.18-.14.21,0,.48-.05.69-.09.46-.09.57-.6.67-1.26.11-.97.11-2.78.11-4.99v-4.05Zm1.84,2c0,.11.05.21.16.28.34.21,1.4.37,2.41.37.55,0,1.2-.07,1.72-.44.81-.55,1.4-1.79,1.4-3.54,0-2.87-1.52-4.6-3.98-4.6-.69,0-1.31.07-1.54.14-.11.05-.18.14-.18.28v7.52Z"/>
      <path class="text-svg" d="m185.28,14.76c.09.83.25,2.12,1.24,2.44.67.21,1.26.21,1.49.21.12,0,.18.02.18.11,0,.14-.21.21-.48.21-.51,0-2.99-.02-3.84-.09-.53-.05-.64-.11-.64-.23,0-.09.05-.14.16-.16.12-.02.14-.41.09-.83l-1.1-11.93h-.07l-5.63,11.96c-.48,1.01-.55,1.22-.76,1.22-.16,0-.28-.23-.71-1.06-.6-1.13-2.58-5.1-2.69-5.33-.21-.41-2.78-5.93-3.04-6.55h-.09l-.92,10.67c-.02.37-.02.78-.02,1.17,0,.34.25.64.6.71.39.09.74.11.87.11.09,0,.18.05.18.11,0,.16-.14.21-.41.21-.85,0-1.95-.07-2.14-.07-.21,0-1.31.07-1.93.07-.23,0-.39-.05-.39-.21,0-.07.12-.11.23-.11.18,0,.34,0,.69-.07.76-.14.83-1.03.92-1.91l1.66-14.99c.02-.25.12-.41.25-.41s.23.09.35.34l7.04,14.46,6.76-14.44c.09-.21.18-.37.34-.37s.23.18.28.62l1.54,14.14Z"/>
      <path class="text-svg" d="m193.47,6.99c0-3.59,0-4.23-.05-4.97-.05-.78-.23-1.15-.99-1.31-.18-.05-.58-.07-.78-.07-.09,0-.18-.05-.18-.14,0-.14.12-.18.37-.18.53,0,1.15,0,1.66.02l.94.05c.16,0,4.74,0,5.27-.02.44-.02.8-.07.99-.11.12-.02.21-.11.32-.11.07,0,.09.09.09.21,0,.16-.12.44-.18,1.08-.02.23-.07,1.24-.12,1.52-.02.11-.07.25-.16.25-.14,0-.18-.11-.18-.3,0-.16-.02-.55-.14-.83-.16-.37-.39-.64-1.63-.78-.39-.05-2.9-.07-3.15-.07-.09,0-.14.07-.14.23v6.35c0,.16.02.23.14.23.3,0,3.13,0,3.66-.05.55-.05.87-.09,1.08-.32.16-.18.25-.3.34-.3.07,0,.12.05.12.18s-.12.53-.18,1.29c-.05.46-.09,1.31-.09,1.47,0,.18,0,.44-.16.44-.12,0-.16-.09-.16-.21,0-.23,0-.46-.09-.76-.09-.32-.3-.71-1.2-.8-.62-.07-2.9-.11-3.29-.11-.12,0-.16.07-.16.16v2.02c0,.78-.02,3.45,0,3.93.07,1.59.41,1.89,2.67,1.89.6,0,1.61,0,2.21-.25s.87-.71,1.04-1.66c.05-.25.09-.34.21-.34.14,0,.14.18.14.34,0,.18-.18,1.75-.3,2.23-.16.6-.34.6-1.24.6-1.72,0-2.99-.05-3.89-.07-.9-.05-1.45-.07-1.79-.07-.05,0-.44,0-.92.02-.46,0-.99.05-1.33.05-.25,0-.37-.05-.37-.18,0-.07.05-.14.18-.14.21,0,.48-.05.69-.09.46-.09.57-.6.67-1.26.11-.97.11-2.78.11-4.99v-4.05Z"/>
      <path class="text-svg" d="m225.76,14.76c.09.83.25,2.12,1.24,2.44.67.21,1.26.21,1.49.21.12,0,.18.02.18.11,0,.14-.21.21-.48.21-.51,0-2.99-.02-3.84-.09-.53-.05-.64-.11-.64-.23,0-.09.05-.14.16-.16.12-.02.14-.41.09-.83l-1.1-11.93h-.07l-5.63,11.96c-.48,1.01-.55,1.22-.76,1.22-.16,0-.28-.23-.71-1.06-.6-1.13-2.58-5.1-2.69-5.33-.21-.41-2.78-5.93-3.04-6.55h-.09l-.92,10.67c-.02.37-.02.78-.02,1.17,0,.34.25.64.6.71.39.09.74.11.87.11.09,0,.18.05.18.11,0,.16-.14.21-.41.21-.85,0-1.95-.07-2.14-.07-.21,0-1.31.07-1.93.07-.23,0-.39-.05-.39-.21,0-.07.12-.11.23-.11.18,0,.34,0,.69-.07.76-.14.83-1.03.92-1.91l1.66-14.99c.02-.25.12-.41.25-.41s.23.09.35.34l7.04,14.46,6.76-14.44c.09-.21.18-.37.34-.37s.23.18.28.62l1.54,14.14Z"/>
      <path class="text-svg" d="m233.95,6.99c0-3.59,0-4.23-.05-4.97-.05-.78-.23-1.15-.99-1.31-.18-.05-.58-.07-.78-.07-.09,0-.18-.05-.18-.14,0-.14.12-.18.37-.18,1.03,0,2.48.07,2.6.07.55,0,1.45-.07,2.51-.07,3.77,0,4.6,2.3,4.6,3.45,0,1.89-1.08,3.01-2.16,4.14,1.7.53,3.98,2.16,3.98,4.85,0,2.46-1.93,5.01-5.86,5.01-.25,0-.99-.05-1.66-.07-.67-.05-1.31-.07-1.4-.07-.05,0-.44,0-.92.02-.46,0-.99.05-1.33.05-.25,0-.37-.05-.37-.18,0-.07.05-.14.18-.14.21,0,.48-.05.69-.09.46-.09.57-.6.67-1.26.11-.97.11-2.78.11-4.99v-4.05Zm1.84.51c0,.16.05.21.16.25.14.02.55.09,1.4.09,1.29,0,1.61-.05,2.09-.6.48-.55.83-1.38.83-2.32,0-1.91-.85-3.96-3.1-3.96-.25,0-.74.02-1.1.11-.21.05-.28.11-.28.25v6.16Zm0,2.44c0,1.77,0,4.62.02,4.97.07,1.13.07,1.45.78,1.79.62.3,1.61.34,2.02.34,1.24,0,3.24-.67,3.24-3.27,0-1.38-.46-3.38-2.23-4.6-.78-.53-1.36-.6-1.91-.67-.3-.05-1.45-.05-1.79-.05-.09,0-.14.05-.14.16v1.31Z"/>
      <path class="text-svg" d="m250.9,6.99c0-3.59,0-4.23-.05-4.97-.05-.78-.23-1.15-.99-1.31-.18-.05-.58-.07-.78-.07-.09,0-.18-.05-.18-.14,0-.14.11-.18.37-.18.53,0,1.15,0,1.66.02l.94.05c.16,0,4.74,0,5.27-.02.44-.02.8-.07.99-.11.12-.02.21-.11.32-.11.07,0,.09.09.09.21,0,.16-.12.44-.18,1.08-.02.23-.07,1.24-.12,1.52-.02.11-.07.25-.16.25-.14,0-.18-.11-.18-.3,0-.16-.02-.55-.14-.83-.16-.37-.39-.64-1.63-.78-.39-.05-2.9-.07-3.15-.07-.09,0-.14.07-.14.23v6.35c0,.16.02.23.14.23.3,0,3.13,0,3.66-.05.55-.05.87-.09,1.08-.32.16-.18.25-.3.34-.3.07,0,.12.05.12.18s-.12.53-.18,1.29c-.05.46-.09,1.31-.09,1.47,0,.18,0,.44-.16.44-.12,0-.16-.09-.16-.21,0-.23,0-.46-.09-.76-.09-.32-.3-.71-1.2-.8-.62-.07-2.9-.11-3.29-.11-.12,0-.16.07-.16.16v2.02c0,.78-.02,3.45,0,3.93.07,1.59.41,1.89,2.67,1.89.6,0,1.61,0,2.21-.25s.87-.71,1.04-1.66c.05-.25.09-.34.21-.34.14,0,.14.18.14.34,0,.18-.18,1.75-.3,2.23-.16.6-.34.6-1.24.6-1.72,0-2.99-.05-3.89-.07-.9-.05-1.45-.07-1.79-.07-.05,0-.44,0-.92.02-.46,0-.99.05-1.33.05-.25,0-.37-.05-.37-.18,0-.07.05-.14.18-.14.21,0,.48-.05.69-.09.46-.09.57-.6.67-1.26.11-.97.11-2.78.11-4.99v-4.05Z"/>
      <path class="text-svg" d="m266.08,6.99c0-3.59,0-4.23-.05-4.97-.05-.78-.23-1.15-.99-1.31-.18-.05-.58-.07-.78-.07-.09,0-.18-.05-.18-.14,0-.14.11-.18.37-.18,1.03,0,2.48.07,2.6.07.25,0,2-.07,2.71-.07,1.45,0,2.99.14,4.21,1.01.58.41,1.59,1.54,1.59,3.13,0,1.7-.71,3.4-2.78,5.31,1.89,2.41,3.45,4.46,4.78,5.89,1.24,1.31,2.23,1.56,2.81,1.66.44.07.76.07.9.07.12,0,.21.07.21.14,0,.14-.14.18-.55.18h-1.63c-1.29,0-1.86-.11-2.46-.44-.99-.53-1.79-1.66-3.1-3.38-.97-1.26-2.05-2.81-2.51-3.4-.09-.09-.16-.14-.3-.14l-2.83-.05c-.12,0-.16.07-.16.18v.55c0,2.21,0,4.02.12,4.99.07.67.21,1.17.9,1.26.32.05.83.09,1.04.09.14,0,.18.07.18.14,0,.11-.12.18-.37.18-1.26,0-2.71-.07-2.83-.07-.02,0-1.47.07-2.16.07-.25,0-.37-.05-.37-.18,0-.07.05-.14.18-.14.21,0,.48-.05.69-.09.46-.09.57-.6.67-1.26.11-.97.11-2.78.11-4.99v-4.05Zm1.84,2c0,.11.05.21.16.28.34.21,1.4.37,2.41.37.55,0,1.2-.07,1.72-.44.8-.55,1.4-1.79,1.4-3.54,0-2.87-1.52-4.6-3.98-4.6-.69,0-1.31.07-1.54.14-.11.05-.18.14-.18.28v7.52Z"/>
      <path class="text-svg" d="m283.1,17.41c-.32-.16-.34-.25-.34-.87,0-1.15.09-2.07.12-2.44.02-.25.07-.37.18-.37.14,0,.16.07.16.25,0,.21,0,.53.07.85.34,1.7,1.86,2.35,3.4,2.35,2.21,0,3.29-1.59,3.29-3.06,0-1.59-.67-2.51-2.64-4.14l-1.04-.85c-2.44-2-2.99-3.43-2.99-4.99,0-2.46,1.84-4.14,4.76-4.14.9,0,1.56.09,2.14.23.44.09.62.11.8.11s.23.05.23.16-.09.87-.09,2.44c0,.37-.05.53-.16.53-.14,0-.16-.11-.18-.3-.02-.28-.16-.9-.3-1.15-.14-.25-.76-1.22-2.87-1.22-1.59,0-2.83.99-2.83,2.67,0,1.31.6,2.14,2.81,3.86l.64.51c2.71,2.14,3.36,3.56,3.36,5.4,0,.94-.37,2.69-1.96,3.82-.99.69-2.23.97-3.47.97-1.08,0-2.14-.16-3.08-.62Z"/>
    </g>
  </g>
</svg>