<?xml version="1.0" encoding="utf-8"?>
<!-- Generator: Adobe Illustrator 28.0.0, SVG Export Plug-In . SVG Version: 6.00 Build 0)  -->
<svg version="1.1" id="_レイヤー_2" xmlns="http://www.w3.org/2000/svg" xmlns:xlink="http://www.w3.org/1999/xlink" x="0px"
	 y="0px" viewBox="0 0 202.7 52.6" style="enable-background:new 0 0 202.7 52.6;" xml:space="preserve">
<g>
	<g>
		<path d="M20.5,28.9c0,2.7,0,4.9,0.1,6.1c0.1,0.8,0.3,1.4,1.1,1.5c0.4,0.1,1,0.1,1.3,0.1c0.2,0,0.2,0.1,0.2,0.2
			c0,0.1-0.1,0.2-0.4,0.2c-1.5,0-3.3-0.1-3.4-0.1S17.5,37,16.7,37c-0.3,0-0.4-0.1-0.4-0.2c0-0.1,0.1-0.2,0.2-0.2
			c0.3,0,0.6-0.1,0.8-0.1c0.6-0.1,0.7-0.7,0.8-1.5c0.1-1.2,0.1-3.4,0.1-6.1V26c0-0.1-0.1-0.2-0.2-0.2H6.1c-0.1,0-0.2,0-0.2,0.2v2.9
			c0,2.7,0,4.9,0.1,6.1c0.1,0.8,0.3,1.4,1.1,1.5c0.4,0.1,1,0.1,1.3,0.1c0.2,0,0.2,0.1,0.2,0.2c0,0.1-0.1,0.2-0.4,0.2
			c-1.5,0-3.3-0.1-3.4-0.1c-0.2,0-2,0.1-2.8,0.1c-0.3,0-0.4-0.1-0.4-0.2c0-0.1,0.1-0.2,0.2-0.2c0.3,0,0.6-0.1,0.8-0.1
			c0.6-0.1,0.7-0.7,0.8-1.5c0.1-1.2,0.1-3.4,0.1-6.1V24c0-4.4,0-5.2-0.1-6c-0.1-1-0.3-1.4-1.2-1.6c-0.2-0.1-0.7-0.1-1-0.1
			c-0.1,0-0.2-0.1-0.2-0.2c0-0.2,0.1-0.2,0.4-0.2c1.3,0,3,0.1,3.2,0.1c0.1,0,1.9-0.1,2.7-0.1c0.3,0,0.4,0.1,0.4,0.2
			c0,0.1-0.1,0.2-0.2,0.2c-0.2,0-0.4,0-0.7,0.1c-0.8,0.1-1,0.6-1,1.6c-0.1,0.9-0.1,1.7-0.1,6v0.6c0,0.1,0.1,0.2,0.2,0.2H18
			c0.1,0,0.2,0,0.2-0.2V24c0-4.4,0-5.2-0.1-6c-0.1-1-0.3-1.4-1.2-1.6c-0.2-0.1-0.7-0.1-1-0.1c-0.1,0-0.2-0.1-0.2-0.2
			c0-0.2,0.1-0.2,0.4-0.2c1.3,0,3,0.1,3.2,0.1c0.1,0,1.9-0.1,2.7-0.1c0.3,0,0.4,0.1,0.4,0.2c0,0.1-0.1,0.2-0.2,0.2
			c-0.2,0-0.4,0-0.7,0.1c-0.8,0.1-1,0.6-1,1.6c-0.1,0.9-0.1,1.7-0.1,6v4.9H20.5z"/>
		<path d="M34.2,28.9c0,2.7,0,4.9,0.1,6.1c0.1,0.8,0.3,1.4,1.1,1.5c0.4,0.1,1,0.1,1.3,0.1c0.2,0,0.2,0.1,0.2,0.2
			c0,0.1-0.1,0.2-0.4,0.2c-1.5,0-3.3-0.1-3.4-0.1c-0.1,0-1.9,0.1-2.7,0.1c-0.3,0-0.4-0.1-0.4-0.2c0-0.1,0.1-0.2,0.2-0.2
			c0.3,0,0.6-0.1,0.8-0.1c0.6-0.1,0.7-0.7,0.8-1.5c0.1-1.2,0.1-3.4,0.1-6.1V24c0-4.4,0-5.2-0.1-6c-0.1-1-0.3-1.4-1-1.6
			c-0.3-0.1-0.7-0.1-0.9-0.1c-0.1,0-0.2-0.1-0.2-0.2c0-0.2,0.1-0.2,0.4-0.2c0.9,0,2.7,0.1,2.8,0.1c0.1,0,1.9-0.1,2.7-0.1
			c0.3,0,0.4,0.1,0.4,0.2c0,0.1-0.1,0.2-0.2,0.2c-0.2,0-0.4,0-0.7,0.1c-0.8,0.1-1,0.6-1,1.6C34,18.9,34,19.7,34,24v4.9H34.2z"/>
		<path d="M45.6,23.9c0-4.4,0-5.2-0.1-6c-0.1-1-0.3-1.4-1.2-1.6c-0.2-0.1-0.7-0.1-1-0.1c-0.1,0-0.2-0.1-0.2-0.2
			c0-0.2,0.1-0.2,0.4-0.2c1.3,0,3,0.1,3.2,0.1c0.3,0,2.4-0.1,3.3-0.1c1.8,0,3.6,0.2,5.1,1.2c0.7,0.5,1.9,1.9,1.9,3.8
			c0,2.1-0.9,4.1-3.4,6.5c2.3,2.9,4.2,5.4,5.8,7.2c1.5,1.6,2.7,1.9,3.4,2c0.5,0.1,0.9,0.1,1.1,0.1c0.1,0,0.3,0.1,0.3,0.2
			c0,0.2-0.2,0.2-0.7,0.2h-2c-1.6,0-2.3-0.1-3-0.5c-1.2-0.6-2.2-2-3.8-4.1c-1.2-1.5-2.5-3.4-3.1-4.1c-0.1-0.1-0.2-0.2-0.4-0.2L48,28
			c-0.1,0-0.2,0.1-0.2,0.2v0.7c0,2.7,0,4.9,0.1,6.1c0.1,0.8,0.3,1.4,1.1,1.5c0.4,0.1,1,0.1,1.3,0.1c0.2,0,0.2,0.1,0.2,0.2
			c0,0.1-0.1,0.2-0.4,0.2c-1.5,0-3.3-0.1-3.4-0.1c0,0-1.8,0.1-2.6,0.1c-0.3,0-0.4-0.1-0.4-0.2c0-0.1,0.1-0.2,0.2-0.2
			c0.3,0,0.6-0.1,0.8-0.1c0.6-0.1,0.7-0.7,0.8-1.5c0.1-1.2,0.1-3.4,0.1-6.1C45.6,28.9,45.6,23.9,45.6,23.9z M47.8,26.4
			c0,0.1,0.1,0.3,0.2,0.3c0.4,0.3,1.7,0.4,2.9,0.4c0.7,0,1.5-0.1,2.1-0.5c1-0.7,1.7-2.2,1.7-4.3c0-3.5-1.8-5.6-4.8-5.6
			c-0.8,0-1.6,0.1-1.9,0.2c-0.1,0.1-0.2,0.2-0.2,0.3V26.4z"/>
		<path d="M75.9,15.4c6.3,0,11,4,11,10.5c0,6.3-4.4,11.5-11.2,11.5c-7.7,0-10.9-6-10.9-11C64.9,21.8,68.2,15.4,75.9,15.4z
			 M76.5,36.3c2.5,0,7.7-1.5,7.7-9.6c0-6.7-4.1-10.3-8.5-10.3c-4.7,0-8.2,3.1-8.2,9.2C67.6,32.1,71.5,36.3,76.5,36.3z"/>
		<path d="M93.3,36.6c-0.4-0.2-0.4-0.3-0.4-1.1c0-1.4,0.1-2.5,0.1-3c0-0.3,0.1-0.4,0.2-0.4c0.2,0,0.2,0.1,0.2,0.3c0,0.3,0,0.6,0.1,1
			c0.4,2.1,2.3,2.9,4.1,2.9c2.7,0,4-1.9,4-3.7c0-1.9-0.8-3.1-3.2-5l-1.3-1c-3-2.4-3.6-4.2-3.6-6.1c0-3,2.2-5,5.8-5
			c1.1,0,1.9,0.1,2.6,0.3c0.5,0.1,0.8,0.1,1,0.1s0.3,0.1,0.3,0.2c0,0.1-0.1,1.1-0.1,3c0,0.4-0.1,0.6-0.2,0.6c-0.2,0-0.2-0.1-0.2-0.4
			s-0.2-1.1-0.4-1.4c-0.2-0.3-0.9-1.5-3.5-1.5c-1.9,0-3.4,1.2-3.4,3.2c0,1.6,0.7,2.6,3.4,4.7l0.8,0.6c3.3,2.6,4.1,4.3,4.1,6.6
			c0,1.1-0.4,3.3-2.4,4.6c-1.2,0.8-2.7,1.2-4.2,1.2C95.8,37.4,94.5,37.2,93.3,36.6z"/>
		<path d="M129.4,28.9c0,2.7,0,4.9,0.1,6.1c0.1,0.8,0.3,1.4,1.1,1.5c0.4,0.1,1,0.1,1.3,0.1c0.2,0,0.2,0.1,0.2,0.2
			c0,0.1-0.1,0.2-0.4,0.2c-1.5,0-3.3-0.1-3.4-0.1c-0.1,0-1.9,0.1-2.7,0.1c-0.3,0-0.4-0.1-0.4-0.2c0-0.1,0.1-0.2,0.2-0.2
			c0.3,0,0.6-0.1,0.8-0.1c0.6-0.1,0.7-0.7,0.8-1.5c0.1-1.2,0.1-3.4,0.1-6.1V26c0-0.1-0.1-0.2-0.2-0.2H115c-0.1,0-0.2,0-0.2,0.2v2.9
			c0,2.7,0,4.9,0.1,6.1c0.1,0.8,0.3,1.4,1.1,1.5c0.4,0.1,1,0.1,1.3,0.1c0.2,0,0.2,0.1,0.2,0.2c0,0.1-0.1,0.2-0.4,0.2
			c-1.5,0-3.3-0.1-3.4-0.1S111.8,37,111,37c-0.3,0-0.4-0.1-0.4-0.2c0-0.1,0.1-0.2,0.2-0.2c0.3,0,0.6-0.1,0.8-0.1
			c0.6-0.1,0.7-0.7,0.8-1.5c0.1-1.2,0.1-3.4,0.1-6.1V24c0-4.4,0-5.2-0.1-6c-0.1-1-0.3-1.4-1.2-1.6c-0.2-0.1-0.7-0.1-1-0.1
			c-0.1,0-0.2-0.1-0.2-0.2c0-0.2,0.1-0.2,0.4-0.2c1.3,0,3,0.1,3.2,0.1c0.1,0,1.9-0.1,2.7-0.1c0.3,0,0.4,0.1,0.4,0.2
			c0,0.1-0.1,0.2-0.2,0.2c-0.2,0-0.4,0-0.7,0.1c-0.8,0.1-1,0.6-1,1.6c-0.1,0.9-0.1,1.7-0.1,6v0.6c0,0.1,0.1,0.2,0.2,0.2h11.9
			c0.1,0,0.2,0,0.2-0.2V24c0-4.4,0-5.2-0.1-6c-0.1-1-0.3-1.4-1.2-1.6c-0.2-0.1-0.7-0.1-1-0.1c-0.1,0-0.2-0.1-0.2-0.2
			c0-0.2,0.1-0.2,0.4-0.2c1.3,0,3,0.1,3.2,0.1c0.1,0,1.9-0.1,2.7-0.1c0.3,0,0.4,0.1,0.4,0.2c0,0.1-0.1,0.2-0.2,0.2
			c-0.2,0-0.4,0-0.7,0.1c-0.8,0.1-1,0.6-1,1.6c-0.1,0.9-0.1,1.7-0.1,6v4.9H129.4z"/>
		<path d="M143.1,28.9c0,2.7,0,4.9,0.1,6.1c0.1,0.8,0.3,1.4,1.1,1.5c0.4,0.1,1,0.1,1.3,0.1c0.2,0,0.2,0.1,0.2,0.2
			c0,0.1-0.1,0.2-0.4,0.2c-1.5,0-3.3-0.1-3.4-0.1c-0.1,0-1.9,0.1-2.7,0.1c-0.3,0-0.4-0.1-0.4-0.2c0-0.1,0.1-0.2,0.2-0.2
			c0.3,0,0.6-0.1,0.8-0.1c0.6-0.1,0.7-0.7,0.8-1.5c0.1-1.2,0.1-3.4,0.1-6.1V24c0-4.4,0-5.2-0.1-6c-0.1-1-0.3-1.4-1-1.6
			c-0.3-0.1-0.7-0.1-0.9-0.1c-0.1,0-0.2-0.1-0.2-0.2c0-0.2,0.1-0.2,0.4-0.2c0.9,0,2.7,0.1,2.8,0.1s1.9-0.1,2.7-0.1
			c0.3,0,0.4,0.1,0.4,0.2c0,0.1-0.1,0.2-0.2,0.2c-0.2,0-0.4,0-0.7,0.1c-0.8,0.1-1,0.6-1,1.6c-0.1,0.9-0.1,1.7-0.1,6v4.9H143.1z"/>
		<path d="M175.3,33.4c0.1,1,0.3,2.6,1.5,3c0.8,0.3,1.5,0.3,1.8,0.3c0.1,0,0.2,0,0.2,0.1c0,0.2-0.3,0.3-0.6,0.3
			c-0.6,0-3.6,0-4.7-0.1c-0.6-0.1-0.8-0.1-0.8-0.3c0-0.1,0.1-0.2,0.2-0.2c0.1,0,0.2-0.5,0.1-1L171.7,21h-0.1l-6.9,14.6
			c-0.6,1.2-0.7,1.5-0.9,1.5s-0.3-0.3-0.9-1.3c-0.7-1.4-3.1-6.2-3.3-6.5c-0.3-0.5-3.4-7.2-3.7-8h-0.1l-1.1,13c0,0.4,0,1,0,1.4
			s0.3,0.8,0.7,0.9c0.5,0.1,0.9,0.1,1.1,0.1c0.1,0,0.2,0.1,0.2,0.1c0,0.2-0.2,0.3-0.5,0.3c-1,0-2.4-0.1-2.6-0.1
			c-0.3,0-1.6,0.1-2.4,0.1c-0.3,0-0.5-0.1-0.5-0.3c0-0.1,0.1-0.1,0.3-0.1s0.4,0,0.8-0.1c0.9-0.2,1-1.3,1.1-2.3l2-18.3
			c0-0.3,0.1-0.5,0.3-0.5s0.3,0.1,0.4,0.4l8.6,17.6l8.2-17.6c0.1-0.3,0.2-0.4,0.4-0.4s0.3,0.2,0.3,0.8L175.3,33.4z"/>
		<path d="M189.3,16.5c0.3-0.9,0.4-1.1,0.6-1.1s0.3,0.1,0.6,1c0.4,1.1,4.8,12.6,6.5,16.9c1,2.5,1.8,2.9,2.4,3.1
			c0.4,0.1,0.8,0.2,1.1,0.2c0.2,0,0.3,0,0.3,0.2s-0.3,0.2-0.6,0.2c-0.4,0-2.5,0-4.4-0.1c-0.5,0-0.8,0-0.8-0.2c0-0.1,0.1-0.2,0.2-0.2
			c0.2-0.1,0.3-0.3,0.2-0.8l-2.6-6.9c-0.1-0.1-0.1-0.2-0.3-0.2h-6c-0.1,0-0.2,0.1-0.3,0.2l-1.7,5c-0.3,0.7-0.4,1.4-0.4,1.9
			c0,0.6,0.6,0.8,1.1,0.8h0.3c0.2,0,0.3,0.1,0.3,0.2c0,0.2-0.2,0.2-0.4,0.2c-0.7,0-1.9-0.1-2.2-0.1s-1.8,0.1-3.2,0.1
			c-0.4,0-0.5-0.1-0.5-0.2c0-0.1,0.1-0.2,0.3-0.2s0.6,0,0.8-0.1c1.3-0.2,1.8-1.2,2.4-2.6L189.3,16.5z M192.2,27.7
			c0.1,0,0.1-0.1,0.1-0.2l-2.7-7.6c-0.1-0.4-0.3-0.4-0.4,0l-2.5,7.6c-0.1,0.1,0,0.2,0.1,0.2H192.2z"/>
	</g>
</g>
</svg>
