<?xml version="1.0" encoding="UTF-8"?>
<svg id="_レイヤー_2" data-name="レイヤー 2" xmlns="http://www.w3.org/2000/svg" viewBox="0 0 139.58 107.04">
  <defs>
    <style>
      .cls-1 {
        fill: #d9d9d9;
        stroke-width: 0px;
      }
    </style>
  </defs>
  <g id="_レイヤー_2-2" data-name=" レイヤー 2">
    <g>
      <path class="cls-1" d="m132.16,41.95c-1.09,0-1.99-.89-1.99-1.99s.89-1.99,1.99-1.99,1.99.89,1.99,1.99-.89,1.99-1.99,1.99Z"/>
      <path class="cls-1" d="m126.74,47.37c-1.09,0-1.99-.89-1.99-1.99s.89-1.99,1.99-1.99,1.99.89,1.99,1.99-.89,1.99-1.99,1.99Z"/>
      <path class="cls-1" d="m126.74,36.52c-1.09,0-1.99-.89-1.99-1.99s.89-1.99,1.99-1.99,1.99.89,1.99,1.99-.89,1.99-1.99,1.99Z"/>
      <path class="cls-1" d="m132.16,63.64c-1.09,0-1.99-.89-1.99-1.99s.89-1.99,1.99-1.99,1.99.89,1.99,1.99-.89,1.99-1.99,1.99Z"/>
      <path class="cls-1" d="m126.74,69.07c-1.09,0-1.99-.89-1.99-1.99s.89-1.99,1.99-1.99,1.99.89,1.99,1.99-.89,1.99-1.99,1.99Z"/>
      <path class="cls-1" d="m137.59,69.07c-1.1,0-1.99-.89-1.99-1.99s.89-1.99,1.99-1.99,1.99.89,1.99,1.99-.89,1.99-1.99,1.99Z"/>
      <path class="cls-1" d="m126.74,58.22c-1.09,0-1.99-.89-1.99-1.99s.89-1.99,1.99-1.99,1.99.89,1.99,1.99-.89,1.99-1.99,1.99Z"/>
      <path class="cls-1" d="m132.16,52.79c-1.09,0-1.99-.89-1.99-1.99s.89-1.99,1.99-1.99,1.99.89,1.99,1.99-.89,1.99-1.99,1.99Z"/>
      <path class="cls-1" d="m132.16,85.34c-1.09,0-1.99-.89-1.99-1.99s.89-1.99,1.99-1.99,1.99.89,1.99,1.99-.89,1.99-1.99,1.99Z"/>
      <path class="cls-1" d="m126.74,90.76c-1.09,0-1.99-.89-1.99-1.99s.89-1.99,1.99-1.99,1.99.89,1.99,1.99-.89,1.99-1.99,1.99Z"/>
      <path class="cls-1" d="m126.74,79.92c-1.09,0-1.99-.89-1.99-1.99s.89-1.99,1.99-1.99,1.99.89,1.99,1.99-.89,1.99-1.99,1.99Z"/>
      <path class="cls-1" d="m137.59,79.92c-1.1,0-1.99-.89-1.99-1.99s.89-1.99,1.99-1.99,1.99.89,1.99,1.99-.89,1.99-1.99,1.99Z"/>
      <path class="cls-1" d="m132.16,74.49c-1.09,0-1.99-.89-1.99-1.99s.89-1.99,1.99-1.99,1.99.89,1.99,1.99-.89,1.99-1.99,1.99Z"/>
      <path class="cls-1" d="m105.04,3.98c-1.09,0-1.99-.89-1.99-1.99s.89-1.99,1.99-1.99,1.99.89,1.99,1.99-.89,1.99-1.99,1.99Z"/>
      <path class="cls-1" d="m121.32,31.1c-.53,0-1.03-.21-1.41-.58-.18-.18-.32-.39-.42-.63-.1-.24-.16-.5-.16-.77s.05-.53.16-.77c.1-.24.24-.45.43-.63.38-.37.87-.58,1.4-.58.27,0,.53.05.77.16.47.2.86.59,1.06,1.06.1.24.16.5.16.77s-.05.53-.16.77c-.2.47-.58.86-1.06,1.06-.25.1-.5.16-.77.16v-.02Z"/>
      <path class="cls-1" d="m110.47,31.1c-.8,0-1.52-.48-1.83-1.21-.1-.24-.15-.51-.15-.77s.05-.53.15-.77c.31-.74,1.03-1.21,1.83-1.21s1.52.48,1.83,1.21c.1.24.16.5.16.77s-.05.53-.16.77c-.31.74-1.03,1.21-1.83,1.21Z"/>
      <path class="cls-1" d="m121.32,20.25c-.53,0-1.03-.21-1.41-.58-.37-.37-.58-.87-.58-1.41s.21-1.03.58-1.41c.38-.38.87-.58,1.41-.58.27,0,.53.05.77.16.74.31,1.22,1.03,1.22,1.83s-.48,1.52-1.22,1.83c-.25.1-.5.16-.77.16Z"/>
      <path class="cls-1" d="m110.47,20.25c-1.09,0-1.99-.89-1.99-1.99s.89-1.99,1.99-1.99,1.99.89,1.99,1.99-.89,1.99-1.99,1.99Z"/>
      <path class="cls-1" d="m105.04,25.67c-1.09,0-1.99-.89-1.99-1.99s.89-1.99,1.99-1.99,1.99.89,1.99,1.99-.89,1.99-1.99,1.99Z"/>
      <path class="cls-1" d="m115.89,25.67c-1.09,0-1.99-.89-1.99-1.99s.89-1.99,1.99-1.99,1.99.89,1.99,1.99-.89,1.99-1.99,1.99Z"/>
      <path class="cls-1" d="m105.04,14.83c-1.09,0-1.99-.89-1.99-1.99s.89-1.99,1.99-1.99,1.99.89,1.99,1.99-.89,1.99-1.99,1.99Z"/>
      <path class="cls-1" d="m115.89,14.83c-1.09,0-1.99-.89-1.99-1.99s.89-1.99,1.99-1.99,1.99.89,1.99,1.99-.89,1.99-1.99,1.99Z"/>
      <path class="cls-1" d="m121.32,9.4c-.53,0-1.03-.21-1.41-.58-.37-.37-.58-.87-.58-1.41s.21-1.03.58-1.41c.38-.38.87-.58,1.41-.58.27,0,.53.05.77.16.74.31,1.22,1.03,1.22,1.83s-.48,1.52-1.22,1.83c-.25.1-.5.16-.77.16Z"/>
      <path class="cls-1" d="m110.47,9.4c-1.09,0-1.99-.89-1.99-1.99s.89-1.99,1.99-1.99,1.99.89,1.99,1.99-.89,1.99-1.99,1.99Z"/>
      <path class="cls-1" d="m121.32,41.95c-.53,0-1.03-.21-1.41-.58-.37-.37-.58-.87-.58-1.41s.21-1.03.58-1.41c.38-.38.87-.58,1.41-.58.27,0,.53.05.77.16.74.31,1.22,1.03,1.22,1.83s-.48,1.52-1.22,1.83c-.25.1-.5.16-.77.16Z"/>
      <path class="cls-1" d="m110.47,41.95c-1.09,0-1.99-.89-1.99-1.99s.89-1.99,1.99-1.99,1.99.89,1.99,1.99-.89,1.99-1.99,1.99Z"/>
      <path class="cls-1" d="m105.04,47.37c-1.09,0-1.99-.89-1.99-1.99s.89-1.99,1.99-1.99,1.99.89,1.99,1.99-.89,1.99-1.99,1.99Z"/>
      <path class="cls-1" d="m115.89,47.37c-1.09,0-1.99-.89-1.99-1.99s.89-1.99,1.99-1.99,1.99.89,1.99,1.99-.89,1.99-1.99,1.99Z"/>
      <path class="cls-1" d="m105.04,36.52c-1.09,0-1.99-.89-1.99-1.99s.89-1.99,1.99-1.99,1.99.89,1.99,1.99-.89,1.99-1.99,1.99Z"/>
      <path class="cls-1" d="m115.89,36.52c-1.09,0-1.99-.89-1.99-1.99s.89-1.99,1.99-1.99,1.99.89,1.99,1.99-.89,1.99-1.99,1.99Z"/>
      <path class="cls-1" d="m121.32,63.64c-.53,0-1.03-.21-1.41-.58-.37-.37-.58-.87-.58-1.41s.21-1.03.58-1.41c.38-.38.87-.58,1.41-.58.27,0,.53.05.77.16.74.31,1.22,1.03,1.22,1.83s-.48,1.52-1.22,1.83c-.25.1-.5.16-.77.16Z"/>
      <path class="cls-1" d="m110.47,63.64c-1.09,0-1.99-.89-1.99-1.99s.89-1.99,1.99-1.99,1.99.89,1.99,1.99-.89,1.99-1.99,1.99Z"/>
      <path class="cls-1" d="m105.04,69.07c-1.09,0-1.99-.89-1.99-1.99s.89-1.99,1.99-1.99,1.99.89,1.99,1.99-.89,1.99-1.99,1.99Z"/>
      <path class="cls-1" d="m115.89,69.07c-1.09,0-1.99-.89-1.99-1.99s.89-1.99,1.99-1.99,1.99.89,1.99,1.99-.89,1.99-1.99,1.99Z"/>
      <path class="cls-1" d="m105.04,58.22c-1.09,0-1.99-.89-1.99-1.99s.89-1.99,1.99-1.99,1.99.89,1.99,1.99-.89,1.99-1.99,1.99Z"/>
      <path class="cls-1" d="m115.89,58.22c-1.09,0-1.99-.89-1.99-1.99s.89-1.99,1.99-1.99,1.99.89,1.99,1.99-.89,1.99-1.99,1.99Z"/>
      <path class="cls-1" d="m121.32,52.79c-.53,0-1.03-.21-1.41-.58-.37-.37-.58-.87-.58-1.41s.21-1.03.58-1.41c.38-.38.87-.58,1.41-.58.27,0,.53.05.77.16.74.31,1.22,1.03,1.22,1.83s-.48,1.52-1.22,1.83c-.24.1-.5.16-.77.16Z"/>
      <path class="cls-1" d="m110.47,52.79c-1.09,0-1.99-.89-1.99-1.99s.89-1.99,1.99-1.99,1.99.89,1.99,1.99-.89,1.99-1.99,1.99Z"/>
      <path class="cls-1" d="m110.47,96.19c-1.09,0-1.99-.89-1.99-1.99,0-.27.05-.53.15-.77.31-.74,1.03-1.21,1.83-1.21s1.52.48,1.83,1.21c.1.24.16.5.16.77,0,1.1-.89,1.99-1.99,1.99h.01Z"/>
      <path class="cls-1" d="m121.32,85.34c-.53,0-1.03-.21-1.41-.58-.37-.37-.58-.87-.58-1.41s.21-1.03.58-1.41c.38-.38.87-.58,1.41-.58.27,0,.53.05.77.16.74.31,1.22,1.03,1.22,1.83s-.48,1.52-1.22,1.83c-.25.1-.5.16-.77.16Z"/>
      <path class="cls-1" d="m110.47,85.34c-1.09,0-1.99-.89-1.99-1.99s.89-1.99,1.99-1.99,1.99.89,1.99,1.99-.89,1.99-1.99,1.99Z"/>
      <path class="cls-1" d="m105.04,90.76c-1.09,0-1.99-.89-1.99-1.99s.89-1.99,1.99-1.99,1.99.89,1.99,1.99-.89,1.99-1.99,1.99Z"/>
      <path class="cls-1" d="m115.89,90.76c-1.09,0-1.99-.89-1.99-1.99s.89-1.99,1.99-1.99,1.99.89,1.99,1.99-.89,1.99-1.99,1.99Z"/>
      <path class="cls-1" d="m105.04,79.92c-1.09,0-1.99-.89-1.99-1.99s.89-1.99,1.99-1.99,1.99.89,1.99,1.99-.89,1.99-1.99,1.99Z"/>
      <path class="cls-1" d="m115.89,79.92c-1.09,0-1.99-.89-1.99-1.99s.89-1.99,1.99-1.99,1.99.89,1.99,1.99-.89,1.99-1.99,1.99Z"/>
      <path class="cls-1" d="m121.32,74.49c-.53,0-1.03-.21-1.41-.58-.37-.37-.58-.87-.58-1.41s.21-1.03.58-1.41c.38-.38.87-.58,1.41-.58.27,0,.53.05.77.16.74.31,1.22,1.03,1.22,1.83s-.48,1.52-1.22,1.83c-.24.1-.5.16-.77.16Z"/>
      <path class="cls-1" d="m110.47,74.49c-1.09,0-1.99-.89-1.99-1.99s.89-1.99,1.99-1.99,1.99.89,1.99,1.99-.89,1.99-1.99,1.99Z"/>
      <path class="cls-1" d="m105.04,101.61c-1.09,0-1.99-.89-1.99-1.99s.89-1.99,1.99-1.99,1.99.89,1.99,1.99-.89,1.99-1.99,1.99Z"/>
      <path class="cls-1" d="m83.35,3.98c-1.09,0-1.99-.89-1.99-1.99s.89-1.99,1.99-1.99,1.99.89,1.99,1.99-.89,1.99-1.99,1.99Z"/>
      <path class="cls-1" d="m94.2,3.98c-1.1,0-1.99-.89-1.99-1.99s.89-1.99,1.99-1.99,1.99.89,1.99,1.99-.89,1.99-1.99,1.99Z"/>
      <path class="cls-1" d="m99.62,31.1c-.8,0-1.52-.48-1.83-1.21-.1-.24-.16-.5-.16-.77s.05-.53.16-.77c.31-.74,1.03-1.21,1.83-1.21s1.52.48,1.83,1.21c.1.24.16.5.16.77s-.05.53-.16.77c-.31.74-1.03,1.21-1.83,1.21Z"/>
      <path class="cls-1" d="m88.77,31.1c-.8,0-1.52-.48-1.83-1.21-.1-.24-.16-.5-.16-.77s.05-.53.16-.77c.31-.74,1.03-1.21,1.83-1.21s1.52.48,1.83,1.21c.1.24.16.5.16.77s-.05.53-.16.77c-.31.74-1.03,1.21-1.83,1.21Z"/>
      <path class="cls-1" d="m99.62,20.25c-1.09,0-1.99-.89-1.99-1.99s.89-1.99,1.99-1.99c.8,0,1.52.48,1.83,1.21.1.24.16.5.16.77s-.05.53-.16.77c-.31.74-1.03,1.21-1.83,1.21v.02Z"/>
      <path class="cls-1" d="m88.77,20.25c-1.09,0-1.99-.89-1.99-1.99s.89-1.99,1.99-1.99,1.99.89,1.99,1.99-.89,1.99-1.99,1.99Z"/>
      <path class="cls-1" d="m83.35,25.67c-1.09,0-1.99-.89-1.99-1.99s.89-1.99,1.99-1.99,1.99.89,1.99,1.99-.89,1.99-1.99,1.99Z"/>
      <path class="cls-1" d="m94.2,25.67c-1.1,0-1.99-.89-1.99-1.99s.89-1.99,1.99-1.99,1.99.89,1.99,1.99-.89,1.99-1.99,1.99Z"/>
      <path class="cls-1" d="m83.35,14.83c-1.09,0-1.99-.89-1.99-1.99s.89-1.99,1.99-1.99,1.99.89,1.99,1.99-.89,1.99-1.99,1.99Z"/>
      <path class="cls-1" d="m94.2,14.83c-1.1,0-1.99-.89-1.99-1.99s.89-1.99,1.99-1.99,1.99.89,1.99,1.99-.89,1.99-1.99,1.99Z"/>
      <path class="cls-1" d="m99.62,9.4c-1.09,0-1.99-.89-1.99-1.99s.89-1.99,1.99-1.99c.8,0,1.52.48,1.83,1.21.1.24.16.5.16.77s-.05.53-.16.77c-.31.74-1.03,1.21-1.83,1.21v.02Z"/>
      <path class="cls-1" d="m88.77,9.4c-1.09,0-1.99-.89-1.99-1.99s.89-1.99,1.99-1.99,1.99.89,1.99,1.99-.89,1.99-1.99,1.99Z"/>
      <path class="cls-1" d="m99.62,41.95c-1.09,0-1.99-.89-1.99-1.99s.89-1.99,1.99-1.99c.8,0,1.52.48,1.83,1.21.1.24.16.5.16.77s-.05.53-.16.77c-.31.74-1.03,1.21-1.83,1.21v.02Z"/>
      <path class="cls-1" d="m88.77,41.95c-1.09,0-1.99-.89-1.99-1.99s.89-1.99,1.99-1.99,1.99.89,1.99,1.99-.89,1.99-1.99,1.99Z"/>
      <path class="cls-1" d="m83.35,47.37c-1.09,0-1.99-.89-1.99-1.99s.89-1.99,1.99-1.99,1.99.89,1.99,1.99-.89,1.99-1.99,1.99Z"/>
      <path class="cls-1" d="m94.2,47.37c-1.1,0-1.99-.89-1.99-1.99s.89-1.99,1.99-1.99,1.99.89,1.99,1.99-.89,1.99-1.99,1.99Z"/>
      <path class="cls-1" d="m83.35,36.52c-1.09,0-1.99-.89-1.99-1.99s.89-1.99,1.99-1.99,1.99.89,1.99,1.99-.89,1.99-1.99,1.99Z"/>
      <path class="cls-1" d="m94.2,36.52c-1.1,0-1.99-.89-1.99-1.99s.89-1.99,1.99-1.99,1.99.89,1.99,1.99-.89,1.99-1.99,1.99Z"/>
      <path class="cls-1" d="m99.62,63.64c-1.09,0-1.99-.89-1.99-1.99s.89-1.99,1.99-1.99c.8,0,1.52.48,1.83,1.21.1.24.16.5.16.77s-.05.53-.16.77c-.31.74-1.03,1.21-1.83,1.21v.02Z"/>
      <path class="cls-1" d="m88.77,63.64c-1.09,0-1.99-.89-1.99-1.99s.89-1.99,1.99-1.99,1.99.89,1.99,1.99-.89,1.99-1.99,1.99Z"/>
      <path class="cls-1" d="m83.35,69.07c-1.09,0-1.99-.89-1.99-1.99s.89-1.99,1.99-1.99,1.99.89,1.99,1.99-.89,1.99-1.99,1.99Z"/>
      <path class="cls-1" d="m94.2,69.07c-1.1,0-1.99-.89-1.99-1.99s.89-1.99,1.99-1.99,1.99.89,1.99,1.99-.89,1.99-1.99,1.99Z"/>
      <path class="cls-1" d="m83.35,58.22c-1.09,0-1.99-.89-1.99-1.99s.89-1.99,1.99-1.99,1.99.89,1.99,1.99-.89,1.99-1.99,1.99Z"/>
      <path class="cls-1" d="m94.2,58.22c-1.1,0-1.99-.89-1.99-1.99s.89-1.99,1.99-1.99,1.99.89,1.99,1.99-.89,1.99-1.99,1.99Z"/>
      <path class="cls-1" d="m99.62,52.79c-1.09,0-1.99-.89-1.99-1.99s.89-1.99,1.99-1.99c.8,0,1.52.48,1.83,1.21.1.24.16.5.16.77s-.05.53-.16.77c-.31.74-1.03,1.21-1.83,1.21v.02Z"/>
      <path class="cls-1" d="m88.77,52.79c-1.09,0-1.99-.89-1.99-1.99s.89-1.99,1.99-1.99,1.99.89,1.99,1.99-.89,1.99-1.99,1.99Z"/>
      <path class="cls-1" d="m99.62,96.19c-1.09,0-1.99-.89-1.99-1.99,0-.27.05-.53.16-.77.31-.74,1.03-1.21,1.83-1.21s1.52.48,1.83,1.21c.1.24.16.5.16.77s-.05.53-.16.77c-.31.74-1.03,1.21-1.83,1.21h0Z"/>
      <path class="cls-1" d="m88.77,96.19c-1.09,0-1.99-.89-1.99-1.99,0-.27.05-.53.16-.77.31-.74,1.03-1.21,1.83-1.21s1.52.48,1.83,1.21c.1.24.16.5.16.77,0,1.1-.89,1.99-1.99,1.99Z"/>
      <path class="cls-1" d="m99.62,85.34c-1.09,0-1.99-.89-1.99-1.99s.89-1.99,1.99-1.99c.8,0,1.52.48,1.83,1.21.1.24.16.5.16.77s-.05.53-.16.77c-.31.74-1.03,1.21-1.83,1.21v.02Z"/>
      <path class="cls-1" d="m88.77,85.34c-1.09,0-1.99-.89-1.99-1.99s.89-1.99,1.99-1.99,1.99.89,1.99,1.99-.89,1.99-1.99,1.99Z"/>
      <path class="cls-1" d="m83.35,90.76c-1.09,0-1.99-.89-1.99-1.99s.89-1.99,1.99-1.99,1.99.89,1.99,1.99-.89,1.99-1.99,1.99Z"/>
      <path class="cls-1" d="m94.2,90.76c-1.1,0-1.99-.89-1.99-1.99s.89-1.99,1.99-1.99,1.99.89,1.99,1.99-.89,1.99-1.99,1.99Z"/>
      <path class="cls-1" d="m83.35,79.92c-1.09,0-1.99-.89-1.99-1.99s.89-1.99,1.99-1.99,1.99.89,1.99,1.99-.89,1.99-1.99,1.99Z"/>
      <path class="cls-1" d="m94.2,79.92c-1.1,0-1.99-.89-1.99-1.99s.89-1.99,1.99-1.99,1.99.89,1.99,1.99-.89,1.99-1.99,1.99Z"/>
      <path class="cls-1" d="m99.62,74.49c-1.09,0-1.99-.89-1.99-1.99s.89-1.99,1.99-1.99c.8,0,1.52.48,1.83,1.21.1.24.16.5.16.77s-.05.53-.16.77c-.31.74-1.03,1.21-1.83,1.21v.02Z"/>
      <path class="cls-1" d="m88.77,74.49c-1.09,0-1.99-.89-1.99-1.99s.89-1.99,1.99-1.99,1.99.89,1.99,1.99-.89,1.99-1.99,1.99Z"/>
      <path class="cls-1" d="m83.35,101.61c-1.09,0-1.99-.89-1.99-1.99s.89-1.99,1.99-1.99,1.99.89,1.99,1.99-.89,1.99-1.99,1.99Z"/>
      <path class="cls-1" d="m77.92,31.1c-.8,0-1.52-.48-1.83-1.21-.1-.24-.16-.5-.16-.77s.05-.53.16-.77c.31-.74,1.03-1.21,1.83-1.21s1.52.48,1.83,1.21c.1.25.16.51.16.77s-.05.53-.16.77c-.31.74-1.03,1.21-1.83,1.21Z"/>
      <path class="cls-1" d="m67.08,31.1c-.8,0-1.52-.48-1.83-1.21-.1-.24-.16-.5-.16-.77s.05-.53.16-.77c.31-.74,1.03-1.21,1.83-1.21s1.52.48,1.83,1.21c.1.24.16.5.16.77s-.05.53-.16.77c-.31.74-1.03,1.21-1.83,1.21Z"/>
      <path class="cls-1" d="m77.92,20.25c-1.09,0-1.99-.89-1.99-1.99s.89-1.99,1.99-1.99,1.99.89,1.99,1.99-.89,1.99-1.99,1.99Z"/>
      <path class="cls-1" d="m67.08,20.25c-1.09,0-1.99-.89-1.99-1.99s.89-1.99,1.99-1.99,1.99.89,1.99,1.99-.89,1.99-1.99,1.99Z"/>
      <path class="cls-1" d="m61.66,25.67c-1.1,0-1.99-.89-1.99-1.99s.89-1.99,1.99-1.99,1.99.89,1.99,1.99-.89,1.99-1.99,1.99Z"/>
      <path class="cls-1" d="m72.5,25.67c-1.1,0-1.99-.89-1.99-1.99s.89-1.99,1.99-1.99,1.99.89,1.99,1.99-.89,1.99-1.99,1.99Z"/>
      <path class="cls-1" d="m72.5,14.83c-1.1,0-1.99-.89-1.99-1.99s.89-1.99,1.99-1.99,1.99.89,1.99,1.99-.89,1.99-1.99,1.99Z"/>
      <path class="cls-1" d="m77.92,9.4c-1.09,0-1.99-.89-1.99-1.99s.89-1.99,1.99-1.99,1.99.89,1.99,1.99-.89,1.99-1.99,1.99Z"/>
      <path class="cls-1" d="m77.92,41.95c-1.09,0-1.99-.89-1.99-1.99s.89-1.99,1.99-1.99,1.99.89,1.99,1.99-.89,1.99-1.99,1.99Z"/>
      <path class="cls-1" d="m67.08,41.95c-1.09,0-1.99-.89-1.99-1.99s.89-1.99,1.99-1.99,1.99.89,1.99,1.99-.89,1.99-1.99,1.99Z"/>
      <path class="cls-1" d="m61.66,47.37c-1.1,0-1.99-.89-1.99-1.99s.89-1.99,1.99-1.99,1.99.89,1.99,1.99-.89,1.99-1.99,1.99Z"/>
      <path class="cls-1" d="m72.5,47.37c-1.1,0-1.99-.89-1.99-1.99s.89-1.99,1.99-1.99,1.99.89,1.99,1.99-.89,1.99-1.99,1.99Z"/>
      <path class="cls-1" d="m61.66,36.52c-1.1,0-1.99-.89-1.99-1.99s.89-1.99,1.99-1.99,1.99.89,1.99,1.99-.89,1.99-1.99,1.99Z"/>
      <path class="cls-1" d="m72.5,36.52c-1.1,0-1.99-.89-1.99-1.99s.89-1.99,1.99-1.99,1.99.89,1.99,1.99-.89,1.99-1.99,1.99Z"/>
      <path class="cls-1" d="m77.92,63.64c-1.09,0-1.99-.89-1.99-1.99s.89-1.99,1.99-1.99,1.99.89,1.99,1.99-.89,1.99-1.99,1.99Z"/>
      <path class="cls-1" d="m67.08,63.64c-1.09,0-1.99-.89-1.99-1.99s.89-1.99,1.99-1.99,1.99.89,1.99,1.99-.89,1.99-1.99,1.99Z"/>
      <circle class="cls-1" cx="61.66" cy="67.08" r="1.99"/>
      <path class="cls-1" d="m72.5,69.07c-1.1,0-1.99-.89-1.99-1.99s.89-1.99,1.99-1.99,1.99.89,1.99,1.99-.89,1.99-1.99,1.99Z"/>
      <path class="cls-1" d="m61.66,58.22c-1.1,0-1.99-.89-1.99-1.99s.89-1.99,1.99-1.99,1.99.89,1.99,1.99-.89,1.99-1.99,1.99Z"/>
      <path class="cls-1" d="m72.5,58.22c-1.1,0-1.99-.89-1.99-1.99s.89-1.99,1.99-1.99,1.99.89,1.99,1.99-.89,1.99-1.99,1.99Z"/>
      <path class="cls-1" d="m77.92,52.79c-1.09,0-1.99-.89-1.99-1.99s.89-1.99,1.99-1.99,1.99.89,1.99,1.99-.89,1.99-1.99,1.99Z"/>
      <path class="cls-1" d="m67.08,52.79c-1.09,0-1.99-.89-1.99-1.99s.89-1.99,1.99-1.99,1.99.89,1.99,1.99-.89,1.99-1.99,1.99Z"/>
      <path class="cls-1" d="m77.92,96.19c-1.09,0-1.99-.89-1.99-1.99,0-.27.05-.53.16-.77.31-.74,1.03-1.21,1.83-1.21s1.52.48,1.83,1.21c.1.25.16.51.16.77,0,1.1-.89,1.99-1.99,1.99Z"/>
      <path class="cls-1" d="m67.08,96.19c-1.09,0-1.99-.89-1.99-1.99,0-.27.05-.53.16-.77.31-.74,1.03-1.21,1.83-1.21s1.52.48,1.83,1.21c.1.24.16.5.16.77,0,1.1-.89,1.99-1.99,1.99Z"/>
      <path class="cls-1" d="m77.92,85.34c-1.09,0-1.99-.89-1.99-1.99s.89-1.99,1.99-1.99,1.99.89,1.99,1.99-.89,1.99-1.99,1.99Z"/>
      <path class="cls-1" d="m67.08,85.34c-1.09,0-1.99-.89-1.99-1.99s.89-1.99,1.99-1.99,1.99.89,1.99,1.99-.89,1.99-1.99,1.99Z"/>
      <circle class="cls-1" cx="61.66" cy="88.78" r="1.99"/>
      <path class="cls-1" d="m72.5,90.76c-1.1,0-1.99-.89-1.99-1.99s.89-1.99,1.99-1.99,1.99.89,1.99,1.99-.89,1.99-1.99,1.99Z"/>
      <circle class="cls-1" cx="61.66" cy="77.93" r="1.99"/>
      <path class="cls-1" d="m72.5,79.92c-1.1,0-1.99-.89-1.99-1.99s.89-1.99,1.99-1.99,1.99.89,1.99,1.99-.89,1.99-1.99,1.99Z"/>
      <path class="cls-1" d="m77.92,74.49c-1.09,0-1.99-.89-1.99-1.99s.89-1.99,1.99-1.99,1.99.89,1.99,1.99-.89,1.99-1.99,1.99Z"/>
      <path class="cls-1" d="m67.08,74.49c-1.09,0-1.99-.89-1.99-1.99s.89-1.99,1.99-1.99,1.99.89,1.99,1.99-.89,1.99-1.99,1.99Z"/>
      <circle class="cls-1" cx="61.66" cy="99.62" r="1.99"/>
      <path class="cls-1" d="m72.5,101.61c-1.1,0-1.99-.89-1.99-1.99s.89-1.99,1.99-1.99,1.99.89,1.99,1.99-.89,1.99-1.99,1.99Z"/>
      <path class="cls-1" d="m56.23,41.95c-.53,0-1.03-.21-1.41-.58-.38-.38-.58-.87-.58-1.41s.21-1.03.58-1.41c.38-.38.87-.58,1.41-.58,1.1,0,1.99.89,1.99,1.99s-.89,1.99-1.99,1.99Z"/>
      <path class="cls-1" d="m45.38,41.95c-1.09,0-1.99-.89-1.99-1.99s.89-1.99,1.99-1.99,1.99.89,1.99,1.99-.89,1.99-1.99,1.99Z"/>
      <path class="cls-1" d="m39.96,47.37c-1.1,0-1.99-.89-1.99-1.99s.89-1.99,1.99-1.99,1.99.89,1.99,1.99-.89,1.99-1.99,1.99Z"/>
      <path class="cls-1" d="m50.81,47.37c-1.1,0-1.99-.89-1.99-1.99s.89-1.99,1.99-1.99,1.99.89,1.99,1.99-.89,1.99-1.99,1.99Z"/>
      <path class="cls-1" d="m39.96,36.52c-1.1,0-1.99-.89-1.99-1.99s.89-1.99,1.99-1.99,1.99.89,1.99,1.99-.89,1.99-1.99,1.99Z"/>
      <path class="cls-1" d="m50.81,36.52c-1.1,0-1.99-.89-1.99-1.99s.89-1.99,1.99-1.99,1.99.89,1.99,1.99-.89,1.99-1.99,1.99Z"/>
      <path class="cls-1" d="m56.23,63.64c-.53,0-1.03-.21-1.41-.58-.38-.38-.58-.88-.58-1.41s.21-1.03.58-1.41c.38-.38.87-.58,1.41-.58,1.1,0,1.99.89,1.99,1.99s-.89,1.99-1.99,1.99h0Z"/>
      <path class="cls-1" d="m45.38,63.64c-1.09,0-1.99-.89-1.99-1.99s.89-1.99,1.99-1.99,1.99.89,1.99,1.99-.89,1.99-1.99,1.99Z"/>
      <circle class="cls-1" cx="39.96" cy="67.08" r="1.99"/>
      <path class="cls-1" d="m50.81,69.07c-1.1,0-1.99-.89-1.99-1.99s.89-1.99,1.99-1.99,1.99.89,1.99,1.99-.89,1.99-1.99,1.99Z"/>
      <path class="cls-1" d="m39.96,58.22c-1.1,0-1.99-.89-1.99-1.99s.89-1.99,1.99-1.99,1.99.89,1.99,1.99-.89,1.99-1.99,1.99Z"/>
      <path class="cls-1" d="m50.81,58.22c-1.1,0-1.99-.89-1.99-1.99s.89-1.99,1.99-1.99,1.99.89,1.99,1.99-.89,1.99-1.99,1.99Z"/>
      <path class="cls-1" d="m56.23,52.79c-.53,0-1.03-.21-1.41-.58-.38-.38-.58-.88-.58-1.41s.21-1.03.58-1.41c.38-.38.87-.58,1.41-.58,1.1,0,1.99.89,1.99,1.99s-.89,1.99-1.99,1.99Z"/>
      <path class="cls-1" d="m45.38,52.79c-1.09,0-1.99-.89-1.99-1.99s.89-1.99,1.99-1.99,1.99.89,1.99,1.99-.89,1.99-1.99,1.99Z"/>
      <path class="cls-1" d="m56.23,96.19c-.53,0-1.03-.21-1.41-.58-.38-.38-.58-.88-.58-1.41,0-.27.05-.53.16-.77.1-.24.25-.45.43-.63.38-.38.87-.58,1.41-.58.8,0,1.52.48,1.83,1.21.1.25.16.51.16.77,0,1.1-.89,1.99-1.99,1.99h0Z"/>
      <path class="cls-1" d="m45.38,96.19c-1.09,0-1.99-.89-1.99-1.99,0-.27.05-.53.16-.77.31-.74,1.03-1.21,1.83-1.21s1.52.48,1.83,1.21c.1.24.16.5.16.77,0,1.1-.89,1.99-1.99,1.99Z"/>
      <path class="cls-1" d="m56.23,85.34c-.53,0-1.03-.21-1.41-.58-.38-.38-.58-.88-.58-1.41s.21-1.03.58-1.41c.38-.38.87-.58,1.41-.58,1.1,0,1.99.89,1.99,1.99s-.89,1.99-1.99,1.99h0Z"/>
      <path class="cls-1" d="m45.38,85.34c-1.09,0-1.99-.89-1.99-1.99s.89-1.99,1.99-1.99,1.99.89,1.99,1.99-.89,1.99-1.99,1.99Z"/>
      <circle class="cls-1" cx="39.96" cy="88.78" r="1.99"/>
      <path class="cls-1" d="m50.81,90.76c-1.1,0-1.99-.89-1.99-1.99s.89-1.99,1.99-1.99,1.99.89,1.99,1.99-.89,1.99-1.99,1.99Z"/>
      <circle class="cls-1" cx="39.96" cy="77.93" r="1.99"/>
      <path class="cls-1" d="m50.81,79.92c-1.1,0-1.99-.89-1.99-1.99s.89-1.99,1.99-1.99,1.99.89,1.99,1.99-.89,1.99-1.99,1.99Z"/>
      <path class="cls-1" d="m56.23,74.49c-.53,0-1.03-.21-1.41-.58-.38-.38-.58-.88-.58-1.41s.21-1.03.58-1.41c.38-.38.87-.58,1.41-.58,1.1,0,1.99.89,1.99,1.99s-.89,1.99-1.99,1.99h0Z"/>
      <path class="cls-1" d="m45.38,74.49c-1.09,0-1.99-.89-1.99-1.99s.89-1.99,1.99-1.99,1.99.89,1.99,1.99-.89,1.99-1.99,1.99Z"/>
      <path class="cls-1" d="m56.23,107.04c-.53,0-1.03-.21-1.41-.58-.38-.38-.58-.88-.58-1.41s.21-1.03.58-1.41c.38-.38.87-.58,1.41-.58,1.1,0,1.99.89,1.99,1.99s-.89,1.99-1.99,1.99h0Z"/>
      <circle class="cls-1" cx="39.96" cy="99.62" r="1.99"/>
      <path class="cls-1" d="m50.81,101.61c-1.1,0-1.99-.89-1.99-1.99s.89-1.99,1.99-1.99,1.99.89,1.99,1.99-.89,1.99-1.99,1.99Z"/>
      <path class="cls-1" d="m34.54,41.95c-1.1,0-1.99-.89-1.99-1.99s.89-1.99,1.99-1.99,1.99.89,1.99,1.99-.89,1.99-1.99,1.99Z"/>
      <path class="cls-1" d="m23.69,41.95c-1.1,0-1.99-.89-1.99-1.99s.89-1.99,1.99-1.99,1.99.89,1.99,1.99-.89,1.99-1.99,1.99Z"/>
      <path class="cls-1" d="m18.26,47.37c-1.1,0-1.99-.89-1.99-1.99s.89-1.99,1.99-1.99,1.99.89,1.99,1.99-.89,1.99-1.99,1.99Z"/>
      <path class="cls-1" d="m29.11,47.37c-1.1,0-1.99-.89-1.99-1.99s.89-1.99,1.99-1.99,1.99.89,1.99,1.99-.89,1.99-1.99,1.99Z"/>
      <path class="cls-1" d="m18.26,36.52c-1.1,0-1.99-.89-1.99-1.99s.89-1.99,1.99-1.99,1.99.89,1.99,1.99-.89,1.99-1.99,1.99Z"/>
      <path class="cls-1" d="m34.54,63.64c-1.1,0-1.99-.89-1.99-1.99s.89-1.99,1.99-1.99,1.99.89,1.99,1.99-.89,1.99-1.99,1.99Z"/>
      <path class="cls-1" d="m23.69,63.64c-1.1,0-1.99-.89-1.99-1.99s.89-1.99,1.99-1.99,1.99.89,1.99,1.99-.89,1.99-1.99,1.99Z"/>
      <circle class="cls-1" cx="18.26" cy="67.08" r="1.99"/>
      <circle class="cls-1" cx="29.11" cy="67.08" r="1.99"/>
      <path class="cls-1" d="m18.26,58.22c-1.1,0-1.99-.89-1.99-1.99s.89-1.99,1.99-1.99,1.99.89,1.99,1.99-.89,1.99-1.99,1.99Z"/>
      <path class="cls-1" d="m29.11,58.22c-1.1,0-1.99-.89-1.99-1.99s.89-1.99,1.99-1.99,1.99.89,1.99,1.99-.89,1.99-1.99,1.99Z"/>
      <path class="cls-1" d="m34.54,52.79c-1.1,0-1.99-.89-1.99-1.99s.89-1.99,1.99-1.99,1.99.89,1.99,1.99-.89,1.99-1.99,1.99Z"/>
      <path class="cls-1" d="m23.69,52.79c-1.1,0-1.99-.89-1.99-1.99s.89-1.99,1.99-1.99,1.99.89,1.99,1.99-.89,1.99-1.99,1.99Z"/>
      <path class="cls-1" d="m23.69,96.19c-1.1,0-1.99-.89-1.99-1.99,0-.27.05-.53.16-.77.31-.74,1.03-1.21,1.83-1.21s1.52.48,1.83,1.21c.1.24.16.5.16.77,0,1.1-.89,1.99-1.99,1.99h0Z"/>
      <path class="cls-1" d="m34.54,85.34c-1.1,0-1.99-.89-1.99-1.99s.89-1.99,1.99-1.99,1.99.89,1.99,1.99-.89,1.99-1.99,1.99Z"/>
      <path class="cls-1" d="m23.69,85.34c-1.1,0-1.99-.89-1.99-1.99s.89-1.99,1.99-1.99,1.99.89,1.99,1.99-.89,1.99-1.99,1.99Z"/>
      <circle class="cls-1" cx="18.26" cy="88.78" r="1.99"/>
      <circle class="cls-1" cx="29.11" cy="88.78" r="1.99"/>
      <circle class="cls-1" cx="18.26" cy="77.93" r="1.99"/>
      <circle class="cls-1" cx="29.11" cy="77.93" r="1.99"/>
      <circle class="cls-1" cx="34.54" cy="72.5" r="1.99"/>
      <path class="cls-1" d="m23.69,74.49c-1.1,0-1.99-.89-1.99-1.99s.89-1.99,1.99-1.99,1.99.89,1.99,1.99-.89,1.99-1.99,1.99Z"/>
      <circle class="cls-1" cx="18.26" cy="99.62" r="1.99"/>
      <path class="cls-1" d="m12.84,41.95c-.53,0-1.03-.21-1.41-.58-.37-.37-.58-.87-.58-1.41s.21-1.03.58-1.41c.38-.38.87-.58,1.41-.58,1.1,0,1.99.89,1.99,1.99s-.89,1.99-1.99,1.99Z"/>
      <path class="cls-1" d="m7.42,47.37c-1.1,0-1.99-.89-1.99-1.99s.89-1.99,1.99-1.99,1.99.89,1.99,1.99-.89,1.99-1.99,1.99Z"/>
      <path class="cls-1" d="m12.84,63.64c-.53,0-1.03-.21-1.41-.58-.37-.37-.58-.87-.58-1.41s.21-1.03.58-1.41c.38-.38.87-.58,1.41-.58,1.1,0,1.99.89,1.99,1.99s-.89,1.99-1.99,1.99h0Z"/>
      <path class="cls-1" d="m1.99,63.64c-1.1,0-1.99-.89-1.99-1.99s.89-1.99,1.99-1.99,1.99.89,1.99,1.99-.89,1.99-1.99,1.99Z"/>
      <circle class="cls-1" cx="7.42" cy="67.08" r="1.99"/>
      <path class="cls-1" d="m7.42,58.22c-1.1,0-1.99-.89-1.99-1.99s.89-1.99,1.99-1.99,1.99.89,1.99,1.99-.89,1.99-1.99,1.99Z"/>
      <path class="cls-1" d="m12.84,52.79c-.53,0-1.03-.21-1.41-.58-.37-.37-.58-.87-.58-1.41s.21-1.03.58-1.41c.38-.38.87-.58,1.41-.58,1.1,0,1.99.89,1.99,1.99s-.89,1.99-1.99,1.99Z"/>
      <path class="cls-1" d="m12.84,96.19c-.53,0-1.03-.21-1.41-.58-.37-.37-.58-.87-.58-1.41,0-.27.05-.53.16-.77.1-.24.24-.45.43-.63.38-.37.87-.58,1.4-.58.8,0,1.52.48,1.83,1.21.1.24.16.5.16.77,0,1.1-.89,1.99-1.99,1.99Z"/>
      <path class="cls-1" d="m12.84,85.34c-.53,0-1.03-.21-1.41-.58-.37-.37-.58-.87-.58-1.41s.21-1.03.58-1.41c.38-.38.87-.58,1.41-.58,1.1,0,1.99.89,1.99,1.99s-.89,1.99-1.99,1.99h0Z"/>
      <path class="cls-1" d="m1.99,85.34c-1.1,0-1.99-.89-1.99-1.99s.89-1.99,1.99-1.99,1.99.89,1.99,1.99-.89,1.99-1.99,1.99Z"/>
      <circle class="cls-1" cx="7.42" cy="88.78" r="1.99"/>
      <circle class="cls-1" cx="7.42" cy="77.93" r="1.99"/>
      <path class="cls-1" d="m12.84,74.49c-.53,0-1.03-.21-1.41-.58-.37-.37-.58-.87-.58-1.41s.21-1.03.58-1.41c.38-.38.87-.58,1.41-.58,1.1,0,1.99.89,1.99,1.99s-.89,1.99-1.99,1.99h0Z"/>
      <circle class="cls-1" cx="1.99" cy="72.5" r="1.99"/>
      <path class="cls-1" d="m12.84,107.04c-.53,0-1.03-.21-1.41-.58-.37-.37-.58-.87-.58-1.41s.21-1.03.58-1.41c.38-.38.87-.58,1.41-.58,1.1,0,1.99.89,1.99,1.99s-.89,1.99-1.99,1.99h0Z"/>
      <circle class="cls-1" cx="7.42" cy="99.62" r="1.99"/>
    </g>
  </g>
</svg>