<?xml version="1.0" encoding="UTF-8"?>
<svg id="_レイヤー_2" data-name="レイヤー 2" xmlns="http://www.w3.org/2000/svg" viewBox="0 0 146.33 45.84">
  <defs>
    <style>
      .cls-1 {
        stroke-width: 0px;
      }
    </style>
  </defs>
  <g id="_レイヤー_1-2" data-name="レイヤー 1">
    <g>
      <g>
        <path class="cls-1" d="m5.95,40.41c.43.91,1.06,1.68,1.86,2.33.64-.45,1.26-.92,1.78-1.41.15-.15.28-.31.39-.52.31.2.48.32.7.5.07.07.1.11.1.17,0,.07-.06.11-.17.14-.13.04-.21.07-.46.27-.55.43-1.11.87-1.78,1.29,1.16.78,2.58,1.34,4.17,1.69-.13.13-.25.28-.38.52-.14.27-.17.28-.43.21-3.12-.84-5.52-2.56-6.62-5.18h-1.72v3.78c.92-.27,1.82-.55,2.9-.94-.04.18-.04.35-.04.52,0,.28-.03.29-.29.39-1.72.64-3.11,1.01-4.55,1.39-.27.07-.46.15-.53.21-.06.04-.08.08-.15.08-.06,0-.08-.03-.14-.13-.11-.24-.24-.57-.31-.83.56-.08.97-.15,1.5-.28l.79-.2v-4.01h-.62c-1.3,0-1.75.03-1.82.03-.1,0-.11-.01-.11-.11v-.6c0-.1.01-.11.11-.11.07,0,.52.03,1.82.03h.62v-4.06c0-1.06-.03-1.5-.03-1.57,0-.1.01-.11.11-.11.06,0,.56.03,1.95.03h4.3c1.4,0,1.86-.03,1.95-.03.1,0,.11.01.11.11v.6c0,.1-.01.11-.11.11-.08,0-.55-.03-1.95-.03H3.39v1.16h4.9c1.34,0,1.78-.03,1.86-.03.1,0,.11.01.11.11v.57c0,.1-.01.11-.11.11-.08,0-.52-.03-1.86-.03H3.39v1.08h4.9c1.34,0,1.76-.03,1.85-.03.1,0,.11.01.11.11v.57c0,.1-.01.11-.11.11-.08,0-.5-.03-1.85-.03H3.39v1.22h6.92c1.32,0,1.75-.03,1.83-.03.1,0,.11.01.11.11v.6c0,.1-.01.11-.11.11-.08,0-.52-.03-1.83-.03h-4.36Z"/>
        <path class="cls-1" d="m18.97,43.56c.91-.15,1.85-.35,2.79-.59-.06.18-.07.31-.08.49q-.03.28-.31.35c-1.44.36-3.24.71-4.9.98-.32.04-.49.1-.56.14-.08.06-.13.08-.2.08s-.11-.06-.15-.17c-.08-.25-.15-.53-.21-.8.42-.01.8-.06,1.33-.13.48-.06.99-.14,1.53-.22v-1.91h-.76c-1.21,0-1.61.03-1.68.03-.1,0-.11-.01-.11-.11v-.56c0-.1.01-.11.11-.11.07,0,.48.03,1.68.03h.76v-1.57h-.66c-1.16,0-1.55.03-1.62.03-.1,0-.11-.01-.11-.11,0-.07.03-.42.03-1.44v-2.47c0-.99-.03-1.37-.03-1.44,0-.1.01-.11.11-.11.07,0,.46.03,1.62.03h2.1c1.16,0,1.55-.03,1.62-.03.11,0,.13.01.13.11,0,.07-.03.45-.03,1.44v2.47c0,1.02.03,1.37.03,1.44,0,.1-.01.11-.13.11-.07,0-.46-.03-1.62-.03h-.67v1.57h.88c1.2,0,1.6-.03,1.68-.03.1,0,.11.01.11.11v.56c0,.1-.01.11-.11.11-.08,0-.48-.03-1.68-.03h-.88v1.77Zm-.77-8.88h-1.61v1.68h1.61v-1.68Zm0,2.35h-1.61v1.79h1.61v-1.79Zm2.42-2.35h-1.65v1.68h1.65v-1.68Zm0,2.35h-1.65v1.79h1.65v-1.79Zm6.28,1.32c.13,0,.18-.01.22-.03.07-.03.1-.04.15-.04.08,0,.15.04.36.25.18.2.25.29.25.38,0,.06-.03.1-.1.15-.06.04-.11.17-.21.34-.41.71-.81,1.27-1.34,1.86-.08.1-.13.15-.18.15-.04,0-.1-.04-.2-.13-.17-.13-.34-.21-.5-.27.69-.66,1.12-1.22,1.48-1.93h-1.88v3.59c0,.64.01,1.25.01,1.67,0,.56-.1.84-.38,1.05-.31.21-.63.25-1.79.25q-.28,0-.35-.28c-.06-.22-.15-.43-.27-.6.43.06.74.07,1.29.07.5,0,.67-.1.67-.66v-5.08h-.55c-1.25,0-1.64.03-1.71.03-.1,0-.11-.01-.11-.11v-.56c0-.11.01-.13.11-.13.07,0,.46.03,1.71.03h1.3c-.73-.87-1.44-1.55-2.25-2.17-.1-.07-.08-.11.06-.21l.31-.24c.11-.08.14-.1.22-.04.41.32.8.64,1.18.99.6-.53,1.19-1.18,1.72-1.92h-2.4c-1.13,0-1.48.03-1.55.03-.1,0-.11-.01-.11-.11v-.56c0-.1.01-.11.11-.11.07,0,.42.03,1.55.03h2.55c.17,0,.24-.03.29-.06.07-.03.11-.04.17-.04.07,0,.15.06.36.27.24.24.28.34.28.43,0,.07-.06.14-.13.18-.14.1-.24.18-.48.46-.55.7-1.09,1.27-1.85,1.93.21.22.43.45.64.69.07.07.06.11-.06.21l-.31.24h1.67Z"/>
        <path class="cls-1" d="m39.6,38.6c.18,0,.28-.03.35-.06.04-.01.1-.03.14-.03.1,0,.17.06.38.27.18.18.27.31.27.39,0,.07-.06.13-.14.18-.1.07-.17.13-.29.34-.76,1.25-1.65,2.27-2.72,3.12,1.51,1.04,3.39,1.67,5.58,2.12-.17.15-.31.35-.42.62-.11.25-.13.25-.39.2-2.21-.57-4.02-1.3-5.48-2.38-1.47,1.02-3.24,1.79-5.34,2.37-.27.07-.25.06-.38-.2-.1-.2-.24-.39-.38-.53,2.2-.53,3.98-1.23,5.41-2.19-1.02-.9-1.83-2.02-2.46-3.45-1.12.01-1.54.03-1.6.03-.1,0-.11-.01-.11-.11v-.62c0-.08.01-.1.11-.1.07,0,.55.03,1.95.03h2.33v-2.24h-3.45c-1.34,0-1.79.03-1.86.03-.1,0-.11-.01-.11-.11v-.62c0-.1.01-.11.11-.11.07,0,.52.03,1.86.03h3.45v-.6c0-.88.01-1.2-.11-1.69.34.01.7.04.98.08.11.01.2.07.2.14,0,.08-.06.18-.08.28-.04.14-.1.36-.1,1.13v.66h3.68c1.34,0,1.79-.03,1.86-.03.1,0,.11.01.11.11v.62c0,.1-.01.11-.11.11-.07,0-.52-.03-1.86-.03h-3.68v2.24h2.33Zm-4.94.77c.57,1.22,1.33,2.17,2.24,2.94,1.04-.81,1.86-1.78,2.55-2.94h-4.79Z"/>
        <path class="cls-1" d="m53.23,39.12c0,.1-.01.11-.11.11-.08,0-.5-.03-1.82-.03h-3.11c-1.32,0-1.75.03-1.82.03-.1,0-.11-.01-.11-.11v-.59c0-.1.01-.11.11-.11.07,0,.5.03,1.82.03h2.2c.32-.73.48-1.19.63-1.68.06-.22.13-.52.13-.76.28.06.6.14.81.21.11.04.17.08.17.14,0,.1-.04.15-.11.22-.06.07-.13.14-.21.34-.2.49-.41.98-.64,1.53h.14c1.32,0,1.74-.03,1.82-.03.1,0,.11.01.11.11v.59Zm-.22-3.64c0,.1-.01.11-.1.11s-.49-.03-1.75-.03h-2.66c-1.27,0-1.68.03-1.75.03-.1,0-.11-.01-.11-.11v-.57c0-.1.01-.11.11-.11.07,0,.48.03,1.75.03h.88v-.41c0-.56-.01-.9-.08-1.2.34.01.6.04.88.08.1.01.17.06.17.11,0,.08-.04.14-.08.24-.06.11-.07.31-.07.77v.41h.97c1.26,0,1.67-.03,1.75-.03s.1.01.1.11v.57Zm-.7,7.76c0,1.95.03,2.27.03,2.34,0,.11-.01.13-.11.13h-.6c-.1,0-.11-.01-.11-.13v-.78h-3.42v.84c0,.08-.01.1-.11.1h-.63c-.08,0-.1-.01-.1-.1s.03-.41.03-2.37v-1.04c0-1.06-.03-1.43-.03-1.51,0-.1.01-.11.1-.11s.43.03,1.53.03h1.81c1.09,0,1.46-.03,1.54-.03.1,0,.11.01.11.11,0,.07-.03.45-.03,1.34v1.18Zm-4.22-7.23c.15-.04.21-.03.24.04.25.52.46,1.09.6,1.72q.03.13-.14.18l-.41.11c-.18.06-.2.03-.22-.08-.13-.56-.32-1.19-.57-1.71-.06-.11-.04-.11.14-.17l.36-.1Zm3.42,5.36h-3.42v2.68h3.42v-2.68Zm5.84-7.38c.18,0,.31-.01.36-.04.07-.03.1-.03.15-.03.08,0,.17.04.38.25.2.21.24.31.24.38,0,.08-.03.14-.1.18-.08.06-.17.17-.29.45-.52,1.15-1.11,2.28-1.76,3.36,1.74,1.4,2.18,2.27,2.18,3.29,0,1.29-.88,2.03-2.62,2.12q-.27.03-.34-.27c-.06-.24-.14-.42-.25-.53,1.57.03,2.38-.38,2.38-1.39,0-.85-.38-1.51-2.28-3.11.77-1.22,1.4-2.47,1.96-3.91h-2.69v8.15c0,1.91.03,2.76.03,2.83,0,.08-.01.1-.11.1h-.64c-.1,0-.11-.01-.11-.1s.03-.87.03-2.82v-6.01c0-1.95-.03-2.75-.03-2.83,0-.1.01-.11.11-.11.08,0,.42.03,1.25.03h2.16Z"/>
      </g>
      <g>
        <path class="cls-1" d="m4.87,17.75c.06,2.3.34,3.02,1.09,3.25.53.14,1.15.17,1.4.17.14,0,.22.06.22.17,0,.17-.17.22-.5.22-1.6,0-2.72-.08-2.97-.08s-1.43.08-2.69.08c-.28,0-.45-.03-.45-.22,0-.11.08-.17.22-.17.22,0,.73-.03,1.15-.17.7-.2.84-1.01.84-3.56l.03-16.04c0-1.09.08-1.4.31-1.4s.7.62.98.9c.42.48,4.59,4.98,8.9,9.6,2.77,2.97,5.82,6.38,6.72,7.31l-.31-14.22c-.03-1.82-.22-2.44-1.09-2.66-.5-.11-1.15-.14-1.37-.14-.2,0-.22-.08-.22-.2,0-.17.22-.2.56-.2,1.26,0,2.6.08,2.91.08s1.23-.08,2.38-.08c.31,0,.5.03.5.2,0,.11-.11.2-.31.2-.14,0-.34,0-.67.08-.92.2-1.04.81-1.04,2.49l-.06,16.41c0,1.85-.06,1.99-.25,1.99-.22,0-.56-.31-2.04-1.79-.31-.28-4.34-4.4-7.31-7.59-3.25-3.5-6.41-7.03-7.31-8.04l.36,13.41Z"/>
        <path class="cls-1" d="m36.06,1.09c.34-.92.45-1.09.62-1.09s.28.14.62,1.01c.42,1.06,4.82,12.63,6.52,16.88,1.01,2.49,1.82,2.94,2.41,3.11.42.14.84.17,1.12.17.17,0,.28.03.28.17,0,.17-.25.22-.56.22-.42,0-2.46,0-4.4-.06-.53-.03-.84-.03-.84-.2,0-.11.08-.17.2-.2.17-.06.34-.31.17-.76l-2.6-6.89c-.06-.11-.11-.17-.25-.17h-6.02c-.14,0-.22.08-.28.22l-1.68,4.96c-.25.7-.39,1.37-.39,1.88,0,.56.59.81,1.06.81h.28c.2,0,.28.06.28.17,0,.17-.17.22-.42.22-.67,0-1.88-.08-2.18-.08s-1.85.08-3.16.08c-.36,0-.53-.06-.53-.22,0-.11.11-.17.25-.17.2,0,.59-.03.81-.06,1.29-.17,1.85-1.23,2.35-2.63L36.06,1.09Zm2.91,11.2c.14,0,.14-.08.11-.2l-2.66-7.56c-.14-.42-.28-.42-.42,0l-2.46,7.56c-.06.14,0,.2.08.2h5.35Z"/>
        <path class="cls-1" d="m66.33,14.42c0-2.27-.14-2.58-1.26-2.88-.22-.06-.7-.08-.95-.08-.11,0-.22-.06-.22-.17,0-.17.14-.22.45-.22,1.26,0,3.02.08,3.16.08s1.9-.08,2.74-.08c.31,0,.45.06.45.22,0,.11-.11.17-.22.17-.2,0-.36.03-.7.08-.76.14-.98.62-1.04,1.6-.06.9-.06,1.74-.06,2.91v3.14c0,1.26-.03,1.32-.36,1.51-1.79.95-4.31,1.26-5.94,1.26-2.13,0-6.1-.28-9.21-3-1.71-1.48-3.33-4.48-3.33-7.98,0-4.48,2.18-7.64,4.68-9.21,2.52-1.57,5.29-1.76,7.45-1.76,1.76,0,3.75.36,4.28.48.59.14,1.57.25,2.27.28.28.03.34.14.34.25,0,.39-.2,1.18-.2,3.98,0,.45-.06.59-.25.59-.14,0-.17-.17-.2-.42-.03-.39-.17-1.18-.59-1.85-.7-1.06-2.97-2.27-6.58-2.27-1.76,0-3.86.17-5.99,1.85-1.62,1.29-2.77,3.84-2.77,7.11,0,3.95,1.99,6.8,2.97,7.76,2.21,2.16,4.76,3,7.34,3,1.01,0,2.46-.17,3.19-.59.36-.2.56-.5.56-.98v-4.76Z"/>
        <path class="cls-1" d="m82.6,1.09c.34-.92.45-1.09.62-1.09s.28.14.62,1.01c.42,1.06,4.82,12.63,6.52,16.88,1.01,2.49,1.82,2.94,2.41,3.11.42.14.84.17,1.12.17.17,0,.28.03.28.17,0,.17-.25.22-.56.22-.42,0-2.46,0-4.4-.06-.53-.03-.84-.03-.84-.2,0-.11.08-.17.2-.2.17-.06.34-.31.17-.76l-2.6-6.89c-.06-.11-.11-.17-.25-.17h-6.02c-.14,0-.22.08-.28.22l-1.68,4.96c-.25.7-.39,1.37-.39,1.88,0,.56.59.81,1.06.81h.28c.2,0,.28.06.28.17,0,.17-.17.22-.42.22-.67,0-1.88-.08-2.18-.08s-1.85.08-3.16.08c-.36,0-.53-.06-.53-.22,0-.11.11-.17.25-.17.2,0,.59-.03.81-.06,1.29-.17,1.85-1.23,2.35-2.63l6.36-17.39Zm2.91,11.2c.14,0,.14-.08.11-.2l-2.66-7.56c-.14-.42-.28-.42-.42,0l-2.46,7.56c-.06.14,0,.2.08.2h5.35Z"/>
        <path class="cls-1" d="m100.32,17.75c.06,2.3.34,3.02,1.09,3.25.53.14,1.15.17,1.4.17.14,0,.22.06.22.17,0,.17-.17.22-.5.22-1.6,0-2.72-.08-2.97-.08s-1.43.08-2.69.08c-.28,0-.45-.03-.45-.22,0-.11.08-.17.22-.17.22,0,.73-.03,1.15-.17.7-.2.84-1.01.84-3.56l.03-16.04c0-1.09.08-1.4.31-1.4s.7.62.98.9c.42.48,4.59,4.98,8.9,9.6,2.77,2.97,5.82,6.38,6.72,7.31l-.31-14.22c-.03-1.82-.22-2.44-1.09-2.66-.5-.11-1.15-.14-1.37-.14-.2,0-.22-.08-.22-.2,0-.17.22-.2.56-.2,1.26,0,2.6.08,2.91.08s1.23-.08,2.38-.08c.31,0,.5.03.5.2,0,.11-.11.2-.31.2-.14,0-.34,0-.67.08-.92.2-1.04.81-1.04,2.49l-.06,16.41c0,1.85-.06,1.99-.25,1.99-.22,0-.56-.31-2.04-1.79-.31-.28-4.34-4.4-7.31-7.59-3.25-3.5-6.41-7.03-7.31-8.04l.36,13.41Z"/>
        <path class="cls-1" d="m135.32,0c6.3,0,11,3.98,11,10.5s-4.42,11.45-11.17,11.45c-7.67,0-10.86-5.96-10.86-11,0-4.54,3.3-10.95,11.03-10.95Zm.59,20.89c2.52,0,7.73-1.46,7.73-9.6,0-6.72-4.09-10.33-8.51-10.33-4.68,0-8.18,3.08-8.18,9.21,0,6.52,3.92,10.72,8.96,10.72Z"/>
      </g>
    </g>
  </g>
</svg>