<?xml version="1.0" encoding="UTF-8"?>
<svg id="_レイヤー_2" xmlns="http://www.w3.org/2000/svg" width="145.35" height="21.95" viewBox="0 0 145.35 21.95">
    <g id="_レイヤー_1-2">
        <g><path class="red"
            d="M3.89,17.75c.06,2.3,.34,3.02,1.09,3.25,.53,.14,1.15,.17,1.4,.17,.14,0,.22,.06,.22,.17,0,.17-.17,.22-.5,.22-1.6,0-2.72-.08-2.97-.08s-1.43,.08-2.69,.08c-.28,0-.45-.03-.45-.22,0-.11,.08-.17,.22-.17,.22,0,.73-.03,1.15-.17,.7-.2,.84-1.01,.84-3.56l.03-16.04c0-1.09,.08-1.4,.31-1.4s.7,.62,.98,.9c.42,.48,4.59,4.98,8.9,9.6,2.77,2.97,5.82,6.38,6.72,7.31l-.31-14.22c-.03-1.82-.22-2.44-1.09-2.66-.5-.11-1.15-.14-1.37-.14-.2,0-.22-.08-.22-.2,0-.17,.22-.2,.56-.2,1.26,0,2.6,.08,2.91,.08s1.23-.08,2.38-.08c.31,0,.5,.03,.5,.2,0,.11-.11,.2-.31,.2-.14,0-.34,0-.67,.08-.92,.2-1.04,.81-1.04,2.49l-.06,16.41c0,1.85-.06,1.99-.25,1.99-.22,0-.56-.31-2.04-1.79-.31-.28-4.34-4.4-7.31-7.59-3.25-3.5-6.41-7.03-7.31-8.04l.36,13.41Z"/>
            <path class="red"
            d="M35.08,1.09c.34-.92,.45-1.09,.62-1.09s.28,.14,.62,1.01c.42,1.06,4.82,12.63,6.52,16.88,1.01,2.49,1.82,2.94,2.41,3.11,.42,.14,.84,.17,1.12,.17,.17,0,.28,.03,.28,.17,0,.17-.25,.22-.56,.22-.42,0-2.46,0-4.4-.06-.53-.03-.84-.03-.84-.2,0-.11,.08-.17,.2-.2,.17-.06,.34-.31,.17-.76l-2.6-6.89c-.06-.11-.11-.17-.25-.17h-6.02c-.14,0-.22,.08-.28,.22l-1.68,4.96c-.25,.7-.39,1.37-.39,1.88,0,.56,.59,.81,1.06,.81h.28c.2,0,.28,.06,.28,.17,0,.17-.17,.22-.42,.22-.67,0-1.88-.08-2.18-.08s-1.85,.08-3.16,.08c-.36,0-.53-.06-.53-.22,0-.11,.11-.17,.25-.17,.2,0,.59-.03,.81-.06,1.29-.17,1.85-1.23,2.35-2.63L35.08,1.09Zm2.91,11.2c.14,0,.14-.08,.11-.2l-2.66-7.56c-.14-.42-.28-.42-.42,0l-2.46,7.56c-.06,.14,0,.2,.08,.2h5.35Z"/>
            <path class="red"
            d="M65.35,14.42c0-2.27-.14-2.58-1.26-2.88-.22-.06-.7-.08-.95-.08-.11,0-.22-.06-.22-.17,0-.17,.14-.22,.45-.22,1.26,0,3.02,.08,3.16,.08s1.9-.08,2.74-.08c.31,0,.45,.06,.45,.22,0,.11-.11,.17-.22,.17-.2,0-.36,.03-.7,.08-.76,.14-.98,.62-1.04,1.6-.06,.9-.06,1.74-.06,2.91v3.14c0,1.26-.03,1.32-.36,1.51-1.79,.95-4.31,1.26-5.94,1.26-2.13,0-6.1-.28-9.21-3-1.71-1.48-3.33-4.48-3.33-7.98,0-4.48,2.18-7.64,4.68-9.21,2.52-1.57,5.29-1.76,7.45-1.76,1.76,0,3.75,.36,4.28,.48,.59,.14,1.57,.25,2.27,.28,.28,.03,.34,.14,.34,.25,0,.39-.2,1.18-.2,3.98,0,.45-.06,.59-.25,.59-.14,0-.17-.17-.2-.42-.03-.39-.17-1.18-.59-1.85-.7-1.06-2.97-2.27-6.58-2.27-1.76,0-3.86,.17-5.99,1.85-1.62,1.29-2.77,3.84-2.77,7.11,0,3.95,1.99,6.8,2.97,7.76,2.21,2.16,4.76,3,7.34,3,1.01,0,2.46-.17,3.19-.59,.36-.2,.56-.5,.56-.98v-4.76Z"/>
            <path class="red"
            d="M81.62,1.09c.34-.92,.45-1.09,.62-1.09s.28,.14,.62,1.01c.42,1.06,4.82,12.63,6.52,16.88,1.01,2.49,1.82,2.94,2.41,3.11,.42,.14,.84,.17,1.12,.17,.17,0,.28,.03,.28,.17,0,.17-.25,.22-.56,.22-.42,0-2.46,0-4.4-.06-.53-.03-.84-.03-.84-.2,0-.11,.08-.17,.2-.2,.17-.06,.34-.31,.17-.76l-2.6-6.89c-.06-.11-.11-.17-.25-.17h-6.02c-.14,0-.22,.08-.28,.22l-1.68,4.96c-.25,.7-.39,1.37-.39,1.88,0,.56,.59,.81,1.06,.81h.28c.2,0,.28,.06,.28,.17,0,.17-.17,.22-.42,.22-.67,0-1.88-.08-2.18-.08s-1.85,.08-3.16,.08c-.36,0-.53-.06-.53-.22,0-.11,.11-.17,.25-.17,.2,0,.59-.03,.81-.06,1.29-.17,1.85-1.23,2.35-2.63L81.62,1.09Zm2.91,11.2c.14,0,.14-.08,.11-.2l-2.66-7.56c-.14-.42-.28-.42-.42,0l-2.46,7.56c-.06,.14,0,.2,.08,.2h5.35Z"/>
            <path class="red"
            d="M99.34,17.75c.06,2.3,.34,3.02,1.09,3.25,.53,.14,1.15,.17,1.4,.17,.14,0,.22,.06,.22,.17,0,.17-.17,.22-.5,.22-1.6,0-2.72-.08-2.97-.08s-1.43,.08-2.69,.08c-.28,0-.45-.03-.45-.22,0-.11,.08-.17,.22-.17,.22,0,.73-.03,1.15-.17,.7-.2,.84-1.01,.84-3.56l.03-16.04c0-1.09,.08-1.4,.31-1.4s.7,.62,.98,.9c.42,.48,4.59,4.98,8.9,9.6,2.77,2.97,5.82,6.38,6.72,7.31l-.31-14.22c-.03-1.82-.22-2.44-1.09-2.66-.5-.11-1.15-.14-1.37-.14-.2,0-.22-.08-.22-.2,0-.17,.22-.2,.56-.2,1.26,0,2.6,.08,2.91,.08s1.23-.08,2.38-.08c.31,0,.5,.03,.5,.2,0,.11-.11,.2-.31,.2-.14,0-.34,0-.67,.08-.92,.2-1.04,.81-1.04,2.49l-.06,16.41c0,1.85-.06,1.99-.25,1.99-.22,0-.56-.31-2.04-1.79-.31-.28-4.34-4.4-7.31-7.59-3.25-3.5-6.41-7.03-7.31-8.04l.36,13.41Z"/>
            <path class="red"
            d="M134.34,0c6.3,0,11,3.98,11,10.5s-4.42,11.45-11.17,11.45c-7.67,0-10.86-5.96-10.86-11,0-4.54,3.3-10.95,11.03-10.95Zm.59,20.89c2.52,0,7.73-1.46,7.73-9.6,0-6.72-4.09-10.33-8.51-10.33-4.68,0-8.18,3.08-8.18,9.21,0,6.52,3.92,10.72,8.96,10.72Z"/></g>
    </g>
</svg>