<?xml version="1.0" encoding="UTF-8"?>
<svg id="_レイヤー_2" data-name="レイヤー 2" xmlns="http://www.w3.org/2000/svg" viewBox="0 0 107.69 45.85">
  <defs>
    <style>
      .cls-1 {
        stroke-width: 0px;
      }
    </style>
  </defs>
  <g id="_レイヤー_1-2" data-name="レイヤー 1">
    <g>
      <g>
        <path class="cls-1" d="m6.74,38.08c.9,2.93,2.94,5.62,5.79,6.74-.18.15-.36.36-.5.59-.08.15-.13.21-.2.21-.04,0-.11-.03-.21-.08-2.42-1.27-4.45-3.71-5.37-6.72-.18.87-.43,1.67-.77,2.37-.97,1.99-2.37,3.32-4.52,4.4-.11.04-.17.07-.22.07-.07,0-.11-.06-.21-.2-.15-.2-.34-.35-.52-.48,2.37-.98,3.85-2.47,4.66-4.15.41-.84.66-1.74.81-2.75h-3.21c-1.34,0-1.79.03-1.86.03-.1,0-.11-.01-.11-.13v-.64c0-.1.01-.11.11-.11.07,0,.52.03,1.86.03h3.31c.07-.7.1-1.44.11-2.24.01-.78,0-1.16-.07-1.58.32.01.71.04.99.08.14.03.2.08.2.15,0,.11-.04.17-.08.27-.07.14-.1.41-.11,1.05-.01.78-.06,1.54-.14,2.27h3.77c1.34,0,1.79-.03,1.86-.03.1,0,.11.01.11.11v.64c0,.11-.01.13-.11.13-.07,0-.52-.03-1.86-.03h-3.5Z"/>
        <path class="cls-1" d="m19.25,33.98c.17,0,.28-.01.34-.04.06-.03.08-.03.13-.03.1,0,.18.06.38.25s.25.29.25.36-.04.13-.11.2c-.1.1-.18.24-.25.42-.48,1.06-.87,1.85-1.47,2.87,1.3,1.54,1.58,2.24,1.58,3.18s-.55,1.83-2.04,1.89q-.29.01-.35-.25c-.04-.24-.15-.45-.27-.57,1.16.07,1.85-.27,1.85-1.06,0-.73-.28-1.4-1.64-3.1.71-1.27,1.11-2.13,1.57-3.36h-2.2v8.18c0,1.89.03,2.76.03,2.83,0,.1-.01.11-.11.11h-.64c-.1,0-.11-.01-.11-.11,0-.08.03-.88.03-2.83v-6c0-1.96-.03-2.77-.03-2.86,0-.1.01-.11.11-.11.08,0,.39.03,1.11.03h1.86Zm6.81,3.36c.18,0,.28-.01.34-.04.06-.03.11-.06.17-.06.08,0,.21.08.38.27.2.21.27.32.27.41,0,.07-.04.11-.1.17-.08.07-.15.21-.24.53-.36,1.53-.92,2.89-1.74,4.05.74.91,1.68,1.67,2.84,2.37-.14.13-.27.29-.38.53-.06.14-.1.21-.15.21s-.11-.04-.21-.11c-1.02-.71-1.89-1.47-2.61-2.33-.81.95-1.82,1.77-3.08,2.42-.11.06-.18.1-.22.1-.07,0-.1-.07-.2-.21-.13-.2-.27-.34-.42-.43,1.47-.67,2.58-1.53,3.42-2.54-.85-1.23-1.43-2.69-1.74-4.59h-.49c-.04,1.27-.14,2.33-.38,3.46-.27,1.18-.88,2.69-2.19,4.09-.08.1-.14.15-.2.15-.04,0-.1-.06-.18-.15-.15-.17-.32-.28-.49-.35,1.29-1.22,2.03-2.79,2.3-4.1.24-1.13.32-2.56.32-4.27,0-1.96-.03-2.8-.03-2.87,0-.1.01-.11.11-.11.08,0,.52.03,1.81.03h2.93c1.29,0,1.71-.03,1.78-.03.1,0,.11.01.11.11v.63c0,.08-.01.1-.11.1-.07,0-.49-.03-1.78-.03h-3.99v2.61h4.15Zm-2.94.74c.29,1.57.78,2.84,1.51,3.91.77-1.15,1.25-2.47,1.53-3.91h-3.04Z"/>
        <path class="cls-1" d="m39.74,38.61c.18,0,.28-.03.35-.06.04-.01.1-.03.14-.03.1,0,.17.06.38.27.18.18.27.31.27.39,0,.07-.06.13-.14.18-.1.07-.17.13-.29.34-.76,1.25-1.65,2.27-2.72,3.12,1.51,1.04,3.39,1.67,5.58,2.12-.17.15-.31.35-.42.62-.11.25-.13.25-.39.2-2.21-.57-4.02-1.3-5.48-2.38-1.47,1.02-3.24,1.79-5.34,2.37-.27.07-.25.06-.38-.2-.1-.2-.24-.39-.38-.53,2.2-.53,3.98-1.23,5.41-2.19-1.02-.9-1.83-2.02-2.47-3.45-1.12.01-1.54.03-1.6.03-.1,0-.11-.01-.11-.11v-.62c0-.08.01-.1.11-.1.07,0,.55.03,1.95.03h2.33v-2.24h-3.45c-1.34,0-1.79.03-1.86.03-.1,0-.11-.01-.11-.11v-.62c0-.1.01-.11.11-.11.07,0,.52.03,1.86.03h3.45v-.6c0-.88.01-1.2-.11-1.69.34.01.7.04.98.08.11.01.2.07.2.14,0,.08-.06.18-.08.28-.04.14-.1.36-.1,1.13v.66h3.68c1.34,0,1.79-.03,1.86-.03.1,0,.11.01.11.11v.62c0,.1-.01.11-.11.11-.07,0-.52-.03-1.86-.03h-3.68v2.24h2.33Zm-4.94.77c.57,1.22,1.33,2.17,2.24,2.94,1.04-.81,1.86-1.78,2.55-2.94h-4.79Z"/>
        <path class="cls-1" d="m53.37,39.13c0,.1-.01.11-.11.11-.08,0-.5-.03-1.82-.03h-3.11c-1.32,0-1.75.03-1.82.03-.1,0-.11-.01-.11-.11v-.59c0-.1.01-.11.11-.11.07,0,.5.03,1.82.03h2.2c.32-.73.48-1.19.63-1.68.06-.22.13-.52.13-.76.28.06.6.14.81.21.11.04.17.08.17.14,0,.1-.04.15-.11.22-.06.07-.13.14-.21.34-.2.49-.41.98-.64,1.53h.14c1.32,0,1.74-.03,1.82-.03.1,0,.11.01.11.11v.59Zm-.22-3.64c0,.1-.01.11-.1.11s-.49-.03-1.75-.03h-2.66c-1.27,0-1.68.03-1.75.03-.1,0-.11-.01-.11-.11v-.57c0-.1.01-.11.11-.11.07,0,.48.03,1.75.03h.88v-.41c0-.56-.01-.9-.08-1.2.34.01.6.04.88.08.1.01.17.06.17.11,0,.08-.04.14-.08.24-.06.11-.07.31-.07.77v.41h.97c1.26,0,1.67-.03,1.75-.03s.1.01.1.11v.57Zm-.7,7.76c0,1.95.03,2.27.03,2.34,0,.11-.01.13-.11.13h-.6c-.1,0-.11-.01-.11-.13v-.78h-3.42v.84c0,.08-.01.1-.11.1h-.63c-.08,0-.1-.01-.1-.1s.03-.41.03-2.37v-1.04c0-1.06-.03-1.43-.03-1.51,0-.1.01-.11.1-.11s.43.03,1.53.03h1.81c1.09,0,1.46-.03,1.54-.03.1,0,.11.01.11.11,0,.07-.03.45-.03,1.34v1.18Zm-4.22-7.23c.15-.04.21-.03.24.04.25.52.46,1.09.6,1.72q.03.13-.14.18l-.41.11c-.18.06-.2.03-.22-.08-.13-.56-.32-1.19-.57-1.71-.06-.11-.04-.11.14-.17l.36-.1Zm3.42,5.36h-3.42v2.68h3.42v-2.68Zm5.84-7.38c.18,0,.31-.01.36-.04.07-.03.1-.03.15-.03.08,0,.17.04.38.25.2.21.24.31.24.38,0,.08-.03.14-.1.18-.08.06-.17.17-.29.45-.52,1.15-1.11,2.28-1.76,3.36,1.74,1.4,2.19,2.27,2.19,3.29,0,1.29-.88,2.03-2.62,2.12q-.27.03-.34-.27c-.06-.24-.14-.42-.25-.53,1.57.03,2.38-.38,2.38-1.39,0-.85-.38-1.51-2.28-3.11.77-1.22,1.4-2.47,1.96-3.91h-2.69v8.15c0,1.91.03,2.76.03,2.83,0,.08-.01.1-.11.1h-.64c-.1,0-.11-.01-.11-.1s.03-.87.03-2.82v-6.01c0-1.95-.03-2.75-.03-2.83,0-.1.01-.11.11-.11.08,0,.42.03,1.25.03h2.16Z"/>
      </g>
      <g>
        <path class="cls-1" d="m12.1,0c6.3,0,11,3.98,11,10.5s-4.42,11.45-11.17,11.45c-7.67,0-10.86-5.96-10.86-11C1.06,6.41,4.37,0,12.1,0Zm.59,20.89c2.52,0,7.73-1.46,7.73-9.6C20.41,4.56,16.32.95,11.9.95,7.22.95,3.72,4.03,3.72,10.16c0,6.52,3.92,10.72,8.96,10.72Z"/>
        <path class="cls-1" d="m29.48,21.2c-.39-.2-.42-.31-.42-1.06,0-1.4.11-2.52.14-2.97.03-.31.08-.45.22-.45.17,0,.2.08.2.31,0,.25,0,.64.08,1.04.42,2.07,2.27,2.86,4.14,2.86,2.69,0,4-1.93,4-3.72,0-1.93-.81-3.05-3.22-5.04l-1.26-1.04c-2.97-2.44-3.64-4.17-3.64-6.08,0-3,2.24-5.04,5.8-5.04,1.09,0,1.9.11,2.6.28.53.11.76.14.98.14s.28.06.28.2-.11,1.06-.11,2.97c0,.45-.06.64-.2.64-.17,0-.2-.14-.22-.36-.03-.34-.2-1.09-.36-1.4-.17-.31-.92-1.48-3.5-1.48-1.93,0-3.44,1.2-3.44,3.25,0,1.6.73,2.6,3.42,4.7l.78.62c3.3,2.6,4.09,4.34,4.09,6.58,0,1.15-.45,3.28-2.38,4.65-1.2.84-2.72,1.18-4.23,1.18-1.32,0-2.6-.2-3.75-.76Z"/>
        <path class="cls-1" d="m52.67,1.09c.34-.92.45-1.09.62-1.09s.28.14.62,1.01c.42,1.06,4.82,12.63,6.52,16.88,1.01,2.49,1.82,2.94,2.41,3.11.42.14.84.17,1.12.17.17,0,.28.03.28.17,0,.17-.25.22-.56.22-.42,0-2.46,0-4.4-.06-.53-.03-.84-.03-.84-.2,0-.11.08-.17.2-.2.17-.06.34-.31.17-.76l-2.6-6.89c-.06-.11-.11-.17-.25-.17h-6.02c-.14,0-.22.08-.28.22l-1.68,4.96c-.25.7-.39,1.37-.39,1.88,0,.56.59.81,1.06.81h.28c.2,0,.28.06.28.17,0,.17-.17.22-.42.22-.67,0-1.88-.08-2.18-.08s-1.85.08-3.16.08c-.36,0-.53-.06-.53-.22,0-.11.11-.17.25-.17.2,0,.59-.03.81-.06,1.29-.17,1.85-1.23,2.35-2.63L52.67,1.09Zm2.91,11.2c.14,0,.14-.08.11-.2l-2.66-7.56c-.14-.42-.28-.42-.42,0l-2.46,7.56c-.06.14,0,.2.08.2h5.35Z"/>
        <path class="cls-1" d="m69.64,8.51c0-4.37,0-5.15-.06-6.05-.06-.95-.28-1.4-1.2-1.6-.22-.06-.7-.08-.95-.08-.11,0-.22-.06-.22-.17,0-.17.14-.22.45-.22,1.26,0,2.91.08,3.08.08.25,0,1.88-.08,2.72-.08.31,0,.45.06.45.22,0,.11-.11.17-.22.17-.2,0-.36.03-.7.08-.76.14-.98.62-1.04,1.6-.06.9-.06,1.68-.06,6.05v1.68h.11c.48-.53,5.54-5.68,6.55-6.78.78-.81,1.51-1.54,1.51-2.02,0-.34-.14-.5-.36-.59-.14-.06-.25-.11-.25-.22,0-.14.14-.2.34-.2.56,0,1.43.08,2.1.08.14,0,1.99-.08,2.69-.08.31,0,.42.06.42.2s-.06.2-.28.2c-.42,0-1.01.14-1.57.39-1.15.5-1.76,1.2-3.02,2.41-.7.67-5.57,5.43-6.16,6.13.73.81,6.55,6.83,7.7,7.9,2.35,2.18,2.83,2.63,4.17,3.19.73.31,1.54.36,1.74.36s.36.06.36.17c0,.14-.14.22-.62.22h-1.43c-.78,0-1.32,0-1.93-.06-1.48-.14-2.18-.76-3.39-1.71-1.26-1.04-7.2-7.45-8.54-9.1h-.14v2.74c0,2.69,0,4.9.14,6.08.08.81.25,1.43,1.09,1.54.39.06.84.11,1.09.11.17,0,.22.08.22.17,0,.14-.14.22-.45.22-1.37,0-3-.08-3.22-.08s-1.85.08-2.69.08c-.31,0-.45-.06-.45-.22,0-.08.06-.17.22-.17.25,0,.59-.06.84-.11.56-.11.7-.73.81-1.54.14-1.18.14-3.39.14-6.08v-4.93Z"/>
        <path class="cls-1" d="m96.12,1.09c.34-.92.45-1.09.62-1.09s.28.14.62,1.01c.42,1.06,4.82,12.63,6.52,16.88,1.01,2.49,1.82,2.94,2.41,3.11.42.14.84.17,1.12.17.17,0,.28.03.28.17,0,.17-.25.22-.56.22-.42,0-2.46,0-4.4-.06-.53-.03-.84-.03-.84-.2,0-.11.08-.17.2-.2.17-.06.34-.31.17-.76l-2.6-6.89c-.06-.11-.11-.17-.25-.17h-6.02c-.14,0-.22.08-.28.22l-1.68,4.96c-.25.7-.39,1.37-.39,1.88,0,.56.59.81,1.06.81h.28c.2,0,.28.06.28.17,0,.17-.17.22-.42.22-.67,0-1.88-.08-2.18-.08s-1.85.08-3.16.08c-.36,0-.53-.06-.53-.22,0-.11.11-.17.25-.17.2,0,.59-.03.81-.06,1.29-.17,1.85-1.23,2.35-2.63l6.36-17.39Zm2.91,11.2c.14,0,.14-.08.11-.2l-2.66-7.56c-.14-.42-.28-.42-.42,0l-2.46,7.56c-.06.14,0,.2.08.2h5.35Z"/>
      </g>
    </g>
  </g>
</svg>