<?xml version="1.0" encoding="UTF-8"?>
<svg id="_レイヤー_2" data-name="レイヤー 2" xmlns="http://www.w3.org/2000/svg" viewBox="0 0 151.9 45.88">
  <defs>
    <style>
      .cls-1 {
        stroke-width: 0px;
      }
    </style>
  </defs>
  <g id="_レイヤー_1-2" data-name="レイヤー 1">
    <g>
      <g>
        <path class="cls-1" d="m11.36,40.57c0,3.78.03,4.43.03,4.51,0,.1-.01.11-.11.11h-.69c-.1,0-.11-.01-.11-.11v-.85H.91v.87c0,.1-.01.11-.11.11H.11c-.1,0-.11-.01-.11-.11,0-.08.03-.73.03-4.51v-2.59c0-2.62-.03-3.29-.03-3.36,0-.1.01-.11.11-.11.08,0,.57.03,1.93.03h7.3c1.37,0,1.86-.03,1.93-.03.1,0,.11.01.11.11,0,.07-.03.74-.03,3.03v2.91Zm-.88-5.21h-3.18v4.13c0,.38.04.49.17.56.18.1.32.1.78.1.34,0,.49,0,.7-.13.22-.14.25-.6.29-1.41.18.14.35.22.55.29.25.08.25.1.24.34-.08.8-.21,1.22-.56,1.46-.28.18-.55.24-1.25.24-.83,0-1.06-.04-1.34-.17-.27-.13-.43-.32-.43-.87v-4.54h-1.86c-.03,3.11-.35,4.93-2.49,6.23-.08.06-.14.08-.18.08-.06,0-.11-.04-.2-.15-.15-.17-.32-.32-.53-.41,2.23-1.08,2.54-2.8,2.55-5.76H.91v8.05h9.57v-8.05Z"/>
        <path class="cls-1" d="m26.59,40.56c0,4.31.03,5.13.03,5.21,0,.1-.01.11-.11.11h-.67c-.1,0-.11-.01-.11-.11v-.8h-9.31v.8c0,.1-.01.11-.11.11h-.66c-.1,0-.11-.01-.11-.11,0-.08.03-.88.03-5.21v-2.82c0-2.82-.03-3.66-.03-3.73,0-.1.01-.11.11-.11.08,0,.56.03,1.95.03h6.98c1.39,0,1.86-.03,1.95-.03.1,0,.11.01.11.11,0,.07-.03.91-.03,3.32v3.22Zm-.87-5.84h-9.31v9.5h9.31v-9.5Zm-.77,8.01c0,.1-.01.11-.11.11-.08,0-.52-.03-1.89-.03h-3.75c-1.37,0-1.81.03-1.88.03-.11,0-.13-.01-.13-.11v-.56c0-.1.01-.11.13-.11.07,0,.5.03,1.88.03h1.37v-2.51h-.8c-1.23,0-1.62.03-1.71.03-.1,0-.11-.01-.11-.11v-.53c0-.1.01-.11.11-.11.08,0,.48.03,1.71.03h.8v-2.1h-1.15c-1.34,0-1.78.03-1.85.03-.1,0-.11-.01-.11-.11v-.55c0-.1.01-.11.11-.11.07,0,.5.03,1.85.03h3.36c1.34,0,1.78-.03,1.85-.03.1,0,.11.01.11.11v.55c0,.1-.01.11-.11.11-.07,0-.5-.03-1.85-.03h-1.39v2.1h.98c1.22,0,1.62-.03,1.69-.03.1,0,.11.01.11.11v.53c0,.1-.01.11-.11.11-.07,0-.48-.03-1.69-.03h-.98v2.51h1.55c1.37,0,1.81-.03,1.89-.03.1,0,.11.01.11.11v.56Zm-2.11-2.73c.13-.1.13-.07.22.01.39.36.73.78,1.08,1.34.06.08.06.1-.08.2l-.28.2c-.07.06-.13.08-.15.08-.04,0-.07-.04-.1-.1-.28-.5-.64-.97-1.02-1.37-.07-.08-.04-.1.1-.2l.24-.17Z"/>
        <path class="cls-1" d="m39.15,38.6c.18,0,.28-.03.35-.06.04-.01.1-.03.14-.03.1,0,.17.06.38.27.18.18.27.31.27.39,0,.07-.06.13-.14.18-.1.07-.17.13-.29.34-.76,1.25-1.65,2.27-2.72,3.12,1.51,1.04,3.39,1.67,5.58,2.12-.17.15-.31.35-.42.62-.11.25-.13.25-.39.2-2.21-.57-4.02-1.3-5.48-2.38-1.47,1.02-3.24,1.79-5.34,2.37-.27.07-.25.06-.38-.2-.1-.2-.24-.39-.38-.53,2.2-.53,3.98-1.23,5.41-2.19-1.02-.9-1.83-2.02-2.47-3.45-1.12.01-1.54.03-1.6.03-.1,0-.11-.01-.11-.11v-.62c0-.08.01-.1.11-.1.07,0,.55.03,1.95.03h2.33v-2.24h-3.45c-1.34,0-1.79.03-1.86.03-.1,0-.11-.01-.11-.11v-.62c0-.1.01-.11.11-.11.07,0,.52.03,1.86.03h3.45v-.6c0-.88.01-1.2-.11-1.69.34.01.7.04.98.08.11.01.2.07.2.14,0,.08-.06.18-.08.28-.04.14-.1.36-.1,1.13v.66h3.68c1.34,0,1.79-.03,1.86-.03.1,0,.11.01.11.11v.62c0,.1-.01.11-.11.11-.07,0-.52-.03-1.86-.03h-3.68v2.24h2.33Zm-4.94.77c.57,1.22,1.33,2.17,2.24,2.94,1.04-.81,1.86-1.78,2.55-2.94h-4.79Z"/>
        <path class="cls-1" d="m52.78,39.12c0,.1-.01.11-.11.11-.08,0-.5-.03-1.82-.03h-3.11c-1.32,0-1.75.03-1.82.03-.1,0-.11-.01-.11-.11v-.59c0-.1.01-.11.11-.11.07,0,.5.03,1.82.03h2.2c.32-.73.48-1.19.63-1.68.06-.22.13-.52.13-.76.28.06.6.14.81.21.11.04.17.08.17.14,0,.1-.04.15-.11.22-.06.07-.13.14-.21.34-.2.49-.41.98-.64,1.53h.14c1.32,0,1.74-.03,1.82-.03.1,0,.11.01.11.11v.59Zm-.22-3.64c0,.1-.01.11-.1.11s-.49-.03-1.75-.03h-2.66c-1.27,0-1.68.03-1.75.03-.1,0-.11-.01-.11-.11v-.57c0-.1.01-.11.11-.11.07,0,.48.03,1.75.03h.88v-.41c0-.56-.01-.9-.08-1.2.34.01.6.04.88.08.1.01.17.06.17.11,0,.08-.04.14-.08.24-.06.11-.07.31-.07.77v.41h.97c1.26,0,1.67-.03,1.75-.03s.1.01.1.11v.57Zm-.7,7.76c0,1.95.03,2.27.03,2.34,0,.11-.01.13-.11.13h-.6c-.1,0-.11-.01-.11-.13v-.78h-3.42v.84c0,.08-.01.1-.11.1h-.63c-.08,0-.1-.01-.1-.1s.03-.41.03-2.37v-1.04c0-1.06-.03-1.43-.03-1.51,0-.1.01-.11.1-.11s.43.03,1.53.03h1.81c1.09,0,1.46-.03,1.54-.03.1,0,.11.01.11.11,0,.07-.03.45-.03,1.34v1.18Zm-4.22-7.23c.15-.04.21-.03.24.04.25.52.46,1.09.6,1.72q.03.13-.14.18l-.41.11c-.18.06-.2.03-.22-.08-.13-.56-.32-1.19-.57-1.71-.06-.11-.04-.11.14-.17l.36-.1Zm3.42,5.36h-3.42v2.68h3.42v-2.68Zm5.84-7.38c.18,0,.31-.01.36-.04.07-.03.1-.03.15-.03.08,0,.17.04.38.25.2.21.24.31.24.38,0,.08-.03.14-.1.18-.08.06-.17.17-.29.45-.52,1.15-1.11,2.28-1.76,3.36,1.74,1.4,2.19,2.27,2.19,3.29,0,1.29-.88,2.03-2.62,2.12q-.27.03-.34-.27c-.06-.24-.14-.42-.25-.53,1.57.03,2.38-.38,2.38-1.39,0-.85-.38-1.51-2.28-3.11.77-1.22,1.4-2.47,1.96-3.91h-2.69v8.15c0,1.91.03,2.76.03,2.83,0,.08-.01.1-.11.1h-.64c-.1,0-.11-.01-.11-.1s.03-.87.03-2.82v-6.01c0-1.95-.03-2.75-.03-2.83,0-.1.01-.11.11-.11.08,0,.42.03,1.25.03h2.16Z"/>
      </g>
      <g>
        <path class="cls-1" d="m1.88,21.2c-.39-.2-.42-.31-.42-1.06,0-1.4.11-2.52.14-2.97.03-.31.08-.45.22-.45.17,0,.2.08.2.31,0,.25,0,.64.08,1.04.42,2.07,2.27,2.86,4.14,2.86,2.69,0,4-1.93,4-3.72,0-1.93-.81-3.05-3.22-5.04l-1.26-1.04c-2.97-2.44-3.64-4.17-3.64-6.08C2.13,2.04,4.37,0,7.92,0c1.09,0,1.9.11,2.6.28.53.11.76.14.98.14s.28.06.28.2-.11,1.06-.11,2.97c0,.45-.06.64-.2.64-.17,0-.2-.14-.22-.36-.03-.34-.2-1.09-.36-1.4-.17-.31-.92-1.48-3.5-1.48-1.93,0-3.44,1.2-3.44,3.25,0,1.6.73,2.6,3.42,4.7l.78.62c3.3,2.6,4.09,4.34,4.09,6.58,0,1.15-.45,3.28-2.38,4.65-1.2.84-2.72,1.18-4.23,1.18-1.32,0-2.6-.2-3.75-.76Z"/>
        <path class="cls-1" d="m37.94,13.44c0,2.69,0,4.9.14,6.08.08.81.25,1.43,1.09,1.54.39.06,1.01.11,1.26.11.17,0,.22.08.22.17,0,.14-.14.22-.45.22-1.54,0-3.3-.08-3.44-.08s-1.9.08-2.74.08c-.31,0-.45-.06-.45-.22,0-.08.06-.17.22-.17.25,0,.59-.06.84-.11.56-.11.7-.73.81-1.54.14-1.18.14-3.39.14-6.08v-2.94c0-.11-.08-.17-.17-.17h-11.87c-.08,0-.17.03-.17.17v2.94c0,2.69,0,4.9.14,6.08.08.81.25,1.43,1.09,1.54.39.06,1.01.11,1.26.11.17,0,.22.08.22.17,0,.14-.14.22-.45.22-1.54,0-3.3-.08-3.44-.08s-1.9.08-2.74.08c-.31,0-.45-.06-.45-.22,0-.08.06-.17.22-.17.25,0,.59-.06.84-.11.56-.11.7-.73.81-1.54.14-1.18.14-3.39.14-6.08v-4.93c0-4.37,0-5.15-.06-6.05-.06-.95-.28-1.4-1.2-1.6-.22-.06-.7-.08-.95-.08-.11,0-.22-.06-.22-.17,0-.17.14-.22.45-.22,1.26,0,3.02.08,3.16.08s1.9-.08,2.74-.08c.31,0,.45.06.45.22,0,.11-.11.17-.22.17-.2,0-.36.03-.7.08-.76.14-.98.62-1.04,1.6-.06.9-.06,1.68-.06,6.05v.59c0,.14.08.17.17.17h11.87c.08,0,.17-.03.17-.17v-.59c0-4.37,0-5.15-.06-6.05-.06-.95-.28-1.4-1.2-1.6-.22-.06-.7-.08-.95-.08-.11,0-.22-.06-.22-.17,0-.17.14-.22.45-.22,1.26,0,3.02.08,3.16.08s1.9-.08,2.74-.08c.31,0,.45.06.45.22,0,.11-.11.17-.22.17-.2,0-.36.03-.7.08-.76.14-.98.62-1.04,1.6-.06.9-.06,1.68-.06,6.05v4.93Z"/>
        <path class="cls-1" d="m51.66,13.44c0,2.69,0,4.9.14,6.08.08.81.25,1.43,1.09,1.54.39.06,1.01.11,1.26.11.17,0,.22.08.22.17,0,.14-.14.22-.45.22-1.54,0-3.3-.08-3.44-.08s-1.9.08-2.74.08c-.31,0-.45-.06-.45-.22,0-.08.06-.17.22-.17.25,0,.59-.06.84-.11.56-.11.7-.73.81-1.54.14-1.18.14-3.39.14-6.08v-4.93c0-4.37,0-5.15-.06-6.05-.06-.95-.34-1.43-.95-1.57-.31-.08-.67-.11-.87-.11-.11,0-.22-.06-.22-.17,0-.17.14-.22.45-.22.92,0,2.69.08,2.83.08s1.9-.08,2.74-.08c.31,0,.45.06.45.22,0,.11-.11.17-.22.17-.2,0-.36.03-.7.08-.76.14-.98.62-1.04,1.6-.06.9-.06,1.68-.06,6.05v4.93Z"/>
        <path class="cls-1" d="m63.03,8.51c0-4.37,0-5.15-.06-6.05-.06-.95-.28-1.4-1.2-1.6-.22-.06-.7-.08-.95-.08-.11,0-.22-.06-.22-.17,0-.17.14-.22.45-.22,1.26,0,2.91.08,3.08.08.25,0,1.88-.08,2.72-.08.31,0,.45.06.45.22,0,.11-.11.17-.22.17-.2,0-.36.03-.7.08-.76.14-.98.62-1.04,1.6-.06.9-.06,1.68-.06,6.05v1.68h.11c.48-.53,5.54-5.68,6.55-6.78.78-.81,1.51-1.54,1.51-2.02,0-.34-.14-.5-.36-.59-.14-.06-.25-.11-.25-.22,0-.14.14-.2.34-.2.56,0,1.43.08,2.1.08.14,0,1.99-.08,2.69-.08.31,0,.42.06.42.2s-.06.2-.28.2c-.42,0-1.01.14-1.57.39-1.15.5-1.76,1.2-3.02,2.41-.7.67-5.57,5.43-6.16,6.13.73.81,6.55,6.83,7.7,7.9,2.35,2.18,2.83,2.63,4.17,3.19.73.31,1.54.36,1.74.36s.36.06.36.17c0,.14-.14.22-.62.22h-1.43c-.78,0-1.32,0-1.93-.06-1.48-.14-2.18-.76-3.39-1.71-1.26-1.04-7.2-7.45-8.54-9.1h-.14v2.74c0,2.69,0,4.9.14,6.08.08.81.25,1.43,1.09,1.54.39.06.84.11,1.09.11.17,0,.22.08.22.17,0,.14-.14.22-.45.22-1.37,0-3-.08-3.22-.08s-1.85.08-2.69.08c-.31,0-.45-.06-.45-.22,0-.08.06-.17.22-.17.25,0,.59-.06.84-.11.56-.11.7-.73.81-1.54.14-1.18.14-3.39.14-6.08v-4.93Z"/>
        <path class="cls-1" d="m93.32,0c6.3,0,11,3.98,11,10.5s-4.42,11.45-11.17,11.45c-7.67,0-10.86-5.96-10.86-11,0-4.54,3.3-10.95,11.03-10.95Zm.59,20.89c2.52,0,7.73-1.46,7.73-9.6,0-6.72-4.09-10.33-8.51-10.33-4.68,0-8.18,3.08-8.18,9.21,0,6.52,3.92,10.72,8.96,10.72Z"/>
        <path class="cls-1" d="m112.5,8.51c0-4.37,0-5.15-.06-6.05-.06-.95-.28-1.4-1.2-1.6-.22-.06-.7-.08-.95-.08-.11,0-.22-.06-.22-.17,0-.17.14-.22.45-.22,1.26,0,2.91.08,3.08.08.25,0,1.88-.08,2.72-.08.31,0,.45.06.45.22,0,.11-.11.17-.22.17-.2,0-.36.03-.7.08-.76.14-.98.62-1.04,1.6-.06.9-.06,1.68-.06,6.05v1.68h.11c.48-.53,5.54-5.68,6.55-6.78.78-.81,1.51-1.54,1.51-2.02,0-.34-.14-.5-.36-.59-.14-.06-.25-.11-.25-.22,0-.14.14-.2.34-.2.56,0,1.43.08,2.1.08.14,0,1.99-.08,2.69-.08.31,0,.42.06.42.2s-.06.2-.28.2c-.42,0-1.01.14-1.57.39-1.15.5-1.76,1.2-3.02,2.41-.7.67-5.57,5.43-6.16,6.13.73.81,6.55,6.83,7.7,7.9,2.35,2.18,2.83,2.63,4.17,3.19.73.31,1.54.36,1.74.36s.36.06.36.17c0,.14-.14.22-.62.22h-1.43c-.78,0-1.32,0-1.93-.06-1.48-.14-2.18-.76-3.39-1.71-1.26-1.04-7.2-7.45-8.54-9.1h-.14v2.74c0,2.69,0,4.9.14,6.08.08.81.25,1.43,1.09,1.54.39.06.84.11,1.09.11.17,0,.22.08.22.17,0,.14-.14.22-.45.22-1.37,0-3-.08-3.22-.08s-1.85.08-2.69.08c-.31,0-.45-.06-.45-.22,0-.08.06-.17.22-.17.25,0,.59-.06.84-.11.56-.11.7-.73.81-1.54.14-1.18.14-3.39.14-6.08v-4.93Z"/>
        <path class="cls-1" d="m133.33,8.51c0-4.37,0-5.15-.06-6.05-.06-.95-.28-1.4-1.2-1.6-.22-.06-.7-.08-.95-.08-.11,0-.22-.06-.22-.17,0-.17.14-.22.45-.22,1.26,0,2.97.08,3.22.08s1.93-.08,2.77-.08c.31,0,.45.06.45.22,0,.11-.11.17-.22.17-.2,0-.36.03-.7.08-.76.11-.98.62-1.04,1.6-.06.9-.06,1.68-.06,6.05v3.92c0,4.03.9,5.77,2.1,6.92,1.37,1.29,2.63,1.54,4.23,1.54,1.71,0,3.39-.81,4.4-2.02,1.29-1.6,1.62-3.98,1.62-6.86v-3.5c0-4.37,0-5.15-.06-6.05-.06-.95-.28-1.4-1.2-1.6-.22-.06-.7-.08-.95-.08-.11,0-.22-.06-.22-.17,0-.17.14-.22.45-.22,1.26,0,2.8.08,2.97.08.2,0,1.51-.08,2.35-.08.31,0,.45.06.45.22,0,.11-.11.17-.22.17-.2,0-.36.03-.7.08-.76.17-.98.62-1.04,1.6-.06.9-.06,1.68-.06,6.05v3c0,3.02-.34,6.38-2.58,8.37-2.02,1.79-4.12,2.07-5.77,2.07-.95,0-3.78-.11-5.77-1.99-1.37-1.32-2.44-3.28-2.44-7.36v-4.09Z"/>
      </g>
    </g>
  </g>
</svg>