<?xml version="1.0" encoding="UTF-8"?>
<svg id="_レイヤー_2" data-name="レイヤー 2" xmlns="http://www.w3.org/2000/svg" viewBox="0 0 174.02 45.84">
  <defs>
    <style>
      .cls-1 {
        stroke-width: 0px;
      }
    </style>
  </defs>
  <g id="_レイヤー_1-2" data-name="レイヤー 1">
    <g>
      <g>
        <path class="cls-1" d="m5.91,38.46c0,.1-.01.11-.11.11-.07,0-.45-.03-1.65-.03H1.76c-1.19,0-1.6.03-1.67.03-.08,0-.1-.01-.1-.11v-.49c0-.1.01-.11.1-.11.07,0,.48.03,1.67.03h.94v-.98h-.42c-1.01,0-1.33.03-1.4.03-.1,0-.11-.01-.11-.11v-.48c0-.08.01-.1.11-.1.07,0,.39.03,1.4.03h.42v-.92h-.62c-1.13,0-1.48.03-1.57.03-.1,0-.11-.01-.11-.11v-.49c0-.1.01-.11.11-.11.08,0,.43.03,1.57.03h.62v-.04c0-.74-.01-1.12-.1-1.5.34.01.59.04.85.08.11.01.18.07.18.11,0,.11-.06.17-.1.27-.06.15-.07.39-.07,1.04v.04h.62c1.13,0,1.48-.03,1.57-.03s.1.01.1.11v.49c0,.1-.01.11-.1.11s-.43-.03-1.57-.03h-.62v.92h.38c1.02,0,1.33-.03,1.41-.03.1,0,.11.01.11.1v.48c0,.1-.01.11-.11.11-.08,0-.39-.03-1.41-.03h-.38v.98h.67c1.2,0,1.58-.03,1.65-.03.1,0,.11.01.11.11v.49Zm-2.07.95c.99,0,1.32-.03,1.39-.03.1,0,.11.01.11.11,0,.07-.03.56-.03,1.64v1.71c0,.71.01,1.47.01,1.76,0,.36-.06.67-.29.85-.25.17-.45.24-1.34.24-.28,0-.29.01-.36-.28-.04-.18-.13-.36-.21-.52.31.03.56.06.9.06.46,0,.55-.14.55-.52v-1.05H1.65v.77c0,1.05.01,1.5.01,1.57,0,.08,0,.1-.1.1h-.59c-.1,0-.11-.01-.11-.1s.03-.46.03-1.54v-3.12c0-1.08-.03-1.48-.03-1.57,0-.1.01-.11.11-.11.08,0,.41.03,1.39.03h1.47Zm.71.67H1.65v.99h2.9v-.99Zm0,1.65H1.65v.99h2.9v-.99Zm8.14-1.99c0,.1-.01.11-.1.11-.06,0-.31-.01-.91-.03v1.37c0,1.02.03,1.37.03,1.46s-.01.1-.11.1h-.56c-.1,0-.11-.01-.11-.1v-.55h-1.67v.29c0,.6.01,1.41.01,1.91,0,.63-.07.9-.35,1.12-.21.18-.63.25-1.54.24-.28,0-.28.01-.35-.28-.06-.21-.14-.39-.27-.56.29.04.6.06,1.02.06.52,0,.69-.11.69-.67v-2.1h-.35c-1.18,0-1.56.03-1.62.03-.1,0-.11-.01-.11-.11v-.52c0-.1.01-.11.11-.11.07,0,.45.03,1.62.03h.35v-1.6h-.64c-1.29,0-1.72.03-1.79.03-.1,0-.11-.01-.11-.11v-.53c0-.1.01-.11.11-.11.07,0,.5.03,1.79.03h.64v-1.54h-.22c-1.11,0-1.43.03-1.5.03-.1,0-.11-.01-.11-.1v-.53c0-.1.01-.11.11-.11.07,0,.39.03,1.5.03h.52c.36-.5.69-1.08.95-1.68h-1.81c-.41.63-.85,1.19-1.5,1.82-.1.1-.14.14-.2.14-.04,0-.08-.04-.18-.14-.14-.14-.27-.22-.43-.31.95-.81,1.6-1.68,2.09-2.68.17-.35.28-.66.31-.88.29.07.53.13.76.21.1.03.15.07.15.14s-.04.13-.13.2c-.07.06-.17.22-.32.53l-.17.31h1.58c.14,0,.13-.01.18-.04.06-.03.08-.04.13-.04.1,0,.18.04.39.22s.25.27.25.34c0,.08-.04.15-.14.21-.1.06-.2.2-.27.32-.24.48-.52.91-.8,1.33h.43c1.11,0,1.47-.03,1.54-.03.1,0,.11.01.11.11,0,.07-.03.42-.03,1.46v.69c.6,0,.85-.03.91-.03.08,0,.1.01.1.11v.53Zm-1.77-2.16h-1.67v1.54h1.67v-1.54Zm0,2.24h-1.67v1.6h1.67v-1.6Z"/>
        <path class="cls-1" d="m25.04,34c1.4,0,1.88-.03,1.96-.03.1,0,.11.01.11.11,0,.07-.03.95-.03,2.84v5.35c0,1.12.01,1.79.01,2.24,0,.41-.07.7-.34.92-.21.17-.6.27-1.68.27-.27,0-.28,0-.34-.27-.06-.22-.17-.49-.28-.66.41.04.85.06,1.25.06.36,0,.52-.15.52-.56v-9.5h-9.2v8.33c0,1.75.03,2.54.03,2.61,0,.1-.01.11-.11.11h-.69c-.1,0-.11-.01-.11-.11,0-.08.03-.88.03-2.8v-6.01c0-1.93-.03-2.76-.03-2.83,0-.1.01-.11.11-.11.08,0,.56.03,1.96.03h6.82Zm.49,4.59c0,.1-.01.11-.13.11-.07,0-.52-.03-1.85-.03h-1.58v3.92h1.92v-1.19c0-.66,0-1.04-.1-1.41.34.01.67.04.87.07.1.01.15.06.15.13s-.01.13-.06.2c-.06.1-.08.27-.08,1.04v1.39c0,.66.03.94.03,1.01,0,.1-.01.11-.11.11h-.59c-.1,0-.11-.01-.11-.11v-.52h-4.52v.87c0,.1-.01.11-.11.11h-.59c-.1,0-.11-.01-.11-.11,0-.08.03-.36.03-1.09v-1.62c0-.74-.01-1.06-.08-1.43.29.01.63.04.85.08.11.01.17.06.17.1,0,.1-.04.17-.08.27-.06.13-.07.32-.07.98v1.15h1.82v-3.92h-1.47c-1.36,0-1.79.03-1.88.03-.1,0-.11-.01-.11-.11v-.55c0-.1.01-.11.11-.11.08,0,.52.03,1.88.03h2.38c.42-.73.71-1.3.98-1.92.08-.2.15-.42.22-.71.27.08.55.2.77.32.1.06.14.08.14.17,0,.07-.07.13-.13.17-.07.06-.14.14-.24.34-.22.45-.55,1.05-.91,1.64h.62c1.33,0,1.78-.03,1.85-.03.11,0,.13.01.13.11v.55Zm-5.97-3.14c.14-.07.15-.08.22,0,.36.49.67,1.04.94,1.61.04.1.01.13-.15.21l-.34.17c-.18.1-.21.1-.25,0-.24-.56-.5-1.09-.87-1.61-.06-.08-.04-.11.11-.2l.34-.18Z"/>
        <path class="cls-1" d="m39.65,38.6c.18,0,.28-.03.35-.06.04-.01.1-.03.14-.03.1,0,.17.06.38.27.18.18.27.31.27.39,0,.07-.06.13-.14.18-.1.07-.17.13-.29.34-.76,1.25-1.65,2.27-2.72,3.12,1.51,1.04,3.39,1.67,5.58,2.12-.17.15-.31.35-.42.62-.11.25-.13.25-.39.2-2.21-.57-4.02-1.3-5.48-2.38-1.47,1.02-3.24,1.79-5.34,2.37-.27.07-.25.06-.38-.2-.1-.2-.24-.39-.38-.53,2.2-.53,3.98-1.23,5.41-2.19-1.02-.9-1.83-2.02-2.47-3.45-1.12.01-1.54.03-1.6.03-.1,0-.11-.01-.11-.11v-.62c0-.08.01-.1.11-.1.07,0,.55.03,1.95.03h2.33v-2.24h-3.45c-1.34,0-1.79.03-1.86.03-.1,0-.11-.01-.11-.11v-.62c0-.1.01-.11.11-.11.07,0,.52.03,1.86.03h3.45v-.6c0-.88.01-1.2-.11-1.69.34.01.7.04.98.08.11.01.2.07.2.14,0,.08-.06.18-.08.28-.04.14-.1.36-.1,1.13v.66h3.68c1.34,0,1.79-.03,1.86-.03.1,0,.11.01.11.11v.62c0,.1-.01.11-.11.11-.07,0-.52-.03-1.86-.03h-3.68v2.24h2.33Zm-4.94.77c.57,1.22,1.33,2.17,2.24,2.94,1.04-.81,1.86-1.78,2.55-2.94h-4.79Z"/>
        <path class="cls-1" d="m53.29,39.12c0,.1-.01.11-.11.11-.08,0-.5-.03-1.82-.03h-3.11c-1.32,0-1.75.03-1.82.03-.1,0-.11-.01-.11-.11v-.59c0-.1.01-.11.11-.11.07,0,.5.03,1.82.03h2.2c.32-.73.48-1.19.63-1.68.06-.22.13-.52.13-.76.28.06.6.14.81.21.11.04.17.08.17.14,0,.1-.04.15-.11.22-.06.07-.13.14-.21.34-.2.49-.41.98-.64,1.53h.14c1.32,0,1.74-.03,1.82-.03.1,0,.11.01.11.11v.59Zm-.22-3.64c0,.1-.01.11-.1.11s-.49-.03-1.75-.03h-2.66c-1.27,0-1.68.03-1.75.03-.1,0-.11-.01-.11-.11v-.57c0-.1.01-.11.11-.11.07,0,.48.03,1.75.03h.88v-.41c0-.56-.01-.9-.08-1.2.34.01.6.04.88.08.1.01.17.06.17.11,0,.08-.04.14-.08.24-.06.11-.07.31-.07.77v.41h.97c1.26,0,1.67-.03,1.75-.03s.1.01.1.11v.57Zm-.7,7.76c0,1.95.03,2.27.03,2.34,0,.11-.01.13-.11.13h-.6c-.1,0-.11-.01-.11-.13v-.78h-3.42v.84c0,.08-.01.1-.11.1h-.63c-.08,0-.1-.01-.1-.1s.03-.41.03-2.37v-1.04c0-1.06-.03-1.43-.03-1.51,0-.1.01-.11.1-.11s.43.03,1.53.03h1.81c1.09,0,1.46-.03,1.54-.03.1,0,.11.01.11.11,0,.07-.03.45-.03,1.34v1.18Zm-4.22-7.23c.15-.04.21-.03.24.04.25.52.46,1.09.6,1.72q.03.13-.14.18l-.41.11c-.18.06-.2.03-.22-.08-.13-.56-.32-1.19-.57-1.71-.06-.11-.04-.11.14-.17l.36-.1Zm3.42,5.36h-3.42v2.68h3.42v-2.68Zm5.84-7.38c.18,0,.31-.01.36-.04.07-.03.1-.03.15-.03.08,0,.17.04.38.25.2.21.24.31.24.38,0,.08-.03.14-.1.18-.08.06-.17.17-.29.45-.52,1.15-1.11,2.28-1.76,3.36,1.74,1.4,2.19,2.27,2.19,3.29,0,1.29-.88,2.03-2.62,2.12q-.27.03-.34-.27c-.06-.24-.14-.42-.25-.53,1.57.03,2.38-.38,2.38-1.39,0-.85-.38-1.51-2.28-3.11.77-1.22,1.4-2.47,1.96-3.91h-2.69v8.15c0,1.91.03,2.76.03,2.83,0,.08-.01.1-.11.1h-.64c-.1,0-.11-.01-.11-.1s.03-.87.03-2.82v-6.01c0-1.95-.03-2.75-.03-2.83,0-.1.01-.11.11-.11.08,0,.42.03,1.25.03h2.16Z"/>
      </g>
      <g>
        <path class="cls-1" d="m2.38,21.2c-.39-.2-.42-.31-.42-1.06,0-1.4.11-2.52.14-2.97.03-.31.08-.45.22-.45.17,0,.2.08.2.31,0,.25,0,.64.08,1.04.42,2.07,2.27,2.86,4.14,2.86,2.69,0,4-1.93,4-3.72,0-1.93-.81-3.05-3.22-5.04l-1.26-1.04c-2.97-2.44-3.64-4.17-3.64-6.08C2.63,2.04,4.87,0,8.43,0c1.09,0,1.9.11,2.6.28.53.11.76.14.98.14s.28.06.28.2-.11,1.06-.11,2.97c0,.45-.06.64-.2.64-.17,0-.2-.14-.22-.36-.03-.34-.2-1.09-.36-1.4-.17-.31-.92-1.48-3.5-1.48-1.93,0-3.44,1.2-3.44,3.25,0,1.6.73,2.6,3.42,4.7l.78.62c3.3,2.6,4.09,4.34,4.09,6.58,0,1.15-.45,3.28-2.38,4.65-1.2.84-2.72,1.18-4.23,1.18-1.32,0-2.6-.2-3.75-.76Z"/>
        <path class="cls-1" d="m38.44,13.44c0,2.69,0,4.9.14,6.08.08.81.25,1.43,1.09,1.54.39.06,1.01.11,1.26.11.17,0,.22.08.22.17,0,.14-.14.22-.45.22-1.54,0-3.3-.08-3.44-.08s-1.9.08-2.74.08c-.31,0-.45-.06-.45-.22,0-.08.06-.17.22-.17.25,0,.59-.06.84-.11.56-.11.7-.73.81-1.54.14-1.18.14-3.39.14-6.08v-2.94c0-.11-.08-.17-.17-.17h-11.87c-.08,0-.17.03-.17.17v2.94c0,2.69,0,4.9.14,6.08.08.81.25,1.43,1.09,1.54.39.06,1.01.11,1.26.11.17,0,.22.08.22.17,0,.14-.14.22-.45.22-1.54,0-3.3-.08-3.44-.08s-1.9.08-2.74.08c-.31,0-.45-.06-.45-.22,0-.08.06-.17.22-.17.25,0,.59-.06.84-.11.56-.11.7-.73.81-1.54.14-1.18.14-3.39.14-6.08v-4.93c0-4.37,0-5.15-.06-6.05-.06-.95-.28-1.4-1.2-1.6-.22-.06-.7-.08-.95-.08-.11,0-.22-.06-.22-.17,0-.17.14-.22.45-.22,1.26,0,3.02.08,3.16.08s1.9-.08,2.74-.08c.31,0,.45.06.45.22,0,.11-.11.17-.22.17-.2,0-.36.03-.7.08-.76.14-.98.62-1.04,1.6-.06.9-.06,1.68-.06,6.05v.59c0,.14.08.17.17.17h11.87c.08,0,.17-.03.17-.17v-.59c0-4.37,0-5.15-.06-6.05-.06-.95-.28-1.4-1.2-1.6-.22-.06-.7-.08-.95-.08-.11,0-.22-.06-.22-.17,0-.17.14-.22.45-.22,1.26,0,3.02.08,3.16.08s1.9-.08,2.74-.08c.31,0,.45.06.45.22,0,.11-.11.17-.22.17-.2,0-.36.03-.7.08-.76.14-.98.62-1.04,1.6-.06.9-.06,1.68-.06,6.05v4.93Z"/>
        <path class="cls-1" d="m52.16,13.44c0,2.69,0,4.9.14,6.08.08.81.25,1.43,1.09,1.54.39.06,1.01.11,1.26.11.17,0,.22.08.22.17,0,.14-.14.22-.45.22-1.54,0-3.3-.08-3.44-.08s-1.9.08-2.74.08c-.31,0-.45-.06-.45-.22,0-.08.06-.17.22-.17.25,0,.59-.06.84-.11.56-.11.7-.73.81-1.54.14-1.18.14-3.39.14-6.08v-4.93c0-4.37,0-5.15-.06-6.05-.06-.95-.34-1.43-.95-1.57-.31-.08-.67-.11-.87-.11-.11,0-.22-.06-.22-.17,0-.17.14-.22.45-.22.92,0,2.69.08,2.83.08s1.9-.08,2.74-.08c.31,0,.45.06.45.22,0,.11-.11.17-.22.17-.2,0-.36.03-.7.08-.76.14-.98.62-1.04,1.6-.06.9-.06,1.68-.06,6.05v4.93Z"/>
        <path class="cls-1" d="m71.31,20.36c2.94,0,3.84-.53,4.42-1.37.25-.36.5-1.12.56-1.51.06-.28.11-.45.25-.45.17,0,.22.11.22.64,0,.87-.39,2.52-.56,3.22-.17.67-.2.73-.84.73-4.68,0-9.38-.14-14.28-.14-.34,0-.5-.03-.5-.22,0-.14.06-.28.39-.78,4.17-6.3,8.4-12.6,12.29-18.93h-6.08c-1.43,0-3.14.08-4.03.56-1.01.53-1.51,1.57-1.6,2.21-.06.42-.17.5-.31.5s-.17-.14-.17-.36c0-.34.42-2.88.56-3.72.06-.39.11-.53.28-.53.25,0,.42.17,1.18.2,2.66.11,4,.08,4.87.08h7.81c.42,0,.56.06.56.22,0,.11,0,.17-.11.34-4.06,6.44-8.29,12.88-12.54,19.32h7.62Z"/>
        <path class="cls-1" d="m82.68,8.51c0-4.37,0-5.15-.06-6.05-.06-.95-.28-1.4-1.2-1.6-.22-.06-.7-.08-.95-.08-.11,0-.22-.06-.22-.17,0-.17.14-.22.45-.22,1.26,0,2.97.08,3.22.08s1.93-.08,2.77-.08c.31,0,.45.06.45.22,0,.11-.11.17-.22.17-.2,0-.36.03-.7.08-.76.11-.98.62-1.04,1.6-.06.9-.06,1.68-.06,6.05v3.92c0,4.03.9,5.77,2.1,6.92,1.37,1.29,2.63,1.54,4.23,1.54,1.71,0,3.39-.81,4.4-2.02,1.29-1.6,1.62-3.98,1.62-6.86v-3.5c0-4.37,0-5.15-.06-6.05-.06-.95-.28-1.4-1.2-1.6-.22-.06-.7-.08-.95-.08-.11,0-.22-.06-.22-.17,0-.17.14-.22.45-.22,1.26,0,2.8.08,2.97.08.2,0,1.51-.08,2.35-.08.31,0,.45.06.45.22,0,.11-.11.17-.22.17-.2,0-.36.03-.7.08-.76.17-.98.62-1.04,1.6-.06.9-.06,1.68-.06,6.05v3c0,3.02-.34,6.38-2.58,8.37-2.02,1.79-4.12,2.07-5.77,2.07-.95,0-3.78-.11-5.77-1.99-1.37-1.32-2.44-3.28-2.44-7.36v-4.09Z"/>
        <path class="cls-1" d="m116.79,0c6.3,0,11,3.98,11,10.5s-4.42,11.45-11.17,11.45c-7.67,0-10.86-5.96-10.86-11,0-4.54,3.3-10.95,11.03-10.95Zm.59,20.89c2.52,0,7.73-1.46,7.73-9.6,0-6.72-4.09-10.33-8.51-10.33-4.68,0-8.18,3.08-8.18,9.21,0,6.52,3.92,10.72,8.96,10.72Z"/>
        <path class="cls-1" d="m135.97,8.51c0-4.37,0-5.15-.06-6.05-.06-.95-.28-1.4-1.2-1.6-.22-.06-.7-.08-.95-.08-.11,0-.22-.06-.22-.17,0-.17.14-.22.45-.22,1.26,0,2.91.08,3.08.08.25,0,1.88-.08,2.72-.08.31,0,.45.06.45.22,0,.11-.11.17-.22.17-.2,0-.36.03-.7.08-.76.14-.98.62-1.04,1.6-.06.9-.06,1.68-.06,6.05v1.68h.11c.48-.53,5.54-5.68,6.55-6.78.78-.81,1.51-1.54,1.51-2.02,0-.34-.14-.5-.36-.59-.14-.06-.25-.11-.25-.22,0-.14.14-.2.34-.2.56,0,1.43.08,2.1.08.14,0,1.99-.08,2.69-.08.31,0,.42.06.42.2s-.06.2-.28.2c-.42,0-1.01.14-1.57.39-1.15.5-1.76,1.2-3.02,2.41-.7.67-5.57,5.43-6.16,6.13.73.81,6.55,6.83,7.7,7.9,2.35,2.18,2.83,2.63,4.17,3.19.73.31,1.54.36,1.74.36s.36.06.36.17c0,.14-.14.22-.62.22h-1.43c-.78,0-1.32,0-1.93-.06-1.48-.14-2.18-.76-3.39-1.71-1.26-1.04-7.2-7.45-8.54-9.1h-.14v2.74c0,2.69,0,4.9.14,6.08.08.81.25,1.43,1.09,1.54.39.06.84.11,1.09.11.17,0,.22.08.22.17,0,.14-.14.22-.45.22-1.37,0-3-.08-3.22-.08s-1.85.08-2.69.08c-.31,0-.45-.06-.45-.22,0-.08.06-.17.22-.17.25,0,.59-.06.84-.11.56-.11.7-.73.81-1.54.14-1.18.14-3.39.14-6.08v-4.93Z"/>
        <path class="cls-1" d="m162.45,1.09c.34-.92.45-1.09.62-1.09s.28.14.62,1.01c.42,1.06,4.82,12.63,6.52,16.88,1.01,2.49,1.82,2.94,2.41,3.11.42.14.84.17,1.12.17.17,0,.28.03.28.17,0,.17-.25.22-.56.22-.42,0-2.46,0-4.4-.06-.53-.03-.84-.03-.84-.2,0-.11.08-.17.2-.2.17-.06.34-.31.17-.76l-2.6-6.89c-.06-.11-.11-.17-.25-.17h-6.02c-.14,0-.22.08-.28.22l-1.68,4.96c-.25.7-.39,1.37-.39,1.88,0,.56.59.81,1.06.81h.28c.2,0,.28.06.28.17,0,.17-.17.22-.42.22-.67,0-1.88-.08-2.18-.08s-1.85.08-3.16.08c-.36,0-.53-.06-.53-.22,0-.11.11-.17.25-.17.2,0,.59-.03.81-.06,1.29-.17,1.85-1.23,2.35-2.63l6.36-17.39Zm2.91,11.2c.14,0,.14-.08.11-.2l-2.66-7.56c-.14-.42-.28-.42-.42,0l-2.46,7.56c-.06.14,0,.2.08.2h5.35Z"/>
      </g>
    </g>
  </g>
</svg>