<?xml version="1.0" encoding="utf-8"?>
<!-- Generator: Adobe Illustrator 28.0.0, SVG Export Plug-In . SVG Version: 6.00 Build 0)  -->
<svg version="1.1" id="_レイヤー_2" xmlns="http://www.w3.org/2000/svg" xmlns:xlink="http://www.w3.org/1999/xlink" x="0px"
	 y="0px" viewBox="0 0 174 45.8" style="enable-background:new 0 0 174 45.8;" xml:space="preserve">
<g>
	<g>
		<path d="M1.4,33.6C1,33.4,1,33.3,1,32.5c0-1.4,0.1-2.5,0.1-3c0-0.3,0.1-0.4,0.2-0.4c0.2,0,0.2,0.1,0.2,0.3c0,0.3,0,0.6,0.1,1
			c0.4,2.1,2.3,2.9,4.1,2.9c2.7,0,4-1.9,4-3.7c0-1.9-0.8-3.1-3.2-5l-1.3-1c-3-2.4-3.6-4.2-3.6-6.1c0-3,2.2-5,5.8-5
			c1.1,0,1.9,0.1,2.6,0.3c0.5,0.1,0.8,0.1,1,0.1c0.2,0,0.3,0.1,0.3,0.2c0,0.1-0.1,1.1-0.1,3c0,0.4-0.1,0.6-0.2,0.6
			c-0.2,0-0.2-0.1-0.2-0.4c0-0.3-0.2-1.1-0.4-1.4c-0.2-0.3-0.9-1.5-3.5-1.5c-1.9,0-3.4,1.2-3.4,3.2c0,1.6,0.7,2.6,3.4,4.7L7.7,22
			c3.3,2.6,4.1,4.3,4.1,6.6c0,1.1-0.4,3.3-2.4,4.6c-1.2,0.8-2.7,1.2-4.2,1.2C3.8,34.4,2.5,34.2,1.4,33.6z"/>
		<path d="M37.5,25.9c0,2.7,0,4.9,0.1,6.1c0.1,0.8,0.3,1.4,1.1,1.5c0.4,0.1,1,0.1,1.3,0.1c0.2,0,0.2,0.1,0.2,0.2
			c0,0.1-0.1,0.2-0.4,0.2c-1.5,0-3.3-0.1-3.4-0.1c-0.1,0-1.9,0.1-2.7,0.1c-0.3,0-0.4-0.1-0.4-0.2c0-0.1,0.1-0.2,0.2-0.2
			c0.3,0,0.6-0.1,0.8-0.1c0.6-0.1,0.7-0.7,0.8-1.5c0.1-1.2,0.1-3.4,0.1-6.1v-2.9c0-0.1-0.1-0.2-0.2-0.2H23.1c-0.1,0-0.2,0-0.2,0.2
			v2.9c0,2.7,0,4.9,0.1,6.1c0.1,0.8,0.3,1.4,1.1,1.5c0.4,0.1,1,0.1,1.3,0.1c0.2,0,0.2,0.1,0.2,0.2c0,0.1-0.1,0.2-0.4,0.2
			c-1.5,0-3.3-0.1-3.4-0.1c-0.1,0-1.9,0.1-2.7,0.1c-0.3,0-0.4-0.1-0.4-0.2c0-0.1,0.1-0.2,0.2-0.2c0.3,0,0.6-0.1,0.8-0.1
			c0.6-0.1,0.7-0.7,0.8-1.5c0.1-1.2,0.1-3.4,0.1-6.1v-4.9c0-4.4,0-5.2-0.1-6c-0.1-1-0.3-1.4-1.2-1.6c-0.2-0.1-0.7-0.1-1-0.1
			c-0.1,0-0.2-0.1-0.2-0.2c0-0.2,0.1-0.2,0.4-0.2c1.3,0,3,0.1,3.2,0.1c0.1,0,1.9-0.1,2.7-0.1c0.3,0,0.4,0.1,0.4,0.2
			c0,0.1-0.1,0.2-0.2,0.2c-0.2,0-0.4,0-0.7,0.1c-0.8,0.1-1,0.6-1,1.6c-0.1,0.9-0.1,1.7-0.1,6v0.6c0,0.1,0.1,0.2,0.2,0.2h11.9
			c0.1,0,0.2,0,0.2-0.2v-0.6c0-4.4,0-5.2-0.1-6c-0.1-1-0.3-1.4-1.2-1.6c-0.2-0.1-0.7-0.1-1-0.1c-0.1,0-0.2-0.1-0.2-0.2
			c0-0.2,0.1-0.2,0.4-0.2c1.3,0,3,0.1,3.2,0.1c0.1,0,1.9-0.1,2.7-0.1c0.3,0,0.4,0.1,0.4,0.2c0,0.1-0.1,0.2-0.2,0.2
			c-0.2,0-0.4,0-0.7,0.1c-0.8,0.1-1,0.6-1,1.6c-0.1,0.9-0.1,1.7-0.1,6V25.9z"/>
		<path d="M51.2,25.9c0,2.7,0,4.9,0.1,6.1c0.1,0.8,0.3,1.4,1.1,1.5c0.4,0.1,1,0.1,1.3,0.1c0.2,0,0.2,0.1,0.2,0.2
			c0,0.1-0.1,0.2-0.4,0.2c-1.5,0-3.3-0.1-3.4-0.1c-0.1,0-1.9,0.1-2.7,0.1c-0.3,0-0.4-0.1-0.4-0.2c0-0.1,0.1-0.2,0.2-0.2
			c0.3,0,0.6-0.1,0.8-0.1c0.6-0.1,0.7-0.7,0.8-1.5c0.1-1.2,0.1-3.4,0.1-6.1v-4.9c0-4.4,0-5.2-0.1-6c-0.1-1-0.3-1.4-1-1.6
			c-0.3-0.1-0.7-0.1-0.9-0.1c-0.1,0-0.2-0.1-0.2-0.2c0-0.2,0.1-0.2,0.4-0.2c0.9,0,2.7,0.1,2.8,0.1c0.1,0,1.9-0.1,2.7-0.1
			c0.3,0,0.4,0.1,0.4,0.2c0,0.1-0.1,0.2-0.2,0.2c-0.2,0-0.4,0-0.7,0.1c-0.8,0.1-1,0.6-1,1.6c-0.1,0.9-0.1,1.7-0.1,6V25.9z"/>
		<path d="M70.3,32.8c2.9,0,3.8-0.5,4.4-1.4c0.3-0.4,0.5-1.1,0.6-1.5c0.1-0.3,0.1-0.4,0.3-0.4c0.2,0,0.2,0.1,0.2,0.6
			c0,0.9-0.4,2.5-0.6,3.2C75.1,34,75,34,74.4,34c-4.7,0-9.4-0.1-14.3-0.1c-0.3,0-0.5,0-0.5-0.2c0-0.1,0.1-0.3,0.4-0.8
			c4.2-6.3,8.4-12.6,12.3-18.9h-6.1c-1.4,0-3.1,0.1-4,0.6c-1,0.5-1.5,1.6-1.6,2.2c-0.1,0.4-0.2,0.5-0.3,0.5c-0.1,0-0.2-0.1-0.2-0.4
			c0-0.3,0.4-2.9,0.6-3.7c0.1-0.4,0.1-0.5,0.3-0.5c0.3,0,0.4,0.2,1.2,0.2c2.7,0.1,4,0.1,4.9,0.1h7.8c0.4,0,0.6,0.1,0.6,0.2
			c0,0.1,0,0.2-0.1,0.3c-4.1,6.4-8.3,12.9-12.5,19.3H70.3z"/>
		<path d="M81.7,20.9c0-4.4,0-5.2-0.1-6c-0.1-1-0.3-1.4-1.2-1.6c-0.2-0.1-0.7-0.1-1-0.1c-0.1,0-0.2-0.1-0.2-0.2
			c0-0.2,0.1-0.2,0.4-0.2c1.3,0,3,0.1,3.2,0.1s1.9-0.1,2.8-0.1c0.3,0,0.4,0.1,0.4,0.2c0,0.1-0.1,0.2-0.2,0.2c-0.2,0-0.4,0-0.7,0.1
			c-0.8,0.1-1,0.6-1,1.6c-0.1,0.9-0.1,1.7-0.1,6v3.9c0,4,0.9,5.8,2.1,6.9c1.4,1.3,2.6,1.5,4.2,1.5c1.7,0,3.4-0.8,4.4-2
			c1.3-1.6,1.6-4,1.6-6.9v-3.5c0-4.4,0-5.2-0.1-6c-0.1-1-0.3-1.4-1.2-1.6c-0.2-0.1-0.7-0.1-1-0.1c-0.1,0-0.2-0.1-0.2-0.2
			c0-0.2,0.1-0.2,0.4-0.2c1.3,0,2.8,0.1,3,0.1c0.2,0,1.5-0.1,2.4-0.1c0.3,0,0.4,0.1,0.4,0.2c0,0.1-0.1,0.2-0.2,0.2
			c-0.2,0-0.4,0-0.7,0.1c-0.8,0.2-1,0.6-1,1.6c-0.1,0.9-0.1,1.7-0.1,6v3c0,3-0.3,6.4-2.6,8.4c-2,1.8-4.1,2.1-5.8,2.1
			c-1,0-3.8-0.1-5.8-2c-1.4-1.3-2.4-3.3-2.4-7.4V20.9z"/>
		<path d="M115.8,12.4c6.3,0,11,4,11,10.5c0,6.3-4.4,11.5-11.2,11.5c-7.7,0-10.9-6-10.9-11C104.8,18.8,108.1,12.4,115.8,12.4z
			 M116.4,33.3c2.5,0,7.7-1.5,7.7-9.6c0-6.7-4.1-10.3-8.5-10.3c-4.7,0-8.2,3.1-8.2,9.2C107.4,29.1,111.3,33.3,116.4,33.3z"/>
		<path d="M135,20.9c0-4.4,0-5.2-0.1-6c-0.1-1-0.3-1.4-1.2-1.6c-0.2-0.1-0.7-0.1-1-0.1c-0.1,0-0.2-0.1-0.2-0.2
			c0-0.2,0.1-0.2,0.4-0.2c1.3,0,2.9,0.1,3.1,0.1c0.3,0,1.9-0.1,2.7-0.1c0.3,0,0.4,0.1,0.4,0.2c0,0.1-0.1,0.2-0.2,0.2
			c-0.2,0-0.4,0-0.7,0.1c-0.8,0.1-1,0.6-1,1.6c-0.1,0.9-0.1,1.7-0.1,6v1.7h0.1c0.5-0.5,5.5-5.7,6.6-6.8c0.8-0.8,1.5-1.5,1.5-2
			c0-0.3-0.1-0.5-0.4-0.6c-0.1-0.1-0.3-0.1-0.3-0.2c0-0.1,0.1-0.2,0.3-0.2c0.6,0,1.4,0.1,2.1,0.1c0.1,0,2-0.1,2.7-0.1
			c0.3,0,0.4,0.1,0.4,0.2s-0.1,0.2-0.3,0.2c-0.4,0-1,0.1-1.6,0.4c-1.1,0.5-1.8,1.2-3,2.4c-0.7,0.7-5.6,5.4-6.2,6.1
			c0.7,0.8,6.6,6.8,7.7,7.9c2.4,2.2,2.8,2.6,4.2,3.2c0.7,0.3,1.5,0.4,1.7,0.4c0.2,0,0.4,0.1,0.4,0.2c0,0.1-0.1,0.2-0.6,0.2h-1.4
			c-0.8,0-1.3,0-1.9-0.1c-1.5-0.1-2.2-0.8-3.4-1.7c-1.3-1-7.2-7.4-8.5-9.1h-0.1v2.7c0,2.7,0,4.9,0.1,6.1c0.1,0.8,0.3,1.4,1.1,1.5
			c0.4,0.1,0.8,0.1,1.1,0.1c0.2,0,0.2,0.1,0.2,0.2c0,0.1-0.1,0.2-0.4,0.2c-1.4,0-3-0.1-3.2-0.1c-0.2,0-1.8,0.1-2.7,0.1
			c-0.3,0-0.4-0.1-0.4-0.2c0-0.1,0.1-0.2,0.2-0.2c0.3,0,0.6-0.1,0.8-0.1c0.6-0.1,0.7-0.7,0.8-1.5c0.1-1.2,0.1-3.4,0.1-6.1V20.9z"/>
		<path d="M161.5,13.5c0.3-0.9,0.4-1.1,0.6-1.1s0.3,0.1,0.6,1c0.4,1.1,4.8,12.6,6.5,16.9c1,2.5,1.8,2.9,2.4,3.1
			c0.4,0.1,0.8,0.2,1.1,0.2c0.2,0,0.3,0,0.3,0.2c0,0.2-0.3,0.2-0.6,0.2c-0.4,0-2.5,0-4.4-0.1c-0.5,0-0.8,0-0.8-0.2
			c0-0.1,0.1-0.2,0.2-0.2c0.2-0.1,0.3-0.3,0.2-0.8l-2.6-6.9c-0.1-0.1-0.1-0.2-0.3-0.2h-6c-0.1,0-0.2,0.1-0.3,0.2l-1.7,5
			c-0.3,0.7-0.4,1.4-0.4,1.9c0,0.6,0.6,0.8,1.1,0.8h0.3c0.2,0,0.3,0.1,0.3,0.2c0,0.2-0.2,0.2-0.4,0.2c-0.7,0-1.9-0.1-2.2-0.1
			c-0.3,0-1.8,0.1-3.2,0.1c-0.4,0-0.5-0.1-0.5-0.2c0-0.1,0.1-0.2,0.3-0.2c0.2,0,0.6,0,0.8-0.1c1.3-0.2,1.8-1.2,2.4-2.6L161.5,13.5z
			 M164.4,24.7c0.1,0,0.1-0.1,0.1-0.2l-2.7-7.6c-0.1-0.4-0.3-0.4-0.4,0l-2.5,7.6c-0.1,0.1,0,0.2,0.1,0.2H164.4z"/>
	</g>
</g>
</svg>
