<?xml version="1.0" encoding="UTF-8"?>
<svg id="_レイヤー_2" data-name="レイヤー 2" xmlns="http://www.w3.org/2000/svg" viewBox="0 0 155.84 155.85">
  <defs>
    <style>
      .cls-1 {
        fill: #d9d9d9;
        stroke-width: 0px;
      }
    </style>
  </defs>
  <g id="_レイヤー_1-2" data-name="レイヤー 1">
    <g>
      <path class="cls-1" d="m148.43,85.34c-1.09,0-1.99-.89-1.99-1.99,0-.27.05-.53.16-.77.31-.74,1.03-1.21,1.83-1.21s1.52.48,1.83,1.21c.1.24.16.5.16.77,0,1.1-.89,1.99-1.99,1.99Z"/>
      <path class="cls-1" d="m148.43,74.49c-1.09,0-1.99-.89-1.99-1.99s.89-1.99,1.99-1.99,1.99.89,1.99,1.99-.89,1.99-1.99,1.99Z"/>
      <path class="cls-1" d="m143.01,79.91c-1.1,0-1.99-.89-1.99-1.99s.89-1.99,1.99-1.99,1.99.89,1.99,1.99-.89,1.99-1.99,1.99Z"/>
      <path class="cls-1" d="m153.85,79.91c-1.1,0-1.99-.89-1.99-1.99s.89-1.99,1.99-1.99,1.99.89,1.99,1.99-.89,1.99-1.99,1.99Z"/>
      <path class="cls-1" d="m143.01,69.06c-1.1,0-1.99-.89-1.99-1.99s.89-1.99,1.99-1.99,1.99.89,1.99,1.99-.89,1.99-1.99,1.99Z"/>
      <path class="cls-1" d="m143.01,90.76c-1.1,0-1.99-.89-1.99-1.99s.89-1.99,1.99-1.99,1.99.89,1.99,1.99-.89,1.99-1.99,1.99Z"/>
      <path class="cls-1" d="m126.74,52.79c-1.1,0-1.99-.89-1.99-1.99s.89-1.99,1.99-1.99,1.99.89,1.99,1.99-.89,1.99-1.99,1.99Z"/>
      <path class="cls-1" d="m132.16,58.22c-1.1,0-1.99-.89-1.99-1.99s.89-1.99,1.99-1.99,1.99.89,1.99,1.99-.89,1.99-1.99,1.99Z"/>
      <path class="cls-1" d="m137.58,85.34c-.53,0-1.03-.21-1.4-.58-.38-.38-.58-.88-.58-1.41,0-.27.05-.53.16-.77.1-.24.24-.45.43-.63.38-.38.87-.58,1.4-.58.8,0,1.52.48,1.83,1.21.1.24.16.5.16.77,0,1.1-.89,1.99-1.99,1.99Z"/>
      <path class="cls-1" d="m126.74,85.34c-1.1,0-1.99-.89-1.99-1.99,0-.27.05-.53.16-.77.31-.74,1.03-1.21,1.83-1.21s1.52.48,1.83,1.21c.1.24.16.5.16.77,0,1.1-.89,1.99-1.99,1.99Z"/>
      <path class="cls-1" d="m137.58,74.49c-.53,0-1.03-.21-1.4-.58-.38-.38-.58-.88-.58-1.41s.21-1.03.58-1.41c.38-.38.87-.58,1.4-.58,1.1,0,1.99.89,1.99,1.99s-.89,1.99-1.99,1.99Z"/>
      <path class="cls-1" d="m126.74,74.49c-1.1,0-1.99-.89-1.99-1.99s.89-1.99,1.99-1.99,1.99.89,1.99,1.99-.89,1.99-1.99,1.99Z"/>
      <path class="cls-1" d="m132.16,79.91c-1.1,0-1.99-.89-1.99-1.99s.89-1.99,1.99-1.99,1.99.89,1.99,1.99-.89,1.99-1.99,1.99Z"/>
      <path class="cls-1" d="m132.16,69.06c-1.1,0-1.99-.89-1.99-1.99s.89-1.99,1.99-1.99,1.99.89,1.99,1.99-.89,1.99-1.99,1.99Z"/>
      <path class="cls-1" d="m137.58,63.64c-.53,0-1.03-.21-1.4-.58-.38-.38-.58-.88-.58-1.41s.21-1.03.58-1.41c.38-.38.87-.58,1.4-.58,1.1,0,1.99.89,1.99,1.99s-.89,1.99-1.99,1.99Z"/>
      <circle class="cls-1" cx="126.74" cy="61.65" r="1.99"/>
      <path class="cls-1" d="m137.58,96.19c-.53,0-1.03-.21-1.4-.58-.38-.38-.58-.88-.58-1.41s.21-1.03.58-1.41c.38-.38.87-.58,1.4-.58,1.1,0,1.99.89,1.99,1.99s-.89,1.99-1.99,1.99Z"/>
      <path class="cls-1" d="m132.16,101.61c-1.1,0-1.99-.89-1.99-1.99s.89-1.99,1.99-1.99,1.99.89,1.99,1.99-.89,1.99-1.99,1.99Z"/>
      <path class="cls-1" d="m132.16,90.76c-1.1,0-1.99-.89-1.99-1.99s.89-1.99,1.99-1.99,1.99.89,1.99,1.99-.89,1.99-1.99,1.99Z"/>
      <path class="cls-1" d="m105.04,31.1c-1.1,0-1.99-.89-1.99-1.99s.89-1.99,1.99-1.99,1.99.89,1.99,1.99-.89,1.99-1.99,1.99Z"/>
      <path class="cls-1" d="m99.62,36.52c-1.1,0-1.99-.89-1.99-1.99s.89-1.99,1.99-1.99,1.99.89,1.99,1.99-.89,1.99-1.99,1.99Z"/>
      <path class="cls-1" d="m110.46,36.52c-1.1,0-1.99-.89-1.99-1.99s.89-1.99,1.99-1.99,1.99.89,1.99,1.99-.89,1.99-1.99,1.99Z"/>
      <path class="cls-1" d="m99.62,25.67c-1.1,0-1.99-.89-1.99-1.99s.89-1.99,1.99-1.99,1.99.89,1.99,1.99-.89,1.99-1.99,1.99Z"/>
      <path class="cls-1" d="m105.04,52.79c-1.1,0-1.99-.89-1.99-1.99s.89-1.99,1.99-1.99,1.99.89,1.99,1.99-.89,1.99-1.99,1.99Z"/>
      <circle class="cls-1" cx="99.62" cy="56.23" r="1.99"/>
      <path class="cls-1" d="m110.46,58.22c-1.1,0-1.99-.89-1.99-1.99s.89-1.99,1.99-1.99,1.99.89,1.99,1.99-.89,1.99-1.99,1.99Z"/>
      <path class="cls-1" d="m105.04,41.94c-1.1,0-1.99-.89-1.99-1.99s.89-1.99,1.99-1.99,1.99.89,1.99,1.99-.89,1.99-1.99,1.99Z"/>
      <path class="cls-1" d="m105.04,85.34c-1.1,0-1.99-.89-1.99-1.99,0-.27.05-.53.16-.77.31-.74,1.03-1.21,1.83-1.21s1.52.48,1.83,1.21c.1.25.16.51.16.77,0,1.1-.89,1.99-1.99,1.99Z"/>
      <path class="cls-1" d="m105.04,74.49c-1.1,0-1.99-.89-1.99-1.99s.89-1.99,1.99-1.99,1.99.89,1.99,1.99-.89,1.99-1.99,1.99Z"/>
      <circle class="cls-1" cx="99.62" cy="77.92" r="1.99"/>
      <path class="cls-1" d="m110.46,79.91c-1.1,0-1.99-.89-1.99-1.99s.89-1.99,1.99-1.99,1.99.89,1.99,1.99-.89,1.99-1.99,1.99Z"/>
      <circle class="cls-1" cx="99.62" cy="67.08" r="1.99"/>
      <path class="cls-1" d="m110.46,69.06c-1.1,0-1.99-.89-1.99-1.99s.89-1.99,1.99-1.99,1.99.89,1.99,1.99-.89,1.99-1.99,1.99Z"/>
      <path class="cls-1" d="m105.04,63.64c-1.1,0-1.99-.89-1.99-1.99s.89-1.99,1.99-1.99,1.99.89,1.99,1.99-.89,1.99-1.99,1.99Z"/>
      <path class="cls-1" d="m115.89,96.19c-1.09,0-1.99-.89-1.99-1.99s.89-1.99,1.99-1.99,1.99.89,1.99,1.99-.89,1.99-1.99,1.99Z"/>
      <path class="cls-1" d="m105.04,96.19c-1.1,0-1.99-.89-1.99-1.99s.89-1.99,1.99-1.99,1.99.89,1.99,1.99-.89,1.99-1.99,1.99Z"/>
      <path class="cls-1" d="m99.62,101.61c-1.1,0-1.99-.89-1.99-1.99s.89-1.99,1.99-1.99,1.99.89,1.99,1.99-.89,1.99-1.99,1.99Z"/>
      <path class="cls-1" d="m110.46,101.61c-1.1,0-1.99-.89-1.99-1.99s.89-1.99,1.99-1.99,1.99.89,1.99,1.99-.89,1.99-1.99,1.99Z"/>
      <circle class="cls-1" cx="99.62" cy="88.77" r="1.99"/>
      <path class="cls-1" d="m110.46,90.76c-1.1,0-1.99-.89-1.99-1.99s.89-1.99,1.99-1.99,1.99.89,1.99,1.99-.89,1.99-1.99,1.99Z"/>
      <path class="cls-1" d="m115.89,117.88c-1.09,0-1.99-.89-1.99-1.99s.89-1.99,1.99-1.99,1.99.89,1.99,1.99-.89,1.99-1.99,1.99Z"/>
      <path class="cls-1" d="m105.04,117.88c-1.1,0-1.99-.89-1.99-1.99s.89-1.99,1.99-1.99,1.99.89,1.99,1.99-.89,1.99-1.99,1.99Z"/>
      <path class="cls-1" d="m99.62,123.3c-1.1,0-1.99-.89-1.99-1.99s.89-1.99,1.99-1.99,1.99.89,1.99,1.99-.89,1.99-1.99,1.99Z"/>
      <path class="cls-1" d="m110.46,123.3c-1.1,0-1.99-.89-1.99-1.99s.89-1.99,1.99-1.99,1.99.89,1.99,1.99-.89,1.99-1.99,1.99Z"/>
      <path class="cls-1" d="m99.62,112.46c-1.1,0-1.99-.89-1.99-1.99s.89-1.99,1.99-1.99,1.99.89,1.99,1.99-.89,1.99-1.99,1.99Z"/>
      <path class="cls-1" d="m110.46,112.46c-1.1,0-1.99-.89-1.99-1.99s.89-1.99,1.99-1.99,1.99.89,1.99,1.99-.89,1.99-1.99,1.99Z"/>
      <path class="cls-1" d="m115.89,107.03c-1.09,0-1.99-.89-1.99-1.99,0-.8.48-1.52,1.21-1.83.24-.1.5-.16.77-.16s.53.05.77.16c.74.31,1.21,1.03,1.21,1.83,0,1.1-.89,1.99-1.99,1.99Z"/>
      <path class="cls-1" d="m105.04,107.03c-1.1,0-1.99-.89-1.99-1.99,0-.8.48-1.52,1.21-1.83.24-.1.5-.16.77-.16s.53.05.77.16c.74.31,1.21,1.03,1.21,1.83,0,1.1-.89,1.99-1.99,1.99Z"/>
      <path class="cls-1" d="m99.62,134.15c-1.1,0-1.99-.89-1.99-1.99s.89-1.99,1.99-1.99,1.99.89,1.99,1.99-.89,1.99-1.99,1.99Z"/>
      <path class="cls-1" d="m105.04,128.73c-1.1,0-1.99-.89-1.99-1.99s.89-1.99,1.99-1.99,1.99.89,1.99,1.99-.89,1.99-1.99,1.99Z"/>
      <path class="cls-1" d="m94.19,20.25c-.53,0-1.03-.21-1.4-.58-.18-.18-.33-.4-.43-.63-.1-.25-.16-.51-.16-.77s.05-.53.16-.77c.1-.24.24-.45.43-.63.38-.38.87-.58,1.4-.58.27,0,.53.05.77.16.47.2.86.58,1.06,1.06.1.24.16.5.16.77s-.05.53-.16.77c-.2.47-.59.86-1.06,1.06-.24.1-.5.16-.77.16Z"/>
      <path class="cls-1" d="m83.35,20.25c-.8,0-1.52-.48-1.83-1.21-.1-.24-.16-.5-.16-.77s.05-.53.16-.77c.31-.74,1.03-1.21,1.83-1.21s1.52.48,1.83,1.21c.1.24.16.5.16.77s-.05.53-.16.77c-.31.74-1.03,1.21-1.83,1.21Z"/>
      <path class="cls-1" d="m83.35,9.4c-1.1,0-1.99-.89-1.99-1.99s.89-1.99,1.99-1.99,1.99.89,1.99,1.99-.89,1.99-1.99,1.99Z"/>
      <path class="cls-1" d="m77.92,14.82c-1.1,0-1.99-.89-1.99-1.99s.89-1.99,1.99-1.99,1.99.89,1.99,1.99-.89,1.99-1.99,1.99Z"/>
      <path class="cls-1" d="m88.77,14.82c-1.1,0-1.99-.89-1.99-1.99s.89-1.99,1.99-1.99,1.99.89,1.99,1.99-.89,1.99-1.99,1.99Z"/>
      <path class="cls-1" d="m77.92,3.98c-1.1,0-1.99-.89-1.99-1.99s.89-1.99,1.99-1.99,1.99.89,1.99,1.99-.89,1.99-1.99,1.99Z"/>
      <path class="cls-1" d="m94.19,31.1c-.53,0-1.03-.21-1.4-.58-.38-.38-.58-.87-.58-1.41s.21-1.03.58-1.41c.38-.38.87-.58,1.4-.58.27,0,.53.05.77.16.74.31,1.21,1.03,1.21,1.83s-.48,1.52-1.21,1.83c-.25.1-.5.16-.77.16Z"/>
      <path class="cls-1" d="m83.35,31.1c-1.1,0-1.99-.89-1.99-1.99s.89-1.99,1.99-1.99,1.99.89,1.99,1.99-.89,1.99-1.99,1.99Z"/>
      <path class="cls-1" d="m77.92,36.52c-1.1,0-1.99-.89-1.99-1.99s.89-1.99,1.99-1.99,1.99.89,1.99,1.99-.89,1.99-1.99,1.99Z"/>
      <path class="cls-1" d="m88.77,36.52c-1.1,0-1.99-.89-1.99-1.99s.89-1.99,1.99-1.99,1.99.89,1.99,1.99-.89,1.99-1.99,1.99Z"/>
      <path class="cls-1" d="m77.92,25.67c-1.1,0-1.99-.89-1.99-1.99s.89-1.99,1.99-1.99,1.99.89,1.99,1.99-.89,1.99-1.99,1.99Z"/>
      <path class="cls-1" d="m88.77,25.67c-1.1,0-1.99-.89-1.99-1.99s.89-1.99,1.99-1.99,1.99.89,1.99,1.99-.89,1.99-1.99,1.99Z"/>
      <path class="cls-1" d="m94.19,52.79c-.53,0-1.03-.21-1.4-.58-.38-.38-.58-.87-.58-1.41s.21-1.03.58-1.41c.38-.38.87-.58,1.4-.58.27,0,.53.05.77.16.74.31,1.21,1.03,1.21,1.83s-.48,1.52-1.21,1.83c-.25.1-.5.16-.77.16Z"/>
      <path class="cls-1" d="m88.77,58.22c-1.1,0-1.99-.89-1.99-1.99s.89-1.99,1.99-1.99,1.99.89,1.99,1.99-.89,1.99-1.99,1.99Z"/>
      <path class="cls-1" d="m77.92,47.37c-1.1,0-1.99-.89-1.99-1.99s.89-1.99,1.99-1.99,1.99.89,1.99,1.99-.89,1.99-1.99,1.99Z"/>
      <path class="cls-1" d="m83.35,41.94c-1.1,0-1.99-.89-1.99-1.99s.89-1.99,1.99-1.99,1.99.89,1.99,1.99-.89,1.99-1.99,1.99Z"/>
      <path class="cls-1" d="m94.19,85.34c-.53,0-1.03-.21-1.4-.58-.38-.38-.58-.87-.58-1.41,0-.27.05-.53.16-.77.1-.24.24-.45.43-.63.38-.38.87-.58,1.4-.58.27,0,.53.05.77.16.47.2.86.59,1.06,1.06.1.24.16.5.16.77,0,.8-.48,1.52-1.21,1.83-.24.1-.5.16-.77.16Z"/>
      <path class="cls-1" d="m94.19,74.49c-.53,0-1.03-.21-1.4-.58-.38-.38-.58-.87-.58-1.41s.21-1.03.58-1.41c.38-.38.87-.58,1.4-.58.27,0,.53.05.77.16.74.31,1.21,1.03,1.21,1.83s-.48,1.52-1.21,1.83c-.25.1-.5.16-.77.16Z"/>
      <path class="cls-1" d="m83.35,74.49c-1.1,0-1.99-.89-1.99-1.99s.89-1.99,1.99-1.99,1.99.89,1.99,1.99-.89,1.99-1.99,1.99Z"/>
      <path class="cls-1" d="m88.77,79.91c-1.1,0-1.99-.89-1.99-1.99s.89-1.99,1.99-1.99,1.99.89,1.99,1.99-.89,1.99-1.99,1.99Z"/>
      <path class="cls-1" d="m88.77,69.06c-1.1,0-1.99-.89-1.99-1.99s.89-1.99,1.99-1.99,1.99.89,1.99,1.99-.89,1.99-1.99,1.99Z"/>
      <path class="cls-1" d="m94.19,63.64c-.53,0-1.03-.21-1.4-.58-.38-.38-.58-.87-.58-1.41s.21-1.03.58-1.41c.38-.38.87-.58,1.4-.58.27,0,.53.05.77.16.74.31,1.21,1.03,1.21,1.83s-.48,1.52-1.21,1.83c-.24.1-.5.16-.77.16Z"/>
      <circle class="cls-1" cx="83.35" cy="61.65" r="1.99"/>
      <path class="cls-1" d="m94.19,96.19c-.53,0-1.03-.21-1.4-.58-.38-.38-.58-.87-.58-1.41s.21-1.03.58-1.41c.38-.38.87-.58,1.4-.58.27,0,.53.05.77.16.74.31,1.21,1.03,1.21,1.83s-.48,1.52-1.21,1.83c-.25.1-.5.16-.77.16Z"/>
      <path class="cls-1" d="m77.92,101.61c-1.1,0-1.99-.89-1.99-1.99s.89-1.99,1.99-1.99,1.99.89,1.99,1.99-.89,1.99-1.99,1.99Z"/>
      <path class="cls-1" d="m83.35,117.88c-1.1,0-1.99-.89-1.99-1.99s.89-1.99,1.99-1.99,1.99.89,1.99,1.99-.89,1.99-1.99,1.99Z"/>
      <path class="cls-1" d="m77.92,112.46c-1.1,0-1.99-.89-1.99-1.99s.89-1.99,1.99-1.99,1.99.89,1.99,1.99-.89,1.99-1.99,1.99Z"/>
      <path class="cls-1" d="m83.35,107.03c-1.1,0-1.99-.89-1.99-1.99,0-.8.48-1.52,1.21-1.83.24-.1.5-.16.77-.16s.53.05.77.16c.74.31,1.21,1.03,1.21,1.83,0,1.1-.89,1.99-1.99,1.99Z"/>
      <path class="cls-1" d="m83.35,150.43c-1.1,0-1.99-.89-1.99-1.99,0-.27.05-.53.16-.77.31-.74,1.03-1.21,1.83-1.21s1.52.48,1.83,1.21c.1.24.16.5.16.77,0,1.1-.89,1.99-1.99,1.99Z"/>
      <path class="cls-1" d="m94.19,139.58c-.53,0-1.03-.21-1.4-.58-.38-.38-.58-.87-.58-1.41s.21-1.03.58-1.41c.38-.38.87-.58,1.4-.58.27,0,.53.05.77.16.74.31,1.21,1.03,1.21,1.83s-.48,1.52-1.21,1.83c-.25.1-.5.16-.77.16Z"/>
      <path class="cls-1" d="m83.35,139.58c-1.1,0-1.99-.89-1.99-1.99s.89-1.99,1.99-1.99,1.99.89,1.99,1.99-.89,1.99-1.99,1.99Z"/>
      <path class="cls-1" d="m77.92,145c-1.1,0-1.99-.89-1.99-1.99s.89-1.99,1.99-1.99,1.99.89,1.99,1.99-.89,1.99-1.99,1.99Z"/>
      <path class="cls-1" d="m88.77,145c-1.1,0-1.99-.89-1.99-1.99s.89-1.99,1.99-1.99,1.99.89,1.99,1.99-.89,1.99-1.99,1.99Z"/>
      <path class="cls-1" d="m88.77,134.15c-1.1,0-1.99-.89-1.99-1.99s.89-1.99,1.99-1.99,1.99.89,1.99,1.99-.89,1.99-1.99,1.99Z"/>
      <path class="cls-1" d="m94.19,128.73c-.53,0-1.03-.21-1.4-.58-.38-.38-.58-.87-.58-1.41s.21-1.03.58-1.41c.38-.38.87-.58,1.4-.58.27,0,.53.05.77.16.74.31,1.21,1.03,1.21,1.83s-.48,1.52-1.21,1.83c-.24.1-.5.16-.77.16Z"/>
      <path class="cls-1" d="m77.92,155.85c-1.1,0-1.99-.89-1.99-1.99s.89-1.99,1.99-1.99,1.99.89,1.99,1.99-.89,1.99-1.99,1.99Z"/>
      <path class="cls-1" d="m72.5,20.25c-.8,0-1.52-.48-1.83-1.21-.1-.24-.16-.5-.16-.77s.05-.53.16-.77c.31-.74,1.03-1.21,1.83-1.21s1.52.48,1.83,1.21c.1.24.16.5.16.77s-.05.53-.16.77c-.31.74-1.03,1.21-1.83,1.21Z"/>
      <path class="cls-1" d="m61.65,20.25c-.8,0-1.52-.48-1.83-1.21-.1-.25-.16-.51-.16-.77s.05-.53.16-.77c.31-.74,1.03-1.21,1.83-1.21s1.52.48,1.83,1.21c.1.25.16.51.16.77s-.05.53-.16.77c-.31.74-1.03,1.21-1.83,1.21Z"/>
      <path class="cls-1" d="m72.5,9.4c-1.09,0-1.99-.89-1.99-1.99s.89-1.99,1.99-1.99,1.99.89,1.99,1.99-.89,1.99-1.99,1.99Z"/>
      <path class="cls-1" d="m67.07,14.82c-1.1,0-1.99-.89-1.99-1.99s.89-1.99,1.99-1.99,1.99.89,1.99,1.99-.89,1.99-1.99,1.99Z"/>
      <path class="cls-1" d="m72.5,31.1c-1.09,0-1.99-.89-1.99-1.99s.89-1.99,1.99-1.99,1.99.89,1.99,1.99-.89,1.99-1.99,1.99Z"/>
      <path class="cls-1" d="m61.65,31.1c-1.1,0-1.99-.89-1.99-1.99s.89-1.99,1.99-1.99,1.99.89,1.99,1.99-.89,1.99-1.99,1.99Z"/>
      <path class="cls-1" d="m56.23,36.52c-1.1,0-1.99-.89-1.99-1.99s.89-1.99,1.99-1.99,1.99.89,1.99,1.99-.89,1.99-1.99,1.99Z"/>
      <path class="cls-1" d="m67.07,36.52c-1.1,0-1.99-.89-1.99-1.99s.89-1.99,1.99-1.99,1.99.89,1.99,1.99-.89,1.99-1.99,1.99Z"/>
      <path class="cls-1" d="m56.23,25.67c-1.1,0-1.99-.89-1.99-1.99s.89-1.99,1.99-1.99,1.99.89,1.99,1.99-.89,1.99-1.99,1.99Z"/>
      <path class="cls-1" d="m67.07,25.67c-1.1,0-1.99-.89-1.99-1.99s.89-1.99,1.99-1.99,1.99.89,1.99,1.99-.89,1.99-1.99,1.99Z"/>
      <path class="cls-1" d="m72.5,52.79c-1.09,0-1.99-.89-1.99-1.99s.89-1.99,1.99-1.99,1.99.89,1.99,1.99-.89,1.99-1.99,1.99Z"/>
      <path class="cls-1" d="m61.65,52.79c-1.1,0-1.99-.89-1.99-1.99s.89-1.99,1.99-1.99,1.99.89,1.99,1.99-.89,1.99-1.99,1.99Z"/>
      <path class="cls-1" d="m56.23,58.22c-1.1,0-1.99-.89-1.99-1.99s.89-1.99,1.99-1.99,1.99.89,1.99,1.99-.89,1.99-1.99,1.99Z"/>
      <path class="cls-1" d="m67.07,58.22c-1.1,0-1.99-.89-1.99-1.99s.89-1.99,1.99-1.99,1.99.89,1.99,1.99-.89,1.99-1.99,1.99Z"/>
      <path class="cls-1" d="m56.23,47.37c-1.1,0-1.99-.89-1.99-1.99s.89-1.99,1.99-1.99,1.99.89,1.99,1.99-.89,1.99-1.99,1.99Z"/>
      <path class="cls-1" d="m67.07,47.37c-1.1,0-1.99-.89-1.99-1.99s.89-1.99,1.99-1.99,1.99.89,1.99,1.99-.89,1.99-1.99,1.99Z"/>
      <path class="cls-1" d="m72.5,41.94c-1.09,0-1.99-.89-1.99-1.99s.89-1.99,1.99-1.99,1.99.89,1.99,1.99-.89,1.99-1.99,1.99Z"/>
      <path class="cls-1" d="m61.65,41.94c-1.1,0-1.99-.89-1.99-1.99s.89-1.99,1.99-1.99,1.99.89,1.99,1.99-.89,1.99-1.99,1.99Z"/>
      <path class="cls-1" d="m72.5,85.34c-1.09,0-1.99-.89-1.99-1.99,0-.27.05-.53.16-.77.31-.74,1.03-1.21,1.83-1.21s1.52.48,1.83,1.21c.1.24.16.5.16.77,0,1.1-.89,1.99-1.99,1.99Z"/>
      <path class="cls-1" d="m61.65,74.49c-1.1,0-1.99-.89-1.99-1.99s.89-1.99,1.99-1.99,1.99.89,1.99,1.99-.89,1.99-1.99,1.99Z"/>
      <path class="cls-1" d="m67.07,79.91c-1.1,0-1.99-.89-1.99-1.99s.89-1.99,1.99-1.99,1.99.89,1.99,1.99-.89,1.99-1.99,1.99Z"/>
      <path class="cls-1" d="m56.23,69.06c-1.1,0-1.99-.89-1.99-1.99s.89-1.99,1.99-1.99,1.99.89,1.99,1.99-.89,1.99-1.99,1.99Z"/>
      <path class="cls-1" d="m67.07,69.06c-1.1,0-1.99-.89-1.99-1.99s.89-1.99,1.99-1.99,1.99.89,1.99,1.99-.89,1.99-1.99,1.99Z"/>
      <path class="cls-1" d="m61.65,63.64c-1.1,0-1.99-.89-1.99-1.99s.89-1.99,1.99-1.99,1.99.89,1.99,1.99-.89,1.99-1.99,1.99Z"/>
      <path class="cls-1" d="m72.5,96.19c-1.09,0-1.99-.89-1.99-1.99s.89-1.99,1.99-1.99,1.99.89,1.99,1.99-.89,1.99-1.99,1.99Z"/>
      <path class="cls-1" d="m56.23,101.61c-1.1,0-1.99-.89-1.99-1.99s.89-1.99,1.99-1.99,1.99.89,1.99,1.99-.89,1.99-1.99,1.99Z"/>
      <path class="cls-1" d="m67.07,90.76c-1.1,0-1.99-.89-1.99-1.99s.89-1.99,1.99-1.99,1.99.89,1.99,1.99-.89,1.99-1.99,1.99Z"/>
      <path class="cls-1" d="m61.65,117.88c-1.1,0-1.99-.89-1.99-1.99s.89-1.99,1.99-1.99,1.99.89,1.99,1.99-.89,1.99-1.99,1.99Z"/>
      <path class="cls-1" d="m56.23,123.3c-1.1,0-1.99-.89-1.99-1.99s.89-1.99,1.99-1.99,1.99.89,1.99,1.99-.89,1.99-1.99,1.99Z"/>
      <path class="cls-1" d="m67.07,123.3c-1.1,0-1.99-.89-1.99-1.99s.89-1.99,1.99-1.99,1.99.89,1.99,1.99-.89,1.99-1.99,1.99Z"/>
      <path class="cls-1" d="m56.23,112.46c-1.1,0-1.99-.89-1.99-1.99s.89-1.99,1.99-1.99,1.99.89,1.99,1.99-.89,1.99-1.99,1.99Z"/>
      <path class="cls-1" d="m61.65,107.03c-1.1,0-1.99-.89-1.99-1.99,0-.8.48-1.52,1.21-1.83.24-.1.5-.16.77-.16s.53.05.77.16c.74.31,1.21,1.03,1.21,1.83,0,1.1-.89,1.99-1.99,1.99Z"/>
      <path class="cls-1" d="m72.5,150.43c-1.09,0-1.99-.89-1.99-1.99,0-.27.05-.53.16-.77.31-.74,1.03-1.21,1.83-1.21s1.52.48,1.83,1.21c.1.24.16.5.16.77,0,1.1-.89,1.99-1.99,1.99Z"/>
      <path class="cls-1" d="m72.5,139.58c-1.09,0-1.99-.89-1.99-1.99s.89-1.99,1.99-1.99,1.99.89,1.99,1.99-.89,1.99-1.99,1.99Z"/>
      <path class="cls-1" d="m61.65,139.58c-1.1,0-1.99-.89-1.99-1.99s.89-1.99,1.99-1.99,1.99.89,1.99,1.99-.89,1.99-1.99,1.99Z"/>
      <path class="cls-1" d="m67.07,145c-1.1,0-1.99-.89-1.99-1.99s.89-1.99,1.99-1.99,1.99.89,1.99,1.99-.89,1.99-1.99,1.99Z"/>
      <path class="cls-1" d="m56.23,134.15c-1.1,0-1.99-.89-1.99-1.99s.89-1.99,1.99-1.99,1.99.89,1.99,1.99-.89,1.99-1.99,1.99Z"/>
      <path class="cls-1" d="m72.5,128.73c-1.09,0-1.99-.89-1.99-1.99s.89-1.99,1.99-1.99,1.99.89,1.99,1.99-.89,1.99-1.99,1.99Z"/>
      <path class="cls-1" d="m61.65,128.73c-1.1,0-1.99-.89-1.99-1.99s.89-1.99,1.99-1.99,1.99.89,1.99,1.99-.89,1.99-1.99,1.99Z"/>
      <path class="cls-1" d="m50.8,31.1c-.53,0-1.03-.21-1.4-.58-.38-.38-.58-.87-.58-1.41s.21-1.03.58-1.41c.38-.38.87-.58,1.4-.58.27,0,.53.05.77.16.74.31,1.21,1.03,1.21,1.83s-.48,1.52-1.21,1.83c-.25.1-.5.16-.77.16Z"/>
      <path class="cls-1" d="m45.38,36.52c-1.1,0-1.99-.89-1.99-1.99s.89-1.99,1.99-1.99,1.99.89,1.99,1.99-.89,1.99-1.99,1.99Z"/>
      <path class="cls-1" d="m50.8,52.79c-.53,0-1.03-.21-1.4-.58-.38-.38-.58-.87-.58-1.41s.21-1.03.58-1.41.87-.58,1.4-.58c.27,0,.53.05.77.16.74.31,1.21,1.03,1.21,1.83s-.48,1.52-1.21,1.83c-.25.1-.5.16-.77.16Z"/>
      <path class="cls-1" d="m45.38,47.37c-1.1,0-1.99-.89-1.99-1.99s.89-1.99,1.99-1.99,1.99.89,1.99,1.99-.89,1.99-1.99,1.99Z"/>
      <path class="cls-1" d="m50.8,41.94c-.53,0-1.03-.21-1.4-.58-.38-.38-.58-.87-.58-1.41s.21-1.03.58-1.41c.38-.38.87-.58,1.4-.58.27,0,.53.05.77.16.74.31,1.21,1.03,1.21,1.83s-.48,1.52-1.21,1.83c-.24.1-.5.16-.77.16Z"/>
      <path class="cls-1" d="m50.8,85.34c-.53,0-1.03-.21-1.4-.58-.38-.38-.58-.87-.58-1.41,0-.27.05-.53.16-.77.1-.24.24-.45.42-.63.38-.37.87-.58,1.4-.58.27,0,.53.05.77.16.47.2.86.59,1.06,1.06.1.24.16.5.16.77,0,.8-.48,1.52-1.21,1.83-.24.1-.5.16-.77.16Z"/>
      <path class="cls-1" d="m39.95,85.34c-1.09,0-1.99-.89-1.99-1.99,0-.27.05-.53.16-.77.31-.74,1.03-1.21,1.83-1.21s1.52.48,1.83,1.21c.1.24.16.5.16.77,0,1.1-.89,1.99-1.99,1.99Z"/>
      <path class="cls-1" d="m39.95,74.49c-1.09,0-1.99-.89-1.99-1.99s.89-1.99,1.99-1.99,1.99.89,1.99,1.99-.89,1.99-1.99,1.99Z"/>
      <path class="cls-1" d="m45.38,79.91c-1.1,0-1.99-.89-1.99-1.99s.89-1.99,1.99-1.99,1.99.89,1.99,1.99-.89,1.99-1.99,1.99Z"/>
      <path class="cls-1" d="m39.95,63.64c-1.09,0-1.99-.89-1.99-1.99s.89-1.99,1.99-1.99,1.99.89,1.99,1.99-.89,1.99-1.99,1.99Z"/>
      <path class="cls-1" d="m50.8,96.19c-.53,0-1.03-.21-1.4-.58-.38-.38-.58-.87-.58-1.41s.21-1.03.58-1.41.87-.58,1.4-.58c.27,0,.53.05.77.16.74.31,1.21,1.03,1.21,1.83s-.48,1.52-1.21,1.83c-.25.1-.5.16-.77.16Z"/>
      <path class="cls-1" d="m39.95,96.19c-1.09,0-1.99-.89-1.99-1.99s.89-1.99,1.99-1.99,1.99.89,1.99,1.99-.89,1.99-1.99,1.99Z"/>
      <path class="cls-1" d="m45.38,101.61c-1.1,0-1.99-.89-1.99-1.99s.89-1.99,1.99-1.99,1.99.89,1.99,1.99-.89,1.99-1.99,1.99Z"/>
      <path class="cls-1" d="m45.38,90.76c-1.1,0-1.99-.89-1.99-1.99s.89-1.99,1.99-1.99,1.99.89,1.99,1.99-.89,1.99-1.99,1.99Z"/>
      <path class="cls-1" d="m50.8,117.88c-.53,0-1.03-.21-1.4-.58-.38-.38-.58-.88-.58-1.41s.21-1.03.58-1.41c.38-.38.87-.58,1.4-.58.27,0,.53.05.77.16.74.31,1.21,1.03,1.21,1.83s-.48,1.52-1.21,1.83c-.25.1-.5.16-.77.16Z"/>
      <path class="cls-1" d="m39.95,117.88c-1.09,0-1.99-.89-1.99-1.99s.89-1.99,1.99-1.99,1.99.89,1.99,1.99-.89,1.99-1.99,1.99Z"/>
      <path class="cls-1" d="m45.38,123.3c-1.1,0-1.99-.89-1.99-1.99s.89-1.99,1.99-1.99,1.99.89,1.99,1.99-.89,1.99-1.99,1.99Z"/>
      <path class="cls-1" d="m45.38,112.46c-1.1,0-1.99-.89-1.99-1.99s.89-1.99,1.99-1.99,1.99.89,1.99,1.99-.89,1.99-1.99,1.99Z"/>
      <path class="cls-1" d="m50.8,107.03c-.53,0-1.03-.21-1.4-.58-.38-.38-.58-.87-.58-1.41s.21-1.03.58-1.41c.18-.18.4-.33.63-.43.24-.1.5-.16.77-.16s.53.05.77.16c.74.31,1.21,1.03,1.21,1.83s-.48,1.52-1.21,1.83c-.24.1-.5.16-.77.16Z"/>
      <path class="cls-1" d="m39.95,107.03c-1.09,0-1.99-.89-1.99-1.99,0-.8.48-1.52,1.21-1.83.24-.1.5-.16.77-.16s.53.05.77.16c.74.31,1.21,1.03,1.21,1.83,0,1.1-.89,1.99-1.99,1.99Z"/>
      <path class="cls-1" d="m50.8,128.73c-.53,0-1.03-.21-1.4-.58-.38-.38-.58-.87-.58-1.41s.21-1.03.58-1.41c.38-.38.87-.58,1.4-.58.27,0,.53.05.77.16.74.31,1.21,1.03,1.21,1.83s-.48,1.52-1.21,1.83c-.24.1-.5.16-.77.16Z"/>
      <path class="cls-1" d="m29.11,52.79c-1.09,0-1.99-.89-1.99-1.99s.89-1.99,1.99-1.99c.8,0,1.52.48,1.83,1.21.1.25.16.51.16.77s-.05.53-.16.77c-.31.74-1.03,1.21-1.83,1.21Z"/>
      <path class="cls-1" d="m23.68,58.22c-1.1,0-1.99-.89-1.99-1.99s.89-1.99,1.99-1.99,1.99.89,1.99,1.99-.89,1.99-1.99,1.99Z"/>
      <path class="cls-1" d="m29.11,85.34c-1.09,0-1.99-.89-1.99-1.99,0-.27.05-.53.16-.77.31-.74,1.03-1.21,1.83-1.21s1.52.48,1.83,1.21c.1.25.16.51.16.77s-.05.53-.16.77c-.31.74-1.03,1.21-1.83,1.21Z"/>
      <path class="cls-1" d="m18.26,85.34c-1.09,0-1.99-.89-1.99-1.99,0-.27.05-.53.16-.77.31-.74,1.03-1.21,1.83-1.21s1.52.48,1.83,1.21c.1.24.16.5.16.77,0,1.1-.89,1.99-1.99,1.99Z"/>
      <path class="cls-1" d="m29.11,74.49c-1.09,0-1.99-.89-1.99-1.99s.89-1.99,1.99-1.99c.8,0,1.52.48,1.83,1.21.1.25.16.51.16.77s-.05.53-.16.77c-.31.74-1.03,1.21-1.83,1.21Z"/>
      <path class="cls-1" d="m18.26,74.49c-1.09,0-1.99-.89-1.99-1.99s.89-1.99,1.99-1.99,1.99.89,1.99,1.99-.89,1.99-1.99,1.99Z"/>
      <path class="cls-1" d="m12.84,79.91c-1.1,0-1.99-.89-1.99-1.99s.89-1.99,1.99-1.99,1.99.89,1.99,1.99-.89,1.99-1.99,1.99Z"/>
      <path class="cls-1" d="m23.68,79.91c-1.1,0-1.99-.89-1.99-1.99s.89-1.99,1.99-1.99,1.99.89,1.99,1.99-.89,1.99-1.99,1.99Z"/>
      <path class="cls-1" d="m12.84,69.06c-1.1,0-1.99-.89-1.99-1.99s.89-1.99,1.99-1.99,1.99.89,1.99,1.99-.89,1.99-1.99,1.99Z"/>
      <path class="cls-1" d="m23.68,69.06c-1.1,0-1.99-.89-1.99-1.99s.89-1.99,1.99-1.99,1.99.89,1.99,1.99-.89,1.99-1.99,1.99Z"/>
      <path class="cls-1" d="m29.11,63.64c-1.09,0-1.99-.89-1.99-1.99s.89-1.99,1.99-1.99c.8,0,1.52.48,1.83,1.21.1.25.16.51.16.77s-.05.53-.16.77c-.31.74-1.03,1.21-1.83,1.21Z"/>
      <path class="cls-1" d="m18.26,63.64c-1.09,0-1.99-.89-1.99-1.99s.89-1.99,1.99-1.99,1.99.89,1.99,1.99-.89,1.99-1.99,1.99Z"/>
      <path class="cls-1" d="m18.26,96.19c-1.09,0-1.99-.89-1.99-1.99s.89-1.99,1.99-1.99,1.99.89,1.99,1.99-.89,1.99-1.99,1.99Z"/>
      <path class="cls-1" d="m23.68,101.61c-1.1,0-1.99-.89-1.99-1.99s.89-1.99,1.99-1.99,1.99.89,1.99,1.99-.89,1.99-1.99,1.99Z"/>
      <path class="cls-1" d="m12.84,90.76c-1.1,0-1.99-.89-1.99-1.99s.89-1.99,1.99-1.99,1.99.89,1.99,1.99-.89,1.99-1.99,1.99Z"/>
      <path class="cls-1" d="m23.68,90.76c-1.1,0-1.99-.89-1.99-1.99s.89-1.99,1.99-1.99,1.99.89,1.99,1.99-.89,1.99-1.99,1.99Z"/>
      <path class="cls-1" d="m7.41,85.34c-1.1,0-1.99-.89-1.99-1.99,0-.27.05-.53.16-.77.31-.74,1.03-1.21,1.83-1.21s1.52.48,1.83,1.21c.1.25.16.51.16.77,0,1.1-.89,1.99-1.99,1.99Z"/>
      <path class="cls-1" d="m7.41,74.49c-1.1,0-1.99-.89-1.99-1.99s.89-1.99,1.99-1.99,1.99.89,1.99,1.99-.89,1.99-1.99,1.99Z"/>
      <path class="cls-1" d="m1.99,79.91c-1.1,0-1.99-.89-1.99-1.99s.89-1.99,1.99-1.99,1.99.89,1.99,1.99-.89,1.99-1.99,1.99Z"/>
    </g>
  </g>
</svg>