<?xml version="1.0" encoding="UTF-8"?>
<svg id="_レイヤー_2" data-name="レイヤー 2" xmlns="http://www.w3.org/2000/svg" viewBox="0 0 96.75 23.52">
  <defs>
    <style>
      .cls-1 {
        stroke-width: 0px;
      }
    </style>
  </defs>
  <g id="_レイヤー_1-2" data-name="レイヤー 1">
    <g>
      <path class="cls-1" d="m4.17,19.02c.06,2.46.36,3.24,1.17,3.48.57.15,1.23.18,1.5.18.15,0,.24.06.24.18,0,.18-.18.24-.54.24-1.71,0-2.91-.09-3.18-.09s-1.53.09-2.88.09c-.3,0-.48-.03-.48-.24,0-.12.09-.18.24-.18.24,0,.78-.03,1.23-.18.75-.21.9-1.08.9-3.81l.03-17.19c0-1.17.09-1.5.33-1.5s.75.66,1.05.96c.45.51,4.92,5.34,9.54,10.29,2.97,3.18,6.24,6.84,7.2,7.83l-.33-15.24c-.03-1.95-.24-2.61-1.17-2.85-.54-.12-1.23-.15-1.47-.15-.21,0-.24-.09-.24-.21,0-.18.24-.21.6-.21,1.35,0,2.79.09,3.12.09s1.32-.09,2.55-.09c.33,0,.54.03.54.21,0,.12-.12.21-.33.21-.15,0-.36,0-.72.09-.99.21-1.11.87-1.11,2.67l-.06,17.58c0,1.98-.06,2.13-.27,2.13-.24,0-.6-.33-2.19-1.92-.33-.3-4.65-4.71-7.83-8.13-3.48-3.75-6.87-7.53-7.83-8.61l.39,14.37Z"/>
      <path class="cls-1" d="m33.27,9.12c0-4.68,0-5.52-.06-6.48-.06-1.02-.3-1.5-1.29-1.71-.24-.06-.75-.09-1.02-.09-.12,0-.24-.06-.24-.18,0-.18.15-.24.48-.24.69,0,1.5,0,2.16.03l1.23.06c.21,0,6.18,0,6.87-.03.57-.03,1.05-.09,1.29-.15.15-.03.27-.15.42-.15.09,0,.12.12.12.27,0,.21-.15.57-.24,1.41-.03.3-.09,1.62-.15,1.98-.03.15-.09.33-.21.33-.18,0-.24-.15-.24-.39,0-.21-.03-.72-.18-1.08-.21-.48-.51-.84-2.13-1.02-.51-.06-3.78-.09-4.11-.09-.12,0-.18.09-.18.3v8.28c0,.21.03.3.18.3.39,0,4.08,0,4.77-.06.72-.06,1.14-.12,1.41-.42.21-.24.33-.39.45-.39.09,0,.15.06.15.24s-.15.69-.24,1.68c-.06.6-.12,1.71-.12,1.92,0,.24,0,.57-.21.57-.15,0-.21-.12-.21-.27,0-.3,0-.6-.12-.99-.12-.42-.39-.93-1.56-1.05-.81-.09-3.78-.15-4.29-.15-.15,0-.21.09-.21.21v2.64c0,1.02-.03,4.5,0,5.13.09,2.07.54,2.46,3.48,2.46.78,0,2.1,0,2.88-.33.78-.33,1.14-.93,1.35-2.16.06-.33.12-.45.27-.45.18,0,.18.24.18.45,0,.24-.24,2.28-.39,2.91-.21.78-.45.78-1.62.78-2.25,0-3.9-.06-5.07-.09-1.17-.06-1.89-.09-2.34-.09-.06,0-.57,0-1.2.03-.6,0-1.29.06-1.74.06-.33,0-.48-.06-.48-.24,0-.09.06-.18.24-.18.27,0,.63-.06.9-.12.6-.12.75-.78.87-1.65.15-1.26.15-3.63.15-6.51v-5.28Z"/>
      <path class="cls-1" d="m71.67,18.96h.12c.81-2.76,3.57-11.46,4.62-15.3.3-1.11.33-1.53.33-1.92,0-.54-.33-.9-1.71-.9-.15,0-.27-.09-.27-.21,0-.15.15-.21.51-.21,1.53,0,2.79.09,3.06.09.21,0,1.5-.09,2.43-.09.27,0,.42.06.42.18,0,.15-.09.24-.27.24-.12,0-.69.03-1.02.15-.9.33-1.38,1.59-1.95,3.24-1.32,3.81-4.35,13.35-5.52,16.71-.78,2.22-.93,2.58-1.26,2.58-.3,0-.48-.39-.9-1.56l-5.88-16.71h-.06c-1.08,2.88-5.19,13.89-6.27,16.68-.48,1.26-.63,1.59-.99,1.59-.3,0-.45-.33-1.05-2.37l-5.34-17.79c-.48-1.59-.87-2.04-1.65-2.34-.39-.15-1.14-.18-1.35-.18-.15,0-.27-.03-.27-.21,0-.15.18-.21.48-.21,1.56,0,3.21.09,3.54.09.27,0,1.59-.09,3.09-.09.42,0,.54.09.54.21,0,.18-.15.21-.3.21-.24,0-.81,0-1.17.18-.18.09-.39.33-.39.72s.27,1.44.57,2.76c.45,1.92,3.57,12.93,4.02,14.52h.06l6.36-17.13c.45-1.23.57-1.38.75-1.38.21,0,.39.39.75,1.41l5.97,17.04Z"/>
      <path class="cls-1" d="m85.65,22.71c-.42-.21-.45-.33-.45-1.14,0-1.5.12-2.7.15-3.18.03-.33.09-.48.24-.48.18,0,.21.09.21.33,0,.27,0,.69.09,1.11.45,2.22,2.43,3.06,4.44,3.06,2.88,0,4.29-2.07,4.29-3.99,0-2.07-.87-3.27-3.45-5.4l-1.35-1.11c-3.18-2.61-3.9-4.47-3.9-6.51,0-3.21,2.4-5.4,6.21-5.4,1.17,0,2.04.12,2.79.3.57.12.81.15,1.05.15s.3.06.3.21-.12,1.14-.12,3.18c0,.48-.06.69-.21.69-.18,0-.21-.15-.24-.39-.03-.36-.21-1.17-.39-1.5-.18-.33-.99-1.59-3.75-1.59-2.07,0-3.69,1.29-3.69,3.48,0,1.71.78,2.79,3.66,5.04l.84.66c3.54,2.79,4.38,4.65,4.38,7.05,0,1.23-.48,3.51-2.55,4.98-1.29.9-2.91,1.26-4.53,1.26-1.41,0-2.79-.21-4.02-.81Z"/>
    </g>
  </g>
</svg>