<?xml version="1.0" encoding="UTF-8"?><svg id="_レイヤー_2" xmlns="http://www.w3.org/2000/svg" width="335.82" height="23.52" viewBox="0 0 335.82 23.52"><g id="_レイヤー_1-2"><g><path d="M2.61,9.12c0-4.68,0-5.52-.06-6.48-.06-1.02-.3-1.5-1.29-1.71-.24-.06-.75-.09-1.02-.09-.12,0-.24-.06-.24-.18,0-.18,.15-.24,.48-.24,1.35,0,3.24,.09,3.39,.09,.72,0,1.89-.09,3.27-.09,4.92,0,6,3,6,4.5,0,2.46-1.41,3.93-2.82,5.4,2.22,.69,5.19,2.82,5.19,6.33,0,3.21-2.52,6.54-7.65,6.54-.33,0-1.29-.06-2.16-.09-.87-.06-1.71-.09-1.83-.09-.06,0-.57,0-1.2,.03-.6,0-1.29,.06-1.74,.06-.33,0-.48-.06-.48-.24,0-.09,.06-.18,.24-.18,.27,0,.63-.06,.9-.12,.6-.12,.75-.78,.87-1.65,.15-1.26,.15-3.63,.15-6.51v-5.28Zm2.4,.66c0,.21,.06,.27,.21,.33,.18,.03,.72,.12,1.83,.12,1.68,0,2.1-.06,2.73-.78,.63-.72,1.08-1.8,1.08-3.03,0-2.49-1.11-5.16-4.05-5.16-.33,0-.96,.03-1.44,.15-.27,.06-.36,.15-.36,.33V9.78Zm0,3.18c0,2.31,0,6.03,.03,6.48,.09,1.47,.09,1.89,1.02,2.34,.81,.39,2.1,.45,2.64,.45,1.62,0,4.23-.87,4.23-4.26,0-1.8-.6-4.41-2.91-6-1.02-.69-1.77-.78-2.49-.87-.39-.06-1.89-.06-2.34-.06-.12,0-.18,.06-.18,.21v1.71Z"/><path d="M24.72,9.12c0-4.68,0-5.52-.06-6.48-.06-1.02-.3-1.5-1.29-1.71-.24-.06-.75-.09-1.02-.09-.12,0-.24-.06-.24-.18,0-.18,.15-.24,.48-.24,.69,0,1.5,0,2.16,.03l1.23,.06c.21,0,6.18,0,6.87-.03,.57-.03,1.05-.09,1.29-.15,.15-.03,.27-.15,.42-.15,.09,0,.12,.12,.12,.27,0,.21-.15,.57-.24,1.41-.03,.3-.09,1.62-.15,1.98-.03,.15-.09,.33-.21,.33-.18,0-.24-.15-.24-.39,0-.21-.03-.72-.18-1.08-.21-.48-.51-.84-2.13-1.02-.51-.06-3.78-.09-4.11-.09-.12,0-.18,.09-.18,.3V10.17c0,.21,.03,.3,.18,.3,.39,0,4.08,0,4.77-.06,.72-.06,1.14-.12,1.41-.42,.21-.24,.33-.39,.45-.39,.09,0,.15,.06,.15,.24s-.15,.69-.24,1.68c-.06,.6-.12,1.71-.12,1.92,0,.24,0,.57-.21,.57-.15,0-.21-.12-.21-.27,0-.3,0-.6-.12-.99-.12-.42-.39-.93-1.56-1.05-.81-.09-3.78-.15-4.29-.15-.15,0-.21,.09-.21,.21v2.64c0,1.02-.03,4.5,0,5.13,.09,2.07,.54,2.46,3.48,2.46,.78,0,2.1,0,2.88-.33,.78-.33,1.14-.93,1.35-2.16,.06-.33,.12-.45,.27-.45,.18,0,.18,.24,.18,.45,0,.24-.24,2.28-.39,2.91-.21,.78-.45,.78-1.62,.78-2.25,0-3.9-.06-5.07-.09-1.17-.06-1.89-.09-2.34-.09-.06,0-.57,0-1.2,.03-.6,0-1.29,.06-1.74,.06-.33,0-.48-.06-.48-.24,0-.09,.06-.18,.24-.18,.27,0,.63-.06,.9-.12,.6-.12,.75-.78,.87-1.65,.15-1.26,.15-3.63,.15-6.51v-5.28Z"/><path d="M58.77,15.45c0-2.43-.15-2.76-1.35-3.09-.24-.06-.75-.09-1.02-.09-.12,0-.24-.06-.24-.18,0-.18,.15-.24,.48-.24,1.35,0,3.24,.09,3.39,.09s2.04-.09,2.94-.09c.33,0,.48,.06,.48,.24,0,.12-.12,.18-.24,.18-.21,0-.39,.03-.75,.09-.81,.15-1.05,.66-1.11,1.71-.06,.96-.06,1.86-.06,3.12v3.36c0,1.35-.03,1.41-.39,1.62-1.92,1.02-4.62,1.35-6.36,1.35-2.28,0-6.54-.3-9.87-3.21-1.83-1.59-3.57-4.8-3.57-8.55,0-4.8,2.34-8.19,5.01-9.87,2.7-1.68,5.67-1.89,7.98-1.89,1.89,0,4.02,.39,4.59,.51,.63,.15,1.68,.27,2.43,.3,.3,.03,.36,.15,.36,.27,0,.42-.21,1.26-.21,4.26,0,.48-.06,.63-.27,.63-.15,0-.18-.18-.21-.45-.03-.42-.18-1.26-.63-1.98-.75-1.14-3.18-2.43-7.05-2.43-1.89,0-4.14,.18-6.42,1.98-1.74,1.38-2.97,4.11-2.97,7.62,0,4.23,2.13,7.29,3.18,8.31,2.37,2.31,5.1,3.21,7.86,3.21,1.08,0,2.64-.18,3.42-.63,.39-.21,.6-.54,.6-1.05v-5.1Z"/><path d="M74.4,14.4c0,2.88,0,5.25,.15,6.51,.09,.87,.27,1.53,1.17,1.65,.42,.06,1.08,.12,1.35,.12,.18,0,.24,.09,.24,.18,0,.15-.15,.24-.48,.24-1.65,0-3.54-.09-3.69-.09s-2.04,.09-2.94,.09c-.33,0-.48-.06-.48-.24,0-.09,.06-.18,.24-.18,.27,0,.63-.06,.9-.12,.6-.12,.75-.78,.87-1.65,.15-1.26,.15-3.63,.15-6.51v-5.28c0-4.68,0-5.52-.06-6.48-.06-1.02-.36-1.53-1.02-1.68-.33-.09-.72-.12-.93-.12-.12,0-.24-.06-.24-.18,0-.18,.15-.24,.48-.24,.99,0,2.88,.09,3.03,.09s2.04-.09,2.94-.09c.33,0,.48,.06,.48,.24,0,.12-.12,.18-.24,.18-.21,0-.39,.03-.75,.09-.81,.15-1.05,.66-1.11,1.71-.06,.96-.06,1.8-.06,6.48v5.28Z"/><path d="M87.39,19.02c.06,2.46,.36,3.24,1.17,3.48,.57,.15,1.23,.18,1.5,.18,.15,0,.24,.06,.24,.18,0,.18-.18,.24-.54,.24-1.71,0-2.91-.09-3.18-.09s-1.53,.09-2.88,.09c-.3,0-.48-.03-.48-.24,0-.12,.09-.18,.24-.18,.24,0,.78-.03,1.23-.18,.75-.21,.9-1.08,.9-3.81l.03-17.19c0-1.17,.09-1.5,.33-1.5s.75,.66,1.05,.96c.45,.51,4.92,5.34,9.54,10.29,2.97,3.18,6.24,6.84,7.2,7.83l-.33-15.24c-.03-1.95-.24-2.61-1.17-2.85-.54-.12-1.23-.15-1.47-.15-.21,0-.24-.09-.24-.21,0-.18,.24-.21,.6-.21,1.35,0,2.79,.09,3.12,.09s1.32-.09,2.55-.09c.33,0,.54,.03,.54,.21,0,.12-.12,.21-.33,.21-.15,0-.36,0-.72,.09-.99,.21-1.11,.87-1.11,2.67l-.06,17.58c0,1.98-.06,2.13-.27,2.13-.24,0-.6-.33-2.19-1.92-.33-.3-4.65-4.71-7.83-8.13-3.48-3.75-6.87-7.53-7.83-8.61l.39,14.37Z"/><path d="M117.3,19.02c.06,2.46,.36,3.24,1.17,3.48,.57,.15,1.23,.18,1.5,.18,.15,0,.24,.06,.24,.18,0,.18-.18,.24-.54,.24-1.71,0-2.91-.09-3.18-.09s-1.53,.09-2.88,.09c-.3,0-.48-.03-.48-.24,0-.12,.09-.18,.24-.18,.24,0,.78-.03,1.23-.18,.75-.21,.9-1.08,.9-3.81l.03-17.19c0-1.17,.09-1.5,.33-1.5s.75,.66,1.05,.96c.45,.51,4.92,5.34,9.54,10.29,2.97,3.18,6.24,6.84,7.2,7.83l-.33-15.24c-.03-1.95-.24-2.61-1.17-2.85-.54-.12-1.23-.15-1.47-.15-.21,0-.24-.09-.24-.21,0-.18,.24-.21,.6-.21,1.35,0,2.79,.09,3.12,.09s1.32-.09,2.55-.09c.33,0,.54,.03,.54,.21,0,.12-.12,.21-.33,.21-.15,0-.36,0-.72,.09-.99,.21-1.11,.87-1.11,2.67l-.06,17.58c0,1.98-.06,2.13-.27,2.13-.24,0-.6-.33-2.19-1.92-.33-.3-4.65-4.71-7.83-8.13-3.48-3.75-6.87-7.53-7.83-8.61l.39,14.37Z"/><path d="M146.4,9.12c0-4.68,0-5.52-.06-6.48-.06-1.02-.3-1.5-1.29-1.71-.24-.06-.75-.09-1.02-.09-.12,0-.24-.06-.24-.18,0-.18,.15-.24,.48-.24,.69,0,1.5,0,2.16,.03l1.23,.06c.21,0,6.18,0,6.87-.03,.57-.03,1.05-.09,1.29-.15,.15-.03,.27-.15,.42-.15,.09,0,.12,.12,.12,.27,0,.21-.15,.57-.24,1.41-.03,.3-.09,1.62-.15,1.98-.03,.15-.09,.33-.21,.33-.18,0-.24-.15-.24-.39,0-.21-.03-.72-.18-1.08-.21-.48-.51-.84-2.13-1.02-.51-.06-3.78-.09-4.11-.09-.12,0-.18,.09-.18,.3V10.17c0,.21,.03,.3,.18,.3,.39,0,4.08,0,4.77-.06,.72-.06,1.14-.12,1.41-.42,.21-.24,.33-.39,.45-.39,.09,0,.15,.06,.15,.24s-.15,.69-.24,1.68c-.06,.6-.12,1.71-.12,1.92,0,.24,0,.57-.21,.57-.15,0-.21-.12-.21-.27,0-.3,0-.6-.12-.99-.12-.42-.39-.93-1.56-1.05-.81-.09-3.78-.15-4.29-.15-.15,0-.21,.09-.21,.21v2.64c0,1.02-.03,4.5,0,5.13,.09,2.07,.54,2.46,3.48,2.46,.78,0,2.1,0,2.88-.33,.78-.33,1.14-.93,1.35-2.16,.06-.33,.12-.45,.27-.45,.18,0,.18,.24,.18,.45,0,.24-.24,2.28-.39,2.91-.21,.78-.45,.78-1.62,.78-2.25,0-3.9-.06-5.07-.09-1.17-.06-1.89-.09-2.34-.09-.06,0-.57,0-1.2,.03-.6,0-1.29,.06-1.74,.06-.33,0-.48-.06-.48-.24,0-.09,.06-.18,.24-.18,.27,0,.63-.06,.9-.12,.6-.12,.75-.78,.87-1.65,.15-1.26,.15-3.63,.15-6.51v-5.28Z"/><path d="M166.2,9.12c0-4.68,0-5.52-.06-6.48-.06-1.02-.3-1.5-1.29-1.71-.24-.06-.75-.09-1.02-.09-.12,0-.24-.06-.24-.18,0-.18,.15-.24,.48-.24,1.35,0,3.24,.09,3.39,.09,.33,0,2.61-.09,3.54-.09,1.89,0,3.9,.18,5.49,1.32,.75,.54,2.07,2.01,2.07,4.08,0,2.22-.93,4.44-3.63,6.93,2.46,3.15,4.5,5.82,6.24,7.68,1.62,1.71,2.91,2.04,3.66,2.16,.57,.09,.99,.09,1.17,.09,.15,0,.27,.09,.27,.18,0,.18-.18,.24-.72,.24h-2.13c-1.68,0-2.43-.15-3.21-.57-1.29-.69-2.34-2.16-4.05-4.41-1.26-1.65-2.67-3.66-3.27-4.44-.12-.12-.21-.18-.39-.18l-3.69-.06c-.15,0-.21,.09-.21,.24v.72c0,2.88,0,5.25,.15,6.51,.09,.87,.27,1.53,1.17,1.65,.42,.06,1.08,.12,1.35,.12,.18,0,.24,.09,.24,.18,0,.15-.15,.24-.48,.24-1.65,0-3.54-.09-3.69-.09-.03,0-1.92,.09-2.82,.09-.33,0-.48-.06-.48-.24,0-.09,.06-.18,.24-.18,.27,0,.63-.06,.9-.12,.6-.12,.75-.78,.87-1.65,.15-1.26,.15-3.63,.15-6.51v-5.28Zm2.4,2.61c0,.15,.06,.27,.21,.36,.45,.27,1.83,.48,3.15,.48,.72,0,1.56-.09,2.25-.57,1.05-.72,1.83-2.34,1.83-4.62,0-3.75-1.98-6-5.19-6-.9,0-1.71,.09-2.01,.18-.15,.06-.24,.18-.24,.36V11.73Z"/><path d="M189.24,.78c0,.48-.66,1.98-.93,5.28-.09,1.2-.18,1.35-.33,1.35s-.24-.15-.33-1.35c-.27-3.3-.93-4.8-.93-5.28,0-.42,.51-.42,1.26-.42s1.26,0,1.26,.42Z"/><path d="M195.9,22.71c-.42-.21-.45-.33-.45-1.14,0-1.5,.12-2.7,.15-3.18,.03-.33,.09-.48,.24-.48,.18,0,.21,.09,.21,.33,0,.27,0,.69,.09,1.11,.45,2.22,2.43,3.06,4.44,3.06,2.88,0,4.29-2.07,4.29-3.99,0-2.07-.87-3.27-3.45-5.4l-1.35-1.11c-3.18-2.61-3.9-4.47-3.9-6.51,0-3.21,2.4-5.4,6.21-5.4,1.17,0,2.04,.12,2.79,.3,.57,.12,.81,.15,1.05,.15s.3,.06,.3,.21-.12,1.14-.12,3.18c0,.48-.06,.69-.21,.69-.18,0-.21-.15-.24-.39-.03-.36-.21-1.17-.39-1.5-.18-.33-.99-1.59-3.75-1.59-2.07,0-3.69,1.29-3.69,3.48,0,1.71,.78,2.79,3.66,5.04l.84,.66c3.54,2.79,4.38,4.65,4.38,7.05,0,1.23-.48,3.51-2.55,4.98-1.29,.9-2.91,1.26-4.53,1.26-1.41,0-2.79-.21-4.02-.81Z"/><path d="M241.92,15.45c0-2.43-.15-2.76-1.35-3.09-.24-.06-.75-.09-1.02-.09-.12,0-.24-.06-.24-.18,0-.18,.15-.24,.48-.24,1.35,0,3.24,.09,3.39,.09s2.04-.09,2.94-.09c.33,0,.48,.06,.48,.24,0,.12-.12,.18-.24,.18-.21,0-.39,.03-.75,.09-.81,.15-1.05,.66-1.11,1.71-.06,.96-.06,1.86-.06,3.12v3.36c0,1.35-.03,1.41-.39,1.62-1.92,1.02-4.62,1.35-6.36,1.35-2.28,0-6.54-.3-9.87-3.21-1.83-1.59-3.57-4.8-3.57-8.55,0-4.8,2.34-8.19,5.01-9.87,2.7-1.68,5.67-1.89,7.98-1.89,1.89,0,4.02,.39,4.59,.51,.63,.15,1.68,.27,2.43,.3,.3,.03,.36,.15,.36,.27,0,.42-.21,1.26-.21,4.26,0,.48-.06,.63-.27,.63-.15,0-.18-.18-.21-.45-.03-.42-.18-1.26-.63-1.98-.75-1.14-3.18-2.43-7.05-2.43-1.89,0-4.14,.18-6.42,1.98-1.74,1.38-2.97,4.11-2.97,7.62,0,4.23,2.13,7.29,3.18,8.31,2.37,2.31,5.1,3.21,7.86,3.21,1.08,0,2.64-.18,3.42-.63,.39-.21,.6-.54,.6-1.05v-5.1Z"/><path d="M253.29,9.12c0-4.68,0-5.52-.06-6.48-.06-1.02-.3-1.5-1.29-1.71-.24-.06-.75-.09-1.02-.09-.12,0-.24-.06-.24-.18,0-.18,.15-.24,.48-.24,1.35,0,3.18,.09,3.45,.09s2.07-.09,2.97-.09c.33,0,.48,.06,.48,.24,0,.12-.12,.18-.24,.18-.21,0-.39,.03-.75,.09-.81,.12-1.05,.66-1.11,1.71-.06,.96-.06,1.8-.06,6.48v4.2c0,4.32,.96,6.18,2.25,7.41,1.47,1.38,2.82,1.65,4.53,1.65,1.83,0,3.63-.87,4.71-2.16,1.38-1.71,1.74-4.26,1.74-7.35v-3.75c0-4.68,0-5.52-.06-6.48-.06-1.02-.3-1.5-1.29-1.71-.24-.06-.75-.09-1.02-.09-.12,0-.24-.06-.24-.18,0-.18,.15-.24,.48-.24,1.35,0,3,.09,3.18,.09,.21,0,1.62-.09,2.52-.09,.33,0,.48,.06,.48,.24,0,.12-.12,.18-.24,.18-.21,0-.39,.03-.75,.09-.81,.18-1.05,.66-1.11,1.71-.06,.96-.06,1.8-.06,6.48v3.21c0,3.24-.36,6.84-2.76,8.97-2.16,1.92-4.41,2.22-6.18,2.22-1.02,0-4.05-.12-6.18-2.13-1.47-1.41-2.61-3.51-2.61-7.89v-4.38Z"/><path d="M283.95,14.4c0,2.88,0,5.25,.15,6.51,.09,.87,.27,1.53,1.17,1.65,.42,.06,1.08,.12,1.35,.12,.18,0,.24,.09,.24,.18,0,.15-.15,.24-.48,.24-1.65,0-3.54-.09-3.69-.09s-2.04,.09-2.94,.09c-.33,0-.48-.06-.48-.24,0-.09,.06-.18,.24-.18,.27,0,.63-.06,.9-.12,.6-.12,.75-.78,.87-1.65,.15-1.26,.15-3.63,.15-6.51v-5.28c0-4.68,0-5.52-.06-6.48-.06-1.02-.36-1.53-1.02-1.68-.33-.09-.72-.12-.93-.12-.12,0-.24-.06-.24-.18,0-.18,.15-.24,.48-.24,.99,0,2.88,.09,3.03,.09s2.04-.09,2.94-.09c.33,0,.48,.06,.48,.24,0,.12-.12,.18-.24,.18-.21,0-.39,.03-.75,.09-.81,.15-1.05,.66-1.11,1.71-.06,.96-.06,1.8-.06,6.48v5.28Z"/><path d="M296.13,9.12c0-4.68,0-5.52-.06-6.48-.06-1.02-.3-1.5-1.29-1.71-.24-.06-.75-.09-1.02-.09-.12,0-.24-.06-.24-.18,0-.18,.15-.24,.48-.24,1.35,0,3.24,.09,3.39,.09,.36,0,2.25-.09,4.05-.09,2.97,0,8.46-.27,12.03,3.42,1.5,1.56,2.91,4.05,2.91,7.62,0,3.78-1.56,6.69-3.24,8.46-1.29,1.35-3.99,3.45-9.09,3.45-1.29,0-2.88-.09-4.17-.18-1.32-.09-2.34-.18-2.49-.18-.06,0-.57,0-1.2,.03-.6,0-1.29,.06-1.74,.06-.33,0-.48-.06-.48-.24,0-.09,.06-.18,.24-.18,.27,0,.63-.06,.9-.12,.6-.12,.75-.78,.87-1.65,.15-1.26,.15-3.63,.15-6.51v-5.28Zm2.52,3.24c0,3.18,.03,5.94,.06,6.51,.03,.75,.09,1.95,.33,2.28,.39,.57,1.56,1.2,5.1,1.2,2.79,0,5.37-1.02,7.14-2.79,1.56-1.53,2.4-4.41,2.4-7.17,0-3.81-1.65-6.27-2.88-7.56-2.82-2.97-6.24-3.39-9.81-3.39-.6,0-1.71,.09-1.95,.21-.27,.12-.36,.27-.36,.6-.03,1.02-.03,4.08-.03,6.39v3.72Z"/><path d="M325.14,9.12c0-4.68,0-5.52-.06-6.48-.06-1.02-.3-1.5-1.29-1.71-.24-.06-.75-.09-1.02-.09-.12,0-.24-.06-.24-.18,0-.18,.15-.24,.48-.24,.69,0,1.5,0,2.16,.03l1.23,.06c.21,0,6.18,0,6.87-.03,.57-.03,1.05-.09,1.29-.15,.15-.03,.27-.15,.42-.15,.09,0,.12,.12,.12,.27,0,.21-.15,.57-.24,1.41-.03,.3-.09,1.62-.15,1.98-.03,.15-.09,.33-.21,.33-.18,0-.24-.15-.24-.39,0-.21-.03-.72-.18-1.08-.21-.48-.51-.84-2.13-1.02-.51-.06-3.78-.09-4.11-.09-.12,0-.18,.09-.18,.3V10.17c0,.21,.03,.3,.18,.3,.39,0,4.08,0,4.77-.06,.72-.06,1.14-.12,1.41-.42,.21-.24,.33-.39,.45-.39,.09,0,.15,.06,.15,.24s-.15,.69-.24,1.68c-.06,.6-.12,1.71-.12,1.92,0,.24,0,.57-.21,.57-.15,0-.21-.12-.21-.27,0-.3,0-.6-.12-.99-.12-.42-.39-.93-1.56-1.05-.81-.09-3.78-.15-4.29-.15-.15,0-.21,.09-.21,.21v2.64c0,1.02-.03,4.5,0,5.13,.09,2.07,.54,2.46,3.48,2.46,.78,0,2.1,0,2.88-.33,.78-.33,1.14-.93,1.35-2.16,.06-.33,.12-.45,.27-.45,.18,0,.18,.24,.18,.45,0,.24-.24,2.28-.39,2.91-.21,.78-.45,.78-1.62,.78-2.25,0-3.9-.06-5.07-.09-1.17-.06-1.89-.09-2.34-.09-.06,0-.57,0-1.2,.03-.6,0-1.29,.06-1.74,.06-.33,0-.48-.06-.48-.24,0-.09,.06-.18,.24-.18,.27,0,.63-.06,.9-.12,.6-.12,.75-.78,.87-1.65,.15-1.26,.15-3.63,.15-6.51v-5.28Z"/></g></g></svg>